<svg width="20" height="20" viewBox="0 0 20 20" fill="none" xmlns="http://www.w3.org/2000/svg">
<path d="M10 0C4.4861 0 0 4.48579 0 10C0 15.5142 4.48579 20 10 20C15.5142 20 20 15.5142 20 10C20 4.48579 15.5139 0 10 0ZM1.83156 10C1.83156 5.49589 5.49589 1.83156 10 1.83156C12.0294 1.83156 13.8872 2.57731 15.3173 3.8072L3.8072 15.3173C2.57731 13.8872 1.83156 12.0294 1.83156 10ZM10 18.1684C8.18432 18.1684 6.50569 17.5723 5.1479 16.5664L16.5661 5.1482C17.572 6.506 18.1681 8.18462 18.1681 10.0003C18.1684 14.5041 14.5041 18.1684 10 18.1684Z" fill="#EC615B"/>
</svg>
