<svg width="23" height="20" viewBox="0 0 23 20" fill="none" xmlns="http://www.w3.org/2000/svg">
<path d="M11.24 20C10.92 20 10.6114 19.8841 10.371 19.6734C9.46283 18.8794 8.58728 18.1331 7.8148 17.4749L7.81086 17.4714C5.54608 15.5415 3.59037 13.8747 2.22962 12.2329C0.708503 10.3974 0 8.65708 0 6.75591C0 4.90876 0.633382 3.20464 1.78335 1.95726C2.94704 0.695126 4.54379 0 6.27997 0C7.57761 0 8.76599 0.410249 9.81203 1.21926C10.3399 1.62762 10.8184 2.1274 11.24 2.71036C11.6617 2.1274 12.1401 1.62762 12.6682 1.21926C13.7142 0.410249 14.9026 0 16.2002 0C17.9362 0 19.5332 0.695126 20.6968 1.95726C21.8468 3.20464 22.48 4.90876 22.48 6.75591C22.48 8.65708 21.7717 10.3974 20.2506 12.2327C18.8898 13.8747 16.9343 15.5413 14.6698 17.4711C13.896 18.1304 13.0191 18.8778 12.1089 19.6738C11.8686 19.8841 11.5599 20 11.24 20ZM6.27997 1.31685C4.91596 1.31685 3.66292 1.86121 2.75135 2.84979C1.82623 3.85329 1.31667 5.24046 1.31667 6.75591C1.31667 8.35489 1.91095 9.78493 3.24341 11.3927C4.53127 12.9467 6.44685 14.5791 8.6648 16.4693L8.66892 16.4727C9.44431 17.1336 10.3233 17.8827 11.2381 18.6826C12.1584 17.8812 13.0388 17.1308 13.8157 16.469C16.0335 14.5788 17.9489 12.9467 19.2368 11.3927C20.5691 9.78493 21.1633 8.35489 21.1633 6.75591C21.1633 5.24046 20.6538 3.85329 19.7287 2.84979C18.8173 1.86121 17.5641 1.31685 16.2002 1.31685C15.201 1.31685 14.2836 1.63448 13.4736 2.26083C12.7517 2.81926 12.2488 3.52519 11.954 4.01914C11.8024 4.27315 11.5355 4.42476 11.24 4.42476C10.9445 4.42476 10.6776 4.27315 10.526 4.01914C10.2314 3.52519 9.7285 2.81926 9.00645 2.26083C8.19641 1.63448 7.27901 1.31685 6.27997 1.31685Z" fill="#EC615B"/>
</svg>
