<svg width="47" height="48" viewBox="0 0 47 48" fill="none" xmlns="http://www.w3.org/2000/svg">
<path d="M28.3393 38.2089C24.0186 38.2089 20.2567 36.7247 16.9045 34.1749V35.6591C16.9045 36.23 16.6437 36.8008 16.234 37.2194L7.22024 46.353C6.36356 47.2283 4.98542 47.2283 4.16599 46.353L1.6332 43.7652C0.776516 42.9279 0.776516 41.4818 1.6332 40.5684L10.5725 31.3968C10.9822 30.9781 11.5409 30.7117 12.0996 30.7117H13.5522C11.0567 27.6672 9.60405 23.481 9.60405 19.0283C9.60405 8.48664 17.9846 0 28.302 0C38.6194 0 47 8.56275 47 19.1045C47 29.6462 38.6567 38.2089 28.3393 38.2089ZM28.302 7.34494C21.97 7.34494 16.7927 12.5968 16.7927 19.1045C16.7927 25.6121 21.9328 30.864 28.302 30.864C34.6713 30.864 39.8113 25.6121 39.8113 19.1045C39.8113 12.5968 34.6713 7.34494 28.302 7.34494Z" fill="#12242C"/>
</svg>
