<svg width="978" height="978" viewBox="0 0 978 978" fill="none" xmlns="http://www.w3.org/2000/svg">
<rect x="77" y="77" width="839" height="789" fill="#12252C"/>
<path fill-rule="evenodd" clip-rule="evenodd" d="M0 0H977.694V977.694H0V0ZM578.134 607.689C539.547 638.211 496.243 655.977 446.507 655.977C327.743 655.977 231.702 553.478 231.702 427.291C231.702 301.104 328.171 198.605 446.936 198.605C565.701 198.605 662.17 300.193 662.17 426.38C662.17 479.679 645.449 529.79 616.722 566.234H633.444C639.875 566.234 646.306 569.423 651.022 574.434L753.923 684.221C763.784 695.154 763.784 712.465 753.923 722.487L724.768 753.465C715.335 763.943 699.472 763.943 689.61 753.465L585.852 644.133C581.136 639.122 578.134 632.289 578.134 625.455V607.689ZM579.421 427.291C579.421 349.392 519.824 286.526 446.936 286.526C373.619 286.526 314.451 349.392 314.451 427.291C314.451 505.19 373.619 568.056 446.936 568.056C520.253 568.056 579.421 505.19 579.421 427.291Z" fill="#F6C828"/>
</svg>
