<svg width="300" height="300" viewBox="0 0 300 300" fill="none" xmlns="http://www.w3.org/2000/svg">
<g id="icon" clip-path="url(#clip0)">
<path id="bg" d="M438.943 -7.27539H-101.854V305.563H438.943V-7.27539Z" fill="url(#paint0_linear)"/>
<g id="b7" opacity="0.87" filter="url(#filter0_dd)">
<path d="M184.72 173.699L182.293 173.615L183.83 171.734C192.37 161.286 197.509 149.458 197.987 135.697C199.137 102.81 172.765 75.2145 139.095 74.0386C105.425 72.8629 77.1858 98.67 76.0366 131.56C74.8896 164.456 101.018 192.155 134.681 193.331C148.919 193.828 162.43 189.647 172.381 182.055L174.404 180.512L174.316 183.054L174.149 187.782C174.099 189.226 174.745 190.771 175.874 191.956C175.874 191.957 175.874 191.957 175.874 191.957L204.698 222.083C207.145 224.537 211.097 224.621 213.409 222.416L213.418 222.407L213.429 222.398L222.138 214.449L222.149 214.44L222.158 214.431C224.565 212.331 224.721 208.638 222.425 206.229V206.227L222.422 206.225L193.725 175.855C193.725 175.855 193.725 175.855 193.725 175.854C192.596 174.67 191.053 173.92 189.552 173.868L184.72 173.699ZM135.661 172.35C113.838 171.588 96.7911 153.605 97.5362 132.31C98.2836 110.892 116.541 94.2657 138.361 95.0277C160.181 95.7896 177.235 113.649 176.486 135.068C175.738 156.485 157.481 173.112 135.661 172.35Z" stroke="url(#paint1_linear)" stroke-width="7"/>
</g>
</g>
<defs>
<filter id="filter0_dd" x="58.5" y="56.5" width="183.058" height="185.001" filterUnits="userSpaceOnUse" color-interpolation-filters="sRGB">
<feFlood flood-opacity="0" result="BackgroundImageFix"/>
<feColorMatrix in="SourceAlpha" type="matrix" values="0 0 0 0 0 0 0 0 0 0 0 0 0 0 0 0 0 0 127 0"/>
<feOffset dx="-7" dy="-7"/>
<feGaussianBlur stdDeviation="3.5"/>
<feColorMatrix type="matrix" values="0 0 0 0 0.945833 0 0 0 0 0.691308 0 0 0 0 0.126111 0 0 0 1 0"/>
<feBlend mode="normal" in2="BackgroundImageFix" result="effect1_dropShadow"/>
<feColorMatrix in="SourceAlpha" type="matrix" values="0 0 0 0 0 0 0 0 0 0 0 0 0 0 0 0 0 0 127 0"/>
<feOffset dx="7" dy="7"/>
<feGaussianBlur stdDeviation="3.5"/>
<feColorMatrix type="matrix" values="0 0 0 0 0.775 0 0 0 0 0.36565 0 0 0 0 0.0613542 0 0 0 1 0"/>
<feBlend mode="normal" in2="effect1_dropShadow" result="effect2_dropShadow"/>
<feBlend mode="normal" in="SourceGraphic" in2="effect2_dropShadow" result="shape"/>
</filter>
<linearGradient id="paint0_linear" x1="-90.0245" y1="13.0011" x2="433.036" y2="285.261" gradientUnits="userSpaceOnUse">
<stop stop-color="#EBB10C"/>
<stop offset="1" stop-color="#F37335"/>
</linearGradient>
<linearGradient id="paint1_linear" x1="74.3454" y1="145.534" x2="227.34" y2="150.877" gradientUnits="userSpaceOnUse">
<stop stop-color="#FDBB1B"/>
<stop offset="1" stop-color="#CC5E17"/>
</linearGradient>
<clipPath id="clip0">
<rect width="300" height="300" fill="white"/>
</clipPath>
</defs>
</svg>
