<svg width="300" height="300" viewBox="0 0 300 300" fill="none" xmlns="http://www.w3.org/2000/svg">
<g clip-path="url(#clip0)">
<path d="M438.943 -7.27539H-101.854V305.563H438.943V-7.27539Z" fill="url(#paint0_linear)"/>
<g filter="url(#filter0_dd)">
<g opacity="0.87">
<path opacity="0.87" d="M72.8474 54.3235L74.2674 54.2739L73.3679 53.1736C68.3722 47.0613 65.3658 40.1416 65.0857 32.0913C64.4134 12.8518 79.8417 -3.29244 99.5392 -3.98033C119.237 -4.66816 135.757 10.4296 136.43 29.6708C137.101 48.9156 121.815 65.1205 102.122 65.8082C93.7919 66.099 85.8875 63.653 80.0662 59.2116L78.8827 58.3089L78.9342 59.7963L79.032 62.5622C79.061 63.407 78.6832 64.3107 78.0228 65.0043C78.0228 65.0044 78.0228 65.0045 78.0228 65.0048L61.16 82.6287C59.7281 84.0647 57.4165 84.1136 56.0639 82.8238L56.0586 82.8184L56.052 82.8131L50.9572 78.1627L50.9506 78.1574L50.9453 78.1523C49.5372 76.924 49.4461 74.7636 50.7894 73.3538V73.3527L50.7908 73.3517L67.5796 55.5843C67.5796 55.5843 67.5796 55.5843 67.5796 55.5842C68.2401 54.8911 69.1423 54.4528 70.0207 54.4221L72.8474 54.3235ZM101.548 53.5342C114.315 53.0884 124.288 42.5676 123.852 30.11C123.415 17.5799 112.734 7.85297 99.9685 8.29874C87.2031 8.74449 77.2263 19.1929 77.6648 31.723C78.102 44.2529 88.783 53.9799 101.548 53.5342Z" stroke="url(#paint1_linear)" stroke-width="1.21494"/>
</g>
<g opacity="0.78">
<path opacity="0.78" d="M243.323 65.5898L242.699 64.3126L242.06 65.5816C238.898 71.8563 234.362 76.8028 227.921 79.9438C212.528 87.4514 193.823 80.7557 186.134 64.9914C178.446 49.2286 184.74 30.3373 200.135 22.8289C215.533 15.3189 234.236 21.878 241.923 37.6373C245.175 44.3052 246.047 51.6145 244.543 57.9501L244.2 59.3982L245.538 58.7458L247.756 57.6637C248.412 57.3437 249.264 57.3218 250.053 57.6026C250.053 57.6027 250.053 57.6027 250.053 57.6028L270.53 64.9485C272.182 65.5813 273.037 67.4058 272.491 68.933L272.489 68.9403L272.486 68.9478L270.546 74.7866L270.544 74.794L270.542 74.8014C270.065 76.3509 268.383 77.1893 266.786 76.6202L266.785 76.6197L266.784 76.6193L246.217 69.3853C246.217 69.385 246.216 69.3849 246.216 69.3846C245.428 69.1034 244.761 68.5404 244.427 67.8565L243.323 65.5898ZM232.267 42.4906C227.255 32.2138 215.02 27.8871 204.989 32.7799C194.899 37.701 190.835 49.9788 195.846 60.2543C200.858 70.5299 213.036 74.8861 223.125 69.965C233.215 65.044 237.278 52.7662 232.267 42.4906Z" stroke="url(#paint2_linear)" stroke-width="1.21494"/>
</g>
<g opacity="0.8">
<path opacity="0.8" d="M158.611 264.807L159.442 265.959L159.855 264.599C161.066 260.617 163.209 257.283 166.637 254.807C174.834 248.887 186.403 250.891 192.475 259.301C198.547 267.709 196.783 279.342 188.582 285.264C180.381 291.187 168.828 289.261 162.758 280.856C160.188 277.296 158.946 273.127 159.181 269.3L159.273 267.814L158.065 268.686L156.865 269.553C156.581 269.758 156.159 269.849 155.727 269.775C155.727 269.775 155.727 269.775 155.726 269.775L142.875 267.532C141.973 267.353 141.394 266.499 141.533 265.702L141.534 265.694L141.535 265.686L142.084 262.037L142.085 262.029L142.086 262.021C142.188 261.222 142.941 260.658 143.791 260.804H143.793H143.794L156.692 262.972C156.692 262.973 156.692 262.973 156.692 262.973C157.123 263.047 157.507 263.277 157.724 263.58L158.611 264.807ZM167.511 277.328C171.615 283.01 179.465 284.35 185.024 280.337C190.615 276.299 191.78 268.447 187.676 262.766C183.573 257.085 175.755 255.72 170.164 259.758C164.573 263.795 163.408 271.646 167.511 277.328Z" stroke="url(#paint3_linear)" stroke-width="1.21494"/>
</g>
<g opacity="0.91">
<path opacity="0.91" d="M156.022 164.737L154.623 164.984L155.667 165.948C161.357 171.208 165.225 177.523 166.597 185.31C169.879 203.92 157.088 221.721 138.033 225.081C118.98 228.44 100.858 216.021 97.5769 197.409C94.2944 178.795 106.94 160.953 125.988 157.594C134.047 156.174 142.064 157.473 148.329 160.994L149.628 161.724L149.369 160.257L148.897 157.581C148.753 156.767 148.995 155.84 149.542 155.078L163.526 135.641C163.528 135.638 163.529 135.637 163.53 135.635C164.723 134.048 166.957 133.687 168.441 134.752L168.448 134.757L168.455 134.761L174.045 138.586L174.051 138.592L174.058 138.596C175.589 139.593 175.972 141.673 174.862 143.221V143.223L174.861 143.224L160.964 162.796C160.962 162.796 160.962 162.796 160.962 162.797C160.417 163.558 159.603 164.105 158.756 164.254L156.022 164.737ZM128.219 169.427C115.86 171.607 107.595 183.207 109.721 195.268C111.861 207.401 123.583 215.403 135.943 213.225C148.301 211.045 156.58 199.515 154.441 187.384C152.301 175.251 140.579 167.248 128.219 169.427Z" stroke="url(#paint4_linear)" stroke-width="1.21494"/>
</g>
<g opacity="0.71">
<path opacity="0.71" d="M244.447 212.49L245.826 212.146L244.717 211.257C238.73 206.453 234.471 200.479 232.575 192.878C228.047 174.714 239.457 156.239 258.056 151.602C276.653 146.966 295.419 157.986 299.949 176.151C304.478 194.321 293.215 212.825 274.622 217.462C266.757 219.422 258.744 218.693 252.31 215.645L250.964 215.009L251.325 216.453L251.976 219.065C252.174 219.858 251.998 220.789 251.512 221.579V221.58L239.029 241.764C237.961 243.412 235.783 243.922 234.245 242.974L234.239 242.97L234.232 242.966L228.441 239.571L228.434 239.567L228.428 239.563C226.849 238.685 226.328 236.66 227.316 235.055V235.054L227.317 235.052L239.701 214.747C239.701 214.746 239.702 214.746 239.702 214.745C240.188 213.956 240.953 213.362 241.777 213.156L244.447 212.49ZM271.602 205.933C283.672 202.924 291.042 190.884 288.104 179.105C285.151 167.258 273.007 160.155 260.938 163.164C248.87 166.173 241.482 178.146 244.436 189.992C247.39 201.839 259.534 208.942 271.602 205.933Z" stroke="url(#paint5_linear)" stroke-width="1.21494"/>
</g>
<g opacity="0.91">
<path opacity="0.91" d="M31.4086 254.002L30.0304 254.346L31.1391 255.235C35.2657 258.546 38.1928 262.657 39.4952 267.883C42.6113 280.376 34.7637 293.092 21.958 296.285C9.15473 299.478 -3.75736 291.889 -6.87287 279.393C-9.98918 266.895 -2.24161 254.158 10.5581 250.967C15.9766 249.617 21.4893 250.12 25.9086 252.214L27.2537 252.851L26.8936 251.407L26.4413 249.592C26.3203 249.107 26.4251 248.519 26.7373 248.012C26.7374 248.012 26.7376 248.011 26.7377 248.011L35.4044 233.997C36.0873 232.944 37.4716 232.633 38.4332 233.224L38.4398 233.228L38.4464 233.232L42.4673 235.59L42.4739 235.594L42.4805 235.598C43.4659 236.146 43.7988 237.414 43.1753 238.427L43.174 238.429L43.1727 238.43L34.5735 252.531C34.2605 253.038 33.773 253.412 33.2632 253.54L31.4086 254.002ZM12.5509 258.556C4.05758 260.673 -1.13508 269.148 0.934005 277.447C3.01511 285.794 11.5683 290.791 20.0602 288.674C28.5521 286.556 33.7585 278.129 31.6767 269.782C29.596 261.435 21.0428 256.438 12.5509 258.556Z" stroke="url(#paint6_linear)" stroke-width="1.21494"/>
</g>
</g>
<g opacity="0.8">
<path opacity="0.8" d="M57.0862 128.922L55.6848 129.154L56.719 130.129C60.8179 133.992 63.5785 138.602 64.5204 144.258C66.7712 157.783 57.3676 170.615 43.5086 172.923C29.6521 175.229 16.5883 166.086 14.3361 152.56C12.084 139.029 21.3832 126.168 35.237 123.861C41.1005 122.885 46.9086 123.887 51.4248 126.481L52.7153 127.223L52.471 125.754L52.1434 123.794C52.0549 123.256 52.22 122.632 52.5991 122.111L62.963 107.993C63.7899 106.918 65.3089 106.697 66.2983 107.421L66.3049 107.427L66.3115 107.431L70.372 110.268L70.3786 110.272L70.3852 110.276C71.4037 110.955 71.6546 112.355 70.8925 113.396V113.397L70.8911 113.398L60.592 127.613C60.5906 127.613 60.5906 127.613 60.5906 127.613C60.2115 128.132 59.6541 128.494 59.0901 128.588L57.0862 128.922ZM36.723 132.157C27.569 133.68 21.3713 142.2 22.8587 151.141C24.3566 160.134 32.9729 166.135 42.1255 164.61C51.2768 163.087 57.4865 154.62 55.9886 145.626C54.492 136.633 45.8756 130.632 36.723 132.157Z" stroke="url(#paint7_linear)" stroke-width="1.21494"/>
</g>
<g filter="url(#filter1_d)">
<path d="M95.7265 129.02H106.108V176H95.7265V129.02ZM126.57 176.696C121.466 176.696 117.831 175.362 115.666 172.694C113.539 169.987 112.476 166.101 112.476 161.036V144.1C112.476 138.919 113.539 135.013 115.666 132.384C117.792 129.716 121.427 128.382 126.57 128.382C131.48 128.382 134.96 129.561 137.01 131.92C139.059 134.279 140.084 137.623 140.084 141.954V146.014H129.934V141.316C129.934 139.499 129.74 138.107 129.354 137.14C128.967 136.173 128.039 135.69 126.57 135.69C125.1 135.69 124.134 136.212 123.67 137.256C123.206 138.261 122.974 139.673 122.974 141.49V163.588C122.974 165.444 123.206 166.875 123.67 167.88C124.172 168.847 125.139 169.33 126.57 169.33C128 169.33 128.909 168.847 129.296 167.88C129.721 166.875 129.934 165.444 129.934 163.588V158.658H140.084V162.718C140.084 167.126 139.059 170.567 137.01 173.042C134.96 175.478 131.48 176.696 126.57 176.696ZM159.251 176.696C154.186 176.696 150.571 175.401 148.405 172.81C146.24 170.181 145.157 166.314 145.157 161.21V143.752C145.157 138.648 146.24 134.82 148.405 132.268C150.571 129.677 154.186 128.382 159.251 128.382C164.355 128.382 167.99 129.677 170.155 132.268C172.359 134.859 173.461 138.687 173.461 143.752V161.21C173.461 166.314 172.359 170.181 170.155 172.81C167.99 175.401 164.355 176.696 159.251 176.696ZM159.251 169.33C160.721 169.33 161.687 168.847 162.151 167.88C162.615 166.875 162.847 165.521 162.847 163.82V141.2C162.847 139.46 162.615 138.107 162.151 137.14C161.687 136.173 160.721 135.69 159.251 135.69C157.859 135.69 156.931 136.193 156.467 137.198C156.003 138.165 155.771 139.499 155.771 141.2V163.82C155.771 165.521 155.984 166.875 156.409 167.88C156.835 168.847 157.782 169.33 159.251 169.33ZM179.78 129.02H187.088L196.716 151.64V129.02H205.3V176H198.282L188.654 151.64V176H179.78V129.02Z" fill="#FFF9E2"/>
</g>
</g>
<defs>
<filter id="filter0_dd" x="-98.6866" y="-4.61035" width="515.153" height="304.51" filterUnits="userSpaceOnUse" color-interpolation-filters="sRGB">
<feFlood flood-opacity="0" result="BackgroundImageFix"/>
<feColorMatrix in="SourceAlpha" type="matrix" values="0 0 0 0 0 0 0 0 0 0 0 0 0 0 0 0 0 0 127 0"/>
<feOffset dy="0.455603"/>
<feGaussianBlur stdDeviation="0.227801"/>
<feColorMatrix type="matrix" values="0 0 0 0 1 0 0 0 0 0.869943 0 0 0 0 0.545833 0 0 0 1 0"/>
<feBlend mode="normal" in2="BackgroundImageFix" result="effect1_dropShadow"/>
<feColorMatrix in="SourceAlpha" type="matrix" values="0 0 0 0 0 0 0 0 0 0 0 0 0 0 0 0 0 0 127 0"/>
<feOffset dx="1.13901" dy="1.13901"/>
<feGaussianBlur stdDeviation="0.569503"/>
<feColorMatrix type="matrix" values="0 0 0 0 0.808333 0 0 0 0 0.372486 0 0 0 0 0.127986 0 0 0 1 0"/>
<feBlend mode="normal" in2="effect1_dropShadow" result="effect2_dropShadow"/>
<feBlend mode="normal" in="SourceGraphic" in2="effect2_dropShadow" result="shape"/>
</filter>
<filter id="filter1_d" x="91.7266" y="128.382" width="117.573" height="56.314" filterUnits="userSpaceOnUse" color-interpolation-filters="sRGB">
<feFlood flood-opacity="0" result="BackgroundImageFix"/>
<feColorMatrix in="SourceAlpha" type="matrix" values="0 0 0 0 0 0 0 0 0 0 0 0 0 0 0 0 0 0 127 0"/>
<feOffset dy="4"/>
<feGaussianBlur stdDeviation="2"/>
<feColorMatrix type="matrix" values="0 0 0 0 0 0 0 0 0 0 0 0 0 0 0 0 0 0 0.25 0"/>
<feBlend mode="normal" in2="BackgroundImageFix" result="effect1_dropShadow"/>
<feBlend mode="normal" in="SourceGraphic" in2="effect1_dropShadow" result="shape"/>
</filter>
<linearGradient id="paint0_linear" x1="-90.0245" y1="13.0011" x2="433.036" y2="285.261" gradientUnits="userSpaceOnUse">
<stop stop-color="#EBB10C"/>
<stop offset="1" stop-color="#F37335"/>
</linearGradient>
<linearGradient id="paint1_linear" x1="137.419" y1="37.8461" x2="47.9138" y2="40.9718" gradientUnits="userSpaceOnUse">
<stop stop-color="#CC5E17"/>
<stop offset="1" stop-color="#FDBB1B"/>
</linearGradient>
<linearGradient id="paint2_linear" x1="206.403" y1="18.9877" x2="241.419" y2="90.7817" gradientUnits="userSpaceOnUse">
<stop stop-color="#CC5E17"/>
<stop offset="1" stop-color="#FDBB1B"/>
</linearGradient>
<linearGradient id="paint3_linear" x1="185.436" y1="288.405" x2="157.382" y2="249.555" gradientUnits="userSpaceOnUse">
<stop stop-color="#CC5E17"/>
<stop offset="1" stop-color="#FDBB1B"/>
</linearGradient>
<linearGradient id="paint4_linear" x1="95.4846" y1="189.597" x2="182.094" y2="174.325" gradientUnits="userSpaceOnUse">
<stop stop-color="#CC5E17"/>
<stop offset="1" stop-color="#FDBB1B"/>
</linearGradient>
<linearGradient id="paint5_linear" x1="302.563" y1="183.727" x2="218.011" y2="204.809" gradientUnits="userSpaceOnUse">
<stop stop-color="#CC5E17"/>
<stop offset="1" stop-color="#FDBB1B"/>
</linearGradient>
<linearGradient id="paint6_linear" x1="-8.89757" y1="274.185" x2="49.8182" y2="259.545" gradientUnits="userSpaceOnUse">
<stop stop-color="#CC5E17"/>
<stop offset="1" stop-color="#FDBB1B"/>
</linearGradient>
<linearGradient id="paint7_linear" x1="12.6744" y1="146.863" x2="76.1154" y2="136.303" gradientUnits="userSpaceOnUse">
<stop stop-color="#CC5E17"/>
<stop offset="1" stop-color="#B18F35"/>
</linearGradient>
<clipPath id="clip0">
<rect width="300" height="300" fill="white"/>
</clipPath>
</defs>
</svg>
