<svg width="300" height="300" viewBox="0 0 300 300" fill="none" xmlns="http://www.w3.org/2000/svg">
<g clip-path="url(#clip0)">
<rect width="300" height="300" fill="#F6C828"/>
<g filter="url(#filter0_d)">
<path d="M95.7265 129.02H106.108V176H95.7265V129.02ZM126.57 176.696C121.466 176.696 117.831 175.362 115.666 172.694C113.539 169.987 112.476 166.101 112.476 161.036V144.1C112.476 138.919 113.539 135.013 115.666 132.384C117.792 129.716 121.427 128.382 126.57 128.382C131.48 128.382 134.96 129.561 137.01 131.92C139.059 134.279 140.084 137.623 140.084 141.954V146.014H129.934V141.316C129.934 139.499 129.74 138.107 129.354 137.14C128.967 136.173 128.039 135.69 126.57 135.69C125.1 135.69 124.134 136.212 123.67 137.256C123.206 138.261 122.974 139.673 122.974 141.49V163.588C122.974 165.444 123.206 166.875 123.67 167.88C124.172 168.847 125.139 169.33 126.57 169.33C128 169.33 128.909 168.847 129.296 167.88C129.721 166.875 129.934 165.444 129.934 163.588V158.658H140.084V162.718C140.084 167.126 139.059 170.567 137.01 173.042C134.96 175.478 131.48 176.696 126.57 176.696ZM159.251 176.696C154.186 176.696 150.571 175.401 148.405 172.81C146.24 170.181 145.157 166.314 145.157 161.21V143.752C145.157 138.648 146.24 134.82 148.405 132.268C150.571 129.677 154.186 128.382 159.251 128.382C164.355 128.382 167.99 129.677 170.155 132.268C172.359 134.859 173.461 138.687 173.461 143.752V161.21C173.461 166.314 172.359 170.181 170.155 172.81C167.99 175.401 164.355 176.696 159.251 176.696ZM159.251 169.33C160.721 169.33 161.687 168.847 162.151 167.88C162.615 166.875 162.847 165.521 162.847 163.82V141.2C162.847 139.46 162.615 138.107 162.151 137.14C161.687 136.173 160.721 135.69 159.251 135.69C157.859 135.69 156.931 136.193 156.467 137.198C156.003 138.165 155.771 139.499 155.771 141.2V163.82C155.771 165.521 155.984 166.875 156.409 167.88C156.835 168.847 157.782 169.33 159.251 169.33ZM179.78 129.02H187.088L196.716 151.64V129.02H205.3V176H198.282L188.654 151.64V176H179.78V129.02Z" fill="#FFF9E2"/>
</g>
<g opacity="0.75">
<path d="M33.6349 9.4255C30.5168 9.09778 27.6894 9.88354 25.0768 11.4694L25.1894 10.3983C25.2327 9.98631 25.0878 9.55457 24.8239 9.22139L19.0117 1.94625C18.4599 1.24959 17.4653 1.14506 16.8075 1.71459L14.7834 3.39005C14.1017 3.92928 13.992 4.97293 14.5409 5.69705L20.2965 12.994C20.5604 13.3272 20.9434 13.5618 21.3466 13.6042L22.3949 13.7144C20.363 15.7222 18.9972 18.6331 18.6594 21.8464C17.8598 29.4541 23.2641 36.2143 30.7099 36.9969C38.1556 37.7794 44.8531 32.2356 45.6527 24.628C46.4523 17.0204 41.0807 10.2081 33.6349 9.4255ZM31.267 31.6962C26.6974 31.216 23.3594 27.0332 23.853 22.3368C24.3467 17.6404 28.4544 14.2402 33.0509 14.7233C37.6474 15.2064 40.9585 19.3864 40.4649 24.0828C39.9712 28.7791 35.8635 32.1793 31.267 31.6962Z" fill="#FBE28A"/>
</g>
<g opacity="0.93">
<path d="M54.5591 24.4357C56.0507 26.3448 58.0052 27.4947 60.2891 28.0957L59.6333 28.6081C59.381 28.8051 59.2188 29.1174 59.1753 29.4429L58.2512 36.5788C58.1602 37.2595 58.636 37.8685 59.3056 37.9284L61.3234 38.1541C61.9891 38.2436 62.6281 37.7444 62.7359 37.0505L63.7025 29.9344C63.746 29.6089 63.6709 29.2701 63.478 29.0232L62.9765 28.3813C65.1833 28.433 67.5345 27.6297 69.5019 26.0926C74.1598 22.4534 75.0166 15.8207 71.4549 11.2618C67.8931 6.70301 61.2165 5.956 56.5586 9.59518C51.9006 13.2343 50.9974 19.8769 54.5591 24.4357ZM68.2094 13.7974C70.3953 16.5953 69.8621 20.6959 66.9866 22.9425C64.1111 25.189 60.0162 24.7309 57.8174 21.9166C55.6186 19.1023 56.1647 15.0181 59.0402 12.7715C61.9157 10.525 66.0107 10.9831 68.2094 13.7974Z" fill="#FBE28A"/>
</g>
<g opacity="0.87">
<path d="M114.917 15.6322C115.028 18.7941 116.21 21.5091 118.161 23.8971L117.075 23.935C116.658 23.9496 116.246 24.155 115.951 24.4655L109.497 31.2952C108.878 31.9444 108.914 32.953 109.575 33.5302L111.534 35.3176C112.168 35.9231 113.226 35.8862 113.873 35.2359L120.356 28.4598C120.652 28.1493 120.833 27.7336 120.819 27.3248L120.781 26.2617C123.073 28.0102 126.174 28.9662 129.432 28.8524C137.147 28.583 143.143 22.2333 142.879 14.6831C142.616 7.13285 136.135 1.21882 128.421 1.48821C120.706 1.7576 114.654 8.08202 114.917 15.6322ZM137.504 14.8708C137.666 19.5045 133.955 23.4274 129.193 23.5937C124.43 23.76 120.456 20.1328 120.293 15.4718C120.13 10.8108 123.842 6.91514 128.605 6.74884C133.367 6.58253 137.341 10.2098 137.504 14.8708Z" fill="#FBE28A"/>
</g>
<g opacity="0.78">
<path d="M177.892 34.2577C180.429 33.0207 182.212 31.0725 183.45 28.6161L183.874 29.4873C184.038 29.8224 184.354 30.0828 184.715 30.2112L192.621 32.992C193.374 33.2605 194.183 32.8659 194.413 32.1175L195.159 29.8734C195.422 29.1367 195.008 28.2878 194.244 27.997L186.371 25.1726C186.011 25.0441 185.606 25.0477 185.278 25.2077L184.426 25.6236C185.019 23.122 184.673 20.2489 183.398 17.6353C180.38 11.4474 173.032 8.86521 166.975 11.819C160.919 14.7728 158.451 22.1983 161.469 28.3861C164.487 34.5739 171.836 37.2115 177.892 34.2577ZM169.078 16.1304C172.795 14.3176 177.338 15.9181 179.201 19.738C181.064 23.5579 179.55 28.1122 175.811 29.9356C172.073 31.7591 167.552 30.1479 165.689 26.328C163.826 22.5081 165.34 17.9538 169.078 16.1304Z" fill="#FBE28A"/>
</g>
<g opacity="0.77">
<path d="M221.493 27.9842C222.721 31.0233 224.834 33.2476 227.58 34.8809L226.537 35.3027C226.135 35.4649 225.808 35.8105 225.63 36.2177L221.767 45.1535C221.394 46.0048 221.786 46.9742 222.635 47.3018L225.175 48.3479C226.007 48.7126 227.024 48.3016 227.423 47.4394L231.334 38.5452C231.512 38.1381 231.541 37.6694 231.382 37.2764L230.969 36.2546C233.82 37.1447 237.177 36.9768 240.309 35.7114C247.724 32.7156 251.312 24.4091 248.38 17.1519C245.448 9.89478 237.043 6.43342 229.628 9.42924C222.213 12.425 218.561 20.7271 221.493 27.9842ZM243.213 19.2393C245.013 23.6931 242.79 28.8273 238.213 30.6767C233.635 32.5261 228.48 30.4031 226.67 25.9231C224.86 21.443 227.094 16.3351 231.671 14.4857C236.248 12.6362 241.403 14.7592 243.213 19.2393Z" fill="#FBE28A"/>
</g>
<g opacity="0.73">
<path d="M267.674 29.8677C268.19 31.5577 269.221 32.8516 270.619 33.8578L270.038 34.0353C269.815 34.1036 269.623 34.2738 269.508 34.4841L267.014 39.1019C266.774 39.5416 266.938 40.0806 267.379 40.2965L268.694 40.9777C269.124 41.2126 269.689 41.0397 269.944 40.5954L272.463 36.0022C272.577 35.7919 272.615 35.5416 272.548 35.323L272.374 34.7549C273.863 35.3669 275.674 35.4345 277.416 34.902C281.539 33.6414 283.856 29.3487 282.623 25.3133C281.389 21.2779 277.038 19.0239 272.914 20.2845C268.791 21.5451 266.44 25.8323 267.674 29.8677ZM279.75 26.1916C280.507 28.6682 279.072 31.3212 276.527 32.0994C273.981 32.8776 271.312 31.4952 270.551 29.004C269.789 26.5128 271.229 23.8744 273.774 23.0962C276.319 22.318 278.988 23.7004 279.75 26.1916Z" fill="#FBE28A"/>
</g>
<g opacity="0.71">
<path d="M20.0656 112.872C22.7095 113.68 25.2892 113.476 27.8176 112.543L27.5399 113.451C27.4331 113.8 27.4859 114.199 27.6583 114.531L31.4653 121.807C31.8257 122.503 32.669 122.761 33.3342 122.378L35.3683 121.268C36.0491 120.916 36.3197 120.031 35.9663 119.312L32.212 112.028C32.0396 111.695 31.7476 111.427 31.4057 111.323L30.5168 111.051C32.6135 109.655 34.2856 107.365 35.1186 104.64C37.0908 98.1894 33.5502 91.4283 27.2367 89.4981C20.9232 87.5679 14.193 91.2398 12.2208 97.6905C10.2486 104.141 13.7521 110.942 20.0656 112.872ZM25.8626 93.9927C29.7373 95.1773 31.9229 99.3596 30.7054 103.342C29.4879 107.324 25.36 109.576 21.4625 108.385C17.565 107.193 15.4022 103.018 16.6197 99.0354C17.8372 95.0532 21.9651 92.8011 25.8626 93.9927Z" fill="#FBE28A"/>
</g>
<g opacity="0.87">
<path d="M26.0222 60.4805C25.5671 58.6552 24.5438 57.2223 23.1135 56.0747L23.7406 55.9184C23.9817 55.8583 24.1954 55.688 24.3291 55.4708L27.2382 50.7009C27.5178 50.2468 27.3726 49.6646 26.9165 49.4106L25.5565 48.6132C25.1125 48.3395 24.5016 48.4918 24.206 48.9499L21.273 53.6924C21.1393 53.9095 21.0856 54.1736 21.1444 54.4097L21.2974 55.0233C19.7484 54.2898 17.8269 54.117 15.9459 54.586C11.4925 55.6964 8.79002 60.1307 9.87674 64.4893C10.9635 68.8479 15.4636 71.4864 19.9169 70.376C24.3703 69.2657 27.1089 64.8391 26.0222 60.4805ZM12.9796 63.7156C12.3127 61.0407 13.986 58.3003 16.7352 57.6149C19.4844 56.9294 22.2445 58.5477 22.9153 61.2384C23.5862 63.9291 21.909 66.6537 19.1598 67.3392C16.4106 68.0246 13.6505 66.4063 12.9796 63.7156Z" fill="#FBE28A"/>
</g>
<g opacity="0.8">
<path d="M70.3129 80.3866C73.3725 80.9261 76.2217 80.3448 78.9139 78.9578L78.7285 80.0088C78.6573 80.413 78.7706 80.8498 79.0085 81.1974L84.2509 88.7906C84.7482 89.5174 85.7241 89.6895 86.4137 89.172L88.5303 87.6557C89.2415 87.1698 89.4221 86.1457 88.9295 85.392L83.7446 77.7812C83.5067 77.4336 83.1443 77.1752 82.7487 77.1054L81.7201 76.924C83.8674 75.0797 85.4187 72.2967 85.9747 69.1437C87.2909 61.6789 82.4161 54.6229 75.1101 53.3347C67.8041 52.0464 60.8005 57.0635 59.4842 64.5283C58.168 71.9931 63.0069 79.0984 70.3129 80.3866ZM74.193 58.5358C78.6768 59.3264 81.6873 63.6918 80.8747 68.3C80.0621 72.9083 75.7666 75.9854 71.2564 75.1901C66.7462 74.3949 63.7621 70.0341 64.5747 65.4259C65.3872 60.8176 69.6828 57.7405 74.193 58.5358Z" fill="#FBE28A"/>
</g>
<g opacity="0.91">
<path d="M154.471 74.465C153.932 71.4055 152.411 68.9269 150.187 66.8715L151.238 66.6862C151.642 66.6149 152.014 66.359 152.259 66.0166L157.601 58.4933C158.114 57.7774 157.942 56.8015 157.22 56.3305L155.071 54.8601C154.371 54.358 153.347 54.5386 152.808 55.2592L147.429 62.7345C147.184 63.0769 147.065 63.5058 147.135 63.9015L147.316 64.9301C144.848 63.5431 141.703 63.0371 138.55 63.5931C131.085 64.9094 126.122 71.9035 127.41 79.2095C128.698 86.5155 135.808 91.3808 143.273 90.0645C150.738 88.7483 155.759 81.771 154.471 74.465ZM132.611 78.2924C131.82 73.8086 134.893 69.4866 139.501 68.6741C144.109 67.8615 148.47 70.8456 149.265 75.3558C150.061 79.866 146.984 84.1615 142.375 84.9741C137.767 85.7866 133.406 82.8026 132.611 78.2924Z" fill="#FBE28A"/>
</g>
<g opacity="0.71">
<path d="M179.3 77.4855C180.045 80.4723 181.719 82.8171 184.06 84.695L183.034 84.9508C182.639 85.0492 182.289 85.3278 182.07 85.6832L177.31 93.4885C176.853 94.2316 177.09 95.1843 177.837 95.5999L180.062 96.9048C180.788 97.3527 181.788 97.1034 182.272 96.3538L187.071 88.5934C187.29 88.238 187.378 87.8058 187.282 87.4196L187.031 86.4154C189.566 87.6158 192.71 87.8985 195.788 87.131C203.076 85.3141 207.498 78.058 205.72 70.9257C203.942 63.7934 196.578 59.4759 189.29 61.2928C182.003 63.1097 177.522 70.3532 179.3 77.4855ZM200.642 72.1916C201.734 76.5689 198.996 81.0531 194.497 82.1747C189.998 83.2964 185.482 80.6483 184.384 76.2453C183.286 71.8423 186.031 67.3839 190.529 66.2622C195.028 65.1406 199.545 67.7887 200.642 72.1916Z" fill="#FBE28A"/>
</g>
<g opacity="0.92">
<path d="M279.929 68.7938C277.176 69.5315 275.032 71.1196 273.332 73.3166L273.078 72.3709C272.981 72.0072 272.717 71.6879 272.384 71.4911L265.081 67.2102C264.386 66.7987 263.508 67.034 263.135 67.7317L261.963 69.8131C261.56 70.4928 261.807 71.4143 262.509 71.8501L269.771 76.168C270.104 76.3648 270.505 76.4391 270.861 76.3437L271.787 76.0957C270.716 78.4618 270.506 81.3772 271.266 84.2144C273.066 90.9316 279.855 94.9084 286.429 93.1468C293.003 91.3853 296.881 84.4982 295.081 77.7811C293.282 71.0639 286.503 67.0323 279.929 68.7938ZM285.175 88.4667C281.14 89.5478 276.944 87.0853 275.833 82.9386C274.722 78.7919 277.101 74.5678 281.159 73.4804C285.218 72.3929 289.39 74.8618 290.501 79.0085C291.612 83.1551 289.233 87.3792 285.175 88.4667Z" fill="#FBE28A"/>
</g>
<g opacity="0.78">
<path d="M7.44694 162.83C8.46768 165.794 10.3748 168.025 12.9161 169.723L11.8978 170.073C11.5062 170.208 11.1761 170.522 10.9857 170.902L6.84847 179.244C6.4503 180.039 6.77588 180.984 7.57002 181.34L9.94394 182.466C10.7208 182.856 11.713 182.514 12.1373 181.711L16.3182 173.411C16.5086 173.031 16.5594 172.584 16.4274 172.201L16.0842 171.204C18.7627 172.197 21.978 172.205 25.033 171.153C32.2658 168.663 36.1087 160.908 33.6712 153.829C31.2338 146.75 23.3789 143.023 16.1462 145.513C8.91339 148.004 5.00949 155.751 7.44694 162.83ZM28.6318 155.564C30.1277 159.909 27.7475 164.701 23.2825 166.239C18.8175 167.776 13.9999 165.49 12.4952 161.12C10.9905 156.75 13.3795 151.983 17.8445 150.446C22.3094 148.908 27.1271 151.194 28.6318 155.564Z" fill="#FBE28A"/>
</g>
<g opacity="0.86">
<path d="M52.2239 141.711C53.9814 141.526 55.4481 140.762 56.7027 139.581L56.7661 140.185C56.7905 140.417 56.921 140.638 57.1055 140.791L61.1625 144.121C61.5483 144.44 62.1089 144.381 62.4048 143.99L63.3244 142.829C63.6371 142.452 63.5752 141.864 63.1877 141.529L59.1595 138.181C58.9749 138.028 58.7363 137.943 58.509 137.967L57.9182 138.029C58.8031 136.684 59.215 134.919 59.0246 133.108C58.574 128.82 54.8023 125.727 50.6056 126.168C46.4089 126.609 43.3661 130.45 43.8168 134.738C44.2674 139.026 48.0272 142.152 52.2239 141.711ZM50.9196 129.155C53.4952 128.885 55.8256 130.799 56.1038 133.446C56.3821 136.094 54.5158 138.449 51.9251 138.722C49.3343 138.994 47.019 137.078 46.7408 134.431C46.4626 131.783 48.3288 129.428 50.9196 129.155Z" fill="#FBE28A"/>
</g>
<g opacity="0.91">
<path d="M105.616 106.182C105.099 104.108 103.936 102.48 102.311 101.176L103.023 100.998C103.297 100.93 103.54 100.736 103.692 100.49L106.998 95.0692C107.315 94.5531 107.15 93.8916 106.632 93.6029L105.087 92.6968C104.582 92.3858 103.888 92.5588 103.552 93.0794L100.219 98.4686C100.067 98.7154 100.006 99.0155 100.073 99.2837L100.247 99.9811C98.4866 99.1475 96.3031 98.9512 94.1656 99.4841C89.1049 100.746 86.0339 105.785 87.2688 110.738C88.5037 115.691 93.6175 118.689 98.6781 117.427C103.739 116.166 106.851 111.135 105.616 106.182ZM90.7948 109.859C90.037 106.819 91.9385 103.705 95.0625 102.926C98.1866 102.147 101.323 103.986 102.085 107.044C102.848 110.101 100.942 113.197 97.8177 113.976C94.6936 114.755 91.5572 112.916 90.7948 109.859Z" fill="#FBE28A"/>
</g>
<g opacity="0.85">
<path d="M203.229 216.341C205.688 215.141 207.418 213.252 208.618 210.87L209.03 211.715C209.188 212.04 209.495 212.292 209.845 212.417L217.511 215.113C218.241 215.374 219.026 214.991 219.249 214.265L219.973 212.089C220.228 211.375 219.826 210.552 219.085 210.27L211.451 207.531C211.101 207.406 210.709 207.41 210.391 207.565L209.564 207.968C210.14 205.543 209.804 202.756 208.568 200.222C205.642 194.222 198.515 191.718 192.643 194.582C186.77 197.446 184.377 204.647 187.304 210.647C190.23 216.647 197.356 219.205 203.229 216.341ZM194.682 198.763C198.286 197.005 202.691 198.557 204.498 202.261C206.304 205.965 204.836 210.382 201.211 212.15C197.586 213.918 193.202 212.356 191.395 208.651C189.589 204.947 191.057 200.531 194.682 198.763Z" fill="#FBE28A"/>
</g>
<g opacity="0.79">
<path d="M277.272 145.244C277.573 143.099 277.099 141.128 276.067 139.285L276.804 139.389C277.087 139.429 277.389 139.339 277.625 139.165L282.789 135.327C283.283 134.963 283.379 134.279 283.002 133.811L281.894 132.373C281.538 131.889 280.82 131.788 280.307 132.15L275.129 135.948C274.893 136.122 274.722 136.381 274.683 136.658L274.581 137.379C273.244 135.928 271.267 134.915 269.056 134.604C263.823 133.868 259.025 137.437 258.305 142.559C257.585 147.682 261.251 152.44 266.485 153.175C271.719 153.911 276.552 150.366 277.272 145.244ZM261.951 143.072C262.393 139.928 265.362 137.724 268.593 138.178C271.823 138.632 274.072 141.551 273.628 144.713C273.183 147.875 270.217 150.061 266.986 149.606C263.756 149.152 261.507 146.234 261.951 143.072Z" fill="#FBE28A"/>
</g>
<g opacity="0.76">
<path d="M259.121 108.559C258.555 106.915 257.497 105.678 256.088 104.736L256.653 104.542C256.87 104.467 257.053 104.293 257.158 104.082L259.453 99.4562C259.673 99.0156 259.493 98.4912 259.053 98.2941L257.736 97.6695C257.305 97.4532 256.755 97.6427 256.52 98.0883L254.201 102.691C254.096 102.902 254.068 103.149 254.141 103.362L254.331 103.915C252.846 103.364 251.063 103.36 249.368 103.943C245.358 105.324 243.227 109.624 244.578 113.55C245.93 117.476 250.286 119.542 254.297 118.161C258.308 116.78 260.472 112.484 259.121 108.559ZM247.373 112.588C246.543 110.179 247.863 107.521 250.339 106.668C252.815 105.816 255.487 107.083 256.321 109.507C257.156 111.93 255.831 114.574 253.355 115.426C250.879 116.279 248.207 115.011 247.373 112.588Z" fill="#FBE28A"/>
</g>
<g opacity="0.86">
<path d="M5.54611 213.958C7.21315 216.091 9.39758 217.376 11.9502 218.048L11.2172 218.621C10.9353 218.841 10.754 219.19 10.7053 219.554L9.67257 227.529C9.57084 228.29 10.1026 228.971 10.851 229.038L13.1062 229.29C13.8502 229.39 14.5644 228.832 14.6849 228.056L15.7652 220.103C15.8138 219.739 15.7298 219.361 15.5143 219.085L14.9538 218.367C17.4202 218.425 20.048 217.527 22.2469 215.809C27.4528 211.742 28.4103 204.329 24.4296 199.234C20.4488 194.139 12.9867 193.304 7.78078 197.371C2.57486 201.438 1.56534 208.862 5.54611 213.958ZM20.8024 202.068C23.2454 205.195 22.6494 209.778 19.4357 212.289C16.2219 214.8 11.6451 214.287 9.18771 211.142C6.73026 207.997 7.34062 203.432 10.5544 200.921C13.7681 198.41 18.3449 198.922 20.8024 202.068Z" fill="#FBE28A"/>
</g>
<g opacity="0.96">
<path d="M62.0835 179.077C59.7267 177.927 57.2798 177.736 54.7728 178.235L55.1677 177.425C55.3196 177.114 55.3292 176.733 55.2171 176.396L52.7303 169.015C52.4958 168.31 51.7441 167.943 51.0642 168.203L48.9941 168.941C48.3041 169.169 47.9193 169.958 48.1436 170.684L50.5797 178.066C50.6919 178.403 50.9257 178.697 51.2305 178.846L52.0229 179.232C49.8516 180.229 47.9455 182.126 46.7609 184.555C43.9563 190.305 46.2699 197.164 51.8978 199.909C57.5257 202.654 64.3753 200.213 67.1799 194.462C69.9845 188.712 67.7115 181.822 62.0835 179.077ZM53.8519 195.902C50.3979 194.218 48.971 189.976 50.7024 186.426C52.4338 182.876 56.6348 181.379 60.1091 183.073C63.5834 184.768 64.99 189 63.2586 192.55C61.5272 196.1 57.3262 197.597 53.8519 195.902Z" fill="#FBE28A"/>
</g>
<g opacity="0.73">
<path d="M113.378 251.919C110.847 252.096 108.705 253.119 106.846 254.75L106.785 253.88C106.762 253.546 106.586 253.222 106.329 252.994L100.675 248.014C100.138 247.536 99.3307 247.593 98.8866 248.139L97.5092 249.758C97.0417 250.284 97.1009 251.131 97.6401 251.63L103.251 256.636C103.508 256.864 103.847 256.998 104.174 256.975L105.025 256.915C103.688 258.8 103.008 261.312 103.191 263.92C103.622 270.094 108.878 274.721 114.921 274.298C120.964 273.876 125.521 268.518 125.09 262.343C124.658 256.169 119.421 251.496 113.378 251.919ZM114.62 269.997C110.912 270.256 107.664 267.392 107.398 263.581C107.131 259.769 109.927 256.483 113.657 256.222C117.387 255.961 120.613 258.826 120.879 262.638C121.146 266.449 118.351 269.736 114.62 269.997Z" fill="#FBE28A"/>
</g>
<g opacity="0.88">
<path d="M192.641 262.445C190.677 262.548 189.003 263.312 187.54 264.551L187.504 263.876C187.491 263.617 187.358 263.364 187.162 263.183L182.847 259.246C182.437 258.869 181.811 258.901 181.459 259.319L180.37 260.555C180 260.956 180.034 261.614 180.446 262.009L184.728 265.965C184.924 266.145 185.184 266.253 185.438 266.24L186.098 266.205C185.036 267.648 184.476 269.586 184.582 271.61C184.833 276.402 188.845 280.059 193.534 279.814C198.224 279.568 201.83 275.476 201.579 270.684C201.327 265.893 197.331 262.199 192.641 262.445ZM193.36 276.475C190.481 276.626 188.003 274.362 187.848 271.404C187.693 268.446 189.904 265.936 192.799 265.784C195.694 265.633 198.156 267.897 198.311 270.856C198.466 273.814 196.255 276.323 193.36 276.475Z" fill="#FBE28A"/>
</g>
<g opacity="0.73">
<path d="M230.928 158.555C230.762 160.458 231.271 162.171 232.264 163.745L231.611 163.688C231.359 163.666 231.098 163.759 230.898 163.923L226.529 167.54C226.111 167.884 226.058 168.491 226.411 168.885L227.453 170.1C227.789 170.509 228.426 170.565 228.861 170.223L233.243 166.64C233.444 166.476 233.582 166.24 233.604 165.994L233.66 165.355C234.904 166.571 236.691 167.372 238.652 167.543C243.293 167.949 247.353 164.586 247.75 160.044C248.148 155.501 244.701 151.481 240.059 151.075C235.417 150.669 231.326 154.013 230.928 158.555ZM244.516 159.761C244.273 162.549 241.761 164.626 238.895 164.375C236.03 164.125 233.916 161.659 234.161 158.855C234.406 156.05 236.917 153.989 239.782 154.24C242.647 154.491 244.762 156.956 244.516 159.761Z" fill="#FBE28A"/>
</g>
<g opacity="0.87">
<path d="M237.679 72.6537C235.037 71.1889 232.233 70.8213 229.318 71.2443L229.821 70.3366C230.015 69.9875 230.049 69.55 229.94 69.155L227.524 60.5134C227.297 59.6876 226.454 59.2204 225.656 59.4779L223.23 60.202C222.422 60.4236 221.932 61.3081 222.146 62.1571L224.504 70.7968C224.613 71.1917 224.864 71.5441 225.206 71.7335L226.094 72.2259C223.536 73.2419 221.228 75.3097 219.719 78.0328C216.145 84.48 218.393 92.5113 224.703 96.009C231.013 99.5067 239.042 97.1109 242.615 90.6637C246.189 84.2166 243.989 76.1513 237.679 72.6537ZM227.193 91.5169C223.321 89.3704 221.935 84.4033 224.141 80.4233C226.347 76.4433 231.271 74.9739 235.166 77.1331C239.062 79.2923 240.425 84.2467 238.219 88.2267C236.013 92.2067 231.089 93.6761 227.193 91.5169Z" fill="#FBE28A"/>
</g>
<g opacity="0.87">
<path d="M63.0024 248.376C64.7237 245.824 65.3458 243.01 65.1753 240.015L66.052 240.606C66.3891 240.833 66.8302 240.907 67.2407 240.832L76.2265 239.146C77.0848 238.989 77.6338 238.175 77.4433 237.342L76.9238 234.815C76.7706 233.976 75.9164 233.4 75.0357 233.542L66.0571 235.168C65.6466 235.243 65.2666 235.467 65.0441 235.797L64.4653 236.655C63.6613 233.968 61.7674 231.442 59.1375 229.668C52.9111 225.468 44.5596 227.037 40.4492 233.131C36.3388 239.225 38.0576 247.587 44.284 251.786C50.5104 255.986 58.892 254.47 63.0024 248.376ZM44.7875 236.058C47.3101 232.318 52.4748 231.352 56.3185 233.945C60.1623 236.537 61.2164 241.666 58.679 245.427C56.1415 249.189 50.9917 250.133 47.148 247.54C43.3042 244.948 42.25 239.82 44.7875 236.058Z" fill="#FBE28A"/>
</g>
<g opacity="0.92">
<path d="M234.306 239.118C233.561 236.338 231.957 234.173 229.738 232.455L230.693 232.199C231.061 232.1 231.383 231.834 231.582 231.498L235.906 224.122C236.321 223.42 236.084 222.533 235.379 222.157L233.277 220.973C232.59 220.566 231.66 220.815 231.219 221.524L226.858 228.859C226.66 229.195 226.585 229.6 226.681 229.96L226.931 230.895C224.542 229.814 221.597 229.601 218.731 230.368C211.947 232.186 207.931 239.043 209.71 245.683C211.489 252.323 218.445 256.24 225.229 254.422C232.013 252.604 236.085 245.758 234.306 239.118ZM214.437 244.417C213.345 240.342 215.832 236.104 220.02 234.982C224.208 233.86 228.475 236.262 229.573 240.361C230.671 244.46 228.178 248.674 223.989 249.796C219.801 250.918 215.535 248.516 214.437 244.417Z" fill="#FBE28A"/>
</g>
<g opacity="0.88">
<path d="M111.558 207.687C109.597 206.314 107.417 205.792 105.085 205.884L105.557 205.21C105.739 204.951 105.802 204.609 105.749 204.289L104.56 197.278C104.45 196.608 103.824 196.17 103.174 196.307L101.202 196.677C100.547 196.785 100.087 197.441 100.186 198.128L101.328 205.132C101.381 205.453 101.55 205.751 101.804 205.929L102.463 206.39C100.363 206.979 98.3728 208.418 96.9576 210.439C93.607 215.224 94.7138 221.74 99.397 225.019C104.08 228.298 110.606 227.075 113.956 222.29C117.307 217.505 116.241 210.966 111.558 207.687ZM101.731 221.685C98.8573 219.672 98.1764 215.643 100.245 212.689C102.313 209.735 106.316 208.985 109.207 211.009C112.098 213.034 112.762 217.051 110.693 220.005C108.625 222.959 104.623 223.709 101.731 221.685Z" fill="#FBE28A"/>
</g>
<g opacity="0.86">
<path d="M158.746 242.091C159.713 243.836 161.155 245.023 162.935 245.806L162.336 246.138C162.105 246.266 161.933 246.499 161.856 246.758L160.185 252.443C160.023 252.985 160.331 253.542 160.868 253.677L162.481 254.12C163.011 254.279 163.595 253.955 163.772 253.405L165.475 247.741C165.552 247.482 165.535 247.197 165.409 246.971L165.084 246.384C166.873 246.711 168.889 246.36 170.687 245.363C174.944 243.003 176.496 237.719 174.186 233.552C171.876 229.385 166.542 227.917 162.284 230.277C158.027 232.637 156.436 237.924 158.746 242.091ZM171.22 235.196C172.637 237.753 171.675 241.02 169.047 242.477C166.418 243.934 163.147 243.034 161.721 240.461C160.295 237.889 161.265 234.637 163.894 233.18C166.522 231.723 169.794 232.624 171.22 235.196Z" fill="#FBE28A"/>
</g>
<g opacity="0.9">
<path d="M283.757 187.065C282.975 184.147 281.292 181.874 278.963 180.071L279.965 179.803C280.351 179.7 280.689 179.42 280.898 179.068L285.436 171.326C285.872 170.589 285.622 169.659 284.883 169.264L282.676 168.021C281.956 167.594 280.979 167.856 280.517 168.6L275.94 176.297C275.732 176.65 275.653 177.076 275.754 177.453L276.017 178.434C273.509 177.299 270.418 177.076 267.411 177.882C260.291 179.79 256.075 186.986 257.943 193.955C259.81 200.923 267.11 205.034 274.23 203.126C281.351 201.219 285.624 194.034 283.757 187.065ZM262.904 192.625C261.758 188.349 264.368 183.901 268.763 182.723C273.159 181.546 277.636 184.067 278.789 188.369C279.942 192.671 277.325 197.093 272.929 198.271C268.534 199.449 264.056 196.927 262.904 192.625Z" fill="#FBE28A"/>
</g>
<g opacity="0.74">
<path d="M262.899 218.412C262.083 219.947 261.899 221.564 262.172 223.237L261.645 222.956C261.442 222.849 261.19 222.833 260.964 222.9L256.016 224.377C255.543 224.516 255.283 225.006 255.439 225.462L255.88 226.851C256.015 227.313 256.529 227.587 257.015 227.455L261.963 226.011C262.189 225.945 262.389 225.797 262.495 225.598L262.769 225.082C263.38 226.544 264.592 227.851 266.175 228.692C269.92 230.684 274.519 229.309 276.468 225.643C278.417 221.978 276.958 217.382 273.212 215.391C269.467 213.399 264.848 214.746 262.899 218.412ZM273.858 224.256C272.662 226.506 269.818 227.353 267.506 226.124C265.193 224.894 264.298 222.076 265.502 219.813C266.705 217.55 269.542 216.716 271.854 217.945C274.166 219.174 275.061 221.993 273.858 224.256Z" fill="#FBE28A"/>
</g>
<g opacity="0.99">
<path d="M25.1995 265.977C22.2047 267.57 20.1442 269.985 18.7604 272.987L18.2134 271.959C18.003 271.563 17.6119 271.263 17.1737 271.124L7.55987 268.116C6.64349 267.825 5.68827 268.332 5.44289 269.241L4.64107 271.968C4.35584 272.864 4.88881 273.867 5.81921 274.184L15.3954 277.247C15.8337 277.386 16.3191 277.365 16.7064 277.159L17.7132 276.623C17.1055 279.653 17.6415 283.09 19.2824 286.176C23.1675 293.483 32.104 296.277 39.2553 292.475C46.4065 288.672 49.0596 279.648 45.1745 272.342C41.2895 265.035 32.3508 262.175 25.1995 265.977ZM36.5483 287.384C32.1595 289.717 26.6354 287.985 24.2371 283.474C21.8387 278.964 23.4659 273.429 27.8806 271.082C32.2953 268.735 37.7935 270.48 40.1919 274.991C42.5902 279.502 40.963 285.036 36.5483 287.384Z" fill="#FBE28A"/>
</g>
<g opacity="0.73">
<path d="M78.6093 271.852C76.7854 271.884 75.2084 272.539 73.8121 273.64L73.8011 273.013C73.7969 272.772 73.6827 272.533 73.5066 272.359L69.6344 268.57C69.2663 268.207 68.6845 268.217 68.3451 268.593L67.295 269.704C66.9395 270.064 66.9502 270.674 67.3185 271.053L71.1596 274.859C71.3357 275.033 71.5735 275.141 71.8093 275.137L72.4225 275.126C71.3915 276.43 70.8092 278.208 70.842 280.087C70.9196 284.537 74.5198 288.058 78.8751 287.982C83.2304 287.906 86.705 284.229 86.6273 279.78C86.5496 275.33 82.9646 271.776 78.6093 271.852ZM78.821 284.881C76.1481 284.928 73.9239 282.749 73.8759 280.002C73.828 277.255 75.9591 275 78.6477 274.953C81.3363 274.906 83.5448 277.085 83.5928 279.832C83.6407 282.58 81.5096 284.834 78.821 284.881Z" fill="#FBE28A"/>
</g>
<g opacity="0.94">
<path d="M153.544 284.61C155.418 284.446 156.993 283.66 158.35 282.426L158.406 283.07C158.428 283.318 158.563 283.556 158.756 283.722L163.013 287.341C163.417 287.688 164.015 287.636 164.337 287.225L165.338 286.007C165.677 285.611 165.623 284.984 165.216 284.62L160.991 280.981C160.797 280.815 160.545 280.721 160.303 280.742L159.673 280.797C160.64 279.382 161.111 277.511 160.942 275.58C160.542 271.008 156.585 267.645 152.11 268.036C147.635 268.428 144.325 272.46 144.725 277.032C145.125 281.604 149.069 285.002 153.544 284.61ZM152.389 271.222C155.135 270.982 157.58 273.063 157.827 275.886C158.074 278.708 156.044 281.181 153.281 281.423C150.519 281.665 148.09 279.582 147.843 276.759C147.596 273.937 149.626 271.464 152.389 271.222Z" fill="#FBE28A"/>
</g>
<g opacity="0.99">
<path d="M142.106 213.96C139.915 214.075 138.046 214.928 136.413 216.311L136.374 215.558C136.359 215.268 136.211 214.985 135.992 214.784L131.177 210.391C130.719 209.969 130.02 210.006 129.628 210.472L128.412 211.852C128 212.299 128.038 213.033 128.497 213.473L133.275 217.888C133.494 218.09 133.785 218.21 134.068 218.195L134.805 218.156C133.62 219.767 132.994 221.929 133.113 224.188C133.393 229.535 137.87 233.617 143.103 233.343C148.337 233.069 152.36 228.502 152.08 223.155C151.8 217.808 147.34 213.686 142.106 213.96ZM142.908 229.617C139.696 229.785 136.93 227.259 136.757 223.958C136.584 220.657 139.052 217.856 142.283 217.687C145.514 217.518 148.261 220.045 148.434 223.346C148.607 226.647 146.139 229.448 142.908 229.617Z" fill="#FBE28A"/>
</g>
<g opacity="0.74">
<path d="M223.248 282.222C224.86 283.834 226.818 284.684 229.02 284.984L228.466 285.538C228.253 285.751 228.138 286.061 228.134 286.37L228.09 293.142C228.083 293.788 228.597 294.303 229.229 294.282L231.14 294.261C231.772 294.269 232.312 293.729 232.333 293.068L232.42 286.31C232.423 286.001 232.314 285.693 232.106 285.484L231.563 284.942C233.631 284.737 235.735 283.717 237.397 282.056C241.331 278.122 241.37 271.828 237.52 267.978C233.67 264.127 227.347 264.195 223.413 268.129C219.479 272.063 219.398 278.372 223.248 282.222ZM234.779 270.718C237.142 273.081 237.114 276.973 234.686 279.402C232.257 281.83 228.379 281.872 226.003 279.495C223.626 277.118 223.667 273.24 226.096 270.812C228.524 268.383 232.402 268.342 234.779 270.718Z" fill="#FBE28A"/>
</g>
<g opacity="0.72">
<path d="M257.045 255.831C257.381 258.575 258.618 260.849 260.498 262.779L259.556 262.895C259.193 262.939 258.851 263.15 258.617 263.442L253.519 269.879C253.03 270.492 253.137 271.367 253.757 271.819L255.598 273.226C256.197 273.705 257.115 273.592 257.629 272.977L262.757 266.584C262.99 266.291 263.116 265.916 263.073 265.561L262.959 264.638C265.088 265.986 267.86 266.582 270.687 266.235C277.383 265.413 282.119 259.428 281.315 252.875C280.51 246.323 274.418 241.668 267.723 242.49C261.028 243.312 256.24 249.279 257.045 255.831ZM276.65 253.448C277.143 257.47 274.212 261.167 270.079 261.675C265.945 262.182 262.209 259.327 261.712 255.282C261.216 251.237 264.15 247.563 268.283 247.055C272.417 246.548 276.153 249.403 276.65 253.448Z" fill="#FBE28A"/>
</g>
</g>
<defs>
<filter id="filter0_d" x="91.7266" y="128.382" width="117.573" height="56.314" filterUnits="userSpaceOnUse" color-interpolation-filters="sRGB">
<feFlood flood-opacity="0" result="BackgroundImageFix"/>
<feColorMatrix in="SourceAlpha" type="matrix" values="0 0 0 0 0 0 0 0 0 0 0 0 0 0 0 0 0 0 127 0"/>
<feOffset dy="4"/>
<feGaussianBlur stdDeviation="2"/>
<feColorMatrix type="matrix" values="0 0 0 0 0 0 0 0 0 0 0 0 0 0 0 0 0 0 0.25 0"/>
<feBlend mode="normal" in2="BackgroundImageFix" result="effect1_dropShadow"/>
<feBlend mode="normal" in="SourceGraphic" in2="effect1_dropShadow" result="shape"/>
</filter>
<clipPath id="clip0">
<rect width="300" height="300" fill="white"/>
</clipPath>
</defs>
</svg>
