<svg width="300" height="299" viewBox="0 0 300 299" fill="none" xmlns="http://www.w3.org/2000/svg">
<g clip-path="url(#clip0)">
<path d="M419 -24H-93V316H419V-24Z" fill="url(#paint0_linear)"/>
<g opacity="0.87" filter="url(#filter0_dd)">
<path d="M125.365 61.1393L116.57 18.0232C115.671 13.6149 118.371 9.2816 122.602 8.3446L163.984 -0.820004C168.215 -1.75702 172.373 1.05702 173.273 5.46534L182.069 48.5814C182.968 52.9898 180.267 57.323 176.037 58.26L134.654 67.4246C130.424 68.3616 126.265 65.5476 125.365 61.1393Z" stroke="url(#paint1_linear)" stroke-width="1.45029"/>
</g>
<g opacity="0.84" filter="url(#filter1_dd)">
<path d="M0.0745116 54.6756L-12.7663 34.0735C-15.1222 30.2939 -14.0911 25.24 -10.4635 22.7854L9.30961 9.40632C12.9373 6.95172 17.7879 8.02602 20.1439 11.8057L32.984 32.4077C35.3407 36.1874 34.3092 41.2413 30.6823 43.6959L10.9086 57.0749C7.28095 59.5295 2.43036 58.4552 0.0745116 54.6756Z" stroke="url(#paint2_linear)" stroke-width="1.45029"/>
</g>
<g opacity="0.7" filter="url(#filter2_dd)">
<path d="M120.59 87.8031L134.881 128.715C136.36 132.95 134.265 137.633 130.2 139.174L90.9336 154.064C86.869 155.607 82.3744 153.422 80.8953 149.187L66.6037 108.276C65.1247 104.041 67.2201 99.358 71.2846 97.8167L110.551 82.926C114.616 81.3846 119.109 83.5681 120.59 87.8031Z" stroke="url(#paint3_linear)" stroke-width="1.45029"/>
</g>
<g opacity="0.71" filter="url(#filter3_dd)">
<path d="M256 27.5606L257.479 56.9639C257.705 61.4644 254.387 65.3041 250.067 65.54L221.848 67.0809C217.528 67.3169 213.843 63.8596 213.616 59.3589L212.137 29.9556C211.911 25.4551 215.229 21.6154 219.549 21.3795L247.769 19.8385C252.089 19.6026 255.774 23.0599 256 27.5606Z" stroke="url(#paint4_linear)" stroke-width="1.45029"/>
</g>
<g opacity="0.74" filter="url(#filter4_dd)">
<path d="M281.73 71.5212L268.753 27.2944C267.489 22.9845 269.817 18.4225 273.953 17.1049L316.401 3.58333C320.537 2.26569 324.915 4.69135 326.18 9.00116L339.158 53.2282C340.422 57.538 338.094 62.0999 333.958 63.4177L291.51 76.9391C287.374 78.2567 282.996 75.8311 281.73 71.5212Z" stroke="url(#paint5_linear)" stroke-width="1.45029"/>
</g>
<g opacity="0.93" filter="url(#filter5_dd)">
<path d="M40.4969 90.0616L37.5414 109.506C36.865 113.957 32.8529 116.994 28.5808 116.289L9.91845 113.209C5.64622 112.504 2.73138 108.324 3.40814 103.873L6.36386 84.4288C7.0405 79.9775 11.0523 76.9406 15.3245 77.6456L33.9869 80.7252C38.259 81.4302 41.1733 85.6103 40.4969 90.0616Z" stroke="url(#paint6_linear)" stroke-width="1.45029"/>
</g>
<g opacity="0.72" filter="url(#filter6_dd)">
<path d="M175.5 95.4495L212.599 94.7747C216.924 94.696 220.491 98.2852 220.566 102.791L221.213 141.444C221.29 145.95 217.845 149.667 213.519 149.746L176.422 150.421C172.097 150.499 168.53 146.91 168.454 142.404L167.806 103.751C167.731 99.2448 171.176 95.528 175.5 95.4495Z" stroke="url(#paint7_linear)" stroke-width="1.45029"/>
</g>
<g opacity="0.94" filter="url(#filter7_dd)">
<path d="M267.31 216.888L240.157 218.865C235.842 219.18 232.099 215.791 231.798 211.294L229.899 183.004C229.597 178.509 232.851 174.609 237.165 174.295L264.318 172.316C268.633 172.002 272.376 175.392 272.677 179.887L274.576 208.178C274.878 212.674 271.625 216.572 267.31 216.888Z" stroke="url(#paint8_linear)" stroke-width="1.45029"/>
</g>
<g opacity="0.7" filter="url(#filter8_dd)">
<path d="M-1.06365 156.117L18.2445 147.578C22.2261 145.816 26.8233 147.752 28.5137 151.901L36.7103 172.018C38.3994 176.167 36.5428 180.957 32.5607 182.718L13.2526 191.257C9.27093 193.018 4.67313 191.082 2.98304 186.934L-5.21273 166.817C-6.90294 162.668 -5.0452 157.878 -1.06365 156.117Z" stroke="url(#paint9_linear)" stroke-width="1.45029"/>
</g>
<g opacity="0.93" filter="url(#filter9_dd)">
<path d="M111.045 213.945L98.7722 197.577C96.1091 194.026 96.713 188.897 100.121 186.123L115.831 173.336C119.239 170.561 124.161 171.19 126.824 174.741L139.098 191.109C141.761 194.66 141.156 199.789 137.747 202.564L122.038 215.35C118.63 218.125 113.708 217.496 111.045 213.945Z" stroke="url(#paint10_linear)" stroke-width="1.45029"/>
</g>
<g opacity="0.74" filter="url(#filter10_dd)">
<path d="M267.395 140.076L244.863 140.486C240.538 140.564 236.97 136.975 236.895 132.469L236.501 108.992C236.426 104.486 239.871 100.769 244.195 100.69L266.728 100.281C271.053 100.202 274.62 103.791 274.696 108.297L275.089 131.775C275.165 136.281 271.721 139.997 267.395 140.076Z" stroke="url(#paint11_linear)" stroke-width="1.45029"/>
</g>
<g opacity="0.81" filter="url(#filter11_dd)">
<path d="M340.807 131.284L334.026 167.636C333.201 172.06 329.089 174.949 324.843 174.089L289.953 167.024C285.707 166.163 282.934 161.88 283.76 157.456L290.541 121.104C291.367 116.68 295.478 113.791 299.724 114.65L334.614 121.717C338.859 122.576 341.632 126.86 340.807 131.284Z" stroke="url(#paint12_linear)" stroke-width="1.45029"/>
</g>
<g opacity="0.87" filter="url(#filter12_dd)">
<path d="M157.192 289.899L148.396 246.783C147.497 242.374 150.198 238.042 154.429 237.105L195.811 227.94C200.042 227.003 204.2 229.817 205.099 234.225L213.896 277.342C214.795 281.75 212.094 286.082 207.863 287.02L166.481 296.185C162.25 297.121 158.092 294.307 157.192 289.899Z" stroke="url(#paint13_linear)" stroke-width="1.45029"/>
</g>
<g opacity="0.84" filter="url(#filter13_dd)">
<path d="M31.9017 283.436L19.0604 262.834C16.7045 259.054 17.7355 253.999 21.3633 251.545L41.1361 238.166C44.7643 235.712 49.614 236.786 51.9707 240.565L64.8108 261.168C67.1675 264.947 66.1361 270.001 62.5078 272.456L42.7351 285.835C39.1081 288.289 34.2572 287.215 31.9017 283.436Z" stroke="url(#paint14_linear)" stroke-width="1.45029"/>
</g>
<g opacity="0.76" filter="url(#filter14_dd)">
<path d="M0.799755 294.572L-38.6628 307.143C-42.7992 308.46 -47.1777 306.035 -48.4424 301.725L-60.5073 260.608C-61.7719 256.298 -59.4438 251.736 -55.3074 250.419L-15.8448 237.848C-11.7084 236.53 -7.32987 238.956 -6.06524 243.266L5.99967 284.383C7.2643 288.692 4.93621 293.254 0.799755 294.572Z" stroke="url(#paint15_linear)" stroke-width="1.45029"/>
</g>
<g opacity="0.71" filter="url(#filter15_dd)">
<path d="M287.826 256.321L289.305 285.725C289.531 290.226 286.213 294.065 281.894 294.3L253.673 295.841C249.353 296.077 245.669 292.62 245.443 288.119L243.964 258.717C243.737 254.216 247.055 250.376 251.375 250.14L279.596 248.599C283.914 248.363 287.6 251.821 287.826 256.321Z" stroke="url(#paint16_linear)" stroke-width="1.45029"/>
</g>
<g opacity="0.74" filter="url(#filter16_dd)">
<path d="M313.556 300.281L300.579 256.053C299.315 251.744 301.643 247.182 305.779 245.863L348.227 232.342C352.363 231.025 356.741 233.45 358.007 237.76L370.984 281.987C372.248 286.297 369.92 290.858 365.784 292.177L323.336 305.698C319.2 307.015 314.822 304.59 313.556 300.281Z" stroke="url(#paint17_linear)" stroke-width="1.45029"/>
</g>
<g filter="url(#filter17_d)">
<path d="M78.9423 128.02H89.3243V175H78.9423V128.02ZM96.9676 128.02H108.104L113.266 155.338L118.834 128.02H129.564L130.376 175H123.01L122.14 143.738L116.688 175H110.134L104.334 143.506L103.638 175H96.1556L96.9676 128.02ZM143.78 128.02H155.612L164.37 175H154.8L153.234 165.082H146.332L144.708 175H134.906L143.78 128.02ZM152.248 158.876L149.754 140.548L147.26 158.876H152.248ZM180.614 175.696C175.974 175.696 172.668 174.285 170.696 171.462C168.724 168.639 167.738 164.637 167.738 159.456V143.68C167.738 138.383 168.802 134.342 170.928 131.558C173.094 128.774 176.728 127.382 181.832 127.382C186.743 127.382 190.262 128.581 192.388 130.978C194.515 133.375 195.578 136.759 195.578 141.128V144.144H185.428V140.316C185.428 138.46 185.216 137.068 184.79 136.14C184.365 135.173 183.418 134.69 181.948 134.69C180.44 134.69 179.454 135.212 178.99 136.256C178.565 137.3 178.352 138.75 178.352 140.606V162.356C178.352 164.212 178.623 165.681 179.164 166.764C179.744 167.808 180.769 168.33 182.238 168.33C184.945 168.33 186.298 166.3 186.298 162.24V156.73H182.064V150.64H195.636V175H188.792L188.212 171.114C186.743 174.169 184.21 175.696 180.614 175.696ZM202.134 128.02H223.246V135.096H212.516V146.754H220.694V153.946H212.516V167.982H223.362V175H202.134V128.02Z" fill="#DFFFED"/>
</g>
</g>
<defs>
<filter id="filter0_dd" x="114.222" y="-3.17588" width="73.0955" height="75.8574" filterUnits="userSpaceOnUse" color-interpolation-filters="sRGB">
<feFlood flood-opacity="0" result="BackgroundImageFix"/>
<feColorMatrix in="SourceAlpha" type="matrix" values="0 0 0 0 0 0 0 0 0 0 0 0 0 0 0 0 0 0 127 0"/>
<feOffset dx="1.45029" dy="1.45029"/>
<feGaussianBlur stdDeviation="1.45029"/>
<feColorMatrix type="matrix" values="0 0 0 0 0.227451 0 0 0 0 0.733333 0 0 0 0 0.301961 0 0 0 1 0"/>
<feBlend mode="normal" in2="BackgroundImageFix" result="effect1_dropShadow"/>
<feColorMatrix in="SourceAlpha" type="matrix" values="0 0 0 0 0 0 0 0 0 0 0 0 0 0 0 0 0 0 127 0"/>
<feOffset dx="1.45029" dy="1.45029"/>
<feGaussianBlur stdDeviation="1.45029"/>
<feColorMatrix type="matrix" values="0 0 0 0 0.0627451 0 0 0 0 0.403922 0 0 0 0 0.345098 0 0 0 1 0"/>
<feBlend mode="normal" in2="effect1_dropShadow" result="effect2_dropShadow"/>
<feBlend mode="normal" in="SourceGraphic" in2="effect2_dropShadow" result="shape"/>
</filter>
<filter id="filter1_dd" x="-16.2061" y="5.91299" width="55.5308" height="57.5559" filterUnits="userSpaceOnUse" color-interpolation-filters="sRGB">
<feFlood flood-opacity="0" result="BackgroundImageFix"/>
<feColorMatrix in="SourceAlpha" type="matrix" values="0 0 0 0 0 0 0 0 0 0 0 0 0 0 0 0 0 0 127 0"/>
<feOffset dx="1.45029" dy="1.45029"/>
<feGaussianBlur stdDeviation="1.45029"/>
<feColorMatrix type="matrix" values="0 0 0 0 0.227451 0 0 0 0 0.733333 0 0 0 0 0.301961 0 0 0 1 0"/>
<feBlend mode="normal" in2="BackgroundImageFix" result="effect1_dropShadow"/>
<feColorMatrix in="SourceAlpha" type="matrix" values="0 0 0 0 0 0 0 0 0 0 0 0 0 0 0 0 0 0 127 0"/>
<feOffset dx="1.45029" dy="1.45029"/>
<feGaussianBlur stdDeviation="1.45029"/>
<feColorMatrix type="matrix" values="0 0 0 0 0.0627451 0 0 0 0 0.403922 0 0 0 0 0.345098 0 0 0 1 0"/>
<feBlend mode="normal" in2="effect1_dropShadow" result="effect2_dropShadow"/>
<feBlend mode="normal" in="SourceGraphic" in2="effect2_dropShadow" result="shape"/>
</filter>
<filter id="filter2_dd" x="63.9545" y="80.2548" width="76.4766" height="79.3808" filterUnits="userSpaceOnUse" color-interpolation-filters="sRGB">
<feFlood flood-opacity="0" result="BackgroundImageFix"/>
<feColorMatrix in="SourceAlpha" type="matrix" values="0 0 0 0 0 0 0 0 0 0 0 0 0 0 0 0 0 0 127 0"/>
<feOffset dx="1.45029" dy="1.45029"/>
<feGaussianBlur stdDeviation="1.45029"/>
<feColorMatrix type="matrix" values="0 0 0 0 0.227451 0 0 0 0 0.733333 0 0 0 0 0.301961 0 0 0 1 0"/>
<feBlend mode="normal" in2="BackgroundImageFix" result="effect1_dropShadow"/>
<feColorMatrix in="SourceAlpha" type="matrix" values="0 0 0 0 0 0 0 0 0 0 0 0 0 0 0 0 0 0 127 0"/>
<feOffset dx="1.45029" dy="1.45029"/>
<feGaussianBlur stdDeviation="1.45029"/>
<feColorMatrix type="matrix" values="0 0 0 0 0.0627451 0 0 0 0 0.403922 0 0 0 0 0.345098 0 0 0 1 0"/>
<feBlend mode="normal" in2="effect1_dropShadow" result="effect2_dropShadow"/>
<feBlend mode="normal" in="SourceGraphic" in2="effect2_dropShadow" result="shape"/>
</filter>
<filter id="filter3_dd" x="209.951" y="17.6513" width="52.6148" height="54.5168" filterUnits="userSpaceOnUse" color-interpolation-filters="sRGB">
<feFlood flood-opacity="0" result="BackgroundImageFix"/>
<feColorMatrix in="SourceAlpha" type="matrix" values="0 0 0 0 0 0 0 0 0 0 0 0 0 0 0 0 0 0 127 0"/>
<feOffset dx="1.45029" dy="1.45029"/>
<feGaussianBlur stdDeviation="1.45029"/>
<feColorMatrix type="matrix" values="0 0 0 0 0.227451 0 0 0 0 0.733333 0 0 0 0 0.301961 0 0 0 1 0"/>
<feBlend mode="normal" in2="BackgroundImageFix" result="effect1_dropShadow"/>
<feColorMatrix in="SourceAlpha" type="matrix" values="0 0 0 0 0 0 0 0 0 0 0 0 0 0 0 0 0 0 127 0"/>
<feOffset dx="1.45029" dy="1.45029"/>
<feGaussianBlur stdDeviation="1.45029"/>
<feColorMatrix type="matrix" values="0 0 0 0 0.0627451 0 0 0 0 0.403922 0 0 0 0 0.345098 0 0 0 1 0"/>
<feBlend mode="normal" in2="effect1_dropShadow" result="effect2_dropShadow"/>
<feBlend mode="normal" in="SourceGraphic" in2="effect2_dropShadow" result="shape"/>
</filter>
<filter id="filter4_dd" x="266.234" y="1.04873" width="78.344" height="81.3265" filterUnits="userSpaceOnUse" color-interpolation-filters="sRGB">
<feFlood flood-opacity="0" result="BackgroundImageFix"/>
<feColorMatrix in="SourceAlpha" type="matrix" values="0 0 0 0 0 0 0 0 0 0 0 0 0 0 0 0 0 0 127 0"/>
<feOffset dx="1.45029" dy="1.45029"/>
<feGaussianBlur stdDeviation="1.45029"/>
<feColorMatrix type="matrix" values="0 0 0 0 0.227451 0 0 0 0 0.733333 0 0 0 0 0.301961 0 0 0 1 0"/>
<feBlend mode="normal" in2="BackgroundImageFix" result="effect1_dropShadow"/>
<feColorMatrix in="SourceAlpha" type="matrix" values="0 0 0 0 0 0 0 0 0 0 0 0 0 0 0 0 0 0 127 0"/>
<feOffset dx="1.45029" dy="1.45029"/>
<feGaussianBlur stdDeviation="1.45029"/>
<feColorMatrix type="matrix" values="0 0 0 0 0.0627451 0 0 0 0 0.403922 0 0 0 0 0.345098 0 0 0 1 0"/>
<feBlend mode="normal" in2="effect1_dropShadow" result="effect2_dropShadow"/>
<feBlend mode="normal" in="SourceGraphic" in2="effect2_dropShadow" result="shape"/>
</filter>
<filter id="filter5_dd" x="1.13516" y="75.3681" width="44.535" height="46.099" filterUnits="userSpaceOnUse" color-interpolation-filters="sRGB">
<feFlood flood-opacity="0" result="BackgroundImageFix"/>
<feColorMatrix in="SourceAlpha" type="matrix" values="0 0 0 0 0 0 0 0 0 0 0 0 0 0 0 0 0 0 127 0"/>
<feOffset dx="1.45029" dy="1.45029"/>
<feGaussianBlur stdDeviation="1.45029"/>
<feColorMatrix type="matrix" values="0 0 0 0 0.227451 0 0 0 0 0.733333 0 0 0 0 0.301961 0 0 0 1 0"/>
<feBlend mode="normal" in2="BackgroundImageFix" result="effect1_dropShadow"/>
<feColorMatrix in="SourceAlpha" type="matrix" values="0 0 0 0 0 0 0 0 0 0 0 0 0 0 0 0 0 0 127 0"/>
<feOffset dx="1.45029" dy="1.45029"/>
<feGaussianBlur stdDeviation="1.45029"/>
<feColorMatrix type="matrix" values="0 0 0 0 0.0627451 0 0 0 0 0.403922 0 0 0 0 0.345098 0 0 0 1 0"/>
<feBlend mode="normal" in2="effect1_dropShadow" result="effect2_dropShadow"/>
<feBlend mode="normal" in="SourceGraphic" in2="effect2_dropShadow" result="shape"/>
</filter>
<filter id="filter6_dd" x="165.63" y="92.5976" width="60.6608" height="62.9001" filterUnits="userSpaceOnUse" color-interpolation-filters="sRGB">
<feFlood flood-opacity="0" result="BackgroundImageFix"/>
<feColorMatrix in="SourceAlpha" type="matrix" values="0 0 0 0 0 0 0 0 0 0 0 0 0 0 0 0 0 0 127 0"/>
<feOffset dx="1.45029" dy="1.45029"/>
<feGaussianBlur stdDeviation="1.45029"/>
<feColorMatrix type="matrix" values="0 0 0 0 0.227451 0 0 0 0 0.733333 0 0 0 0 0.301961 0 0 0 1 0"/>
<feBlend mode="normal" in2="BackgroundImageFix" result="effect1_dropShadow"/>
<feColorMatrix in="SourceAlpha" type="matrix" values="0 0 0 0 0 0 0 0 0 0 0 0 0 0 0 0 0 0 127 0"/>
<feOffset dx="1.45029" dy="1.45029"/>
<feGaussianBlur stdDeviation="1.45029"/>
<feColorMatrix type="matrix" values="0 0 0 0 0.0627451 0 0 0 0 0.403922 0 0 0 0 0.345098 0 0 0 1 0"/>
<feBlend mode="normal" in2="effect1_dropShadow" result="effect2_dropShadow"/>
<feBlend mode="normal" in="SourceGraphic" in2="effect2_dropShadow" result="shape"/>
</filter>
<filter id="filter7_dd" x="227.704" y="170.12" width="51.9678" height="53.8413" filterUnits="userSpaceOnUse" color-interpolation-filters="sRGB">
<feFlood flood-opacity="0" result="BackgroundImageFix"/>
<feColorMatrix in="SourceAlpha" type="matrix" values="0 0 0 0 0 0 0 0 0 0 0 0 0 0 0 0 0 0 127 0"/>
<feOffset dx="1.45029" dy="1.45029"/>
<feGaussianBlur stdDeviation="1.45029"/>
<feColorMatrix type="matrix" values="0 0 0 0 0.227451 0 0 0 0 0.733333 0 0 0 0 0.301961 0 0 0 1 0"/>
<feBlend mode="normal" in2="BackgroundImageFix" result="effect1_dropShadow"/>
<feColorMatrix in="SourceAlpha" type="matrix" values="0 0 0 0 0 0 0 0 0 0 0 0 0 0 0 0 0 0 127 0"/>
<feOffset dx="1.45029" dy="1.45029"/>
<feGaussianBlur stdDeviation="1.45029"/>
<feColorMatrix type="matrix" values="0 0 0 0 0.0627451 0 0 0 0 0.403922 0 0 0 0 0.345098 0 0 0 1 0"/>
<feBlend mode="normal" in2="effect1_dropShadow" result="effect2_dropShadow"/>
<feBlend mode="normal" in="SourceGraphic" in2="effect2_dropShadow" result="shape"/>
</filter>
<filter id="filter8_dd" x="-8.0123" y="144.75" width="50.4225" height="52.2346" filterUnits="userSpaceOnUse" color-interpolation-filters="sRGB">
<feFlood flood-opacity="0" result="BackgroundImageFix"/>
<feColorMatrix in="SourceAlpha" type="matrix" values="0 0 0 0 0 0 0 0 0 0 0 0 0 0 0 0 0 0 127 0"/>
<feOffset dx="1.45029" dy="1.45029"/>
<feGaussianBlur stdDeviation="1.45029"/>
<feColorMatrix type="matrix" values="0 0 0 0 0.227451 0 0 0 0 0.733333 0 0 0 0 0.301961 0 0 0 1 0"/>
<feBlend mode="normal" in2="BackgroundImageFix" result="effect1_dropShadow"/>
<feColorMatrix in="SourceAlpha" type="matrix" values="0 0 0 0 0 0 0 0 0 0 0 0 0 0 0 0 0 0 127 0"/>
<feOffset dx="1.45029" dy="1.45029"/>
<feGaussianBlur stdDeviation="1.45029"/>
<feColorMatrix type="matrix" values="0 0 0 0 0.0627451 0 0 0 0 0.403922 0 0 0 0 0.345098 0 0 0 1 0"/>
<feBlend mode="normal" in2="effect1_dropShadow" result="effect2_dropShadow"/>
<feBlend mode="normal" in="SourceGraphic" in2="effect2_dropShadow" result="shape"/>
</filter>
<filter id="filter9_dd" x="94.9359" y="169.43" width="50.8981" height="52.7273" filterUnits="userSpaceOnUse" color-interpolation-filters="sRGB">
<feFlood flood-opacity="0" result="BackgroundImageFix"/>
<feColorMatrix in="SourceAlpha" type="matrix" values="0 0 0 0 0 0 0 0 0 0 0 0 0 0 0 0 0 0 127 0"/>
<feOffset dx="1.45029" dy="1.45029"/>
<feGaussianBlur stdDeviation="1.45029"/>
<feColorMatrix type="matrix" values="0 0 0 0 0.227451 0 0 0 0 0.733333 0 0 0 0 0.301961 0 0 0 1 0"/>
<feBlend mode="normal" in2="BackgroundImageFix" result="effect1_dropShadow"/>
<feColorMatrix in="SourceAlpha" type="matrix" values="0 0 0 0 0 0 0 0 0 0 0 0 0 0 0 0 0 0 127 0"/>
<feOffset dx="1.45029" dy="1.45029"/>
<feGaussianBlur stdDeviation="1.45029"/>
<feColorMatrix type="matrix" values="0 0 0 0 0.0627451 0 0 0 0 0.403922 0 0 0 0 0.345098 0 0 0 1 0"/>
<feBlend mode="normal" in2="effect1_dropShadow" result="effect2_dropShadow"/>
<feBlend mode="normal" in="SourceGraphic" in2="effect2_dropShadow" result="shape"/>
</filter>
<filter id="filter10_dd" x="234.325" y="98.1034" width="45.8416" height="47.4593" filterUnits="userSpaceOnUse" color-interpolation-filters="sRGB">
<feFlood flood-opacity="0" result="BackgroundImageFix"/>
<feColorMatrix in="SourceAlpha" type="matrix" values="0 0 0 0 0 0 0 0 0 0 0 0 0 0 0 0 0 0 127 0"/>
<feOffset dx="1.45029" dy="1.45029"/>
<feGaussianBlur stdDeviation="1.45029"/>
<feColorMatrix type="matrix" values="0 0 0 0 0.227451 0 0 0 0 0.733333 0 0 0 0 0.301961 0 0 0 1 0"/>
<feBlend mode="normal" in2="BackgroundImageFix" result="effect1_dropShadow"/>
<feColorMatrix in="SourceAlpha" type="matrix" values="0 0 0 0 0 0 0 0 0 0 0 0 0 0 0 0 0 0 127 0"/>
<feOffset dx="1.45029" dy="1.45029"/>
<feGaussianBlur stdDeviation="1.45029"/>
<feColorMatrix type="matrix" values="0 0 0 0 0.0627451 0 0 0 0 0.403922 0 0 0 0 0.345098 0 0 0 1 0"/>
<feBlend mode="normal" in2="effect1_dropShadow" result="effect2_dropShadow"/>
<feBlend mode="normal" in="SourceGraphic" in2="effect2_dropShadow" result="shape"/>
</filter>
<filter id="filter11_dd" x="281.439" y="112.323" width="64.5892" height="66.9945" filterUnits="userSpaceOnUse" color-interpolation-filters="sRGB">
<feFlood flood-opacity="0" result="BackgroundImageFix"/>
<feColorMatrix in="SourceAlpha" type="matrix" values="0 0 0 0 0 0 0 0 0 0 0 0 0 0 0 0 0 0 127 0"/>
<feOffset dx="1.45029" dy="1.45029"/>
<feGaussianBlur stdDeviation="1.45029"/>
<feColorMatrix type="matrix" values="0 0 0 0 0.227451 0 0 0 0 0.733333 0 0 0 0 0.301961 0 0 0 1 0"/>
<feBlend mode="normal" in2="BackgroundImageFix" result="effect1_dropShadow"/>
<feColorMatrix in="SourceAlpha" type="matrix" values="0 0 0 0 0 0 0 0 0 0 0 0 0 0 0 0 0 0 127 0"/>
<feOffset dx="1.45029" dy="1.45029"/>
<feGaussianBlur stdDeviation="1.45029"/>
<feColorMatrix type="matrix" values="0 0 0 0 0.0627451 0 0 0 0 0.403922 0 0 0 0 0.345098 0 0 0 1 0"/>
<feBlend mode="normal" in2="effect1_dropShadow" result="effect2_dropShadow"/>
<feBlend mode="normal" in="SourceGraphic" in2="effect2_dropShadow" result="shape"/>
</filter>
<filter id="filter12_dd" x="146.049" y="225.584" width="73.0955" height="75.8574" filterUnits="userSpaceOnUse" color-interpolation-filters="sRGB">
<feFlood flood-opacity="0" result="BackgroundImageFix"/>
<feColorMatrix in="SourceAlpha" type="matrix" values="0 0 0 0 0 0 0 0 0 0 0 0 0 0 0 0 0 0 127 0"/>
<feOffset dx="1.45029" dy="1.45029"/>
<feGaussianBlur stdDeviation="1.45029"/>
<feColorMatrix type="matrix" values="0 0 0 0 0.227451 0 0 0 0 0.733333 0 0 0 0 0.301961 0 0 0 1 0"/>
<feBlend mode="normal" in2="BackgroundImageFix" result="effect1_dropShadow"/>
<feColorMatrix in="SourceAlpha" type="matrix" values="0 0 0 0 0 0 0 0 0 0 0 0 0 0 0 0 0 0 127 0"/>
<feOffset dx="1.45029" dy="1.45029"/>
<feGaussianBlur stdDeviation="1.45029"/>
<feColorMatrix type="matrix" values="0 0 0 0 0.0627451 0 0 0 0 0.403922 0 0 0 0 0.345098 0 0 0 1 0"/>
<feBlend mode="normal" in2="effect1_dropShadow" result="effect2_dropShadow"/>
<feBlend mode="normal" in="SourceGraphic" in2="effect2_dropShadow" result="shape"/>
</filter>
<filter id="filter13_dd" x="15.6205" y="234.673" width="55.5309" height="57.5559" filterUnits="userSpaceOnUse" color-interpolation-filters="sRGB">
<feFlood flood-opacity="0" result="BackgroundImageFix"/>
<feColorMatrix in="SourceAlpha" type="matrix" values="0 0 0 0 0 0 0 0 0 0 0 0 0 0 0 0 0 0 127 0"/>
<feOffset dx="1.45029" dy="1.45029"/>
<feGaussianBlur stdDeviation="1.45029"/>
<feColorMatrix type="matrix" values="0 0 0 0 0.227451 0 0 0 0 0.733333 0 0 0 0 0.301961 0 0 0 1 0"/>
<feBlend mode="normal" in2="BackgroundImageFix" result="effect1_dropShadow"/>
<feColorMatrix in="SourceAlpha" type="matrix" values="0 0 0 0 0 0 0 0 0 0 0 0 0 0 0 0 0 0 127 0"/>
<feOffset dx="1.45029" dy="1.45029"/>
<feGaussianBlur stdDeviation="1.45029"/>
<feColorMatrix type="matrix" values="0 0 0 0 0.0627451 0 0 0 0 0.403922 0 0 0 0 0.345098 0 0 0 1 0"/>
<feBlend mode="normal" in2="effect1_dropShadow" result="effect2_dropShadow"/>
<feBlend mode="normal" in="SourceGraphic" in2="effect2_dropShadow" result="shape"/>
</filter>
<filter id="filter14_dd" x="-63.0265" y="235.313" width="74.4461" height="77.2656" filterUnits="userSpaceOnUse" color-interpolation-filters="sRGB">
<feFlood flood-opacity="0" result="BackgroundImageFix"/>
<feColorMatrix in="SourceAlpha" type="matrix" values="0 0 0 0 0 0 0 0 0 0 0 0 0 0 0 0 0 0 127 0"/>
<feOffset dx="1.45029" dy="1.45029"/>
<feGaussianBlur stdDeviation="1.45029"/>
<feColorMatrix type="matrix" values="0 0 0 0 0.227451 0 0 0 0 0.733333 0 0 0 0 0.301961 0 0 0 1 0"/>
<feBlend mode="normal" in2="BackgroundImageFix" result="effect1_dropShadow"/>
<feColorMatrix in="SourceAlpha" type="matrix" values="0 0 0 0 0 0 0 0 0 0 0 0 0 0 0 0 0 0 127 0"/>
<feOffset dx="1.45029" dy="1.45029"/>
<feGaussianBlur stdDeviation="1.45029"/>
<feColorMatrix type="matrix" values="0 0 0 0 0.0627451 0 0 0 0 0.403922 0 0 0 0 0.345098 0 0 0 1 0"/>
<feBlend mode="normal" in2="effect1_dropShadow" result="effect2_dropShadow"/>
<feBlend mode="normal" in="SourceGraphic" in2="effect2_dropShadow" result="shape"/>
</filter>
<filter id="filter15_dd" x="241.777" y="246.412" width="52.6148" height="54.5165" filterUnits="userSpaceOnUse" color-interpolation-filters="sRGB">
<feFlood flood-opacity="0" result="BackgroundImageFix"/>
<feColorMatrix in="SourceAlpha" type="matrix" values="0 0 0 0 0 0 0 0 0 0 0 0 0 0 0 0 0 0 127 0"/>
<feOffset dx="1.45029" dy="1.45029"/>
<feGaussianBlur stdDeviation="1.45029"/>
<feColorMatrix type="matrix" values="0 0 0 0 0.227451 0 0 0 0 0.733333 0 0 0 0 0.301961 0 0 0 1 0"/>
<feBlend mode="normal" in2="BackgroundImageFix" result="effect1_dropShadow"/>
<feColorMatrix in="SourceAlpha" type="matrix" values="0 0 0 0 0 0 0 0 0 0 0 0 0 0 0 0 0 0 127 0"/>
<feOffset dx="1.45029" dy="1.45029"/>
<feGaussianBlur stdDeviation="1.45029"/>
<feColorMatrix type="matrix" values="0 0 0 0 0.0627451 0 0 0 0 0.403922 0 0 0 0 0.345098 0 0 0 1 0"/>
<feBlend mode="normal" in2="effect1_dropShadow" result="effect2_dropShadow"/>
<feBlend mode="normal" in="SourceGraphic" in2="effect2_dropShadow" result="shape"/>
</filter>
<filter id="filter16_dd" x="298.06" y="229.808" width="78.344" height="81.3266" filterUnits="userSpaceOnUse" color-interpolation-filters="sRGB">
<feFlood flood-opacity="0" result="BackgroundImageFix"/>
<feColorMatrix in="SourceAlpha" type="matrix" values="0 0 0 0 0 0 0 0 0 0 0 0 0 0 0 0 0 0 127 0"/>
<feOffset dx="1.45029" dy="1.45029"/>
<feGaussianBlur stdDeviation="1.45029"/>
<feColorMatrix type="matrix" values="0 0 0 0 0.227451 0 0 0 0 0.733333 0 0 0 0 0.301961 0 0 0 1 0"/>
<feBlend mode="normal" in2="BackgroundImageFix" result="effect1_dropShadow"/>
<feColorMatrix in="SourceAlpha" type="matrix" values="0 0 0 0 0 0 0 0 0 0 0 0 0 0 0 0 0 0 127 0"/>
<feOffset dx="1.45029" dy="1.45029"/>
<feGaussianBlur stdDeviation="1.45029"/>
<feColorMatrix type="matrix" values="0 0 0 0 0.0627451 0 0 0 0 0.403922 0 0 0 0 0.345098 0 0 0 1 0"/>
<feBlend mode="normal" in2="effect1_dropShadow" result="effect2_dropShadow"/>
<feBlend mode="normal" in="SourceGraphic" in2="effect2_dropShadow" result="shape"/>
</filter>
<filter id="filter17_d" x="74.9424" y="127.382" width="152.42" height="56.314" filterUnits="userSpaceOnUse" color-interpolation-filters="sRGB">
<feFlood flood-opacity="0" result="BackgroundImageFix"/>
<feColorMatrix in="SourceAlpha" type="matrix" values="0 0 0 0 0 0 0 0 0 0 0 0 0 0 0 0 0 0 127 0"/>
<feOffset dy="4"/>
<feGaussianBlur stdDeviation="2"/>
<feColorMatrix type="matrix" values="0 0 0 0 0 0 0 0 0 0 0 0 0 0 0 0 0 0 0.25 0"/>
<feBlend mode="normal" in2="BackgroundImageFix" result="effect1_dropShadow"/>
<feBlend mode="normal" in="SourceGraphic" in2="effect1_dropShadow" result="shape"/>
</filter>
<linearGradient id="paint0_linear" x1="-81.8" y1="-1.96301" x2="440.246" y2="234.747" gradientUnits="userSpaceOnUse">
<stop stop-color="#27AE60"/>
<stop offset="1" stop-color="#219653"/>
</linearGradient>
<linearGradient id="paint1_linear" x1="120.313" y1="39.7264" x2="178.524" y2="27.8508" gradientUnits="userSpaceOnUse">
<stop stop-color="#0E6633"/>
<stop offset="1" stop-color="#3ACC77"/>
</linearGradient>
<linearGradient id="paint2_linear" x1="-6.90764" y1="44.7545" x2="27.9403" y2="23.0342" gradientUnits="userSpaceOnUse">
<stop stop-color="#0E6633"/>
<stop offset="1" stop-color="#3ACC77"/>
</linearGradient>
<linearGradient id="paint3_linear" x1="128.364" y1="108.02" x2="72.6058" y2="127.498" gradientUnits="userSpaceOnUse">
<stop stop-color="#0E6633"/>
<stop offset="1" stop-color="#3ACC77"/>
</linearGradient>
<linearGradient id="paint4_linear" x1="257.409" y1="42.2256" x2="212.199" y2="44.4996" gradientUnits="userSpaceOnUse">
<stop stop-color="#0E6633"/>
<stop offset="1" stop-color="#3ACC77"/>
</linearGradient>
<linearGradient id="paint5_linear" x1="274.601" y1="49.6119" x2="333.708" y2="32.2682" gradientUnits="userSpaceOnUse">
<stop stop-color="#0E6633"/>
<stop offset="1" stop-color="#3ACC77"/>
</linearGradient>
<linearGradient id="paint6_linear" x1="39.6805" y1="99.8928" x2="4.15589" y2="94.4925" gradientUnits="userSpaceOnUse">
<stop stop-color="#0E6633"/>
<stop offset="1" stop-color="#3ACC77"/>
</linearGradient>
<linearGradient id="paint7_linear" x1="194.038" y1="94.4144" x2="195.064" y2="150.779" gradientUnits="userSpaceOnUse">
<stop stop-color="#0E6633"/>
<stop offset="1" stop-color="#3ACC77"/>
</linearGradient>
<linearGradient id="paint8_linear" x1="253.78" y1="218.572" x2="250.433" y2="172.628" gradientUnits="userSpaceOnUse">
<stop stop-color="#0E6633"/>
<stop offset="1" stop-color="#3ACC77"/>
</linearGradient>
<linearGradient id="paint9_linear" x1="8.32874" y1="151.204" x2="24.2312" y2="187.161" gradientUnits="userSpaceOnUse">
<stop stop-color="#0E6633"/>
<stop offset="1" stop-color="#3ACC77"/>
</linearGradient>
<linearGradient id="paint10_linear" x1="104.381" y1="206.19" x2="134.384" y2="183.692" gradientUnits="userSpaceOnUse">
<stop stop-color="#0E6633"/>
<stop offset="1" stop-color="#3ACC77"/>
</linearGradient>
<linearGradient id="paint11_linear" x1="256.14" y1="140.978" x2="255.391" y2="99.7888" gradientUnits="userSpaceOnUse">
<stop stop-color="#0E6633"/>
<stop offset="1" stop-color="#3ACC77"/>
</linearGradient>
<linearGradient id="paint12_linear" x1="338.074" y1="149.593" x2="286.344" y2="139.943" gradientUnits="userSpaceOnUse">
<stop stop-color="#0E6633"/>
<stop offset="1" stop-color="#3ACC77"/>
</linearGradient>
<linearGradient id="paint13_linear" x1="152.14" y1="268.486" x2="210.351" y2="256.611" gradientUnits="userSpaceOnUse">
<stop stop-color="#0D6B34"/>
<stop offset="1" stop-color="#36C071"/>
</linearGradient>
<linearGradient id="paint14_linear" x1="24.919" y1="273.515" x2="59.7671" y2="251.794" gradientUnits="userSpaceOnUse">
<stop stop-color="#0D6B34"/>
<stop offset="1" stop-color="#36C071"/>
</linearGradient>
<linearGradient id="paint15_linear" x1="-18.7357" y1="301.525" x2="-37.0956" y2="243.887" gradientUnits="userSpaceOnUse">
<stop stop-color="#0D6B34"/>
<stop offset="1" stop-color="#36C071"/>
</linearGradient>
<linearGradient id="paint16_linear" x1="289.235" y1="270.987" x2="244.024" y2="273.26" gradientUnits="userSpaceOnUse">
<stop stop-color="#0D6B34"/>
<stop offset="1" stop-color="#36C071"/>
</linearGradient>
<linearGradient id="paint17_linear" x1="306.428" y1="278.371" x2="365.534" y2="261.027" gradientUnits="userSpaceOnUse">
<stop stop-color="#0D6B34"/>
<stop offset="1" stop-color="#36C071"/>
</linearGradient>
<clipPath id="clip0">
<rect width="300" height="300" fill="white" transform="translate(0 -1)"/>
</clipPath>
</defs>
</svg>
