<svg width="300" height="300" viewBox="0 0 300 300" fill="none" xmlns="http://www.w3.org/2000/svg">
<g clip-path="url(#clip0)">
<path d="M453.594 0H-80V300.146H453.594V0Z" fill="url(#paint0_linear)"/>
<g opacity="0.79" filter="url(#filter0_dd)">
<path d="M-0.834659 90.4486C-11.4966 97.3726 -25.7528 94.3423 -32.6768 83.6805C-39.6007 73.0185 -36.5705 58.7623 -25.9085 51.8384C-15.2465 44.9144 -0.990332 47.9447 5.93362 58.6065C12.8576 69.2685 9.82731 83.5247 -0.834659 90.4486Z" stroke="url(#paint1_linear)" stroke-width="1.30272"/>
</g>
<g opacity="0.82" filter="url(#filter1_dd)">
<path d="M0.850603 16.1366C-6.803 18.0449 -14.5543 13.3874 -16.4625 5.7339C-18.3708 -1.91964 -13.7133 -9.67098 -6.0598 -11.5792C1.59381 -13.4875 9.34511 -8.82998 11.2533 -1.17645C13.1616 6.47708 8.50408 14.2284 0.850603 16.1366Z" stroke="url(#paint2_linear)" stroke-width="1.30272"/>
</g>
<g opacity="0.82" filter="url(#filter2_dd)">
<path d="M290.576 68.6601C282.923 70.5683 275.172 65.9108 273.263 58.2573C271.356 50.6037 276.013 42.8524 283.667 40.9442C291.32 39.036 299.071 43.6935 300.98 51.3469C302.888 59.0004 298.23 66.7519 290.576 68.6601Z" stroke="url(#paint3_linear)" stroke-width="1.30272"/>
</g>
<g opacity="0.82" filter="url(#filter3_dd)">
<path d="M216.467 264.627C208.813 266.536 201.061 261.879 199.154 254.225C197.246 246.572 201.903 238.821 209.556 236.912C217.21 235.004 224.961 239.661 226.87 247.314C228.778 254.968 224.121 262.719 216.467 264.627Z" stroke="url(#paint4_linear)" stroke-width="1.30272"/>
</g>
<g opacity="0.74" filter="url(#filter4_dd)">
<path d="M54.3806 14.8594C50.8138 6.45657 54.735 -3.2468 63.1375 -6.81362C71.54 -10.3804 81.244 -6.46002 84.8108 1.94287C88.3777 10.3458 84.4565 20.0492 76.054 23.6159C67.6514 27.1828 57.9475 23.2624 54.3806 14.8594Z" stroke="url(#paint5_linear)" stroke-width="1.30272"/>
</g>
<g opacity="0.83" filter="url(#filter5_dd)">
<path d="M186.996 7.5718C181.845 18.1307 169.111 22.5156 158.552 17.3657C147.992 12.2157 143.609 -0.518847 148.758 -11.0778C153.908 -21.6368 166.642 -26.0216 177.202 -20.8717C187.76 -15.7217 192.145 -2.98715 186.996 7.5718Z" stroke="url(#paint6_linear)" stroke-width="1.30272"/>
</g>
<g opacity="0.73" filter="url(#filter6_dd)">
<path d="M278.316 13.1665C268.572 16.7131 257.797 11.6891 254.251 1.94512C250.705 -7.79884 255.728 -18.5729 265.473 -22.1194C275.217 -25.666 285.99 -20.6419 289.536 -10.8979C293.084 -1.15397 288.059 9.62008 278.316 13.1665Z" stroke="url(#paint7_linear)" stroke-width="1.30272"/>
</g>
<g opacity="0.85" filter="url(#filter7_dd)">
<path d="M52.8691 62.6794C61.1922 48.8281 79.1671 44.3462 93.0189 52.6689C106.869 60.9916 111.352 78.9671 103.029 92.8186C94.7059 106.67 76.731 111.152 62.8792 102.829C49.0283 94.5062 44.5464 76.5307 52.8691 62.6794Z" stroke="url(#paint8_linear)" stroke-width="1.30272"/>
</g>
<g opacity="0.85" filter="url(#filter8_dd)">
<path d="M98.0464 231.134C106.37 217.283 124.344 212.801 138.196 221.124C152.047 229.446 156.529 247.422 148.206 261.273C139.883 275.125 121.908 279.606 108.057 271.284C94.206 262.961 89.7234 244.986 98.0464 231.134Z" stroke="url(#paint9_linear)" stroke-width="1.30272"/>
</g>
<g opacity="0.77" filter="url(#filter9_dd)">
<path d="M122.99 41.3025C124.287 30.7368 133.905 23.2234 144.47 24.5206C155.036 25.8179 162.549 35.4348 161.251 46.0004C159.954 56.5661 150.337 64.0797 139.772 62.7823C129.206 61.485 121.693 51.8682 122.99 41.3025Z" stroke="url(#paint10_linear)" stroke-width="1.30272"/>
</g>
<g opacity="0.97" filter="url(#filter10_dd)">
<path d="M196.946 124.68C186.028 124.871 177.021 116.174 176.831 105.255C176.641 94.3356 185.337 85.3294 196.256 85.1388C207.175 84.9482 216.182 93.6454 216.372 104.564C216.562 115.484 207.865 124.49 196.946 124.68Z" stroke="url(#paint11_linear)" stroke-width="1.30272"/>
</g>
<g filter="url(#filter11_dd)">
<path d="M306.772 132.456C301.709 141.978 289.889 145.592 280.367 140.529C270.847 135.467 267.233 123.645 272.295 114.125C277.356 104.604 289.179 100.99 298.7 106.052C308.22 111.114 311.834 122.936 306.772 132.456Z" stroke="url(#paint12_linear)" stroke-width="1.30272"/>
</g>
<g opacity="0.97" filter="url(#filter12_dd)">
<path d="M12.4182 176.962C1.35249 185.001 -14.1354 182.548 -22.1751 171.482C-30.2147 160.417 -27.7617 144.929 -16.696 136.889C-5.63034 128.849 9.85756 131.303 17.8973 142.368C25.9369 153.433 23.4839 168.921 12.4182 176.962Z" stroke="url(#paint13_linear)" stroke-width="1.30272"/>
</g>
<g opacity="0.97" filter="url(#filter13_dd)">
<path d="M80.4894 221.551C72.2302 227.551 60.6724 225.72 54.6721 217.462C48.6719 209.204 50.5021 197.645 58.7614 191.644C67.0193 185.644 78.5783 187.476 84.5786 195.734C90.5777 203.992 88.7473 215.551 80.4894 221.551Z" stroke="url(#paint14_linear)" stroke-width="1.30272"/>
</g>
<g opacity="0.97" filter="url(#filter14_dd)">
<path d="M278.363 210.99C270.105 216.99 258.546 215.16 252.546 206.9C246.546 198.642 248.377 187.083 256.635 181.084C264.893 175.084 276.452 176.914 282.452 185.172C288.453 193.432 286.621 204.989 278.363 210.99Z" stroke="url(#paint15_linear)" stroke-width="1.30272"/>
</g>
<g opacity="0.82" filter="url(#filter15_dd)">
<path d="M57.0109 168.567C46.3742 164.269 41.2351 152.162 45.5328 141.525C49.8303 130.888 61.9365 125.75 72.5732 130.047C83.2112 134.345 88.3491 146.452 84.0514 157.089C79.7551 167.725 67.6476 172.865 57.0109 168.567Z" stroke="url(#paint16_linear)" stroke-width="1.30272"/>
</g>
<g opacity="0.86" filter="url(#filter16_dd)">
<path d="M126.233 121.935C131.101 112.78 142.469 109.304 151.624 114.172C160.78 119.04 164.255 130.409 159.388 139.564C154.52 148.72 143.151 152.195 133.996 147.327C124.84 142.459 121.365 131.091 126.233 121.935Z" stroke="url(#paint17_linear)" stroke-width="1.30272"/>
</g>
<g opacity="0.86" filter="url(#filter17_dd)">
<path d="M159.31 182.876C164.179 173.72 175.546 170.244 184.702 175.113C193.857 179.981 197.333 191.348 192.466 200.504C187.598 209.659 176.229 213.135 167.073 208.268C157.918 203.4 154.442 192.031 159.31 182.876Z" stroke="url(#paint18_linear)" stroke-width="1.30272"/>
</g>
<g opacity="0.99" filter="url(#filter18_dd)">
<path d="M203.569 25.9124C211.835 13.6585 228.469 10.4252 240.723 18.6905C252.976 26.9558 256.21 43.5899 247.945 55.8438C239.679 68.0975 223.045 71.3309 210.792 63.0655C198.538 54.8003 195.305 38.1663 203.569 25.9124Z" stroke="url(#paint19_linear)" stroke-width="1.30272"/>
</g>
<g opacity="0.99" filter="url(#filter19_dd)">
<path d="M305.555 176.839C313.821 164.584 330.454 161.351 342.709 169.617C354.962 177.882 358.195 194.515 349.93 206.77C341.665 219.023 325.031 222.257 312.777 213.991C300.523 205.727 297.289 189.092 305.555 176.839Z" stroke="url(#paint20_linear)" stroke-width="1.30272"/>
</g>
<g opacity="0.89" filter="url(#filter20_dd)">
<path d="M270.928 246.927C276.495 238.017 288.232 235.307 297.142 240.875C306.053 246.443 308.762 258.179 303.195 267.089C297.627 276 285.889 278.71 276.98 273.142C268.069 267.574 265.358 255.838 270.928 246.927Z" stroke="url(#paint21_linear)" stroke-width="1.30272"/>
</g>
<g opacity="0.89" filter="url(#filter21_dd)">
<path d="M40.6103 317.211C25.5109 319.874 11.1122 309.791 8.44986 294.692C5.78736 279.592 15.8695 265.193 30.9688 262.531C46.0681 259.869 60.4665 269.951 63.1293 285.051C65.792 300.149 55.709 314.548 40.6103 317.211Z" stroke="url(#paint22_linear)" stroke-width="1.30272"/>
</g>
<g opacity="0.92" filter="url(#filter22_dd)">
<path d="M-34.0971 235.408C-32.5388 224.321 -22.2874 216.596 -11.1998 218.155C-0.112383 219.713 7.61261 229.964 6.05429 241.052C4.49611 252.139 -5.75524 259.864 -16.8428 258.306C-27.9303 256.748 -35.6553 246.496 -34.0971 235.408Z" stroke="url(#paint23_linear)" stroke-width="1.30272"/>
</g>
<g filter="url(#filter23_d)">
<path d="M59.6315 130.02H68.5055L73.5515 161.92L78.2495 130.02H87.6455L79.0615 177H68.0995L59.6315 130.02ZM92.3648 130.02H113.477V137.096H102.747V148.754H110.925V155.946H102.747V169.982H113.593V177H92.3648V130.02ZM131.762 177.696C126.658 177.696 123.024 176.362 120.858 173.694C118.732 170.987 117.668 167.101 117.668 162.036V145.1C117.668 139.919 118.732 136.013 120.858 133.384C122.985 130.716 126.62 129.382 131.762 129.382C136.673 129.382 140.153 130.561 142.202 132.92C144.252 135.279 145.276 138.623 145.276 142.954V147.014H135.126V142.316C135.126 140.499 134.933 139.107 134.546 138.14C134.16 137.173 133.232 136.69 131.762 136.69C130.293 136.69 129.326 137.212 128.862 138.256C128.398 139.261 128.166 140.673 128.166 142.49V164.588C128.166 166.444 128.398 167.875 128.862 168.88C129.365 169.847 130.332 170.33 131.762 170.33C133.193 170.33 134.102 169.847 134.488 168.88C134.914 167.875 135.126 166.444 135.126 164.588V159.658H145.276V163.718C145.276 168.126 144.252 171.567 142.202 174.042C140.153 176.478 136.673 177.696 131.762 177.696ZM155.222 137.734H148.146V130.02H172.68V137.734H165.662V177H155.222V137.734ZM189.819 177.696C184.753 177.696 181.138 176.401 178.973 173.81C176.807 171.181 175.725 167.314 175.725 162.21V144.752C175.725 139.648 176.807 135.82 178.973 133.268C181.138 130.677 184.753 129.382 189.819 129.382C194.923 129.382 198.557 130.677 200.723 133.268C202.927 135.859 204.029 139.687 204.029 144.752V162.21C204.029 167.314 202.927 171.181 200.723 173.81C198.557 176.401 194.923 177.696 189.819 177.696ZM189.819 170.33C191.288 170.33 192.255 169.847 192.719 168.88C193.183 167.875 193.415 166.521 193.415 164.82V142.2C193.415 140.46 193.183 139.107 192.719 138.14C192.255 137.173 191.288 136.69 189.819 136.69C188.427 136.69 187.499 137.193 187.035 138.198C186.571 139.165 186.339 140.499 186.339 142.2V164.82C186.339 166.521 186.551 167.875 186.977 168.88C187.402 169.847 188.349 170.33 189.819 170.33ZM210.347 130.02H223.281C228.424 130.02 232.31 130.929 234.939 132.746C237.569 134.563 238.883 137.792 238.883 142.432C238.883 145.564 238.477 148.058 237.665 149.914C236.853 151.77 235.345 153.22 233.141 154.264L239.579 177H228.849L223.687 155.946H220.729V177H210.347V130.02ZM223.629 149.972C225.717 149.972 227.167 149.431 227.979 148.348C228.83 147.227 229.255 145.564 229.255 143.36C229.255 141.233 228.869 139.648 228.095 138.604C227.322 137.521 225.988 136.98 224.093 136.98H220.729V149.972H223.629Z" fill="#FFF0EF"/>
</g>
</g>
<defs>
<filter id="filter0_dd" x="-40.9526" y="43.5625" width="55.1622" height="55.1621" filterUnits="userSpaceOnUse" color-interpolation-filters="sRGB">
<feFlood flood-opacity="0" result="BackgroundImageFix"/>
<feColorMatrix in="SourceAlpha" type="matrix" values="0 0 0 0 0 0 0 0 0 0 0 0 0 0 0 0 0 0 127 0"/>
<feOffset dx="-1.30272" dy="-1.30272"/>
<feGaussianBlur stdDeviation="1.30272"/>
<feColorMatrix type="matrix" values="0 0 0 0 0.854167 0 0 0 0 0.451997 0 0 0 0 0.451997 0 0 0 1 0"/>
<feBlend mode="normal" in2="BackgroundImageFix" result="effect1_dropShadow"/>
<feColorMatrix in="SourceAlpha" type="matrix" values="0 0 0 0 0 0 0 0 0 0 0 0 0 0 0 0 0 0 127 0"/>
<feOffset dx="1.30272" dy="1.30272"/>
<feGaussianBlur stdDeviation="1.30272"/>
<feColorMatrix type="matrix" values="0 0 0 0 0.620833 0 0 0 0 0.0996271 0 0 0 0 0.0776042 0 0 0 1 0"/>
<feBlend mode="normal" in2="effect1_dropShadow" result="effect2_dropShadow"/>
<feBlend mode="normal" in="SourceGraphic" in2="effect2_dropShadow" result="shape"/>
</filter>
<filter id="filter1_dd" x="-21.4497" y="-16.5664" width="37.6904" height="37.6904" filterUnits="userSpaceOnUse" color-interpolation-filters="sRGB">
<feFlood flood-opacity="0" result="BackgroundImageFix"/>
<feColorMatrix in="SourceAlpha" type="matrix" values="0 0 0 0 0 0 0 0 0 0 0 0 0 0 0 0 0 0 127 0"/>
<feOffset dx="-1.30272" dy="-1.30272"/>
<feGaussianBlur stdDeviation="1.30272"/>
<feColorMatrix type="matrix" values="0 0 0 0 0.854167 0 0 0 0 0.451997 0 0 0 0 0.451997 0 0 0 1 0"/>
<feBlend mode="normal" in2="BackgroundImageFix" result="effect1_dropShadow"/>
<feColorMatrix in="SourceAlpha" type="matrix" values="0 0 0 0 0 0 0 0 0 0 0 0 0 0 0 0 0 0 127 0"/>
<feOffset dx="1.30272" dy="1.30272"/>
<feGaussianBlur stdDeviation="1.30272"/>
<feColorMatrix type="matrix" values="0 0 0 0 0.620833 0 0 0 0 0.0996271 0 0 0 0 0.0776042 0 0 0 1 0"/>
<feBlend mode="normal" in2="effect1_dropShadow" result="effect2_dropShadow"/>
<feBlend mode="normal" in="SourceGraphic" in2="effect2_dropShadow" result="shape"/>
</filter>
<filter id="filter2_dd" x="268.276" y="35.9571" width="37.6909" height="37.6904" filterUnits="userSpaceOnUse" color-interpolation-filters="sRGB">
<feFlood flood-opacity="0" result="BackgroundImageFix"/>
<feColorMatrix in="SourceAlpha" type="matrix" values="0 0 0 0 0 0 0 0 0 0 0 0 0 0 0 0 0 0 127 0"/>
<feOffset dx="-1.30272" dy="-1.30272"/>
<feGaussianBlur stdDeviation="1.30272"/>
<feColorMatrix type="matrix" values="0 0 0 0 0.854167 0 0 0 0 0.451997 0 0 0 0 0.451997 0 0 0 1 0"/>
<feBlend mode="normal" in2="BackgroundImageFix" result="effect1_dropShadow"/>
<feColorMatrix in="SourceAlpha" type="matrix" values="0 0 0 0 0 0 0 0 0 0 0 0 0 0 0 0 0 0 127 0"/>
<feOffset dx="1.30272" dy="1.30272"/>
<feGaussianBlur stdDeviation="1.30272"/>
<feColorMatrix type="matrix" values="0 0 0 0 0.620833 0 0 0 0 0.0996271 0 0 0 0 0.0776042 0 0 0 1 0"/>
<feBlend mode="normal" in2="effect1_dropShadow" result="effect2_dropShadow"/>
<feBlend mode="normal" in="SourceGraphic" in2="effect2_dropShadow" result="shape"/>
</filter>
<filter id="filter3_dd" x="194.167" y="231.925" width="37.6901" height="37.6901" filterUnits="userSpaceOnUse" color-interpolation-filters="sRGB">
<feFlood flood-opacity="0" result="BackgroundImageFix"/>
<feColorMatrix in="SourceAlpha" type="matrix" values="0 0 0 0 0 0 0 0 0 0 0 0 0 0 0 0 0 0 127 0"/>
<feOffset dx="-1.30272" dy="-1.30272"/>
<feGaussianBlur stdDeviation="1.30272"/>
<feColorMatrix type="matrix" values="0 0 0 0 0.854167 0 0 0 0 0.451997 0 0 0 0 0.451997 0 0 0 1 0"/>
<feBlend mode="normal" in2="BackgroundImageFix" result="effect1_dropShadow"/>
<feColorMatrix in="SourceAlpha" type="matrix" values="0 0 0 0 0 0 0 0 0 0 0 0 0 0 0 0 0 0 127 0"/>
<feOffset dx="1.30272" dy="1.30272"/>
<feGaussianBlur stdDeviation="1.30272"/>
<feColorMatrix type="matrix" values="0 0 0 0 0.620833 0 0 0 0 0.0996271 0 0 0 0 0.0776042 0 0 0 1 0"/>
<feBlend mode="normal" in2="effect1_dropShadow" result="effect2_dropShadow"/>
<feBlend mode="normal" in="SourceGraphic" in2="effect2_dropShadow" result="shape"/>
</filter>
<filter id="filter4_dd" x="48.503" y="-12.6914" width="42.1858" height="42.1854" filterUnits="userSpaceOnUse" color-interpolation-filters="sRGB">
<feFlood flood-opacity="0" result="BackgroundImageFix"/>
<feColorMatrix in="SourceAlpha" type="matrix" values="0 0 0 0 0 0 0 0 0 0 0 0 0 0 0 0 0 0 127 0"/>
<feOffset dx="-1.30272" dy="-1.30272"/>
<feGaussianBlur stdDeviation="1.30272"/>
<feColorMatrix type="matrix" values="0 0 0 0 0.854167 0 0 0 0 0.451997 0 0 0 0 0.451997 0 0 0 1 0"/>
<feBlend mode="normal" in2="BackgroundImageFix" result="effect1_dropShadow"/>
<feColorMatrix in="SourceAlpha" type="matrix" values="0 0 0 0 0 0 0 0 0 0 0 0 0 0 0 0 0 0 127 0"/>
<feOffset dx="1.30272" dy="1.30272"/>
<feGaussianBlur stdDeviation="1.30272"/>
<feColorMatrix type="matrix" values="0 0 0 0 0.620833 0 0 0 0 0.0996271 0 0 0 0 0.0776042 0 0 0 1 0"/>
<feBlend mode="normal" in2="effect1_dropShadow" result="effect2_dropShadow"/>
<feBlend mode="normal" in="SourceGraphic" in2="effect2_dropShadow" result="shape"/>
</filter>
<filter id="filter5_dd" x="142.041" y="-27.5888" width="51.6718" height="51.6719" filterUnits="userSpaceOnUse" color-interpolation-filters="sRGB">
<feFlood flood-opacity="0" result="BackgroundImageFix"/>
<feColorMatrix in="SourceAlpha" type="matrix" values="0 0 0 0 0 0 0 0 0 0 0 0 0 0 0 0 0 0 127 0"/>
<feOffset dx="-1.30272" dy="-1.30272"/>
<feGaussianBlur stdDeviation="1.30272"/>
<feColorMatrix type="matrix" values="0 0 0 0 0.854167 0 0 0 0 0.451997 0 0 0 0 0.451997 0 0 0 1 0"/>
<feBlend mode="normal" in2="BackgroundImageFix" result="effect1_dropShadow"/>
<feColorMatrix in="SourceAlpha" type="matrix" values="0 0 0 0 0 0 0 0 0 0 0 0 0 0 0 0 0 0 127 0"/>
<feOffset dx="1.30272" dy="1.30272"/>
<feGaussianBlur stdDeviation="1.30272"/>
<feColorMatrix type="matrix" values="0 0 0 0 0.620833 0 0 0 0 0.0996271 0 0 0 0 0.0776042 0 0 0 1 0"/>
<feBlend mode="normal" in2="effect1_dropShadow" result="effect2_dropShadow"/>
<feBlend mode="normal" in="SourceGraphic" in2="effect2_dropShadow" result="shape"/>
</filter>
<filter id="filter6_dd" x="248.554" y="-27.8164" width="46.6798" height="46.6802" filterUnits="userSpaceOnUse" color-interpolation-filters="sRGB">
<feFlood flood-opacity="0" result="BackgroundImageFix"/>
<feColorMatrix in="SourceAlpha" type="matrix" values="0 0 0 0 0 0 0 0 0 0 0 0 0 0 0 0 0 0 127 0"/>
<feOffset dx="-1.30272" dy="-1.30272"/>
<feGaussianBlur stdDeviation="1.30272"/>
<feColorMatrix type="matrix" values="0 0 0 0 0.854167 0 0 0 0 0.451997 0 0 0 0 0.451997 0 0 0 1 0"/>
<feBlend mode="normal" in2="BackgroundImageFix" result="effect1_dropShadow"/>
<feColorMatrix in="SourceAlpha" type="matrix" values="0 0 0 0 0 0 0 0 0 0 0 0 0 0 0 0 0 0 127 0"/>
<feOffset dx="1.30272" dy="1.30272"/>
<feGaussianBlur stdDeviation="1.30272"/>
<feColorMatrix type="matrix" values="0 0 0 0 0.620833 0 0 0 0 0.0996271 0 0 0 0 0.0776042 0 0 0 1 0"/>
<feBlend mode="normal" in2="effect1_dropShadow" result="effect2_dropShadow"/>
<feBlend mode="normal" in="SourceGraphic" in2="effect2_dropShadow" result="shape"/>
</filter>
<filter id="filter7_dd" x="44.126" y="43.9258" width="67.6463" height="67.6464" filterUnits="userSpaceOnUse" color-interpolation-filters="sRGB">
<feFlood flood-opacity="0" result="BackgroundImageFix"/>
<feColorMatrix in="SourceAlpha" type="matrix" values="0 0 0 0 0 0 0 0 0 0 0 0 0 0 0 0 0 0 127 0"/>
<feOffset dx="-1.30272" dy="-1.30272"/>
<feGaussianBlur stdDeviation="1.30272"/>
<feColorMatrix type="matrix" values="0 0 0 0 0.854167 0 0 0 0 0.451997 0 0 0 0 0.451997 0 0 0 1 0"/>
<feBlend mode="normal" in2="BackgroundImageFix" result="effect1_dropShadow"/>
<feColorMatrix in="SourceAlpha" type="matrix" values="0 0 0 0 0 0 0 0 0 0 0 0 0 0 0 0 0 0 127 0"/>
<feOffset dx="1.30272" dy="1.30272"/>
<feGaussianBlur stdDeviation="1.30272"/>
<feColorMatrix type="matrix" values="0 0 0 0 0.620833 0 0 0 0 0.0996271 0 0 0 0 0.0776042 0 0 0 1 0"/>
<feBlend mode="normal" in2="effect1_dropShadow" result="effect2_dropShadow"/>
<feBlend mode="normal" in="SourceGraphic" in2="effect2_dropShadow" result="shape"/>
</filter>
<filter id="filter8_dd" x="89.3033" y="212.381" width="67.6464" height="67.6461" filterUnits="userSpaceOnUse" color-interpolation-filters="sRGB">
<feFlood flood-opacity="0" result="BackgroundImageFix"/>
<feColorMatrix in="SourceAlpha" type="matrix" values="0 0 0 0 0 0 0 0 0 0 0 0 0 0 0 0 0 0 127 0"/>
<feOffset dx="-1.30272" dy="-1.30272"/>
<feGaussianBlur stdDeviation="1.30272"/>
<feColorMatrix type="matrix" values="0 0 0 0 0.854167 0 0 0 0 0.451997 0 0 0 0 0.451997 0 0 0 1 0"/>
<feBlend mode="normal" in2="BackgroundImageFix" result="effect1_dropShadow"/>
<feColorMatrix in="SourceAlpha" type="matrix" values="0 0 0 0 0 0 0 0 0 0 0 0 0 0 0 0 0 0 127 0"/>
<feOffset dx="1.30272" dy="1.30272"/>
<feGaussianBlur stdDeviation="1.30272"/>
<feColorMatrix type="matrix" values="0 0 0 0 0.620833 0 0 0 0 0.0996271 0 0 0 0 0.0776042 0 0 0 1 0"/>
<feBlend mode="normal" in2="effect1_dropShadow" result="effect2_dropShadow"/>
<feBlend mode="normal" in="SourceGraphic" in2="effect2_dropShadow" result="shape"/>
</filter>
<filter id="filter9_dd" x="118.285" y="19.8155" width="47.6714" height="47.6721" filterUnits="userSpaceOnUse" color-interpolation-filters="sRGB">
<feFlood flood-opacity="0" result="BackgroundImageFix"/>
<feColorMatrix in="SourceAlpha" type="matrix" values="0 0 0 0 0 0 0 0 0 0 0 0 0 0 0 0 0 0 127 0"/>
<feOffset dx="-1.30272" dy="-1.30272"/>
<feGaussianBlur stdDeviation="1.30272"/>
<feColorMatrix type="matrix" values="0 0 0 0 0.854167 0 0 0 0 0.451997 0 0 0 0 0.451997 0 0 0 1 0"/>
<feBlend mode="normal" in2="BackgroundImageFix" result="effect1_dropShadow"/>
<feColorMatrix in="SourceAlpha" type="matrix" values="0 0 0 0 0 0 0 0 0 0 0 0 0 0 0 0 0 0 127 0"/>
<feOffset dx="1.30272" dy="1.30272"/>
<feGaussianBlur stdDeviation="1.30272"/>
<feColorMatrix type="matrix" values="0 0 0 0 0.620833 0 0 0 0 0.0996271 0 0 0 0 0.0776042 0 0 0 1 0"/>
<feBlend mode="normal" in2="effect1_dropShadow" result="effect2_dropShadow"/>
<feBlend mode="normal" in="SourceGraphic" in2="effect2_dropShadow" result="shape"/>
</filter>
<filter id="filter10_dd" x="172.268" y="80.5762" width="48.6666" height="48.6667" filterUnits="userSpaceOnUse" color-interpolation-filters="sRGB">
<feFlood flood-opacity="0" result="BackgroundImageFix"/>
<feColorMatrix in="SourceAlpha" type="matrix" values="0 0 0 0 0 0 0 0 0 0 0 0 0 0 0 0 0 0 127 0"/>
<feOffset dx="-1.30272" dy="-1.30272"/>
<feGaussianBlur stdDeviation="1.30272"/>
<feColorMatrix type="matrix" values="0 0 0 0 0.854167 0 0 0 0 0.451997 0 0 0 0 0.451997 0 0 0 1 0"/>
<feBlend mode="normal" in2="BackgroundImageFix" result="effect1_dropShadow"/>
<feColorMatrix in="SourceAlpha" type="matrix" values="0 0 0 0 0 0 0 0 0 0 0 0 0 0 0 0 0 0 127 0"/>
<feOffset dx="1.30272" dy="1.30272"/>
<feGaussianBlur stdDeviation="1.30272"/>
<feColorMatrix type="matrix" values="0 0 0 0 0.620833 0 0 0 0 0.0996271 0 0 0 0 0.0776042 0 0 0 1 0"/>
<feBlend mode="normal" in2="effect1_dropShadow" result="effect2_dropShadow"/>
<feBlend mode="normal" in="SourceGraphic" in2="effect2_dropShadow" result="shape"/>
</filter>
<filter id="filter11_dd" x="265.446" y="99.2032" width="48.1746" height="48.1754" filterUnits="userSpaceOnUse" color-interpolation-filters="sRGB">
<feFlood flood-opacity="0" result="BackgroundImageFix"/>
<feColorMatrix in="SourceAlpha" type="matrix" values="0 0 0 0 0 0 0 0 0 0 0 0 0 0 0 0 0 0 127 0"/>
<feOffset dx="-1.30272" dy="-1.30272"/>
<feGaussianBlur stdDeviation="1.30272"/>
<feColorMatrix type="matrix" values="0 0 0 0 0.854167 0 0 0 0 0.451997 0 0 0 0 0.451997 0 0 0 1 0"/>
<feBlend mode="normal" in2="BackgroundImageFix" result="effect1_dropShadow"/>
<feColorMatrix in="SourceAlpha" type="matrix" values="0 0 0 0 0 0 0 0 0 0 0 0 0 0 0 0 0 0 127 0"/>
<feOffset dx="1.30272" dy="1.30272"/>
<feGaussianBlur stdDeviation="1.30272"/>
<feColorMatrix type="matrix" values="0 0 0 0 0.620833 0 0 0 0 0.0996271 0 0 0 0 0.0776042 0 0 0 1 0"/>
<feBlend mode="normal" in2="effect1_dropShadow" result="effect2_dropShadow"/>
<feBlend mode="normal" in="SourceGraphic" in2="effect2_dropShadow" result="shape"/>
</filter>
<filter id="filter12_dd" x="-31.4663" y="127.598" width="58.6548" height="58.6547" filterUnits="userSpaceOnUse" color-interpolation-filters="sRGB">
<feFlood flood-opacity="0" result="BackgroundImageFix"/>
<feColorMatrix in="SourceAlpha" type="matrix" values="0 0 0 0 0 0 0 0 0 0 0 0 0 0 0 0 0 0 127 0"/>
<feOffset dx="-1.30272" dy="-1.30272"/>
<feGaussianBlur stdDeviation="1.30272"/>
<feColorMatrix type="matrix" values="0 0 0 0 0.854167 0 0 0 0 0.451997 0 0 0 0 0.451997 0 0 0 1 0"/>
<feBlend mode="normal" in2="BackgroundImageFix" result="effect1_dropShadow"/>
<feColorMatrix in="SourceAlpha" type="matrix" values="0 0 0 0 0 0 0 0 0 0 0 0 0 0 0 0 0 0 127 0"/>
<feOffset dx="1.30272" dy="1.30272"/>
<feGaussianBlur stdDeviation="1.30272"/>
<feColorMatrix type="matrix" values="0 0 0 0 0.620833 0 0 0 0 0.0996271 0 0 0 0 0.0776042 0 0 0 1 0"/>
<feBlend mode="normal" in2="effect1_dropShadow" result="effect2_dropShadow"/>
<feBlend mode="normal" in="SourceGraphic" in2="effect2_dropShadow" result="shape"/>
</filter>
<filter id="filter13_dd" x="46.5811" y="183.554" width="46.0878" height="46.088" filterUnits="userSpaceOnUse" color-interpolation-filters="sRGB">
<feFlood flood-opacity="0" result="BackgroundImageFix"/>
<feColorMatrix in="SourceAlpha" type="matrix" values="0 0 0 0 0 0 0 0 0 0 0 0 0 0 0 0 0 0 127 0"/>
<feOffset dx="-1.30272" dy="-1.30272"/>
<feGaussianBlur stdDeviation="1.30272"/>
<feColorMatrix type="matrix" values="0 0 0 0 0.854167 0 0 0 0 0.451997 0 0 0 0 0.451997 0 0 0 1 0"/>
<feBlend mode="normal" in2="BackgroundImageFix" result="effect1_dropShadow"/>
<feColorMatrix in="SourceAlpha" type="matrix" values="0 0 0 0 0 0 0 0 0 0 0 0 0 0 0 0 0 0 127 0"/>
<feOffset dx="1.30272" dy="1.30272"/>
<feGaussianBlur stdDeviation="1.30272"/>
<feColorMatrix type="matrix" values="0 0 0 0 0.620833 0 0 0 0 0.0996271 0 0 0 0 0.0776042 0 0 0 1 0"/>
<feBlend mode="normal" in2="effect1_dropShadow" result="effect2_dropShadow"/>
<feBlend mode="normal" in="SourceGraphic" in2="effect2_dropShadow" result="shape"/>
</filter>
<filter id="filter14_dd" x="244.455" y="172.993" width="46.088" height="46.0875" filterUnits="userSpaceOnUse" color-interpolation-filters="sRGB">
<feFlood flood-opacity="0" result="BackgroundImageFix"/>
<feColorMatrix in="SourceAlpha" type="matrix" values="0 0 0 0 0 0 0 0 0 0 0 0 0 0 0 0 0 0 127 0"/>
<feOffset dx="-1.30272" dy="-1.30272"/>
<feGaussianBlur stdDeviation="1.30272"/>
<feColorMatrix type="matrix" values="0 0 0 0 0.854167 0 0 0 0 0.451997 0 0 0 0 0.451997 0 0 0 1 0"/>
<feBlend mode="normal" in2="BackgroundImageFix" result="effect1_dropShadow"/>
<feColorMatrix in="SourceAlpha" type="matrix" values="0 0 0 0 0 0 0 0 0 0 0 0 0 0 0 0 0 0 127 0"/>
<feOffset dx="1.30272" dy="1.30272"/>
<feGaussianBlur stdDeviation="1.30272"/>
<feColorMatrix type="matrix" values="0 0 0 0 0.620833 0 0 0 0 0.0996271 0 0 0 0 0.0776042 0 0 0 1 0"/>
<feBlend mode="normal" in2="effect1_dropShadow" result="effect2_dropShadow"/>
<feBlend mode="normal" in="SourceGraphic" in2="effect2_dropShadow" result="shape"/>
</filter>
<filter id="filter15_dd" x="39.4551" y="123.97" width="50.6744" height="50.6752" filterUnits="userSpaceOnUse" color-interpolation-filters="sRGB">
<feFlood flood-opacity="0" result="BackgroundImageFix"/>
<feColorMatrix in="SourceAlpha" type="matrix" values="0 0 0 0 0 0 0 0 0 0 0 0 0 0 0 0 0 0 127 0"/>
<feOffset dx="-1.30272" dy="-1.30272"/>
<feGaussianBlur stdDeviation="1.30272"/>
<feColorMatrix type="matrix" values="0 0 0 0 0.854167 0 0 0 0 0.451997 0 0 0 0 0.451997 0 0 0 1 0"/>
<feBlend mode="normal" in2="BackgroundImageFix" result="effect1_dropShadow"/>
<feColorMatrix in="SourceAlpha" type="matrix" values="0 0 0 0 0 0 0 0 0 0 0 0 0 0 0 0 0 0 127 0"/>
<feOffset dx="1.30272" dy="1.30272"/>
<feGaussianBlur stdDeviation="1.30272"/>
<feColorMatrix type="matrix" values="0 0 0 0 0.620833 0 0 0 0 0.0996271 0 0 0 0 0.0776042 0 0 0 1 0"/>
<feBlend mode="normal" in2="effect1_dropShadow" result="effect2_dropShadow"/>
<feBlend mode="normal" in="SourceGraphic" in2="effect2_dropShadow" result="shape"/>
</filter>
<filter id="filter16_dd" x="119.472" y="107.411" width="46.677" height="46.6773" filterUnits="userSpaceOnUse" color-interpolation-filters="sRGB">
<feFlood flood-opacity="0" result="BackgroundImageFix"/>
<feColorMatrix in="SourceAlpha" type="matrix" values="0 0 0 0 0 0 0 0 0 0 0 0 0 0 0 0 0 0 127 0"/>
<feOffset dx="-1.30272" dy="-1.30272"/>
<feGaussianBlur stdDeviation="1.30272"/>
<feColorMatrix type="matrix" values="0 0 0 0 0.854167 0 0 0 0 0.451997 0 0 0 0 0.451997 0 0 0 1 0"/>
<feBlend mode="normal" in2="BackgroundImageFix" result="effect1_dropShadow"/>
<feColorMatrix in="SourceAlpha" type="matrix" values="0 0 0 0 0 0 0 0 0 0 0 0 0 0 0 0 0 0 127 0"/>
<feOffset dx="1.30272" dy="1.30272"/>
<feGaussianBlur stdDeviation="1.30272"/>
<feColorMatrix type="matrix" values="0 0 0 0 0.620833 0 0 0 0 0.0996271 0 0 0 0 0.0776042 0 0 0 1 0"/>
<feBlend mode="normal" in2="effect1_dropShadow" result="effect2_dropShadow"/>
<feBlend mode="normal" in="SourceGraphic" in2="effect2_dropShadow" result="shape"/>
</filter>
<filter id="filter17_dd" x="152.549" y="168.352" width="46.677" height="46.677" filterUnits="userSpaceOnUse" color-interpolation-filters="sRGB">
<feFlood flood-opacity="0" result="BackgroundImageFix"/>
<feColorMatrix in="SourceAlpha" type="matrix" values="0 0 0 0 0 0 0 0 0 0 0 0 0 0 0 0 0 0 127 0"/>
<feOffset dx="-1.30272" dy="-1.30272"/>
<feGaussianBlur stdDeviation="1.30272"/>
<feColorMatrix type="matrix" values="0 0 0 0 0.854167 0 0 0 0 0.451997 0 0 0 0 0.451997 0 0 0 1 0"/>
<feBlend mode="normal" in2="BackgroundImageFix" result="effect1_dropShadow"/>
<feColorMatrix in="SourceAlpha" type="matrix" values="0 0 0 0 0 0 0 0 0 0 0 0 0 0 0 0 0 0 127 0"/>
<feOffset dx="1.30272" dy="1.30272"/>
<feGaussianBlur stdDeviation="1.30272"/>
<feColorMatrix type="matrix" values="0 0 0 0 0.620833 0 0 0 0 0.0996271 0 0 0 0 0.0776042 0 0 0 1 0"/>
<feBlend mode="normal" in2="effect1_dropShadow" result="effect2_dropShadow"/>
<feBlend mode="normal" in="SourceGraphic" in2="effect2_dropShadow" result="shape"/>
</filter>
<filter id="filter18_dd" x="194.432" y="9.55278" width="62.6501" height="62.6506" filterUnits="userSpaceOnUse" color-interpolation-filters="sRGB">
<feFlood flood-opacity="0" result="BackgroundImageFix"/>
<feColorMatrix in="SourceAlpha" type="matrix" values="0 0 0 0 0 0 0 0 0 0 0 0 0 0 0 0 0 0 127 0"/>
<feOffset dx="-1.30272" dy="-1.30272"/>
<feGaussianBlur stdDeviation="1.30272"/>
<feColorMatrix type="matrix" values="0 0 0 0 0.854167 0 0 0 0 0.451997 0 0 0 0 0.451997 0 0 0 1 0"/>
<feBlend mode="normal" in2="BackgroundImageFix" result="effect1_dropShadow"/>
<feColorMatrix in="SourceAlpha" type="matrix" values="0 0 0 0 0 0 0 0 0 0 0 0 0 0 0 0 0 0 127 0"/>
<feOffset dx="1.30272" dy="1.30272"/>
<feGaussianBlur stdDeviation="1.30272"/>
<feColorMatrix type="matrix" values="0 0 0 0 0.620833 0 0 0 0 0.0996271 0 0 0 0 0.0776042 0 0 0 1 0"/>
<feBlend mode="normal" in2="effect1_dropShadow" result="effect2_dropShadow"/>
<feBlend mode="normal" in="SourceGraphic" in2="effect2_dropShadow" result="shape"/>
</filter>
<filter id="filter19_dd" x="296.417" y="160.479" width="62.6507" height="62.6507" filterUnits="userSpaceOnUse" color-interpolation-filters="sRGB">
<feFlood flood-opacity="0" result="BackgroundImageFix"/>
<feColorMatrix in="SourceAlpha" type="matrix" values="0 0 0 0 0 0 0 0 0 0 0 0 0 0 0 0 0 0 127 0"/>
<feOffset dx="-1.30272" dy="-1.30272"/>
<feGaussianBlur stdDeviation="1.30272"/>
<feColorMatrix type="matrix" values="0 0 0 0 0.854167 0 0 0 0 0.451997 0 0 0 0 0.451997 0 0 0 1 0"/>
<feBlend mode="normal" in2="BackgroundImageFix" result="effect1_dropShadow"/>
<feColorMatrix in="SourceAlpha" type="matrix" values="0 0 0 0 0 0 0 0 0 0 0 0 0 0 0 0 0 0 127 0"/>
<feOffset dx="1.30272" dy="1.30272"/>
<feGaussianBlur stdDeviation="1.30272"/>
<feColorMatrix type="matrix" values="0 0 0 0 0.620833 0 0 0 0 0.0996271 0 0 0 0 0.0776042 0 0 0 1 0"/>
<feBlend mode="normal" in2="effect1_dropShadow" result="effect2_dropShadow"/>
<feBlend mode="normal" in="SourceGraphic" in2="effect2_dropShadow" result="shape"/>
</filter>
<filter id="filter20_dd" x="263.474" y="233.422" width="47.1735" height="47.173" filterUnits="userSpaceOnUse" color-interpolation-filters="sRGB">
<feFlood flood-opacity="0" result="BackgroundImageFix"/>
<feColorMatrix in="SourceAlpha" type="matrix" values="0 0 0 0 0 0 0 0 0 0 0 0 0 0 0 0 0 0 127 0"/>
<feOffset dx="-1.30272" dy="-1.30272"/>
<feGaussianBlur stdDeviation="1.30272"/>
<feColorMatrix type="matrix" values="0 0 0 0 0.854167 0 0 0 0 0.451997 0 0 0 0 0.451997 0 0 0 1 0"/>
<feBlend mode="normal" in2="BackgroundImageFix" result="effect1_dropShadow"/>
<feColorMatrix in="SourceAlpha" type="matrix" values="0 0 0 0 0 0 0 0 0 0 0 0 0 0 0 0 0 0 127 0"/>
<feOffset dx="1.30272" dy="1.30272"/>
<feGaussianBlur stdDeviation="1.30272"/>
<feColorMatrix type="matrix" values="0 0 0 0 0.620833 0 0 0 0 0.0996271 0 0 0 0 0.0776042 0 0 0 1 0"/>
<feBlend mode="normal" in2="effect1_dropShadow" result="effect2_dropShadow"/>
<feBlend mode="normal" in="SourceGraphic" in2="effect2_dropShadow" result="shape"/>
</filter>
<filter id="filter21_dd" x="3.46391" y="257.545" width="64.6516" height="64.6522" filterUnits="userSpaceOnUse" color-interpolation-filters="sRGB">
<feFlood flood-opacity="0" result="BackgroundImageFix"/>
<feColorMatrix in="SourceAlpha" type="matrix" values="0 0 0 0 0 0 0 0 0 0 0 0 0 0 0 0 0 0 127 0"/>
<feOffset dx="-1.30272" dy="-1.30272"/>
<feGaussianBlur stdDeviation="1.30272"/>
<feColorMatrix type="matrix" values="0 0 0 0 0.854167 0 0 0 0 0.451997 0 0 0 0 0.451997 0 0 0 1 0"/>
<feBlend mode="normal" in2="BackgroundImageFix" result="effect1_dropShadow"/>
<feColorMatrix in="SourceAlpha" type="matrix" values="0 0 0 0 0 0 0 0 0 0 0 0 0 0 0 0 0 0 127 0"/>
<feOffset dx="1.30272" dy="1.30272"/>
<feGaussianBlur stdDeviation="1.30272"/>
<feColorMatrix type="matrix" values="0 0 0 0 0.620833 0 0 0 0 0.0996271 0 0 0 0 0.0776042 0 0 0 1 0"/>
<feBlend mode="normal" in2="effect1_dropShadow" result="effect2_dropShadow"/>
<feBlend mode="normal" in="SourceGraphic" in2="effect2_dropShadow" result="shape"/>
</filter>
<filter id="filter22_dd" x="-38.8564" y="213.396" width="49.6702" height="49.6701" filterUnits="userSpaceOnUse" color-interpolation-filters="sRGB">
<feFlood flood-opacity="0" result="BackgroundImageFix"/>
<feColorMatrix in="SourceAlpha" type="matrix" values="0 0 0 0 0 0 0 0 0 0 0 0 0 0 0 0 0 0 127 0"/>
<feOffset dx="-1.30272" dy="-1.30272"/>
<feGaussianBlur stdDeviation="1.30272"/>
<feColorMatrix type="matrix" values="0 0 0 0 0.854167 0 0 0 0 0.451997 0 0 0 0 0.451997 0 0 0 1 0"/>
<feBlend mode="normal" in2="BackgroundImageFix" result="effect1_dropShadow"/>
<feColorMatrix in="SourceAlpha" type="matrix" values="0 0 0 0 0 0 0 0 0 0 0 0 0 0 0 0 0 0 127 0"/>
<feOffset dx="1.30272" dy="1.30272"/>
<feGaussianBlur stdDeviation="1.30272"/>
<feColorMatrix type="matrix" values="0 0 0 0 0.620833 0 0 0 0 0.0996271 0 0 0 0 0.0776042 0 0 0 1 0"/>
<feBlend mode="normal" in2="effect1_dropShadow" result="effect2_dropShadow"/>
<feBlend mode="normal" in="SourceGraphic" in2="effect2_dropShadow" result="shape"/>
</filter>
<filter id="filter23_d" x="55.6313" y="129.382" width="187.948" height="56.314" filterUnits="userSpaceOnUse" color-interpolation-filters="sRGB">
<feFlood flood-opacity="0" result="BackgroundImageFix"/>
<feColorMatrix in="SourceAlpha" type="matrix" values="0 0 0 0 0 0 0 0 0 0 0 0 0 0 0 0 0 0 127 0"/>
<feOffset dy="4"/>
<feGaussianBlur stdDeviation="2"/>
<feColorMatrix type="matrix" values="0 0 0 0 0 0 0 0 0 0 0 0 0 0 0 0 0 0 0.25 0"/>
<feBlend mode="normal" in2="BackgroundImageFix" result="effect1_dropShadow"/>
<feBlend mode="normal" in="SourceGraphic" in2="effect1_dropShadow" result="shape"/>
</filter>
<linearGradient id="paint0_linear" x1="-113.072" y1="99.9098" x2="493.057" y2="248.315" gradientUnits="userSpaceOnUse">
<stop stop-color="#EC615B"/>
<stop offset="1" stop-color="#941E19"/>
</linearGradient>
<linearGradient id="paint1_linear" x1="6.51633" y1="58.2282" x2="-33.2595" y2="84.0588" gradientUnits="userSpaceOnUse">
<stop stop-color="#9D1B15"/>
<stop offset="1" stop-color="#F98783"/>
</linearGradient>
<linearGradient id="paint2_linear" x1="11.9275" y1="-1.34453" x2="-17.1367" y2="5.90198" gradientUnits="userSpaceOnUse">
<stop stop-color="#9D1B15"/>
<stop offset="1" stop-color="#F98783"/>
</linearGradient>
<linearGradient id="paint3_linear" x1="301.653" y1="51.1789" x2="272.59" y2="58.4254" gradientUnits="userSpaceOnUse">
<stop stop-color="#9D1B15"/>
<stop offset="1" stop-color="#F98783"/>
</linearGradient>
<linearGradient id="paint4_linear" x1="227.543" y1="247.146" x2="198.479" y2="254.393" gradientUnits="userSpaceOnUse">
<stop stop-color="#9D1B15"/>
<stop offset="1" stop-color="#F98783"/>
</linearGradient>
<linearGradient id="paint5_linear" x1="76.3262" y1="24.2555" x2="62.8665" y2="-7.45317" gradientUnits="userSpaceOnUse">
<stop stop-color="#9D1B15"/>
<stop offset="1" stop-color="#F98783"/>
</linearGradient>
<linearGradient id="paint6_linear" x1="177.505" y1="-21.4961" x2="158.247" y2="17.9901" gradientUnits="userSpaceOnUse">
<stop stop-color="#9D1B15"/>
<stop offset="1" stop-color="#F98783"/>
</linearGradient>
<linearGradient id="paint7_linear" x1="290.19" y1="-11.1356" x2="253.598" y2="2.18274" gradientUnits="userSpaceOnUse">
<stop stop-color="#9D1B15"/>
<stop offset="1" stop-color="#F98783"/>
</linearGradient>
<linearGradient id="paint8_linear" x1="62.5223" y1="103.425" x2="93.3772" y2="52.0734" gradientUnits="userSpaceOnUse">
<stop stop-color="#9D1B15"/>
<stop offset="1" stop-color="#F98783"/>
</linearGradient>
<linearGradient id="paint9_linear" x1="107.7" y1="271.88" x2="138.554" y2="220.528" gradientUnits="userSpaceOnUse">
<stop stop-color="#9D1B15"/>
<stop offset="1" stop-color="#F98783"/>
</linearGradient>
<linearGradient id="paint10_linear" x1="139.687" y1="63.4719" x2="144.554" y2="23.831" gradientUnits="userSpaceOnUse">
<stop stop-color="#9D1B15"/>
<stop offset="1" stop-color="#F98783"/>
</linearGradient>
<linearGradient id="paint11_linear" x1="217.066" y1="104.552" x2="176.136" y2="105.267" gradientUnits="userSpaceOnUse">
<stop stop-color="#9D1B15"/>
<stop offset="1" stop-color="#F98783"/>
</linearGradient>
<linearGradient id="paint12_linear" x1="299.026" y1="105.438" x2="280.041" y2="141.143" gradientUnits="userSpaceOnUse">
<stop stop-color="#9D1B15"/>
<stop offset="1" stop-color="#F98783"/>
</linearGradient>
<linearGradient id="paint13_linear" x1="18.4593" y1="141.96" x2="-22.7373" y2="171.89" gradientUnits="userSpaceOnUse">
<stop stop-color="#9D1B15"/>
<stop offset="1" stop-color="#F98783"/>
</linearGradient>
<linearGradient id="paint14_linear" x1="85.1401" y1="195.326" x2="54.1093" y2="217.871" gradientUnits="userSpaceOnUse">
<stop stop-color="#9D1B15"/>
<stop offset="1" stop-color="#F98783"/>
</linearGradient>
<linearGradient id="paint15_linear" x1="283.014" y1="184.765" x2="251.984" y2="207.309" gradientUnits="userSpaceOnUse">
<stop stop-color="#9D1B15"/>
<stop offset="1" stop-color="#F98783"/>
</linearGradient>
<linearGradient id="paint16_linear" x1="84.6963" y1="157.349" x2="44.8886" y2="141.266" gradientUnits="userSpaceOnUse">
<stop stop-color="#9D1B15"/>
<stop offset="1" stop-color="#F98783"/>
</linearGradient>
<linearGradient id="paint17_linear" x1="133.67" y1="147.941" x2="151.951" y2="113.559" gradientUnits="userSpaceOnUse">
<stop stop-color="#9D1B15"/>
<stop offset="1" stop-color="#F98783"/>
</linearGradient>
<linearGradient id="paint18_linear" x1="166.748" y1="208.88" x2="185.029" y2="174.499" gradientUnits="userSpaceOnUse">
<stop stop-color="#9D1B15"/>
<stop offset="1" stop-color="#F98783"/>
</linearGradient>
<linearGradient id="paint19_linear" x1="210.403" y1="63.6416" x2="241.111" y2="18.1145" gradientUnits="userSpaceOnUse">
<stop stop-color="#9D1B15"/>
<stop offset="1" stop-color="#F98783"/>
</linearGradient>
<linearGradient id="paint20_linear" x1="312.388" y1="214.567" x2="343.097" y2="169.041" gradientUnits="userSpaceOnUse">
<stop stop-color="#9D1B15"/>
<stop offset="1" stop-color="#F98783"/>
</linearGradient>
<linearGradient id="paint21_linear" x1="276.611" y1="273.732" x2="297.511" y2="240.285" gradientUnits="userSpaceOnUse">
<stop stop-color="#9D1B15"/>
<stop offset="1" stop-color="#F98783"/>
</linearGradient>
<linearGradient id="paint22_linear" x1="63.8132" y1="284.93" x2="7.76567" y2="294.812" gradientUnits="userSpaceOnUse">
<stop stop-color="#9D1B15"/>
<stop offset="1" stop-color="#F98783"/>
</linearGradient>
<linearGradient id="paint23_linear" x1="-16.9395" y1="258.994" x2="-11.1032" y2="217.466" gradientUnits="userSpaceOnUse">
<stop stop-color="#9D1B15"/>
<stop offset="1" stop-color="#F98783"/>
</linearGradient>
<clipPath id="clip0">
<rect width="300" height="300" fill="white"/>
</clipPath>
</defs>
</svg>
