<svg width="300" height="300" viewBox="0 0 300 300" fill="none" xmlns="http://www.w3.org/2000/svg">
<g clip-path="url(#clip0)">
<rect width="300" height="300" fill="#EC615B"/>
<g filter="url(#filter0_d)">
<path d="M59.6315 130.02H68.5055L73.5515 161.92L78.2495 130.02H87.6455L79.0615 177H68.0995L59.6315 130.02ZM92.3648 130.02H113.477V137.096H102.747V148.754H110.925V155.946H102.747V169.982H113.593V177H92.3648V130.02ZM131.762 177.696C126.658 177.696 123.024 176.362 120.858 173.694C118.732 170.987 117.668 167.101 117.668 162.036V145.1C117.668 139.919 118.732 136.013 120.858 133.384C122.985 130.716 126.62 129.382 131.762 129.382C136.673 129.382 140.153 130.561 142.202 132.92C144.252 135.279 145.276 138.623 145.276 142.954V147.014H135.126V142.316C135.126 140.499 134.933 139.107 134.546 138.14C134.16 137.173 133.232 136.69 131.762 136.69C130.293 136.69 129.326 137.212 128.862 138.256C128.398 139.261 128.166 140.673 128.166 142.49V164.588C128.166 166.444 128.398 167.875 128.862 168.88C129.365 169.847 130.332 170.33 131.762 170.33C133.193 170.33 134.102 169.847 134.488 168.88C134.914 167.875 135.126 166.444 135.126 164.588V159.658H145.276V163.718C145.276 168.126 144.252 171.567 142.202 174.042C140.153 176.478 136.673 177.696 131.762 177.696ZM155.222 137.734H148.146V130.02H172.68V137.734H165.662V177H155.222V137.734ZM189.819 177.696C184.753 177.696 181.138 176.401 178.973 173.81C176.807 171.181 175.725 167.314 175.725 162.21V144.752C175.725 139.648 176.807 135.82 178.973 133.268C181.138 130.677 184.753 129.382 189.819 129.382C194.923 129.382 198.557 130.677 200.723 133.268C202.927 135.859 204.029 139.687 204.029 144.752V162.21C204.029 167.314 202.927 171.181 200.723 173.81C198.557 176.401 194.923 177.696 189.819 177.696ZM189.819 170.33C191.288 170.33 192.255 169.847 192.719 168.88C193.183 167.875 193.415 166.521 193.415 164.82V142.2C193.415 140.46 193.183 139.107 192.719 138.14C192.255 137.173 191.288 136.69 189.819 136.69C188.427 136.69 187.499 137.193 187.035 138.198C186.571 139.165 186.339 140.499 186.339 142.2V164.82C186.339 166.521 186.551 167.875 186.977 168.88C187.402 169.847 188.349 170.33 189.819 170.33ZM210.347 130.02H223.281C228.424 130.02 232.31 130.929 234.939 132.746C237.569 134.563 238.883 137.792 238.883 142.432C238.883 145.564 238.477 148.058 237.665 149.914C236.853 151.77 235.345 153.22 233.141 154.264L239.579 177H228.849L223.687 155.946H220.729V177H210.347V130.02ZM223.629 149.972C225.717 149.972 227.167 149.431 227.979 148.348C228.83 147.227 229.255 145.564 229.255 143.36C229.255 141.233 228.869 139.648 228.095 138.604C227.322 137.521 225.988 136.98 224.093 136.98H220.729V149.972H223.629Z" fill="#FFF0EF"/>
</g>
<path opacity="0.79" d="M25.622 69.0022C20.2972 72.4602 13.1774 70.9468 9.71941 65.622C6.26144 60.2973 7.77481 53.1774 13.0996 49.7195C18.4244 46.2615 25.5442 47.7749 29.0022 53.0997C32.4601 58.4245 30.9468 65.5443 25.622 69.0022Z" stroke="#F0A5A2" stroke-width="5"/>
<path opacity="0.82" d="M27.2494 24.8668C23.8522 25.7138 20.4115 23.6465 19.5645 20.2492C18.7174 16.8519 20.7848 13.4113 24.1821 12.5642C27.5793 11.7172 31.02 13.7846 31.8671 17.1818C32.7141 20.5791 30.6467 24.0198 27.2494 24.8668Z" stroke="#F0A5A2" stroke-width="5"/>
<path opacity="0.82" d="M198.249 55.8668C194.852 56.7138 191.412 54.6465 190.564 51.2492C189.717 47.8519 191.785 44.4113 195.182 43.5642C198.579 42.7172 202.02 44.7846 202.867 48.1818C203.714 51.5791 201.647 55.0198 198.249 55.8668Z" stroke="#F0A5A2" stroke-width="5"/>
<path opacity="0.74" d="M61.2731 25.3246C59.6189 21.4276 61.4371 16.9274 65.3341 15.2732C69.2311 13.619 73.7312 15.4372 75.3854 19.3342C77.0396 23.2313 75.2214 27.7314 71.3244 29.3856C67.4274 31.0398 62.9273 29.2216 61.2731 25.3246Z" stroke="#F0A5A2" stroke-width="5"/>
<path opacity="0.74" d="M246.273 256.325C244.619 252.428 246.437 247.927 250.334 246.273C254.231 244.619 258.731 246.437 260.385 250.334C262.04 254.231 260.221 258.731 256.324 260.386C252.427 262.04 247.927 260.222 246.273 256.325Z" stroke="#F0A5A2" stroke-width="5"/>
<path opacity="0.83" d="M135.742 20.9235C133.208 26.1181 126.943 28.2752 121.749 25.7417C116.554 23.2081 114.397 16.9432 116.93 11.7486C119.464 6.55397 125.729 4.39678 130.923 6.93036C136.118 9.46393 138.275 15.7289 135.742 20.9235Z" stroke="#F0A5A2" stroke-width="5"/>
<path opacity="0.85" d="M242.779 39.6306C244.335 43.1265 242.763 47.2222 239.267 48.7787C235.771 50.3352 231.675 48.763 230.119 45.2671C228.562 41.7712 230.135 37.6754 233.631 36.1189C237.126 34.5625 241.222 36.1347 242.779 39.6306Z" stroke="#F0A5A2" stroke-width="5"/>
<path opacity="0.73" d="M190.804 23.178C186.137 24.8764 180.978 22.4704 179.279 17.804C177.581 13.1377 179.987 7.97798 184.653 6.27955C189.32 4.58113 194.479 6.98713 196.178 11.6535C197.876 16.3199 195.47 21.4796 190.804 23.178Z" stroke="#F0A5A2" stroke-width="5"/>
<path opacity="0.85" d="M60.2484 55.4417C64.5661 48.2558 73.8916 45.9307 81.0774 50.2484C88.2632 54.5661 90.5883 63.8916 86.2707 71.0774C81.953 78.2633 72.6275 80.5884 65.4417 76.2707C58.2558 71.953 55.9307 62.6275 60.2484 55.4417Z" stroke="#F0A5A2" stroke-width="5"/>
<path opacity="0.77" d="M101.918 42.0029C102.543 36.9126 107.176 33.2927 112.266 33.9177C117.357 34.5427 120.977 39.176 120.351 44.2663C119.726 49.3567 115.093 52.9766 110.003 52.3516C104.913 51.7265 101.293 47.0933 101.918 42.0029Z" stroke="#F0A5A2" stroke-width="5"/>
<path opacity="0.97" d="M143.457 88.8691C138.166 88.9615 133.803 84.7475 133.71 79.457C133.618 74.1665 137.832 69.8028 143.122 69.7105C148.413 69.6181 152.777 73.8321 152.869 79.1226C152.961 84.4131 148.747 88.7768 143.457 88.8691Z" stroke="#F0A5A2" stroke-width="5"/>
<path d="M206.469 94.5678C204.023 99.1679 198.311 100.914 193.711 98.4683C189.11 96.0224 187.364 90.3104 189.81 85.7103C192.256 81.1102 197.968 79.3639 202.568 81.8098C207.168 84.2557 208.914 89.9677 206.469 94.5678Z" stroke="#F0A5A2" stroke-width="5"/>
<path opacity="0.84" d="M268.401 64.2818C274.035 61.5342 280.829 63.8736 283.576 69.507C286.324 75.1404 283.985 81.9345 278.351 84.6821C272.718 87.4297 265.924 85.0903 263.176 79.4569C260.429 73.8235 262.768 67.0294 268.401 64.2818Z" stroke="#F0A5A2" stroke-width="5"/>
<path opacity="0.97" d="M33.3538 120.125C27.7565 124.192 19.9223 122.951 15.8556 117.354C11.7889 111.756 13.0297 103.922 18.627 99.8554C24.2243 95.7887 32.0586 97.0295 36.1252 102.627C40.1919 108.224 38.9511 116.058 33.3538 120.125Z" stroke="#F0A5A2" stroke-width="5"/>
<path opacity="0.82" d="M61.6842 114.923C56.4764 112.819 53.9603 106.892 56.0644 101.684C58.1685 96.4762 64.096 93.9602 69.3038 96.0643C74.5116 98.1684 77.0276 104.096 74.9235 109.304C72.8194 114.511 66.892 117.027 61.6842 114.923Z" stroke="#F0A5A2" stroke-width="5"/>
<path opacity="0.86" d="M103.603 90.3201C105.934 85.9355 111.378 84.271 115.763 86.6023C120.147 88.9337 121.812 94.378 119.481 98.7626C117.149 103.147 111.705 104.812 107.32 102.48C102.936 100.149 101.271 94.7047 103.603 90.3201Z" stroke="#F0A5A2" stroke-width="5"/>
<path opacity="0.99" d="M149.135 33.8333C153.368 27.5579 161.886 25.902 168.162 30.1349C174.437 34.3677 176.093 42.8864 171.86 49.1619C167.627 55.4373 159.109 57.0932 152.833 52.8603C146.558 48.6275 144.902 40.1088 149.135 33.8333Z" stroke="#F0A5A2" stroke-width="5"/>
<path opacity="0.81" d="M128.533 259.796C128.099 255.667 131.095 251.967 135.225 251.533C139.354 251.099 143.053 254.095 143.488 258.225C143.922 262.354 140.926 266.053 136.796 266.488C132.667 266.922 128.967 263.926 128.533 259.796Z" stroke="#F0A5A2" stroke-width="5"/>
<path opacity="0.89" d="M271.547 113.119C274.222 108.839 279.86 107.537 284.14 110.212C288.42 112.887 289.722 118.525 287.048 122.805C284.373 127.085 278.735 128.387 274.455 125.712C270.174 123.038 268.873 117.4 271.547 113.119Z" stroke="#F0A5A2" stroke-width="5"/>
<path opacity="0.95" d="M235.911 91.3226C228.505 91.3226 222.5 85.3181 222.5 77.9113C222.5 70.5044 228.505 64.5 235.911 64.5C243.318 64.5 249.323 70.5044 249.323 77.9113C249.323 85.3181 243.318 91.3226 235.911 91.3226Z" stroke="#F0A5A2" stroke-width="5"/>
<path opacity="0.89" d="M50.8587 202.535C43.0836 203.906 35.6693 198.714 34.2983 190.939C32.9273 183.164 38.1189 175.749 45.894 174.378C53.6691 173.008 61.0835 178.199 62.4544 185.974C63.8254 193.749 58.6338 201.164 50.8587 202.535Z" stroke="#F0A5A2" stroke-width="5"/>
<path opacity="0.87" d="M110.685 206.617C115.645 211.084 116.046 218.725 111.58 223.685C107.114 228.645 99.472 229.046 94.5119 224.58C89.5517 220.114 89.1512 212.472 93.6174 207.512C98.0835 202.552 105.725 202.151 110.685 206.617Z" stroke="#F0A5A2" stroke-width="5"/>
<path opacity="0.83" d="M186.004 240.313C179.847 242.433 173.137 239.16 171.017 233.003C168.897 226.846 172.169 220.136 178.326 218.016C184.483 215.896 191.193 219.169 193.313 225.326C195.433 231.483 192.161 238.193 186.004 240.313Z" stroke="#F0A5A2" stroke-width="5"/>
<path opacity="0.83" d="M223.42 225.072C219.063 220.233 219.454 212.777 224.293 208.42C229.132 204.063 236.587 204.454 240.945 209.293C245.302 214.132 244.911 221.587 240.072 225.945C235.233 230.302 227.777 229.911 223.42 225.072Z" stroke="#F0A5A2" stroke-width="5"/>
<path opacity="0.91" d="M270.877 150.428C276.141 152.138 279.022 157.793 277.312 163.057C275.601 168.322 269.947 171.203 264.682 169.492C259.418 167.782 256.537 162.127 258.247 156.863C259.958 151.598 265.612 148.717 270.877 150.428Z" stroke="#F0A5A2" stroke-width="5"/>
<path opacity="0.99" d="M9.24711 218.071C11.0414 210.299 18.7964 205.453 26.5684 207.247C34.3404 209.041 39.1862 216.796 37.3919 224.568C35.5976 232.34 27.8426 237.186 20.0706 235.392C12.2987 233.598 7.4528 225.843 9.24711 218.071Z" stroke="#F0A5A2" stroke-width="5"/>
<path opacity="0.92" d="M9.19824 156.603C9.9573 151.202 14.951 147.439 20.352 148.198C25.753 148.957 29.516 153.951 28.7569 159.352C27.9979 164.753 23.0042 168.516 17.6032 167.757C12.2022 166.998 8.43918 162.004 9.19824 156.603Z" stroke="#F0A5A2" stroke-width="5"/>
<path opacity="0.8" d="M67.8396 294.218C59.5832 295.086 52.1866 289.096 51.3188 280.84C50.451 272.583 56.4407 265.187 64.6971 264.319C72.9535 263.451 80.3501 269.441 81.2179 277.697C82.0856 285.954 76.096 293.35 67.8396 294.218Z" stroke="#F0A5A2" stroke-width="5"/>
<path opacity="0.93" d="M136.133 226.236C132.475 221.553 133.305 214.792 137.988 211.133C142.67 207.475 149.432 208.305 153.09 212.988C156.749 217.67 155.918 224.432 151.236 228.09C146.553 231.749 139.792 230.919 136.133 226.236Z" stroke="#F0A5A2" stroke-width="5"/>
<path opacity="0.93" d="M225.937 256.919C224.803 264.074 218.084 268.956 210.929 267.822C203.775 266.689 198.893 259.97 200.026 252.815C201.159 245.661 207.878 240.779 215.033 241.912C222.188 243.045 227.07 249.764 225.937 256.919Z" stroke="#F0A5A2" stroke-width="5"/>
<path opacity="0.93" d="M291.822 282.919C290.689 290.074 283.97 294.956 276.815 293.822C269.66 292.689 264.779 285.97 265.912 278.815C267.045 271.661 273.764 266.779 280.919 267.912C288.074 269.045 292.956 275.764 291.822 282.919Z" stroke="#F0A5A2" stroke-width="5"/>
<path opacity="0.93" d="M287.822 24.9192C286.689 32.0742 279.97 36.9557 272.815 35.8225C265.66 34.6893 260.779 27.9704 261.912 20.8155C263.045 13.6605 269.764 8.77897 276.919 9.9122C284.074 11.0454 288.956 17.7643 287.822 24.9192Z" stroke="#F0A5A2" stroke-width="5"/>
<path opacity="0.99" d="M285.528 237.786C280.64 240.384 274.571 238.529 271.973 233.641C269.374 228.754 271.229 222.685 276.117 220.086C281.004 217.488 287.073 219.343 289.672 224.231C292.27 229.118 290.415 235.187 285.528 237.786Z" stroke="#F0A5A2" stroke-width="5"/>
<path opacity="0.85" d="M15.1927 279.217C14.9031 275.075 18.0261 271.482 22.1682 271.193C26.3102 270.903 29.9029 274.026 30.1925 278.168C30.4822 282.31 27.3591 285.903 23.2171 286.193C19.075 286.482 15.4823 283.359 15.1927 279.217Z" stroke="#F0A5A2" stroke-width="5"/>
<path opacity="0.85" d="M181.193 285.217C180.903 281.075 184.026 277.482 188.168 277.193C192.31 276.903 195.903 280.026 196.193 284.168C196.482 288.31 193.359 291.903 189.217 292.193C185.075 292.482 181.482 289.359 181.193 285.217Z" stroke="#F0A5A2" stroke-width="5"/>
<path opacity="0.9" d="M103.914 243.935C109.574 245.995 112.493 252.254 110.433 257.914C108.372 263.574 102.114 266.493 96.4533 264.433C90.7929 262.372 87.8744 256.114 89.9346 250.453C91.9948 244.793 98.2535 241.874 103.914 243.935Z" stroke="#F0A5A2" stroke-width="5"/>
<path opacity="0.88" d="M130.31 289.988C127.703 293.325 122.886 293.916 119.55 291.31C116.214 288.703 115.622 283.886 118.229 280.55C120.835 277.214 125.652 276.622 128.988 279.229C132.325 281.835 132.916 286.652 130.31 289.988Z" stroke="#F0A5A2" stroke-width="5"/>
<path opacity="0.8" d="M59.4699 234.779C63.009 233.831 66.6468 235.931 67.5951 239.47C68.5434 243.009 66.4431 246.647 62.904 247.595C59.3648 248.544 55.727 246.443 54.7787 242.904C53.8304 239.365 55.9307 235.727 59.4699 234.779Z" stroke="#F0A5A2" stroke-width="5"/>
<path opacity="0.8" d="M236.47 278.779C240.009 277.831 243.647 279.931 244.595 283.47C245.543 287.009 243.443 290.647 239.904 291.595C236.365 292.544 232.727 290.443 231.779 286.904C230.83 283.365 232.931 279.727 236.47 278.779Z" stroke="#F0A5A2" stroke-width="5"/>
<path opacity="0.73" d="M168.91 269.945C165.185 270.337 161.848 267.635 161.456 263.91C161.065 260.185 163.767 256.848 167.492 256.456C171.217 256.065 174.554 258.767 174.945 262.492C175.337 266.217 172.635 269.554 168.91 269.945Z" stroke="#F0A5A2" stroke-width="5"/>
<path opacity="0.93" d="M261.612 198.17C261.156 194.453 263.8 191.069 267.517 190.613C271.234 190.156 274.618 192.8 275.075 196.517C275.531 200.235 272.887 203.618 269.17 204.075C265.452 204.531 262.069 201.887 261.612 198.17Z" stroke="#F0A5A2" stroke-width="5"/>
</g>
<defs>
<filter id="filter0_d" x="55.6313" y="129.382" width="187.948" height="56.314" filterUnits="userSpaceOnUse" color-interpolation-filters="sRGB">
<feFlood flood-opacity="0" result="BackgroundImageFix"/>
<feColorMatrix in="SourceAlpha" type="matrix" values="0 0 0 0 0 0 0 0 0 0 0 0 0 0 0 0 0 0 127 0"/>
<feOffset dy="4"/>
<feGaussianBlur stdDeviation="2"/>
<feColorMatrix type="matrix" values="0 0 0 0 0 0 0 0 0 0 0 0 0 0 0 0 0 0 0.25 0"/>
<feBlend mode="normal" in2="BackgroundImageFix" result="effect1_dropShadow"/>
<feBlend mode="normal" in="SourceGraphic" in2="effect1_dropShadow" result="shape"/>
</filter>
<clipPath id="clip0">
<rect width="300" height="300" fill="white"/>
</clipPath>
</defs>
</svg>
