<svg width="300" height="300" viewBox="0 0 300 300" fill="none" xmlns="http://www.w3.org/2000/svg">
<g clip-path="url(#clip0)">
<rect width="300" height="300" fill="#2F80ED"/>
<g filter="url(#filter0_d)">
<path d="M80.3336 130.02H89.2076L94.2536 161.92L98.9516 130.02H108.348L99.7636 177H88.8016L80.3336 130.02ZM113.125 130.02H123.507V177H113.125V130.02ZM130.512 130.02H142.402C146.462 130.02 149.633 130.523 151.914 131.528C154.196 132.533 155.8 134.119 156.728 136.284C157.695 138.411 158.178 141.272 158.178 144.868V161.92C158.178 165.555 157.695 168.455 156.728 170.62C155.8 172.785 154.196 174.39 151.914 175.434C149.672 176.478 146.54 177 142.518 177H130.512V130.02ZM142.518 169.808C144.026 169.808 145.128 169.595 145.824 169.17C146.559 168.706 147.023 168.068 147.216 167.256C147.41 166.405 147.506 165.168 147.506 163.544V143.07C147.506 141.562 147.39 140.421 147.158 139.648C146.965 138.836 146.501 138.237 145.766 137.85C145.07 137.463 143.968 137.27 142.46 137.27H140.894V169.808H142.518ZM164.497 130.02H185.609V137.096H174.879V148.754H183.057V155.946H174.879V169.982H185.725V177H164.497V130.02ZM203.894 177.696C198.829 177.696 195.213 176.401 193.048 173.81C190.883 171.181 189.8 167.314 189.8 162.21V144.752C189.8 139.648 190.883 135.82 193.048 133.268C195.213 130.677 198.829 129.382 203.894 129.382C208.998 129.382 212.633 130.677 214.798 133.268C217.002 135.859 218.104 139.687 218.104 144.752V162.21C218.104 167.314 217.002 171.181 214.798 173.81C212.633 176.401 208.998 177.696 203.894 177.696ZM203.894 170.33C205.363 170.33 206.33 169.847 206.794 168.88C207.258 167.875 207.49 166.521 207.49 164.82V142.2C207.49 140.46 207.258 139.107 206.794 138.14C206.33 137.173 205.363 136.69 203.894 136.69C202.502 136.69 201.574 137.193 201.11 138.198C200.646 139.165 200.414 140.499 200.414 142.2V164.82C200.414 166.521 200.627 167.875 201.052 168.88C201.477 169.847 202.425 170.33 203.894 170.33Z" fill="#F4F9FF"/>
</g>
<path opacity="0.89" d="M34.5993 9.00455L38.5565 8.5896C41.2354 8.30869 43.2142 11.0324 42.1193 13.4933L40.5018 17.1286C39.4063 19.5905 36.0564 19.943 34.4725 17.763L32.1328 14.5427C30.5489 12.3627 31.9194 9.28558 34.5993 9.00455Z" stroke="#71ACFC" stroke-width="5"/>
<path opacity="0.89" d="M238.599 27.0046L242.556 26.5896C245.235 26.3087 247.214 29.0324 246.119 31.4933L244.502 35.1286C243.406 37.5905 240.056 37.943 238.472 35.763L236.133 32.5427C234.549 30.3627 235.919 27.2856 238.599 27.0046Z" stroke="#71ACFC" stroke-width="5"/>
<path opacity="0.89" d="M17.5993 269.005L21.5565 268.59C24.2354 268.309 26.2142 271.032 25.1193 273.493L23.5018 277.129C22.4063 279.591 19.0564 279.943 17.4725 277.763L15.1328 274.543C13.5489 272.363 14.9194 269.286 17.5993 269.005Z" stroke="#71ACFC" stroke-width="5"/>
<path opacity="0.89" d="M260.599 274.005L264.556 273.59C267.235 273.309 269.214 276.032 268.119 278.493L266.502 282.129C265.406 284.591 262.056 284.943 260.472 282.763L258.133 279.543C256.549 277.363 257.919 274.286 260.599 274.005Z" stroke="#71ACFC" stroke-width="5"/>
<path opacity="0.76" d="M80.8379 35.8974L72.1157 36.1999C69.4238 36.2932 67.6397 33.4381 68.9037 31.0596L72.9991 23.3527C74.2636 20.9732 77.6301 20.8552 79.058 23.1404L83.6848 30.5448C85.1127 32.83 83.531 35.804 80.8379 35.8974Z" stroke="#71ACFC" stroke-width="5"/>
<path opacity="0.8" d="M128.558 22.4781L123.488 33.8583C122.392 36.3187 119.044 36.6706 117.46 34.4919L110.134 24.4145C108.55 22.2348 109.92 19.1574 112.6 18.8757L124.995 17.5729C127.675 17.2913 129.655 20.0167 128.558 22.4781Z" stroke="#71ACFC" stroke-width="5"/>
<path opacity="0.9" d="M177.102 31.0456L162.738 42.2624C160.615 43.9202 157.494 42.659 157.118 39.9918L154.577 21.9451C154.202 19.2768 156.856 17.2026 159.354 18.212L176.259 25.0419C178.758 26.0514 179.226 29.3871 177.102 31.0456Z" stroke="#71ACFC" stroke-width="5"/>
<path opacity="0.76" d="M218.088 23.9944L215.254 27.2525C213.487 29.285 210.182 28.6426 209.304 26.096L207.897 22.0136C207.02 19.4659 209.229 16.9234 211.874 17.4376L216.115 18.2618C218.76 18.776 219.856 21.9611 218.088 23.9944Z" stroke="#71ACFC" stroke-width="5"/>
<path opacity="0.7" d="M20.7654 38.4366L20.9915 51.5716C21.0379 54.2647 18.1521 55.9987 15.7959 54.6934L4.30463 48.3273C1.9475 47.0214 1.88831 43.6535 4.19809 42.2656L15.4633 35.4968C17.773 34.1089 20.719 35.7424 20.7654 38.4366Z" stroke="#71ACFC" stroke-width="5"/>
<path opacity="0.89" d="M53.4866 55.653L63.0318 67.4461C64.7264 69.5398 63.5199 72.6829 60.8596 73.1049L45.875 75.4819C43.2136 75.9041 41.0934 73.2865 42.0591 70.7708L47.4985 56.6007C48.4642 54.085 51.7913 53.5584 53.4866 55.653Z" stroke="#71ACFC" stroke-width="5"/>
<path opacity="0.86" d="M102.053 67.1988L103.927 70.319C105.314 72.6282 103.682 75.5727 100.988 75.6204L97.3493 75.6848C94.655 75.7324 92.9198 72.8453 94.2262 70.4885L95.9915 67.3039C97.2979 64.947 100.666 64.8887 102.053 67.1988Z" stroke="#71ACFC" stroke-width="5"/>
<path opacity="0.86" d="M289.053 89.1988L290.927 92.319C292.314 94.6282 290.682 97.5727 287.988 97.6204L284.349 97.6848C281.655 97.7324 279.92 94.8453 281.226 92.4885L282.991 89.3039C284.298 86.947 287.666 86.8887 289.053 89.1988Z" stroke="#71ACFC" stroke-width="5"/>
<path opacity="0.84" d="M191.84 86.2931L205.855 75.7368C208.007 74.1163 211.106 75.4318 211.435 78.1052L213.577 95.5202C213.906 98.1947 211.216 100.222 208.736 99.1693L192.578 92.3106C190.097 91.2577 189.687 87.9143 191.84 86.2931Z" stroke="#71ACFC" stroke-width="5"/>
<path opacity="0.82" d="M193.26 54.1421L191.318 54.2094C188.626 54.3028 186.842 51.4477 188.106 49.0691L189.018 47.3527C190.282 44.9731 193.649 44.8552 195.077 47.1404L196.107 48.7894C197.535 51.0747 195.953 54.0487 193.26 54.1421Z" stroke="#71ACFC" stroke-width="5"/>
<path opacity="0.94" d="M240.48 55.6575L259.808 60.4813C262.421 61.1336 263.349 64.3699 261.479 66.3079L247.644 80.6409C245.773 82.5797 242.504 81.7652 241.761 79.1749L236.268 60.0181C235.526 57.4278 237.866 55.005 240.48 55.6575Z" stroke="#71ACFC" stroke-width="5"/>
<path opacity="0.81" d="M14.6578 106.599L17.2478 106.19C19.9083 105.769 22.027 108.385 21.0623 110.9L20.1232 113.348C19.1581 115.864 15.8312 116.392 14.1354 114.297L12.4845 112.259C10.7887 110.165 11.9962 107.02 14.6578 106.599Z" stroke="#71ACFC" stroke-width="5"/>
<path opacity="0.96" d="M46.7501 132.068L46.5123 118.255C46.4659 115.562 49.3517 113.828 51.7078 115.133L63.7925 121.828C66.1496 123.134 66.2088 126.502 63.8991 127.89L52.0522 135.008C49.7424 136.396 46.7964 134.763 46.7501 132.068Z" stroke="#71ACFC" stroke-width="5"/>
<path opacity="0.92" d="M18.1334 189.12L24.0634 195.052C25.9676 196.957 25.0962 200.209 22.4946 200.907L14.3927 203.08C11.79 203.778 9.40786 201.397 10.1053 198.794L12.2772 190.688C12.9747 188.085 16.2285 187.214 18.1334 189.12Z" stroke="#71ACFC" stroke-width="5"/>
<path opacity="0.94" d="M169.177 100.183L154.57 97.6038C151.918 97.1355 150.766 93.9718 152.497 91.9081L162.029 80.5432C163.76 78.4785 167.078 79.0631 167.999 81.5952L173.074 95.5393C173.996 98.0714 171.831 100.652 169.177 100.183Z" stroke="#71ACFC" stroke-width="5"/>
<path opacity="0.96" d="M240.614 116.631L250.315 122.696C252.599 124.124 252.481 127.488 250.103 128.753L240.003 134.127C237.624 135.393 234.767 133.608 234.861 130.915L235.261 119.476C235.355 116.783 238.329 115.202 240.614 116.631Z" stroke="#71ACFC" stroke-width="5"/>
<path opacity="0.8" d="M274.255 154.039L274.613 151.784C275.035 149.124 278.178 147.918 280.271 149.612L282.046 151.049C284.14 152.744 283.614 156.071 281.098 157.037L278.966 157.855C276.45 158.821 273.833 156.701 274.255 154.039Z" stroke="#71ACFC" stroke-width="5"/>
<path opacity="0.74" d="M18.7964 160.434L16.7111 159.505C14.2507 158.409 13.8988 155.06 16.0775 153.477L17.9241 152.134C20.1038 150.55 23.1812 151.92 23.4629 154.6L23.7016 156.871C23.9833 159.551 21.2579 161.53 18.7964 160.434Z" stroke="#71ACFC" stroke-width="5"/>
<path opacity="0.85" d="M44.537 167.716L44.427 166.455C44.1929 163.772 46.9507 161.841 49.3922 162.979L50.5391 163.513C52.9816 164.652 53.2756 168.007 51.0682 169.553L50.0313 170.279C47.8239 171.824 44.7712 170.4 44.537 167.716Z" stroke="#71ACFC" stroke-width="5"/>
<path opacity="0.76" d="M108.848 220.864L112.85 204.827C113.503 202.214 116.739 201.286 118.677 203.156L130.569 214.635C132.508 216.507 131.694 219.775 129.104 220.518L113.209 225.076C110.618 225.819 108.195 223.478 108.848 220.864Z" stroke="#71ACFC" stroke-width="5"/>
<path opacity="0.77" d="M87.1006 246.421L83.9149 241.32C82.4881 239.035 84.0686 236.063 86.7605 235.968L92.7708 235.757C95.4638 235.662 97.2491 238.518 95.9841 240.898L93.1595 246.21C91.8944 248.589 88.528 248.706 87.1006 246.421Z" stroke="#71ACFC" stroke-width="5"/>
<path opacity="0.84" d="M229.437 205.145L241.893 204.931C244.587 204.884 246.321 207.77 245.015 210.126L238.978 221.024C237.672 223.381 234.304 223.44 232.916 221.131L226.497 210.447C225.109 208.137 226.743 205.191 229.437 205.145Z" stroke="#71ACFC" stroke-width="5"/>
<path opacity="0.75" d="M255.016 168.399L256.09 169.592C257.892 171.594 256.851 174.796 254.217 175.357L252.647 175.69C250.012 176.251 247.757 173.748 248.59 171.186L249.086 169.659C249.919 167.096 253.214 166.396 255.016 168.399Z" stroke="#71ACFC" stroke-width="5"/>
<path opacity="0.9" d="M19.8149 235.347L22.024 232.895C23.8268 230.894 27.1199 231.594 27.9528 234.155L28.9735 237.294C29.8068 239.856 27.5532 242.36 24.9174 241.8L21.6877 241.113C19.0519 240.553 18.0114 237.349 19.8149 235.347Z" stroke="#71ACFC" stroke-width="5"/>
<path opacity="0.92" d="M45.5111 212.031L63.0336 211.117C65.7235 210.976 67.5571 213.8 66.3348 216.2L58.3727 231.836C57.1499 234.237 53.7861 234.414 52.3185 232.154L42.7581 217.432C41.2905 215.172 42.8201 212.171 45.5111 212.031Z" stroke="#71ACFC" stroke-width="5"/>
<path opacity="0.79" d="M123.63 253.485C125.923 254.861 125.865 258.204 123.526 259.501C121.187 260.797 118.321 259.075 118.369 256.401C118.416 253.728 121.338 252.108 123.63 253.485Z" stroke="#71ACFC" stroke-width="5"/>
<path opacity="0.79" d="M24.6299 83.4846C26.9226 84.8614 26.8647 88.204 24.5256 89.5005C22.1866 90.7971 19.3212 89.0749 19.3685 86.401C19.4158 83.7282 22.3382 82.1083 24.6299 83.4846Z" stroke="#71ACFC" stroke-width="5"/>
<path opacity="0.79" d="M164.63 280.485C166.923 281.861 166.865 285.204 164.526 286.501C162.187 287.797 159.321 286.075 159.369 283.401C159.416 280.728 162.338 279.108 164.63 280.485Z" stroke="#71ACFC" stroke-width="5"/>
<path opacity="0.79" d="M136.63 65.4846C138.923 66.8614 138.865 70.204 136.526 71.5005C134.187 72.7971 131.321 71.0749 131.369 68.401C131.416 65.7282 134.338 64.1083 136.63 65.4846Z" stroke="#71ACFC" stroke-width="5"/>
<path opacity="0.78" d="M156.912 251.732L161.288 253.326C163.818 254.248 164.403 257.563 162.34 259.295L158.773 262.289C156.709 264.022 153.544 262.87 153.076 260.217L152.267 255.628C151.799 252.974 154.38 250.81 156.912 251.732Z" stroke="#71ACFC" stroke-width="5"/>
<path opacity="0.8" d="M211.313 231.287L193.117 237.547C190.57 238.424 188.03 236.215 188.543 233.571L192.21 214.681C192.723 212.036 195.908 210.939 197.942 212.707L212.47 225.336C214.504 227.104 213.861 230.41 211.313 231.287Z" stroke="#71ACFC" stroke-width="5"/>
<path opacity="0.81" d="M258.883 241.682L256.684 240.253C254.426 238.786 254.602 235.424 257.002 234.2L259.338 233.009C261.738 231.785 264.564 233.62 264.422 236.311L264.285 238.93C264.144 241.621 261.143 243.15 258.883 241.682Z" stroke="#71ACFC" stroke-width="5"/>
<path opacity="0.81" d="M62.8831 101.682L60.6843 100.253C58.4257 98.7858 58.6019 95.4238 61.0016 94.2004L63.3376 93.0094C65.7382 91.7855 68.5635 93.6197 68.4225 96.3107L68.2852 98.9303C68.1442 101.621 65.1427 103.15 62.8831 101.682Z" stroke="#71ACFC" stroke-width="5"/>
<path opacity="0.73" d="M48.1345 274.632L49.2774 273.06C50.8612 270.881 54.2094 271.233 55.3055 273.693L56.0966 275.469C57.1932 277.93 55.2136 280.656 52.5336 280.374L50.5998 280.171C47.9199 279.889 46.5501 276.811 48.1345 274.632Z" stroke="#71ACFC" stroke-width="5"/>
<path opacity="0.73" d="M280.135 249.632L281.277 248.06C282.861 245.881 286.209 246.233 287.306 248.693L288.097 250.469C289.193 252.93 287.214 255.656 284.534 255.374L282.6 255.171C279.92 254.889 278.55 251.811 280.135 249.632Z" stroke="#71ACFC" stroke-width="5"/>
<path opacity="0.98" d="M168.223 225.661L164.65 224.965C162.006 224.451 160.91 221.267 162.677 219.234L165.064 216.487C166.831 214.453 170.138 215.095 171.015 217.643L172.2 221.086C173.078 223.633 170.868 226.175 168.223 225.661Z" stroke="#71ACFC" stroke-width="5"/>
<path opacity="0.75" d="M103.37 272.571L111.812 282.637C113.543 284.701 112.391 287.864 109.739 288.333L96.802 290.617C94.1484 291.085 91.9828 288.505 92.9045 285.973L97.3994 273.623C98.321 271.091 101.638 270.507 103.37 272.571Z" stroke="#71ACFC" stroke-width="5"/>
<path opacity="0.87" d="M189.216 274.271L196.471 267.268C198.41 265.397 201.646 266.325 202.298 268.938L204.74 278.723C205.392 281.337 202.97 283.677 200.379 282.934L190.682 280.154C188.092 279.411 187.277 276.142 189.216 274.271Z" stroke="#71ACFC" stroke-width="5"/>
<path opacity="0.87" d="M273.216 40.2711L280.471 33.2677C282.41 31.3971 285.646 32.3251 286.298 34.9385L288.74 44.7225C289.392 47.337 286.97 49.6772 284.379 48.9345L274.682 46.1538C272.092 45.411 271.277 42.1425 273.216 40.2711Z" stroke="#71ACFC" stroke-width="5"/>
<path opacity="0.87" d="M274.216 199.271L281.471 192.268C283.41 190.397 286.646 191.325 287.298 193.938L289.74 203.723C290.392 206.337 287.97 208.677 285.379 207.934L275.682 205.154C273.092 204.411 272.277 201.142 274.216 199.271Z" stroke="#71ACFC" stroke-width="5"/>
<path opacity="0.76" d="M232.408 260.566L228.459 261.05C225.785 261.377 223.759 258.689 224.811 256.209L226.365 252.546C227.417 250.065 230.76 249.654 232.382 251.806L234.778 254.985C236.399 257.138 235.083 260.238 232.408 260.566Z" stroke="#71ACFC" stroke-width="5"/>
</g>
<defs>
<filter id="filter0_d" x="76.3335" y="129.382" width="145.77" height="56.314" filterUnits="userSpaceOnUse" color-interpolation-filters="sRGB">
<feFlood flood-opacity="0" result="BackgroundImageFix"/>
<feColorMatrix in="SourceAlpha" type="matrix" values="0 0 0 0 0 0 0 0 0 0 0 0 0 0 0 0 0 0 127 0"/>
<feOffset dy="4"/>
<feGaussianBlur stdDeviation="2"/>
<feColorMatrix type="matrix" values="0 0 0 0 0 0 0 0 0 0 0 0 0 0 0 0 0 0 0.25 0"/>
<feBlend mode="normal" in2="BackgroundImageFix" result="effect1_dropShadow"/>
<feBlend mode="normal" in="SourceGraphic" in2="effect1_dropShadow" result="shape"/>
</filter>
<clipPath id="clip0">
<rect width="300" height="300" fill="white"/>
</clipPath>
</defs>
</svg>
