<svg width="300" height="300" viewBox="0 0 300 300" fill="none" xmlns="http://www.w3.org/2000/svg">
<g clip-path="url(#clip0)">
<path d="M464 -48H-180V314H464V-48Z" fill="url(#paint0_linear)"/>
<g opacity="0.89" filter="url(#filter0_dd)">
<path d="M247.008 167.73L268.07 165.522C272.189 165.09 275.232 169.277 273.549 173.059L264.938 192.406C263.254 196.189 258.105 196.73 255.67 193.38L243.216 176.242C240.781 172.891 242.888 168.162 247.008 167.73Z" stroke="url(#paint1_linear)" stroke-width="1.13901"/>
</g>
<g opacity="0.76" filter="url(#filter1_dd)">
<path d="M-0.229786 189.009L-29.2859 190.016C-33.4245 190.16 -36.1676 185.771 -34.2244 182.114L-20.5819 156.445C-18.6372 152.788 -13.4626 152.607 -11.2667 156.121L4.1463 180.781C6.34059 184.294 3.90926 188.865 -0.229786 189.009Z" stroke="url(#paint2_linear)" stroke-width="1.13901"/>
</g>
<g opacity="0.8" filter="url(#filter2_dd)">
<path d="M78.0984 158.072L63.7427 190.29C62.0584 194.072 56.9119 194.613 54.4759 191.263L33.7354 162.735C31.2994 159.384 33.4048 154.652 37.5251 154.22L72.6212 150.532C76.7416 150.098 79.7842 154.289 78.0984 158.072Z" stroke="url(#paint3_linear)" stroke-width="1.13901"/>
</g>
<g opacity="0.9" filter="url(#filter3_dd)">
<path d="M160.463 175.92L125.103 203.526C121.84 206.074 117.042 204.135 116.464 200.035L110.209 155.619C109.632 151.518 113.713 148.328 117.553 149.88L159.167 166.69C163.008 168.242 163.728 173.37 160.463 175.92Z" stroke="url(#paint4_linear)" stroke-width="1.13901"/>
</g>
<g opacity="0.76" filter="url(#filter4_dd)">
<path d="M228.166 162.688L213.898 179.09C211.18 182.215 206.1 181.228 204.751 177.314L197.668 156.762C196.319 152.844 199.715 148.936 203.781 149.727L225.133 153.875C229.199 154.666 230.885 159.563 228.166 162.688Z" stroke="url(#paint5_linear)" stroke-width="1.13901"/>
</g>
<g opacity="0.86" filter="url(#filter5_dd)">
<path d="M27.1076 229.346L37.7203 247.016C39.8522 250.566 37.3429 255.091 33.2023 255.165L12.5913 255.53C8.44912 255.603 5.78228 251.164 7.79098 247.542L17.7893 229.508C19.798 225.886 24.9757 225.795 27.1076 229.346Z" stroke="url(#paint6_linear)" stroke-width="1.13901"/>
</g>
<g opacity="0.84" filter="url(#filter6_dd)">
<path d="M168.822 270.64L203.756 244.334C207.064 241.843 211.827 243.864 212.334 247.974L217.673 291.373C218.179 295.486 214.044 298.602 210.23 296.984L169.956 279.892C166.143 278.273 165.513 273.133 168.822 270.64Z" stroke="url(#paint7_linear)" stroke-width="1.13901"/>
</g>
<g opacity="0.82" filter="url(#filter7_dd)">
<path d="M186.679 219.336L168.894 219.952C164.757 220.095 162.014 215.707 163.957 212.051L172.307 196.34C174.251 192.683 179.426 192.502 181.622 196.014L191.055 211.108C193.25 214.621 190.818 219.192 186.679 219.336Z" stroke="url(#paint8_linear)" stroke-width="1.13901"/>
</g>
<g opacity="0.82" filter="url(#filter8_dd)">
<path d="M63.0745 102.775L45.291 103.391C41.1519 103.535 38.4102 99.1459 40.3534 95.4896L48.7032 79.779C50.6464 76.1214 55.8226 75.9404 58.0184 79.4531L67.4506 94.5472C69.6464 98.0599 67.2151 102.631 63.0745 102.775Z" stroke="url(#paint9_linear)" stroke-width="1.13901"/>
</g>
<g opacity="0.94" filter="url(#filter9_dd)">
<path d="M251.617 212.927L297.88 224.471C301.899 225.474 303.326 230.45 300.45 233.429L267.335 267.73C264.457 270.71 259.434 269.458 258.291 265.476L245.144 219.63C244.001 215.648 247.598 211.924 251.617 212.927Z" stroke="url(#paint10_linear)" stroke-width="1.13901"/>
</g>
<g opacity="0.94" filter="url(#filter10_dd)">
<path d="M145.748 297.332L107.121 290.512C103.042 289.793 101.272 284.929 103.933 281.757L129.138 251.709C131.801 248.535 136.9 249.435 138.318 253.328L151.738 290.194C153.155 294.085 149.826 298.053 145.748 297.332Z" stroke="url(#paint11_linear)" stroke-width="1.13901"/>
</g>
<g opacity="0.79" filter="url(#filter11_dd)">
<path d="M72.475 246.667L72.7292 232.261C72.8025 228.121 77.3299 225.613 80.8794 227.745L93.2342 235.162C96.7853 237.294 96.6964 242.472 93.0736 244.48L80.463 251.469C76.8402 253.476 72.4017 250.809 72.475 246.667Z" stroke="url(#paint12_linear)" stroke-width="1.13901"/>
</g>
<g opacity="0.87" filter="url(#filter12_d)">
<path d="M304.342 195.116L326.884 173.362C329.863 170.488 334.838 171.913 335.841 175.93L343.426 206.32C344.429 210.339 340.705 213.938 336.723 212.795L306.596 204.158C302.613 203.017 301.362 197.992 304.342 195.116Z" stroke="url(#paint13_linear)" stroke-width="1.13901"/>
</g>
<g opacity="0.7" filter="url(#filter13_dd)">
<path d="M189.014 -35.6134L188.387 0.778039C188.315 4.91771 192.752 7.58283 196.375 5.57647L228.218 -12.0616C231.842 -14.0689 231.932 -19.2461 228.383 -21.3794L197.165 -40.133C193.614 -42.2662 189.085 -39.7551 189.014 -35.6134Z" stroke="url(#paint14_linear)" stroke-width="1.13901"/>
</g>
<g opacity="0.89" filter="url(#filter14_dd)">
<path d="M139.908 -7.68059L114.876 23.2401C112.271 26.4586 114.126 31.2905 118.216 31.9393L157.512 38.1716C161.603 38.8205 164.863 34.797 163.378 30.93L149.114 -6.22304C147.629 -10.0901 142.514 -10.9 139.908 -7.68059Z" stroke="url(#paint15_linear)" stroke-width="1.13901"/>
</g>
<g opacity="0.86" filter="url(#filter15_dd)">
<path d="M58.0289 11.3598L47.4161 29.0288C45.2842 32.5783 47.7951 37.1051 51.9342 37.1782L72.5452 37.5428C76.6873 37.6161 79.3557 33.1783 77.347 29.5556L67.3487 11.522C65.34 7.8992 60.1623 7.80906 58.0289 11.3598Z" stroke="url(#paint16_linear)" stroke-width="1.13901"/>
</g>
<g opacity="0.81" filter="url(#filter16_dd)">
<path d="M210.592 82.4536L191.902 79.4986C187.811 78.8518 184.555 82.8738 186.038 86.7394L192.814 104.403C194.297 108.271 199.413 109.082 202.02 105.862L213.934 91.1531C216.54 87.9342 214.684 83.1005 210.592 82.4536Z" stroke="url(#paint17_linear)" stroke-width="1.13901"/>
</g>
<g opacity="0.96" filter="url(#filter17_dd)">
<path d="M153.094 134.719L153.74 97.2001C153.81 93.0604 149.375 90.3954 145.752 92.4018L112.922 110.586C109.298 112.593 109.207 117.771 112.758 119.904L144.943 139.238C148.494 141.372 153.023 138.861 153.094 134.719Z" stroke="url(#paint18_linear)" stroke-width="1.13901"/>
</g>
<g opacity="0.79" filter="url(#filter18_dd)">
<path d="M198.87 58.6005L198.616 44.1946C198.543 40.055 194.016 37.5464 190.466 39.678L178.111 47.0957C174.56 49.2284 174.649 54.4056 178.272 56.4137L190.882 63.4019C194.505 65.41 198.944 62.7422 198.87 58.6005Z" stroke="url(#paint19_linear)" stroke-width="1.13901"/>
</g>
<g opacity="0.79" filter="url(#filter19_dd)">
<path d="M12.6625 28.6798L12.4067 14.2737C12.3334 10.1342 7.80762 7.62552 4.25808 9.75711L-8.09669 17.175C-11.6494 19.3075 -11.5589 24.4849 -7.93606 26.4928L4.67291 33.481C8.29731 35.4891 12.7358 32.8213 12.6625 28.6798Z" stroke="url(#paint20_linear)" stroke-width="1.13901"/>
</g>
<g opacity="0.81" filter="url(#filter20_dd)">
<path d="M118.574 83.9888L134.441 73.6811C137.914 71.4252 137.642 66.2563 133.952 64.3756L117.095 55.7826C113.404 53.9015 109.062 56.7212 109.279 60.8577L110.269 79.7584C110.486 83.8949 115.101 86.2453 118.574 83.9888Z" stroke="url(#paint21_linear)" stroke-width="1.13901"/>
</g>
<g opacity="0.86" filter="url(#filter21_dd)">
<path d="M288.293 79.1206L277.68 96.7895C275.548 100.339 278.057 104.866 282.198 104.939L302.809 105.304C306.951 105.377 309.618 100.939 307.609 97.3162L297.611 79.2826C295.604 75.66 290.426 75.5698 288.293 79.1206Z" stroke="url(#paint22_linear)" stroke-width="1.13901"/>
</g>
<g opacity="0.87" filter="url(#filter22_dd)">
<path d="M321.96 8.32051L299.418 -13.4326C296.439 -16.3079 291.464 -14.8817 290.462 -10.8648L282.874 19.5256C281.872 23.5447 285.596 27.1427 289.579 26.001L319.706 17.3637C323.688 16.2221 324.94 11.1974 321.96 8.32051Z" stroke="url(#paint23_linear)" stroke-width="1.13901"/>
</g>
<g filter="url(#filter23_d)">
<path d="M80.3336 130.02H89.2076L94.2536 161.92L98.9516 130.02H108.348L99.7636 177H88.8016L80.3336 130.02ZM113.125 130.02H123.507V177H113.125V130.02ZM130.512 130.02H142.402C146.462 130.02 149.633 130.523 151.914 131.528C154.196 132.533 155.8 134.119 156.728 136.284C157.695 138.411 158.178 141.272 158.178 144.868V161.92C158.178 165.555 157.695 168.455 156.728 170.62C155.8 172.785 154.196 174.39 151.914 175.434C149.672 176.478 146.54 177 142.518 177H130.512V130.02ZM142.518 169.808C144.026 169.808 145.128 169.595 145.824 169.17C146.559 168.706 147.023 168.068 147.216 167.256C147.41 166.405 147.506 165.168 147.506 163.544V143.07C147.506 141.562 147.39 140.421 147.158 139.648C146.965 138.836 146.501 138.237 145.766 137.85C145.07 137.463 143.968 137.27 142.46 137.27H140.894V169.808H142.518ZM164.497 130.02H185.609V137.096H174.879V148.754H183.057V155.946H174.879V169.982H185.725V177H164.497V130.02ZM203.894 177.696C198.829 177.696 195.213 176.401 193.048 173.81C190.883 171.181 189.8 167.314 189.8 162.21V144.752C189.8 139.648 190.883 135.82 193.048 133.268C195.213 130.677 198.829 129.382 203.894 129.382C208.998 129.382 212.633 130.677 214.798 133.268C217.002 135.859 218.104 139.687 218.104 144.752V162.21C218.104 167.314 217.002 171.181 214.798 173.81C212.633 176.401 208.998 177.696 203.894 177.696ZM203.894 170.33C205.363 170.33 206.33 169.847 206.794 168.88C207.258 167.875 207.49 166.521 207.49 164.82V142.2C207.49 140.46 207.258 139.107 206.794 138.14C206.33 137.173 205.363 136.69 203.894 136.69C202.502 136.69 201.574 137.193 201.11 138.198C200.646 139.165 200.414 140.499 200.414 142.2V164.82C200.414 166.521 200.627 167.875 201.052 168.88C201.477 169.847 202.425 170.33 203.894 170.33Z" fill="#F4F9FF"/>
</g>
</g>
<defs>
<filter id="filter0_dd" x="238.194" y="161.505" width="39.8143" height="38.0801" filterUnits="userSpaceOnUse" color-interpolation-filters="sRGB">
<feFlood flood-opacity="0" result="BackgroundImageFix"/>
<feColorMatrix in="SourceAlpha" type="matrix" values="0 0 0 0 0 0 0 0 0 0 0 0 0 0 0 0 0 0 127 0"/>
<feOffset dx="-1.13901" dy="-1.13901"/>
<feGaussianBlur stdDeviation="1.13901"/>
<feColorMatrix type="matrix" values="0 0 0 0 0.172549 0 0 0 0 0.482353 0 0 0 0 0.894118 0 0 0 1 0"/>
<feBlend mode="normal" in2="BackgroundImageFix" result="effect1_dropShadow"/>
<feColorMatrix in="SourceAlpha" type="matrix" values="0 0 0 0 0 0 0 0 0 0 0 0 0 0 0 0 0 0 127 0"/>
<feOffset dx="1.13901" dy="1.13901"/>
<feGaussianBlur stdDeviation="1.13901"/>
<feColorMatrix type="matrix" values="0 0 0 0 0.0431373 0 0 0 0 0.211765 0 0 0 0 0.435294 0 0 0 1 0"/>
<feBlend mode="normal" in2="effect1_dropShadow" result="effect2_dropShadow"/>
<feBlend mode="normal" in="SourceGraphic" in2="effect2_dropShadow" result="shape"/>
</filter>
<filter id="filter1_dd" x="-38.8491" y="149.604" width="47.8076" height="44.402" filterUnits="userSpaceOnUse" color-interpolation-filters="sRGB">
<feFlood flood-opacity="0" result="BackgroundImageFix"/>
<feColorMatrix in="SourceAlpha" type="matrix" values="0 0 0 0 0 0 0 0 0 0 0 0 0 0 0 0 0 0 127 0"/>
<feOffset dx="-1.13901" dy="-1.13901"/>
<feGaussianBlur stdDeviation="1.13901"/>
<feColorMatrix type="matrix" values="0 0 0 0 0.172549 0 0 0 0 0.482353 0 0 0 0 0.894118 0 0 0 1 0"/>
<feBlend mode="normal" in2="BackgroundImageFix" result="effect1_dropShadow"/>
<feColorMatrix in="SourceAlpha" type="matrix" values="0 0 0 0 0 0 0 0 0 0 0 0 0 0 0 0 0 0 127 0"/>
<feOffset dx="1.13901" dy="1.13901"/>
<feGaussianBlur stdDeviation="1.13901"/>
<feColorMatrix type="matrix" values="0 0 0 0 0.0431373 0 0 0 0 0.211765 0 0 0 0 0.435294 0 0 0 1 0"/>
<feBlend mode="normal" in2="effect1_dropShadow" result="effect2_dropShadow"/>
<feBlend mode="normal" in="SourceGraphic" in2="effect2_dropShadow" result="shape"/>
</filter>
<filter id="filter2_dd" x="28.7129" y="146.515" width="53.8467" height="50.953" filterUnits="userSpaceOnUse" color-interpolation-filters="sRGB">
<feFlood flood-opacity="0" result="BackgroundImageFix"/>
<feColorMatrix in="SourceAlpha" type="matrix" values="0 0 0 0 0 0 0 0 0 0 0 0 0 0 0 0 0 0 127 0"/>
<feOffset dx="-1.13901" dy="-1.13901"/>
<feGaussianBlur stdDeviation="1.13901"/>
<feColorMatrix type="matrix" values="0 0 0 0 0.172549 0 0 0 0 0.482353 0 0 0 0 0.894118 0 0 0 1 0"/>
<feBlend mode="normal" in2="BackgroundImageFix" result="effect1_dropShadow"/>
<feColorMatrix in="SourceAlpha" type="matrix" values="0 0 0 0 0 0 0 0 0 0 0 0 0 0 0 0 0 0 127 0"/>
<feOffset dx="1.13901" dy="1.13901"/>
<feGaussianBlur stdDeviation="1.13901"/>
<feColorMatrix type="matrix" values="0 0 0 0 0.0431373 0 0 0 0 0.211765 0 0 0 0 0.435294 0 0 0 1 0"/>
<feBlend mode="normal" in2="effect1_dropShadow" result="effect2_dropShadow"/>
<feBlend mode="normal" in="SourceGraphic" in2="effect2_dropShadow" result="shape"/>
</filter>
<filter id="filter3_dd" x="106.167" y="145.493" width="60.352" height="63.1652" filterUnits="userSpaceOnUse" color-interpolation-filters="sRGB">
<feFlood flood-opacity="0" result="BackgroundImageFix"/>
<feColorMatrix in="SourceAlpha" type="matrix" values="0 0 0 0 0 0 0 0 0 0 0 0 0 0 0 0 0 0 127 0"/>
<feOffset dx="-1.13901" dy="-1.13901"/>
<feGaussianBlur stdDeviation="1.13901"/>
<feColorMatrix type="matrix" values="0 0 0 0 0.172549 0 0 0 0 0.482353 0 0 0 0 0.894118 0 0 0 1 0"/>
<feBlend mode="normal" in2="BackgroundImageFix" result="effect1_dropShadow"/>
<feColorMatrix in="SourceAlpha" type="matrix" values="0 0 0 0 0 0 0 0 0 0 0 0 0 0 0 0 0 0 127 0"/>
<feOffset dx="1.13901" dy="1.13901"/>
<feGaussianBlur stdDeviation="1.13901"/>
<feColorMatrix type="matrix" values="0 0 0 0 0.0431373 0 0 0 0 0.211765 0 0 0 0 0.435294 0 0 0 1 0"/>
<feBlend mode="normal" in2="effect1_dropShadow" result="effect2_dropShadow"/>
<feBlend mode="normal" in="SourceGraphic" in2="effect2_dropShadow" result="shape"/>
</filter>
<filter id="filter4_dd" x="193.38" y="145.637" width="40.0986" height="39.292" filterUnits="userSpaceOnUse" color-interpolation-filters="sRGB">
<feFlood flood-opacity="0" result="BackgroundImageFix"/>
<feColorMatrix in="SourceAlpha" type="matrix" values="0 0 0 0 0 0 0 0 0 0 0 0 0 0 0 0 0 0 127 0"/>
<feOffset dx="-1.13901" dy="-1.13901"/>
<feGaussianBlur stdDeviation="1.13901"/>
<feColorMatrix type="matrix" values="0 0 0 0 0.172549 0 0 0 0 0.482353 0 0 0 0 0.894118 0 0 0 1 0"/>
<feBlend mode="normal" in2="BackgroundImageFix" result="effect1_dropShadow"/>
<feColorMatrix in="SourceAlpha" type="matrix" values="0 0 0 0 0 0 0 0 0 0 0 0 0 0 0 0 0 0 127 0"/>
<feOffset dx="1.13901" dy="1.13901"/>
<feGaussianBlur stdDeviation="1.13901"/>
<feColorMatrix type="matrix" values="0 0 0 0 0.0431373 0 0 0 0 0.211765 0 0 0 0 0.435294 0 0 0 1 0"/>
<feBlend mode="normal" in2="effect1_dropShadow" result="effect2_dropShadow"/>
<feBlend mode="normal" in="SourceGraphic" in2="effect2_dropShadow" result="shape"/>
</filter>
<filter id="filter5_dd" x="3.12058" y="222.75" width="39.3629" height="36.7672" filterUnits="userSpaceOnUse" color-interpolation-filters="sRGB">
<feFlood flood-opacity="0" result="BackgroundImageFix"/>
<feColorMatrix in="SourceAlpha" type="matrix" values="0 0 0 0 0 0 0 0 0 0 0 0 0 0 0 0 0 0 127 0"/>
<feOffset dx="-1.13901" dy="-1.13901"/>
<feGaussianBlur stdDeviation="1.13901"/>
<feColorMatrix type="matrix" values="0 0 0 0 0.172549 0 0 0 0 0.482353 0 0 0 0 0.894118 0 0 0 1 0"/>
<feBlend mode="normal" in2="BackgroundImageFix" result="effect1_dropShadow"/>
<feColorMatrix in="SourceAlpha" type="matrix" values="0 0 0 0 0 0 0 0 0 0 0 0 0 0 0 0 0 0 127 0"/>
<feOffset dx="1.13901" dy="1.13901"/>
<feGaussianBlur stdDeviation="1.13901"/>
<feColorMatrix type="matrix" values="0 0 0 0 0.0431373 0 0 0 0 0.211765 0 0 0 0 0.435294 0 0 0 1 0"/>
<feBlend mode="normal" in2="effect1_dropShadow" result="effect2_dropShadow"/>
<feBlend mode="normal" in="SourceGraphic" in2="effect2_dropShadow" result="shape"/>
</filter>
<filter id="filter6_dd" x="162.69" y="239.258" width="59.0116" height="62.149" filterUnits="userSpaceOnUse" color-interpolation-filters="sRGB">
<feFlood flood-opacity="0" result="BackgroundImageFix"/>
<feColorMatrix in="SourceAlpha" type="matrix" values="0 0 0 0 0 0 0 0 0 0 0 0 0 0 0 0 0 0 127 0"/>
<feOffset dx="-1.13901" dy="-1.13901"/>
<feGaussianBlur stdDeviation="1.13901"/>
<feColorMatrix type="matrix" values="0 0 0 0 0.172549 0 0 0 0 0.482353 0 0 0 0 0.894118 0 0 0 1 0"/>
<feBlend mode="normal" in2="BackgroundImageFix" result="effect1_dropShadow"/>
<feColorMatrix in="SourceAlpha" type="matrix" values="0 0 0 0 0 0 0 0 0 0 0 0 0 0 0 0 0 0 127 0"/>
<feOffset dx="1.13901" dy="1.13901"/>
<feGaussianBlur stdDeviation="1.13901"/>
<feColorMatrix type="matrix" values="0 0 0 0 0.0431373 0 0 0 0 0.211765 0 0 0 0 0.435294 0 0 0 1 0"/>
<feBlend mode="normal" in2="effect1_dropShadow" result="effect2_dropShadow"/>
<feBlend mode="normal" in="SourceGraphic" in2="effect2_dropShadow" result="shape"/>
</filter>
<filter id="filter7_dd" x="159.332" y="189.499" width="36.5357" height="34.4429" filterUnits="userSpaceOnUse" color-interpolation-filters="sRGB">
<feFlood flood-opacity="0" result="BackgroundImageFix"/>
<feColorMatrix in="SourceAlpha" type="matrix" values="0 0 0 0 0 0 0 0 0 0 0 0 0 0 0 0 0 0 127 0"/>
<feOffset dx="-1.13901" dy="-1.13901"/>
<feGaussianBlur stdDeviation="1.13901"/>
<feColorMatrix type="matrix" values="0 0 0 0 0.172549 0 0 0 0 0.482353 0 0 0 0 0.894118 0 0 0 1 0"/>
<feBlend mode="normal" in2="BackgroundImageFix" result="effect1_dropShadow"/>
<feColorMatrix in="SourceAlpha" type="matrix" values="0 0 0 0 0 0 0 0 0 0 0 0 0 0 0 0 0 0 127 0"/>
<feOffset dx="1.13901" dy="1.13901"/>
<feGaussianBlur stdDeviation="1.13901"/>
<feColorMatrix type="matrix" values="0 0 0 0 0.0431373 0 0 0 0 0.211765 0 0 0 0 0.435294 0 0 0 1 0"/>
<feBlend mode="normal" in2="effect1_dropShadow" result="effect2_dropShadow"/>
<feBlend mode="normal" in="SourceGraphic" in2="effect2_dropShadow" result="shape"/>
</filter>
<filter id="filter8_dd" x="35.7285" y="72.9375" width="36.5352" height="34.4441" filterUnits="userSpaceOnUse" color-interpolation-filters="sRGB">
<feFlood flood-opacity="0" result="BackgroundImageFix"/>
<feColorMatrix in="SourceAlpha" type="matrix" values="0 0 0 0 0 0 0 0 0 0 0 0 0 0 0 0 0 0 127 0"/>
<feOffset dx="-1.13901" dy="-1.13901"/>
<feGaussianBlur stdDeviation="1.13901"/>
<feColorMatrix type="matrix" values="0 0 0 0 0.172549 0 0 0 0 0.482353 0 0 0 0 0.894118 0 0 0 1 0"/>
<feBlend mode="normal" in2="BackgroundImageFix" result="effect1_dropShadow"/>
<feColorMatrix in="SourceAlpha" type="matrix" values="0 0 0 0 0 0 0 0 0 0 0 0 0 0 0 0 0 0 127 0"/>
<feOffset dx="1.13901" dy="1.13901"/>
<feGaussianBlur stdDeviation="1.13901"/>
<feColorMatrix type="matrix" values="0 0 0 0 0.0431373 0 0 0 0 0.211765 0 0 0 0 0.435294 0 0 0 1 0"/>
<feBlend mode="normal" in2="effect1_dropShadow" result="effect2_dropShadow"/>
<feBlend mode="normal" in="SourceGraphic" in2="effect2_dropShadow" result="shape"/>
</filter>
<filter id="filter9_dd" x="240.941" y="208.774" width="65.0082" height="64.5884" filterUnits="userSpaceOnUse" color-interpolation-filters="sRGB">
<feFlood flood-opacity="0" result="BackgroundImageFix"/>
<feColorMatrix in="SourceAlpha" type="matrix" values="0 0 0 0 0 0 0 0 0 0 0 0 0 0 0 0 0 0 127 0"/>
<feOffset dx="-1.13901" dy="-1.13901"/>
<feGaussianBlur stdDeviation="1.13901"/>
<feColorMatrix type="matrix" values="0 0 0 0 0.172549 0 0 0 0 0.482353 0 0 0 0 0.894118 0 0 0 1 0"/>
<feBlend mode="normal" in2="BackgroundImageFix" result="effect1_dropShadow"/>
<feColorMatrix in="SourceAlpha" type="matrix" values="0 0 0 0 0 0 0 0 0 0 0 0 0 0 0 0 0 0 127 0"/>
<feOffset dx="1.13901" dy="1.13901"/>
<feGaussianBlur stdDeviation="1.13901"/>
<feColorMatrix type="matrix" values="0 0 0 0 0.0431373 0 0 0 0 0.211765 0 0 0 0 0.435294 0 0 0 1 0"/>
<feBlend mode="normal" in2="effect1_dropShadow" result="effect2_dropShadow"/>
<feBlend mode="normal" in="SourceGraphic" in2="effect2_dropShadow" result="shape"/>
</filter>
<filter id="filter10_dd" x="98.6831" y="245.799" width="57.3745" height="55.6059" filterUnits="userSpaceOnUse" color-interpolation-filters="sRGB">
<feFlood flood-opacity="0" result="BackgroundImageFix"/>
<feColorMatrix in="SourceAlpha" type="matrix" values="0 0 0 0 0 0 0 0 0 0 0 0 0 0 0 0 0 0 127 0"/>
<feOffset dx="-1.13901" dy="-1.13901"/>
<feGaussianBlur stdDeviation="1.13901"/>
<feColorMatrix type="matrix" values="0 0 0 0 0.172549 0 0 0 0 0.482353 0 0 0 0 0.894118 0 0 0 1 0"/>
<feBlend mode="normal" in2="BackgroundImageFix" result="effect1_dropShadow"/>
<feColorMatrix in="SourceAlpha" type="matrix" values="0 0 0 0 0 0 0 0 0 0 0 0 0 0 0 0 0 0 127 0"/>
<feOffset dx="1.13901" dy="1.13901"/>
<feGaussianBlur stdDeviation="1.13901"/>
<feColorMatrix type="matrix" values="0 0 0 0 0.0431373 0 0 0 0 0.211765 0 0 0 0 0.435294 0 0 0 1 0"/>
<feBlend mode="normal" in2="effect1_dropShadow" result="effect2_dropShadow"/>
<feBlend mode="normal" in="SourceGraphic" in2="effect2_dropShadow" result="shape"/>
</filter>
<filter id="filter11_dd" x="68.4878" y="222.981" width="31.3439" height="33.1568" filterUnits="userSpaceOnUse" color-interpolation-filters="sRGB">
<feFlood flood-opacity="0" result="BackgroundImageFix"/>
<feColorMatrix in="SourceAlpha" type="matrix" values="0 0 0 0 0 0 0 0 0 0 0 0 0 0 0 0 0 0 127 0"/>
<feOffset dx="-1.13901" dy="-1.13901"/>
<feGaussianBlur stdDeviation="1.13901"/>
<feColorMatrix type="matrix" values="0 0 0 0 0.172549 0 0 0 0 0.482353 0 0 0 0 0.894118 0 0 0 1 0"/>
<feBlend mode="normal" in2="BackgroundImageFix" result="effect1_dropShadow"/>
<feColorMatrix in="SourceAlpha" type="matrix" values="0 0 0 0 0 0 0 0 0 0 0 0 0 0 0 0 0 0 127 0"/>
<feOffset dx="1.13901" dy="1.13901"/>
<feGaussianBlur stdDeviation="1.13901"/>
<feColorMatrix type="matrix" values="0 0 0 0 0.0431373 0 0 0 0 0.211765 0 0 0 0 0.435294 0 0 0 1 0"/>
<feBlend mode="normal" in2="effect1_dropShadow" result="effect2_dropShadow"/>
<feBlend mode="normal" in="SourceGraphic" in2="effect2_dropShadow" result="shape"/>
</filter>
<filter id="filter12_d" x="298.708" y="167.862" width="46.5921" height="46.8564" filterUnits="userSpaceOnUse" color-interpolation-filters="sRGB">
<feFlood flood-opacity="0" result="BackgroundImageFix"/>
<feColorMatrix in="SourceAlpha" type="matrix" values="0 0 0 0 0 0 0 0 0 0 0 0 0 0 0 0 0 0 127 0"/>
<feOffset dx="-1.13901" dy="-1.13901"/>
<feGaussianBlur stdDeviation="1.13901"/>
<feColorMatrix type="matrix" values="0 0 0 0 0.172549 0 0 0 0 0.482353 0 0 0 0 0.894118 0 0 0 1 0"/>
<feBlend mode="normal" in2="BackgroundImageFix" result="effect1_dropShadow"/>
<feBlend mode="normal" in="SourceGraphic" in2="effect1_dropShadow" result="shape"/>
</filter>
<filter id="filter13_dd" x="184.399" y="-44.8965" width="50.5786" height="55.1424" filterUnits="userSpaceOnUse" color-interpolation-filters="sRGB">
<feFlood flood-opacity="0" result="BackgroundImageFix"/>
<feColorMatrix in="SourceAlpha" type="matrix" values="0 0 0 0 0 0 0 0 0 0 0 0 0 0 0 0 0 0 127 0"/>
<feOffset dx="-1.13901" dy="-1.13901"/>
<feGaussianBlur stdDeviation="1.13901"/>
<feColorMatrix type="matrix" values="0 0 0 0 0.172549 0 0 0 0 0.482353 0 0 0 0 0.894118 0 0 0 1 0"/>
<feBlend mode="normal" in2="BackgroundImageFix" result="effect1_dropShadow"/>
<feColorMatrix in="SourceAlpha" type="matrix" values="0 0 0 0 0 0 0 0 0 0 0 0 0 0 0 0 0 0 127 0"/>
<feOffset dx="1.13901" dy="1.13901"/>
<feGaussianBlur stdDeviation="1.13901"/>
<feColorMatrix type="matrix" values="0 0 0 0 0.0431373 0 0 0 0 0.211765 0 0 0 0 0.435294 0 0 0 1 0"/>
<feBlend mode="normal" in2="effect1_dropShadow" result="effect2_dropShadow"/>
<feBlend mode="normal" in="SourceGraphic" in2="effect2_dropShadow" result="shape"/>
</filter>
<filter id="filter14_dd" x="109.685" y="-13.6631" width="58.0451" height="55.8912" filterUnits="userSpaceOnUse" color-interpolation-filters="sRGB">
<feFlood flood-opacity="0" result="BackgroundImageFix"/>
<feColorMatrix in="SourceAlpha" type="matrix" values="0 0 0 0 0 0 0 0 0 0 0 0 0 0 0 0 0 0 127 0"/>
<feOffset dx="-1.13901" dy="-1.13901"/>
<feGaussianBlur stdDeviation="1.13901"/>
<feColorMatrix type="matrix" values="0 0 0 0 0.172549 0 0 0 0 0.482353 0 0 0 0 0.894118 0 0 0 1 0"/>
<feBlend mode="normal" in2="BackgroundImageFix" result="effect1_dropShadow"/>
<feColorMatrix in="SourceAlpha" type="matrix" values="0 0 0 0 0 0 0 0 0 0 0 0 0 0 0 0 0 0 127 0"/>
<feOffset dx="1.13901" dy="1.13901"/>
<feGaussianBlur stdDeviation="1.13901"/>
<feColorMatrix type="matrix" values="0 0 0 0 0.0431373 0 0 0 0 0.211765 0 0 0 0 0.435294 0 0 0 1 0"/>
<feBlend mode="normal" in2="effect1_dropShadow" result="effect2_dropShadow"/>
<feBlend mode="normal" in="SourceGraphic" in2="effect2_dropShadow" result="shape"/>
</filter>
<filter id="filter15_dd" x="42.6533" y="4.76364" width="39.364" height="36.7668" filterUnits="userSpaceOnUse" color-interpolation-filters="sRGB">
<feFlood flood-opacity="0" result="BackgroundImageFix"/>
<feColorMatrix in="SourceAlpha" type="matrix" values="0 0 0 0 0 0 0 0 0 0 0 0 0 0 0 0 0 0 127 0"/>
<feOffset dx="-1.13901" dy="-1.13901"/>
<feGaussianBlur stdDeviation="1.13901"/>
<feColorMatrix type="matrix" values="0 0 0 0 0.172549 0 0 0 0 0.482353 0 0 0 0 0.894118 0 0 0 1 0"/>
<feBlend mode="normal" in2="BackgroundImageFix" result="effect1_dropShadow"/>
<feColorMatrix in="SourceAlpha" type="matrix" values="0 0 0 0 0 0 0 0 0 0 0 0 0 0 0 0 0 0 127 0"/>
<feOffset dx="1.13901" dy="1.13901"/>
<feGaussianBlur stdDeviation="1.13901"/>
<feColorMatrix type="matrix" values="0 0 0 0 0.0431373 0 0 0 0 0.211765 0 0 0 0 0.435294 0 0 0 1 0"/>
<feBlend mode="normal" in2="effect1_dropShadow" result="effect2_dropShadow"/>
<feBlend mode="normal" in="SourceGraphic" in2="effect2_dropShadow" result="shape"/>
</filter>
<filter id="filter16_dd" x="181.686" y="75.4433" width="37.439" height="36.4016" filterUnits="userSpaceOnUse" color-interpolation-filters="sRGB">
<feFlood flood-opacity="0" result="BackgroundImageFix"/>
<feColorMatrix in="SourceAlpha" type="matrix" values="0 0 0 0 0 0 0 0 0 0 0 0 0 0 0 0 0 0 127 0"/>
<feOffset dx="-1.13901" dy="-1.13901"/>
<feGaussianBlur stdDeviation="1.13901"/>
<feColorMatrix type="matrix" values="0 0 0 0 0.172549 0 0 0 0 0.482353 0 0 0 0 0.894118 0 0 0 1 0"/>
<feBlend mode="normal" in2="BackgroundImageFix" result="effect1_dropShadow"/>
<feColorMatrix in="SourceAlpha" type="matrix" values="0 0 0 0 0 0 0 0 0 0 0 0 0 0 0 0 0 0 127 0"/>
<feOffset dx="1.13901" dy="1.13901"/>
<feGaussianBlur stdDeviation="1.13901"/>
<feColorMatrix type="matrix" values="0 0 0 0 0.0431373 0 0 0 0 0.211765 0 0 0 0 0.435294 0 0 0 1 0"/>
<feBlend mode="normal" in2="effect1_dropShadow" result="effect2_dropShadow"/>
<feBlend mode="normal" in="SourceGraphic" in2="effect2_dropShadow" result="shape"/>
</filter>
<filter id="filter17_dd" x="106.162" y="87.7324" width="51.5655" height="56.2696" filterUnits="userSpaceOnUse" color-interpolation-filters="sRGB">
<feFlood flood-opacity="0" result="BackgroundImageFix"/>
<feColorMatrix in="SourceAlpha" type="matrix" values="0 0 0 0 0 0 0 0 0 0 0 0 0 0 0 0 0 0 127 0"/>
<feOffset dx="-1.13901" dy="-1.13901"/>
<feGaussianBlur stdDeviation="1.13901"/>
<feColorMatrix type="matrix" values="0 0 0 0 0.172549 0 0 0 0 0.482353 0 0 0 0 0.894118 0 0 0 1 0"/>
<feBlend mode="normal" in2="BackgroundImageFix" result="effect1_dropShadow"/>
<feColorMatrix in="SourceAlpha" type="matrix" values="0 0 0 0 0 0 0 0 0 0 0 0 0 0 0 0 0 0 127 0"/>
<feOffset dx="1.13901" dy="1.13901"/>
<feGaussianBlur stdDeviation="1.13901"/>
<feColorMatrix type="matrix" values="0 0 0 0 0.0431373 0 0 0 0 0.211765 0 0 0 0 0.435294 0 0 0 1 0"/>
<feBlend mode="normal" in2="effect1_dropShadow" result="effect2_dropShadow"/>
<feBlend mode="normal" in="SourceGraphic" in2="effect2_dropShadow" result="shape"/>
</filter>
<filter id="filter18_dd" x="171.514" y="34.915" width="31.3438" height="33.1569" filterUnits="userSpaceOnUse" color-interpolation-filters="sRGB">
<feFlood flood-opacity="0" result="BackgroundImageFix"/>
<feColorMatrix in="SourceAlpha" type="matrix" values="0 0 0 0 0 0 0 0 0 0 0 0 0 0 0 0 0 0 127 0"/>
<feOffset dx="-1.13901" dy="-1.13901"/>
<feGaussianBlur stdDeviation="1.13901"/>
<feColorMatrix type="matrix" values="0 0 0 0 0.172549 0 0 0 0 0.482353 0 0 0 0 0.894118 0 0 0 1 0"/>
<feBlend mode="normal" in2="BackgroundImageFix" result="effect1_dropShadow"/>
<feColorMatrix in="SourceAlpha" type="matrix" values="0 0 0 0 0 0 0 0 0 0 0 0 0 0 0 0 0 0 127 0"/>
<feOffset dx="1.13901" dy="1.13901"/>
<feGaussianBlur stdDeviation="1.13901"/>
<feColorMatrix type="matrix" values="0 0 0 0 0.0431373 0 0 0 0 0.211765 0 0 0 0 0.435294 0 0 0 1 0"/>
<feBlend mode="normal" in2="effect1_dropShadow" result="effect2_dropShadow"/>
<feBlend mode="normal" in="SourceGraphic" in2="effect2_dropShadow" result="shape"/>
</filter>
<filter id="filter19_dd" x="-14.6944" y="4.99411" width="31.3444" height="33.1569" filterUnits="userSpaceOnUse" color-interpolation-filters="sRGB">
<feFlood flood-opacity="0" result="BackgroundImageFix"/>
<feColorMatrix in="SourceAlpha" type="matrix" values="0 0 0 0 0 0 0 0 0 0 0 0 0 0 0 0 0 0 127 0"/>
<feOffset dx="-1.13901" dy="-1.13901"/>
<feGaussianBlur stdDeviation="1.13901"/>
<feColorMatrix type="matrix" values="0 0 0 0 0.172549 0 0 0 0 0.482353 0 0 0 0 0.894118 0 0 0 1 0"/>
<feBlend mode="normal" in2="BackgroundImageFix" result="effect1_dropShadow"/>
<feColorMatrix in="SourceAlpha" type="matrix" values="0 0 0 0 0 0 0 0 0 0 0 0 0 0 0 0 0 0 127 0"/>
<feOffset dx="1.13901" dy="1.13901"/>
<feGaussianBlur stdDeviation="1.13901"/>
<feColorMatrix type="matrix" values="0 0 0 0 0.0431373 0 0 0 0 0.211765 0 0 0 0 0.435294 0 0 0 1 0"/>
<feBlend mode="normal" in2="effect1_dropShadow" result="effect2_dropShadow"/>
<feBlend mode="normal" in="SourceGraphic" in2="effect2_dropShadow" result="shape"/>
</filter>
<filter id="filter20_dd" x="105.285" y="51.2002" width="35.5923" height="37.6519" filterUnits="userSpaceOnUse" color-interpolation-filters="sRGB">
<feFlood flood-opacity="0" result="BackgroundImageFix"/>
<feColorMatrix in="SourceAlpha" type="matrix" values="0 0 0 0 0 0 0 0 0 0 0 0 0 0 0 0 0 0 127 0"/>
<feOffset dx="-1.13901" dy="-1.13901"/>
<feGaussianBlur stdDeviation="1.13901"/>
<feColorMatrix type="matrix" values="0 0 0 0 0.172549 0 0 0 0 0.482353 0 0 0 0 0.894118 0 0 0 1 0"/>
<feBlend mode="normal" in2="BackgroundImageFix" result="effect1_dropShadow"/>
<feColorMatrix in="SourceAlpha" type="matrix" values="0 0 0 0 0 0 0 0 0 0 0 0 0 0 0 0 0 0 127 0"/>
<feOffset dx="1.13901" dy="1.13901"/>
<feGaussianBlur stdDeviation="1.13901"/>
<feColorMatrix type="matrix" values="0 0 0 0 0.0431373 0 0 0 0 0.211765 0 0 0 0 0.435294 0 0 0 1 0"/>
<feBlend mode="normal" in2="effect1_dropShadow" result="effect2_dropShadow"/>
<feBlend mode="normal" in="SourceGraphic" in2="effect2_dropShadow" result="shape"/>
</filter>
<filter id="filter21_dd" x="272.917" y="72.5244" width="39.3629" height="36.7668" filterUnits="userSpaceOnUse" color-interpolation-filters="sRGB">
<feFlood flood-opacity="0" result="BackgroundImageFix"/>
<feColorMatrix in="SourceAlpha" type="matrix" values="0 0 0 0 0 0 0 0 0 0 0 0 0 0 0 0 0 0 127 0"/>
<feOffset dx="-1.13901" dy="-1.13901"/>
<feGaussianBlur stdDeviation="1.13901"/>
<feColorMatrix type="matrix" values="0 0 0 0 0.172549 0 0 0 0 0.482353 0 0 0 0 0.894118 0 0 0 1 0"/>
<feBlend mode="normal" in2="BackgroundImageFix" result="effect1_dropShadow"/>
<feColorMatrix in="SourceAlpha" type="matrix" values="0 0 0 0 0 0 0 0 0 0 0 0 0 0 0 0 0 0 127 0"/>
<feOffset dx="1.13901" dy="1.13901"/>
<feGaussianBlur stdDeviation="1.13901"/>
<feColorMatrix type="matrix" values="0 0 0 0 0.0431373 0 0 0 0 0.211765 0 0 0 0 0.435294 0 0 0 1 0"/>
<feBlend mode="normal" in2="effect1_dropShadow" result="effect2_dropShadow"/>
<feBlend mode="normal" in="SourceGraphic" in2="effect2_dropShadow" result="shape"/>
</filter>
<filter id="filter22_dd" x="278.722" y="-18.9326" width="48.8712" height="49.1349" filterUnits="userSpaceOnUse" color-interpolation-filters="sRGB">
<feFlood flood-opacity="0" result="BackgroundImageFix"/>
<feColorMatrix in="SourceAlpha" type="matrix" values="0 0 0 0 0 0 0 0 0 0 0 0 0 0 0 0 0 0 127 0"/>
<feOffset dx="-1.13901" dy="-1.13901"/>
<feGaussianBlur stdDeviation="1.13901"/>
<feColorMatrix type="matrix" values="0 0 0 0 0.172549 0 0 0 0 0.482353 0 0 0 0 0.894118 0 0 0 1 0"/>
<feBlend mode="normal" in2="BackgroundImageFix" result="effect1_dropShadow"/>
<feColorMatrix in="SourceAlpha" type="matrix" values="0 0 0 0 0 0 0 0 0 0 0 0 0 0 0 0 0 0 127 0"/>
<feOffset dx="1.13901" dy="1.13901"/>
<feGaussianBlur stdDeviation="1.13901"/>
<feColorMatrix type="matrix" values="0 0 0 0 0.0431373 0 0 0 0 0.211765 0 0 0 0 0.435294 0 0 0 1 0"/>
<feBlend mode="normal" in2="effect1_dropShadow" result="effect2_dropShadow"/>
<feBlend mode="normal" in="SourceGraphic" in2="effect2_dropShadow" result="shape"/>
</filter>
<filter id="filter23_d" x="76.3335" y="129.382" width="145.77" height="56.314" filterUnits="userSpaceOnUse" color-interpolation-filters="sRGB">
<feFlood flood-opacity="0" result="BackgroundImageFix"/>
<feColorMatrix in="SourceAlpha" type="matrix" values="0 0 0 0 0 0 0 0 0 0 0 0 0 0 0 0 0 0 127 0"/>
<feOffset dy="4"/>
<feGaussianBlur stdDeviation="2"/>
<feColorMatrix type="matrix" values="0 0 0 0 0 0 0 0 0 0 0 0 0 0 0 0 0 0 0.25 0"/>
<feBlend mode="normal" in2="BackgroundImageFix" result="effect1_dropShadow"/>
<feBlend mode="normal" in="SourceGraphic" in2="effect1_dropShadow" result="shape"/>
</filter>
<linearGradient id="paint0_linear" x1="-165.912" y1="-24.5371" x2="449.221" y2="304.968" gradientUnits="userSpaceOnUse">
<stop stop-color="#3989E8"/>
<stop offset="1" stop-color="#103C92"/>
</linearGradient>
<linearGradient id="paint1_linear" x1="277.965" y1="164.092" x2="249.131" y2="185.046" gradientUnits="userSpaceOnUse">
<stop stop-color="#5EA3FF"/>
<stop offset="1" stop-color="#083064"/>
</linearGradient>
<linearGradient id="paint2_linear" x1="-39.2569" y1="190.752" x2="-3.23348" y2="168.237" gradientUnits="userSpaceOnUse">
<stop stop-color="#5EA3FF"/>
<stop offset="1" stop-color="#083064"/>
</linearGradient>
<linearGradient id="paint3_linear" x1="60.0341" y1="199.571" x2="55.0342" y2="151.989" gradientUnits="userSpaceOnUse">
<stop stop-color="#5EA3FF"/>
<stop offset="1" stop-color="#083064"/>
</linearGradient>
<linearGradient id="paint4_linear" x1="117.47" y1="209.98" x2="138.499" y2="157.921" gradientUnits="userSpaceOnUse">
<stop stop-color="#5EA3FF"/>
<stop offset="1" stop-color="#083064"/>
</linearGradient>
<linearGradient id="paint5_linear" x1="207.636" y1="186.882" x2="214.53" y2="151.417" gradientUnits="userSpaceOnUse">
<stop stop-color="#5EA3FF"/>
<stop offset="1" stop-color="#083064"/>
</linearGradient>
<linearGradient id="paint6_linear" x1="43.199" y1="255.378" x2="12.4509" y2="238.331" gradientUnits="userSpaceOnUse">
<stop stop-color="#5EA3FF"/>
<stop offset="1" stop-color="#083064"/>
</linearGradient>
<linearGradient id="paint7_linear" x1="211.501" y1="238.015" x2="189.948" y2="288.8" gradientUnits="userSpaceOnUse">
<stop stop-color="#5EA3FF"/>
<stop offset="1" stop-color="#083064"/>
</linearGradient>
<linearGradient id="paint8_linear" x1="158.924" y1="220.688" x2="186.665" y2="203.35" gradientUnits="userSpaceOnUse">
<stop stop-color="#5EA3FF"/>
<stop offset="1" stop-color="#083064"/>
</linearGradient>
<linearGradient id="paint9_linear" x1="35.3207" y1="104.127" x2="63.062" y2="86.7889" gradientUnits="userSpaceOnUse">
<stop stop-color="#5EA3FF"/>
<stop offset="1" stop-color="#083064"/>
</linearGradient>
<linearGradient id="paint10_linear" x1="307.669" y1="226.512" x2="251.344" y2="242.666" gradientUnits="userSpaceOnUse">
<stop stop-color="#5EA3FF"/>
<stop offset="1" stop-color="#083064"/>
</linearGradient>
<linearGradient id="paint11_linear" x1="97.2144" y1="289.16" x2="145.392" y2="271.621" gradientUnits="userSpaceOnUse">
<stop stop-color="#5EA3FF"/>
<stop offset="1" stop-color="#083064"/>
</linearGradient>
<linearGradient id="paint12_linear" x1="72.5171" y1="222.268" x2="86.9523" y2="248.317" gradientUnits="userSpaceOnUse">
<stop stop-color="#5EA3FF"/>
<stop offset="1" stop-color="#083064"/>
</linearGradient>
<linearGradient id="paint13_linear" x1="333.799" y1="166.146" x2="321.555" y2="208.852" gradientUnits="userSpaceOnUse">
<stop stop-color="#5EA3FF"/>
<stop offset="1" stop-color="#083064"/>
</linearGradient>
<linearGradient id="paint14_linear" x1="187.825" y1="10.7573" x2="212.967" y2="-31.0945" gradientUnits="userSpaceOnUse">
<stop stop-color="#5EA3FF"/>
<stop offset="1" stop-color="#083064"/>
</linearGradient>
<linearGradient id="paint15_linear" x1="108.288" y1="30.7594" x2="156.608" y2="12.2077" gradientUnits="userSpaceOnUse">
<stop stop-color="#5EA3FF"/>
<stop offset="1" stop-color="#083064"/>
</linearGradient>
<linearGradient id="paint16_linear" x1="41.939" y1="37.3914" x2="72.6855" y2="20.3449" gradientUnits="userSpaceOnUse">
<stop stop-color="#5EA3FF"/>
<stop offset="1" stop-color="#083064"/>
</linearGradient>
<linearGradient id="paint17_linear" x1="182.096" y1="77.5534" x2="208.276" y2="98.7576" gradientUnits="userSpaceOnUse">
<stop stop-color="#5EA3FF"/>
<stop offset="1" stop-color="#083064"/>
</linearGradient>
<linearGradient id="paint18_linear" x1="154.302" y1="87.2208" x2="128.656" y2="129.909" gradientUnits="userSpaceOnUse">
<stop stop-color="#5EA3FF"/>
<stop offset="1" stop-color="#083064"/>
</linearGradient>
<linearGradient id="paint19_linear" x1="198.828" y1="34.202" x2="184.391" y2="60.2511" gradientUnits="userSpaceOnUse">
<stop stop-color="#5EA3FF"/>
<stop offset="1" stop-color="#083064"/>
</linearGradient>
<linearGradient id="paint20_linear" x1="12.6204" y1="4.28106" x2="-1.81639" y2="30.3302" gradientUnits="userSpaceOnUse">
<stop stop-color="#5EA3FF"/>
<stop offset="1" stop-color="#083064"/>
</linearGradient>
<linearGradient id="paint21_linear" x1="143.031" y1="68.5655" x2="109.385" y2="70.3292" gradientUnits="userSpaceOnUse">
<stop stop-color="#5EA3FF"/>
<stop offset="1" stop-color="#083064"/>
</linearGradient>
<linearGradient id="paint22_linear" x1="272.203" y1="105.152" x2="302.949" y2="88.1055" gradientUnits="userSpaceOnUse">
<stop stop-color="#5EA3FF"/>
<stop offset="1" stop-color="#083064"/>
</linearGradient>
<linearGradient id="paint23_linear" x1="292.501" y1="-20.6488" x2="304.745" y2="22.0584" gradientUnits="userSpaceOnUse">
<stop stop-color="#5EA3FF"/>
<stop offset="1" stop-color="#083064"/>
</linearGradient>
<clipPath id="clip0">
<rect width="300" height="300" fill="white"/>
</clipPath>
</defs>
</svg>
