<svg width="4096" height="2304" viewBox="0 0 4096 2304" fill="none" xmlns="http://www.w3.org/2000/svg">
<g clip-path="url(#clip0)">
<path d="M4096 0H0V2304H4096V0Z" fill="url(#paint0_linear)"/>
<g filter="url(#filter0_dd)">
<g opacity="0.93">
<path opacity="0.93" d="M186.857 488.84L195.334 482.217L184.93 479.479C140.898 467.893 103.471 445.816 74.9127 409.263C6.645 321.885 23.8537 194.377 113.377 124.434C202.889 54.5 331.027 68.954 399.304 156.344C467.597 243.755 451.245 371.062 361.755 440.979C323.881 470.569 278.754 485.918 236.633 484.932L225.369 484.668L232.306 493.547L242.183 506.19C244.961 509.746 246.22 514.918 245.522 520.143C245.522 520.145 245.522 520.147 245.522 520.149L226.492 660.251C224.758 671.239 214.666 678.819 204.658 677.473L204.599 677.465L204.54 677.458L164.795 673.012L164.736 673.005L164.677 673C154.625 672.101 147.314 662.948 148.72 652.437L148.721 652.426L148.723 652.415L166.921 511.881C166.921 511.879 166.921 511.877 166.922 511.875C167.621 506.654 170.216 501.841 173.939 498.932L186.857 488.84ZM318.779 387.337C377.662 341.333 388.713 257.226 343.784 199.72C298.595 141.881 214.565 132.597 155.691 178.594C96.817 224.591 85.4968 308.372 130.686 366.211C175.875 424.05 259.905 433.334 318.779 387.337Z" stroke="url(#paint1_linear)" stroke-width="10.6667"/>
</g>
<g opacity="0.87">
<path opacity="0.87" d="M1323.68 407.268L1334.43 406.893L1327.62 398.563C1289.8 352.29 1267.04 299.904 1264.92 238.959C1259.83 93.3063 1376.63 -28.9133 1525.75 -34.121C1674.87 -39.3282 1799.94 74.9691 1805.03 220.635C1810.11 366.328 1694.39 489.007 1545.3 494.213C1482.24 496.415 1422.4 477.897 1378.33 444.274L1369.37 437.44L1369.76 448.7L1370.5 469.639C1370.72 476.035 1367.86 482.876 1362.86 488.127C1362.86 488.128 1362.86 488.129 1362.86 488.131L1235.2 621.553C1224.36 632.424 1206.86 632.794 1196.62 623.03L1196.58 622.989L1196.53 622.949L1157.96 587.743L1157.91 587.703L1157.87 587.664C1147.21 578.365 1146.52 562.01 1156.69 551.337V551.329L1156.7 551.321L1283.8 416.813C1283.8 416.813 1283.8 416.813 1283.8 416.812C1288.8 411.565 1295.63 408.247 1302.28 408.015L1323.68 407.268ZM1540.96 401.293C1637.61 397.918 1713.11 318.27 1709.81 223.96C1706.5 129.101 1625.64 55.463 1529 58.8377C1432.36 62.2123 1356.83 141.312 1360.15 236.171C1363.46 331.029 1444.32 404.667 1540.96 401.293Z" stroke="url(#paint2_linear)" stroke-width="10.6667"/>
</g>
<g opacity="0.78">
<path opacity="0.78" d="M2614.27 492.55L2609.55 482.881L2604.71 492.488C2580.77 539.991 2546.43 577.438 2497.67 601.217C2381.14 658.054 2239.53 607.364 2181.32 488.02C2123.12 368.688 2170.77 225.671 2287.32 168.829C2403.89 111.974 2545.48 161.63 2603.67 280.936C2628.29 331.415 2634.89 386.75 2623.51 434.714L2620.91 445.677L2631.04 440.738L2647.83 432.546C2652.8 430.123 2659.25 429.957 2665.22 432.083C2665.22 432.084 2665.22 432.084 2665.22 432.085L2820.24 487.695C2832.75 492.486 2839.22 506.298 2835.09 517.86L2835.07 517.915L2835.05 517.972L2820.36 562.175L2820.35 562.231L2820.33 562.287C2816.72 574.017 2803.99 580.364 2791.9 576.056L2791.89 576.052L2791.88 576.049L2636.18 521.284C2636.18 521.282 2636.17 521.281 2636.17 521.279C2630.21 519.15 2625.16 514.888 2622.63 509.71L2614.27 492.55ZM2530.57 317.678C2492.63 239.877 2400 207.122 2324.06 244.163C2247.68 281.418 2216.91 374.367 2254.85 452.158C2292.79 529.949 2384.98 562.928 2461.36 525.673C2537.75 488.418 2568.51 395.469 2530.57 317.678Z" stroke="url(#paint3_linear)" stroke-width="10.6667"/>
</g>
<g opacity="0.77">
<path opacity="0.77" d="M3480.73 623.232L3490.7 619.202L3481.46 613.703C3428.21 582.036 3387.46 539.068 3363.78 480.444C3307.17 340.344 3377.63 179.861 3521.06 121.909C3664.48 63.9633 3826.86 130.963 3883.47 271.076C3940.09 411.215 3870.84 571.766 3727.45 629.701C3666.79 654.208 3601.93 657.386 3547.07 640.254L3536.31 636.896L3540.53 647.343L3548.66 667.469C3551.17 673.672 3550.81 681.399 3547.78 688.321C3547.78 688.323 3547.78 688.325 3547.78 688.327L3470.77 863.46C3464.03 877.973 3447.01 884.588 3433.48 878.663L3433.43 878.639L3433.37 878.616L3383.34 858.011L3383.29 857.989L3383.23 857.967C3369.46 852.649 3362.94 836.855 3369.1 822.764L3369.11 822.754V822.744L3445.19 646.754C3445.19 646.753 3445.19 646.751 3445.19 646.749C3448.22 639.831 3453.72 634.144 3460.17 631.54L3480.73 623.232ZM3690.15 540.421C3782.95 502.926 3828.18 398.743 3791.6 308.195C3754.8 217.121 3650.1 174.125 3557.3 211.616C3464.51 249.106 3419.06 352.768 3455.86 443.842C3492.65 534.916 3597.36 577.911 3690.15 540.421Z" stroke="url(#paint4_linear)" stroke-width="10.6667"/>
</g>
<g opacity="0.8">
<path opacity="0.8" d="M555.669 1487.4L557.537 1476.8L547.974 1481.73C495.824 1508.6 440.88 1519.76 381.93 1509.36C241.043 1484.52 147.527 1347.43 172.963 1203.18C198.396 1058.94 333.668 962.178 474.568 987.023C615.495 1011.87 709.671 1148.02 684.242 1292.24C673.485 1353.24 643.491 1406.92 602.216 1442.37L593.668 1449.71L604.765 1451.66L625.026 1455.24C631.186 1456.32 637.153 1460.44 641.163 1466.3C641.164 1466.3 641.165 1466.3 641.166 1466.31L743.231 1616.12C743.239 1616.14 743.248 1616.15 743.256 1616.16C751.459 1628.76 748.247 1645.59 736.825 1653.39L736.776 1653.42L736.727 1653.46L695.036 1683.32L694.987 1683.36L694.94 1683.39C683.878 1691.7 668.088 1689.04 659.942 1677.14L659.936 1677.13L659.93 1677.12L556.682 1527.57C556.681 1527.57 556.68 1527.57 556.679 1527.57C552.674 1521.71 550.889 1514.51 552.019 1508.1L555.669 1487.4ZM594.292 1277.47C610.792 1183.9 549.67 1095.07 458.356 1078.96C366.512 1062.77 279.223 1125.44 262.725 1219.01C246.227 1312.57 306.817 1401.32 398.661 1417.51C490.506 1433.71 577.795 1371.03 594.292 1277.47Z" stroke="url(#paint5_linear)" stroke-width="10.6667"/>
</g>
<g opacity="0.8">
<path opacity="0.8" d="M3692.89 1270.07L3682.28 1271.83L3690.11 1279.21C3721.14 1308.45 3742.04 1343.35 3749.17 1386.17C3766.21 1488.56 3695.02 1585.71 3590.1 1603.18C3485.2 1620.64 3386.3 1551.42 3369.25 1449.02C3352.2 1346.59 3422.6 1249.22 3527.48 1231.76C3571.87 1224.37 3615.84 1231.95 3650.03 1251.59L3659.8 1257.21L3657.95 1246.09L3655.47 1231.25C3654.8 1227.18 3656.05 1222.45 3658.92 1218.51L3737.38 1111.63C3743.64 1103.49 3755.14 1101.82 3762.63 1107.3L3762.68 1107.34L3762.73 1107.37L3793.47 1128.85L3793.52 1128.88L3793.57 1128.91C3801.28 1134.05 3803.18 1144.65 3797.41 1152.53V1152.54L3797.4 1152.55L3719.43 1260.16C3719.42 1260.16 3719.42 1260.16 3719.42 1260.16C3716.55 1264.09 3712.33 1266.83 3708.06 1267.54L3692.89 1270.07ZM3538.73 1294.56C3469.43 1306.09 3422.51 1370.59 3433.77 1438.28C3445.11 1506.36 3510.34 1551.79 3579.63 1540.25C3648.91 1528.72 3695.92 1464.62 3684.58 1396.53C3673.25 1328.45 3608.02 1283.02 3538.73 1294.56Z" stroke="url(#paint6_linear)" stroke-width="10.6667"/>
</g>
<g opacity="0.8">
<path opacity="0.8" d="M1972.96 2000.72L1979.25 2009.44L1982.38 1999.15C1991.55 1969 2007.77 1943.76 2033.72 1925.02C2095.78 1880.2 2183.36 1895.37 2229.33 1959.04C2275.3 2022.69 2261.94 2110.76 2199.86 2155.59C2137.77 2200.43 2050.31 2185.85 2004.36 2122.22C1984.9 2095.27 1975.5 2063.71 1977.28 2034.74L1977.97 2023.49L1968.83 2030.09L1959.74 2036.65C1957.59 2038.2 1954.4 2038.89 1951.13 2038.33C1951.13 2038.33 1951.13 2038.33 1951.12 2038.33L1853.83 2021.35C1847 2020 1842.62 2013.53 1843.67 2007.5L1843.68 2007.44L1843.69 2007.38L1847.84 1979.75L1847.85 1979.69L1847.86 1979.63C1848.63 1973.58 1854.33 1969.31 1860.77 1970.42H1860.78H1860.79L1958.43 1986.83C1958.43 1986.84 1958.43 1986.84 1958.43 1986.84C1961.7 1987.4 1964.6 1989.14 1966.25 1991.43L1972.96 2000.72ZM2040.34 2095.51C2071.41 2138.53 2130.84 2148.67 2172.92 2118.29C2215.25 2087.72 2224.07 2028.28 2193 1985.27C2161.94 1942.26 2102.75 1931.93 2060.42 1962.5C2018.1 1993.06 2009.28 2052.5 2040.34 2095.51Z" stroke="url(#paint7_linear)" stroke-width="10.6667"/>
</g>
<g opacity="0.91">
<path opacity="0.91" d="M1953.36 1243.15L1942.77 1245.02L1950.67 1252.32C1993.75 1292.14 2023.03 1339.95 2033.42 1398.9C2058.26 1539.79 1961.43 1674.55 1817.17 1699.99C1672.93 1725.42 1535.74 1631.4 1510.9 1490.5C1486.05 1349.58 1581.78 1214.51 1725.99 1189.08C1787 1178.33 1847.69 1188.16 1895.12 1214.82L1904.95 1220.34L1902.99 1209.24L1899.42 1188.98C1898.33 1182.82 1900.16 1175.8 1904.3 1170.03L2010.17 1022.88C2010.18 1022.86 2010.19 1022.85 2010.2 1022.84C2019.23 1010.82 2036.14 1008.09 2047.38 1016.15L2047.43 1016.19L2047.48 1016.22L2089.8 1045.18L2089.85 1045.22L2089.9 1045.25C2101.49 1052.8 2104.39 1068.55 2095.99 1080.27V1080.28L2095.98 1080.29L1990.77 1228.46C1990.76 1228.46 1990.76 1228.46 1990.76 1228.47C1986.63 1234.23 1980.47 1238.37 1974.06 1239.5L1953.36 1243.15ZM1742.88 1278.66C1649.31 1295.16 1586.74 1382.98 1602.84 1474.29C1619.04 1566.14 1707.78 1626.72 1801.35 1610.23C1894.91 1593.73 1957.58 1506.44 1941.39 1414.6C1925.19 1322.75 1836.45 1262.16 1742.88 1278.66Z" stroke="url(#paint8_linear)" stroke-width="10.6667"/>
</g>
<g opacity="0.71">
<path opacity="0.71" d="M2622.78 1604.65L2633.22 1602.05L2624.83 1595.32C2579.5 1558.95 2547.26 1513.72 2532.91 1456.18C2498.63 1318.67 2585.01 1178.8 2725.81 1143.7C2866.6 1108.6 3008.67 1192.03 3042.96 1329.55C3077.25 1467.1 2991.98 1607.19 2851.22 1642.29C2791.68 1657.13 2731.02 1651.61 2682.31 1628.54L2672.12 1623.72L2674.85 1634.65L2679.78 1654.43C2681.28 1660.43 2679.95 1667.48 2676.27 1673.46V1673.47L2581.77 1826.27C2573.68 1838.75 2557.19 1842.61 2545.55 1835.43L2545.5 1835.4L2545.45 1835.37L2501.61 1809.67L2501.56 1809.64L2501.51 1809.61C2489.56 1802.96 2485.61 1787.63 2493.09 1775.48V1775.47L2493.1 1775.46L2586.85 1621.74C2586.85 1621.73 2586.86 1621.73 2586.86 1621.72C2590.54 1615.75 2596.33 1611.25 2602.57 1609.69L2622.78 1604.65ZM2828.36 1555.01C2919.74 1532.23 2975.53 1441.08 2953.29 1351.91C2930.93 1262.22 2839 1208.45 2747.63 1231.23C2656.27 1254.01 2600.34 1344.65 2622.7 1434.33C2645.06 1524.02 2737 1577.79 2828.36 1555.01Z" stroke="url(#paint9_linear)" stroke-width="10.6667"/>
</g>
<g opacity="0.91">
<path opacity="0.91" d="M1009.98 1918.93L999.546 1921.53L1007.94 1928.26C1039.18 1953.33 1061.34 1984.45 1071.2 2024.01C1094.79 2118.59 1035.38 2214.86 938.434 2239.03C841.507 2263.2 743.756 2205.75 720.17 2111.15C696.578 2016.53 755.231 1920.11 852.131 1895.95C893.152 1885.73 934.886 1889.54 968.342 1905.39L978.525 1910.21L975.799 1899.28L972.375 1885.54C971.459 1881.87 972.252 1877.42 974.616 1873.58C974.617 1873.58 974.618 1873.57 974.619 1873.57L1040.23 1767.48C1045.4 1759.51 1055.88 1757.15 1063.16 1761.63L1063.21 1761.66L1063.26 1761.69L1093.7 1779.54L1093.75 1779.57L1093.8 1779.6C1101.26 1783.75 1103.78 1793.35 1099.06 1801.02L1099.05 1801.03L1099.04 1801.04L1033.94 1907.79C1031.57 1911.63 1027.88 1914.46 1024.02 1915.43L1009.98 1918.93ZM867.218 1953.4C802.919 1969.43 763.608 2033.59 779.272 2096.42C795.027 2159.61 859.779 2197.44 924.067 2181.41C988.355 2165.38 1027.77 2101.58 1012.01 2038.39C996.258 1975.2 931.506 1937.37 867.218 1953.4Z" stroke="url(#paint10_linear)" stroke-width="10.6667"/>
</g>
<g opacity="0.76">
<path opacity="0.76" d="M4038.49 1989.19L4028.31 1992.69L4037.26 1998.67C4064.2 2016.66 4084.2 2040.14 4094.92 2071.26C4120.55 2145.68 4079.54 2227.34 4003.21 2253.62C3926.88 2279.9 3844.19 2240.54 3818.56 2166.1C3792.92 2091.64 3833.31 2009.92 3909.61 1983.65C3941.92 1972.52 3975.77 1972.67 4003.76 1983.05L4014.33 1986.96L4010.66 1976.31L4006.91 1965.42C4006.01 1962.8 4006.29 1959.42 4007.83 1956.34L4053.47 1865.74C4056.86 1859.36 4064.61 1856.95 4070.29 1859.8L4070.35 1859.83L4070.4 1859.86L4096.33 1872.16L4096.38 1872.19L4096.44 1872.21C4102.24 1874.8 4104.77 1881.77 4101.73 1887.84V1887.85L4101.72 1887.86L4056.54 1978.96C4056.54 1978.97 4056.54 1978.97 4056.54 1978.97C4054.99 1982.05 4052.39 1984.4 4049.61 1985.36L4038.49 1989.19ZM3925.26 2027.24C3873.79 2044.96 3846.19 2100.29 3863.52 2150.62C3880.95 2201.24 3936.67 2227.55 3988.13 2209.84C4039.58 2192.12 4067.29 2137.08 4049.86 2086.46C4032.43 2035.84 3976.71 2009.53 3925.26 2027.24Z" stroke="url(#paint11_linear)" stroke-width="10.6667"/>
</g>
</g>
<rect x="-91" y="-52" width="4278" height="2407" fill="black" fill-opacity="0.42"/>
</g>
<defs>
<filter id="filter0_dd" x="23.8044" y="-39.6254" width="4104.55" height="2326.73" filterUnits="userSpaceOnUse" color-interpolation-filters="sRGB">
<feFlood flood-opacity="0" result="BackgroundImageFix"/>
<feColorMatrix in="SourceAlpha" type="matrix" values="0 0 0 0 0 0 0 0 0 0 0 0 0 0 0 0 0 0 127 0"/>
<feOffset dy="4"/>
<feGaussianBlur stdDeviation="2"/>
<feColorMatrix type="matrix" values="0 0 0 0 1 0 0 0 0 0.869943 0 0 0 0 0.545833 0 0 0 1 0"/>
<feBlend mode="normal" in2="BackgroundImageFix" result="effect1_dropShadow"/>
<feColorMatrix in="SourceAlpha" type="matrix" values="0 0 0 0 0 0 0 0 0 0 0 0 0 0 0 0 0 0 127 0"/>
<feOffset dx="10" dy="10"/>
<feGaussianBlur stdDeviation="5"/>
<feColorMatrix type="matrix" values="0 0 0 0 0.808333 0 0 0 0 0.372486 0 0 0 0 0.127986 0 0 0 1 0"/>
<feBlend mode="normal" in2="effect1_dropShadow" result="effect2_dropShadow"/>
<feBlend mode="normal" in="SourceGraphic" in2="effect2_dropShadow" result="shape"/>
</filter>
<linearGradient id="paint0_linear" x1="89.6" y1="149.333" x2="4003.2" y2="2244.27" gradientUnits="userSpaceOnUse">
<stop stop-color="#EBB10C"/>
<stop offset="1" stop-color="#F37335"/>
</linearGradient>
<linearGradient id="paint1_linear" x1="432.791" y1="190.542" x2="23.6535" y2="510.195" gradientUnits="userSpaceOnUse">
<stop stop-color="#CC5E17"/>
<stop offset="1" stop-color="#FDBB1B"/>
</linearGradient>
<linearGradient id="paint2_linear" x1="1812.52" y1="282.526" x2="1134.92" y2="306.189" gradientUnits="userSpaceOnUse">
<stop stop-color="#CC5E17"/>
<stop offset="1" stop-color="#FDBB1B"/>
</linearGradient>
<linearGradient id="paint3_linear" x1="2334.77" y1="139.749" x2="2599.86" y2="683.266" gradientUnits="userSpaceOnUse">
<stop stop-color="#CC5E17"/>
<stop offset="1" stop-color="#FDBB1B"/>
</linearGradient>
<linearGradient id="paint4_linear" x1="3912.52" y1="328.746" x2="3261.22" y2="591.889" gradientUnits="userSpaceOnUse">
<stop stop-color="#CC5E17"/>
<stop offset="1" stop-color="#FDBB1B"/>
</linearGradient>
<linearGradient id="paint5_linear" x1="535.563" y1="992.362" x2="419.948" y2="1648.05" gradientUnits="userSpaceOnUse">
<stop stop-color="#CC5E17"/>
<stop offset="1" stop-color="#FDBB1B"/>
</linearGradient>
<linearGradient id="paint6_linear" x1="3356.67" y1="1405.89" x2="3836.95" y2="1325.95" gradientUnits="userSpaceOnUse">
<stop stop-color="#CC5E17"/>
<stop offset="1" stop-color="#FDBB1B"/>
</linearGradient>
<linearGradient id="paint7_linear" x1="2176.04" y1="2179.37" x2="1963.66" y2="1885.26" gradientUnits="userSpaceOnUse">
<stop stop-color="#CC5E17"/>
<stop offset="1" stop-color="#FDBB1B"/>
</linearGradient>
<linearGradient id="paint8_linear" x1="1495.06" y1="1431.36" x2="2150.74" y2="1315.74" gradientUnits="userSpaceOnUse">
<stop stop-color="#CC5E17"/>
<stop offset="1" stop-color="#FDBB1B"/>
</linearGradient>
<linearGradient id="paint9_linear" x1="3062.75" y1="1386.9" x2="2422.65" y2="1546.5" gradientUnits="userSpaceOnUse">
<stop stop-color="#CC5E17"/>
<stop offset="1" stop-color="#FDBB1B"/>
</linearGradient>
<linearGradient id="paint10_linear" x1="704.842" y1="2071.72" x2="1149.35" y2="1960.89" gradientUnits="userSpaceOnUse">
<stop stop-color="#CC5E17"/>
<stop offset="1" stop-color="#FDBB1B"/>
</linearGradient>
<linearGradient id="paint11_linear" x1="3802.4" y1="2135.56" x2="4154.71" y2="2014.25" gradientUnits="userSpaceOnUse">
<stop stop-color="#CC5E17"/>
<stop offset="1" stop-color="#FDBB1B"/>
</linearGradient>
<clipPath id="clip0">
<rect width="4096" height="2304" fill="white"/>
</clipPath>
</defs>
</svg>
