<svg width="3733" height="2160" viewBox="0 0 3733 2160" fill="none" xmlns="http://www.w3.org/2000/svg">
<g clip-path="url(#clip0)">
<rect width="3733" height="2160" fill="url(#paint0_linear)"/>
<rect width="3733" height="2160" fill="url(#paint1_linear)"/>
<mask id="mask0" mask-type="alpha" maskUnits="userSpaceOnUse" x="1320" y="302" width="2463" height="1840">
<path d="M3781.83 2141.07H1321C1339.75 1524.8 1667.86 1199.1 1904.57 1145.21C2141.28 1091.31 2188.15 967.123 2237.37 856.992C2292.87 732.803 2307.68 646.107 2427.2 514.887C2546.73 383.666 2673.29 320.402 2933.43 303.999C3193.53 287.598 3516.89 477.332 3781.7 571.077C3781.75 571.064 3781.79 571.08 3781.83 571.123C3781.79 571.108 3781.75 571.093 3781.7 571.077C3771.55 574.087 3781.83 2141.07 3781.83 2141.07Z" fill="black"/>
<path d="M1321 2141.07H3781.83C3781.83 2141.07 3771.46 560.802 3781.83 571.123C3517 477.394 3193.58 287.595 2933.43 303.999C2673.29 320.402 2546.73 383.666 2427.2 514.887C2307.68 646.107 2292.87 732.803 2237.37 856.992C2188.15 967.123 2141.28 1091.31 1904.57 1145.21C1667.86 1199.1 1339.75 1524.8 1321 2141.07Z" stroke="black"/>
</mask>
<g mask="url(#mask0)">
<rect x="1014.66" y="65.1802" width="3023.14" height="2170.61" fill="url(#paint2_linear)"/>
<path d="M3781.83 2141.07H1510.45C1527.76 1532.24 1830.61 1210.46 2049.09 1157.22C2267.58 1103.97 2310.84 981.282 2356.27 872.48C2407.5 749.788 2421.17 664.138 2531.49 534.5C2641.81 404.863 2758.63 342.361 2998.75 326.156C3238.82 309.953 3537.29 497.399 3781.71 590.013C3781.75 590.001 3781.79 590.016 3781.83 590.059C3781.79 590.044 3781.75 590.028 3781.71 590.013C3772.34 592.986 3781.83 2141.07 3781.83 2141.07Z" fill="black" fill-opacity="0.05" style="mix-blend-mode:darken"/>
<path d="M3781.83 2141.07H1321C1339.75 1524.81 1667.86 1199.1 1904.57 1145.21C2141.28 1091.31 2188.15 967.123 2237.37 856.993C2292.87 732.803 2307.68 646.107 2427.2 514.887C2546.73 383.666 2673.29 320.402 2933.43 303.999C3193.53 287.598 3516.89 477.332 3781.7 571.077C3781.75 571.064 3781.79 571.08 3781.83 571.123C3781.79 571.108 3781.75 571.093 3781.7 571.077C3771.55 574.087 3781.83 2141.07 3781.83 2141.07Z" fill="white" fill-opacity="0.05" style="mix-blend-mode:lighten"/>
</g>
<g clip-path="url(#clip1)">
<path d="M2022.19 2042.86C2003.39 2030.41 1983.9 2018.67 1966.22 2004.7C1958.01 1998.23 1950.24 1991.07 1944.01 1982.6C1940.76 1978.32 1937.98 1973.6 1935.82 1968.69C1934 1964.65 1931.95 1958.32 1937.97 1957.07C1940.22 1956.58 1942.68 1956.85 1944.9 1957.26C1947.37 1957.65 1948.01 1953.87 1945.54 1953.48C1938.14 1952.44 1927.8 1954 1929.97 1964.03C1932.52 1975.31 1941.18 1986.22 1948.91 1994.28C1968.96 2015.31 1995.79 2029.9 2019.8 2045.79C2021.86 2047.12 2024.25 2044.19 2022.19 2042.86Z" fill="#E8E8E8"/>
<path d="M1946.24 1954.05C1938 1946.04 1931.27 1936.47 1926.86 1925.77C1924.84 1920.98 1923.69 1915.97 1921.68 1911.3C1920.36 1908.36 1918.18 1905.76 1920.69 1902.82C1921.85 1901.55 1923.67 1900.59 1924.96 1899.44C1928.97 1896.08 1931.04 1892.41 1925.34 1889.27C1922.09 1887.55 1918.25 1887.56 1914.79 1886.24C1910.11 1884.28 1906.29 1880.7 1903.33 1876.77C1897.14 1868.68 1893.19 1858.83 1889.06 1849.63C1884.12 1838.73 1879.27 1827.56 1874.82 1816.47C1865.89 1794.06 1858.08 1771.27 1851.27 1748.25C1850.96 1749.05 1850.54 1749.86 1850.23 1750.66C1873.26 1740.38 1899 1758.15 1917.43 1770.77C1936.41 1783.71 1953.84 1798.99 1969.5 1815.86C2001.87 1851.02 2026.21 1892.9 2043.27 1937.43C2053.71 1964.7 2061.44 1993 2067.03 2021.66C2067.53 2024.04 2071.33 2023.66 2070.83 2021.27C2051.47 1922.38 2004.48 1825 1919.12 1767.14C1899.6 1753.99 1873.23 1736.29 1848.97 1747.07C1848 1747.55 1847.58 1748.49 1847.94 1749.48C1855.17 1774.12 1863.64 1798.38 1873.36 1822.26C1877.95 1833.46 1882.65 1844.52 1887.73 1855.41C1891.82 1864.22 1895.72 1873.69 1902.11 1881.12C1904.57 1883.94 1907.26 1886.49 1910.52 1888.34C1914.47 1890.63 1918.8 1890.45 1922.71 1892.36C1927.82 1894.79 1921.08 1897.78 1918.73 1899.81C1916.97 1901.4 1915.36 1903.23 1915.24 1905.8C1915.11 1909.66 1918.86 1913.77 1920.11 1917.23C1921.93 1922.55 1923.61 1927.77 1926.17 1932.89C1930.8 1941.9 1936.87 1950 1944.11 1957.09C1945.56 1958.73 1947.95 1955.8 1946.24 1954.05Z" fill="#E8E8E8"/>
<path d="M1872.47 1766.73C1931.51 1821.24 1979.77 1886.96 2014.27 1959.59C2023.87 1979.77 2032.24 2000.45 2039.62 2021.49C2040.49 2023.83 2043.94 2022.46 2043.19 2020.1C2016.52 1943.86 1975.27 1872.81 1921.99 1811.95C1907.21 1795 1891.5 1778.9 1874.98 1763.66C1873.04 1762.19 1870.64 1765.12 1872.47 1766.73Z" fill="#27AE60"/>
<path d="M1889.54 1849.33C1895.78 1850.23 1901.94 1851.66 1908.02 1853.48C1910.39 1854.14 1911.03 1850.36 1908.66 1849.7C1902.58 1847.88 1896.42 1846.45 1890.18 1845.55C1887.84 1845.14 1887.2 1848.93 1889.54 1849.33Z" fill="#E8E8E8"/>
<path d="M1942.68 1929.04C1950.89 1927.95 1958.17 1931.57 1965.3 1934.95C1971.76 1938.01 1978.09 1941.09 1984.33 1944.56C1997.21 1951.71 2009.11 1960.5 2017.65 1972.71C2019.01 1974.75 2022.11 1972.51 2020.75 1970.47C2011.78 1957.79 1999.33 1948.55 1985.91 1941.19C1978.85 1937.29 1971.45 1933.69 1964.07 1930.33C1957.08 1927.07 1950.03 1924.45 1942.18 1925.37C1939.89 1925.48 1940.27 1929.28 1942.68 1929.04Z" fill="#27AE60"/>
<path d="M1990.81 1901.1C1985.3 1880.89 1983.32 1860.08 1984.93 1839.28C1985.07 1836.83 1981.29 1836.19 1981.15 1838.64C1979.5 1860.21 1981.54 1881.66 1987.23 1902.48C1987.86 1904.86 1991.43 1903.47 1990.81 1901.1Z" fill="#27AE60"/>
<path d="M1975.54 1814.86C1975.66 1789.47 1978.44 1763.82 1984.92 1739.33C1990.38 1718.65 1999.56 1697.99 2017.61 1685.39C2016.55 1684.99 2015.6 1684.45 2014.53 1684.04C2020.13 1719.1 2043.96 1748.34 2048.43 1783.64C2048.87 1782.96 2049.19 1782.28 2049.64 1781.72C2044.96 1783.48 2040.27 1785.24 2035.58 1786.99C2034.23 1787.51 2033.9 1789.34 2035.02 1790.25C2041.41 1795.25 2043.35 1802.99 2044.39 1810.71C2044.92 1814.75 2049.07 1834.2 2044.51 1835.94C2043.41 1836.44 2042.92 1837.9 2043.65 1838.85C2060.01 1860 2056.25 1887.42 2054.79 1912.17C2053.28 1937.7 2055.34 1963.12 2060.8 1987.94C2061.3 1990.33 2065.1 1989.94 2064.6 1987.56C2058.44 1959.6 2057.28 1931.66 2059.27 1903.26C2060.91 1880.29 2061.62 1855.74 2046.87 1836.47C2046.58 1837.4 2046.3 1838.45 2046.01 1839.38C2049.34 1838.14 2050.21 1835.36 2050.39 1832.01C2050.66 1825.83 2049.34 1819.18 2048.6 1813.1C2047.49 1803.47 2045.47 1793.55 2037.41 1787.32C2037.26 1788.36 2037.12 1789.53 2036.84 1790.58C2041.53 1788.83 2046.22 1787.07 2050.9 1785.31C2051.64 1784.98 2052.2 1784.16 2052.12 1783.4C2047.63 1747.97 2023.94 1718.84 2018.22 1683.8C2017.95 1682.41 2016.45 1681.54 2015.14 1682.44C1997.32 1694.88 1987.8 1714.68 1981.94 1735.14C1974.46 1761.15 1971.59 1788.48 1971.51 1815.52C1971.73 1817.68 1975.53 1817.3 1975.54 1814.86Z" fill="#E8E8E8"/>
<path d="M2010.75 1703.65C2002.4 1756.39 2000.8 1810.12 2006.05 1863.29C2006.3 1865.7 2010.1 1865.31 2009.86 1862.9C2004.63 1809.99 2006.15 1756.78 2014.41 1704.3C2014.92 1701.81 2011.14 1701.17 2010.75 1703.65Z" fill="#27AE60"/>
<path d="M3490.97 1476.97C3501.73 1502.28 3510.51 1528.3 3517.06 1555.06C3520.35 1568.57 3523.16 1582.38 3525.19 1596.14C3525.8 1599.67 3526.3 1603.34 3526.79 1606.88C3527.13 1609.02 3526.86 1612.63 3527.83 1614.59C3528.78 1616.41 3531.57 1617.41 3533.22 1618.53C3536.1 1620.41 3538.98 1622.3 3541.73 1624.2C3541.75 1623.17 3541.78 1622.14 3541.8 1621.12C3538.47 1623.63 3535.15 1624.99 3530.98 1625.54C3530.1 1625.63 3529.53 1626.33 3529.35 1627.12C3526.83 1638.91 3530.71 1650.69 3539.85 1658.74C3540.24 1657.54 3540.52 1656.49 3540.91 1655.3C3527.68 1656.12 3528.97 1671.37 3531.19 1680.63C3534.28 1693.52 3538.14 1706.32 3543.1 1718.64C3552.97 1742.76 3567.65 1765.1 3589.52 1780.06C3591.58 1781.39 3593.97 1778.46 3591.91 1777.13C3573.48 1764.51 3560.12 1746.39 3550.65 1726.2C3546.23 1716.65 3542.54 1706.78 3539.48 1696.83C3536.98 1688.5 3525.78 1660.16 3541.3 1659.1C3543.08 1659.05 3543.5 1656.83 3542.36 1655.66C3534.34 1648.53 3530.98 1638.1 3533.26 1627.75C3532.67 1628.32 3532.08 1628.77 3531.62 1629.32C3536.44 1628.84 3540.38 1627.28 3544.29 1624.2C3545.11 1623.47 3545.47 1621.9 3544.36 1621.11C3539.29 1617.78 3532.49 1615.14 3531.09 1608.87C3529.65 1602.23 3529.19 1595.23 3528.01 1588.55C3525.85 1576.09 3523.31 1563.66 3520.13 1551.29C3513.67 1525.42 3505.1 1500.14 3494.67 1475.57C3493.54 1473.25 3489.97 1474.64 3490.97 1476.97Z" fill="#E8E8E8"/>
<path d="M3497.76 1482.05C3491.87 1475.72 3501.11 1469.66 3506.96 1470.48C3512.81 1471.42 3517.97 1475.52 3522.31 1479.18C3530.27 1485.8 3536.85 1493.85 3542.71 1502.36C3554.85 1519.84 3565.47 1538.75 3575.06 1557.65C3594.75 1596.53 3609.81 1637.81 3619.86 1680.11C3625.49 1704.14 3629.62 1728.46 3632.1 1752.94C3632.34 1755.35 3636.14 1754.96 3635.9 1752.55C3630.73 1701.56 3618.61 1651.4 3599.97 1603.82C3590.84 1580.65 3580.23 1558.15 3568.16 1536.3C3557.03 1516.16 3545.12 1494.55 3527.91 1478.87C3520.99 1472.52 3509.38 1462.8 3499.36 1467.53C3493.24 1470.33 3489.88 1478.87 3494.78 1484.27C3496.37 1486.03 3499.49 1483.92 3497.76 1482.05Z" fill="#E8E8E8"/>
<path d="M3603.12 1612.22C3607.39 1589.87 3612.72 1567.93 3619.09 1546.14C3622.43 1534.91 3626.03 1523.65 3630.03 1512.61C3631.94 1507.42 3633.83 1502.1 3635.87 1496.9C3637.19 1493.56 3640.72 1479.1 3646.05 1479.85C3647.61 1480.07 3648.49 1478.7 3648.1 1477.33C3646.03 1469.59 3654.22 1461.97 3658.39 1456.3C3662.11 1451.31 3665.7 1446.33 3669.42 1441.34C3677.08 1431.08 3684.63 1420.83 3692.28 1410.45C3691.24 1410.3 3690.07 1410.16 3689.02 1409.88C3705.35 1440.9 3705.51 1476.64 3701.27 1510.65C3699.07 1528.04 3695.83 1545.41 3693.37 1562.84C3691.65 1574.93 3690.3 1593.13 3676.11 1597.14C3675.11 1597.36 3674.73 1598.68 3675.07 1599.55C3680.27 1614.27 3671.55 1629.25 3666.12 1642.62C3660.99 1655.18 3656.41 1668.08 3652.36 1681.17C3644.44 1706.71 3638.76 1732.79 3635.16 1759.16C3634.77 1761.64 3638.55 1762.28 3638.94 1759.81C3642.89 1730.57 3649.46 1701.84 3658.78 1673.86C3663.2 1660.6 3668.28 1647.52 3673.76 1634.66C3678.73 1623.01 3683.12 1610.78 3678.78 1598.27C3678.48 1599.07 3678.05 1599.89 3677.75 1600.69C3689.82 1597.28 3693.88 1584.31 3695.95 1573.08C3699.29 1554.29 3702.08 1535.04 3704.64 1516.07C3709.56 1479.95 3710.28 1441.56 3692.85 1408.47C3692.21 1407.25 3690.49 1406.66 3689.59 1407.9C3680.01 1420.79 3670.45 1433.8 3660.87 1446.69C3656.37 1452.79 3651.46 1458.67 3647.37 1465.1C3644.74 1469.47 3643.48 1473.44 3644.75 1478.44C3645.44 1477.6 3646.12 1476.76 3646.8 1475.92C3637.45 1474.57 3634.53 1489.98 3632.09 1496.25C3627.23 1508.92 3622.76 1521.67 3618.81 1534.51C3610.86 1559.66 3604.51 1585.42 3599.57 1611.29C3598.82 1613.93 3602.59 1614.58 3603.12 1612.22Z" fill="#E8E8E8"/>
<path d="M3686.23 1444.25C3654.17 1522.08 3621.58 1602.27 3620.61 1687.59C3620.6 1690.03 3624.41 1689.64 3624.42 1687.21C3625.44 1602.52 3657.96 1522.85 3689.72 1445.82C3690.76 1443.53 3687.28 1441.97 3686.23 1444.25Z" fill="#27AE60"/>
<path d="M3526.49 1511.69C3565.55 1590.13 3592.64 1674.28 3606.9 1760.75C3607.27 1763.14 3611.07 1762.76 3610.7 1760.36C3596.4 1673.51 3569.29 1589.12 3530.07 1510.3C3528.96 1508.24 3525.38 1509.5 3526.49 1511.69Z" fill="#27AE60"/>
<path d="M1921.02 1633.02C1996.93 1611.37 2076.84 1604.04 2155.45 1611.59C2194.36 1615.34 2232.87 1622.59 2270.32 1633.4C2309.49 1644.69 2347.44 1659.17 2386.02 1672.18C2531.56 1721.25 2684.66 1747.53 2838.17 1750.18C2925.26 1751.74 3012.47 1745.6 3098.41 1732.02C3100.8 1731.65 3100.42 1727.85 3098.02 1728.22C2943.79 1752.68 2785.93 1752.65 2631.64 1728.42C2554.23 1716.27 2477.74 1698 2403.22 1673.89C2364.57 1661.4 2326.6 1646.8 2287.87 1634.7C2250.85 1623.2 2212.99 1614.73 2174.61 1609.9C2089.42 1599.31 2002.27 1605.96 1919.65 1629.57C1917.27 1630.07 1918.65 1633.65 1921.02 1633.02Z" fill="#E8E8E8"/>
<path d="M2626.92 1726.08C2699.4 1722.45 2766.34 1689.4 2832.03 1661.73C2900.8 1632.85 2969.89 1604.58 3039.16 1576.81C3108.06 1549.2 3176.85 1520.57 3247.31 1496.91C3317.52 1473.39 3389.98 1458.23 3463.39 1448.62C3545.13 1437.78 3566.46 1432.81 3648.71 1428.33C3588.06 1431.79 3651.13 1428.21 3648.71 1428.33C3503.45 1436.38 3416.94 1441.28 3276.81 1483.54C3205.74 1504.96 3136.96 1533.71 3068.04 1561.07C2998.76 1588.72 2929.65 1616.86 2860.73 1645.5C2822.53 1661.41 2784.55 1678.33 2745.99 1693.26C2707.56 1708.17 2667.8 1720.14 2626.41 1722.29C2624.11 1722.39 2624.5 1726.19 2626.92 1726.08Z" fill="#E8E8E8"/>
<path d="M2306.04 1627.09C2357.56 1636.48 2408.51 1621.2 2457.46 1606.5C2509.9 1590.81 2563.18 1578.37 2617.46 1570.69C2725.02 1555.7 2833.92 1560.3 2941.95 1553.72C3001.76 1550.1 3061.43 1542.64 3119.24 1526.92C3121.61 1526.3 3120.23 1522.72 3117.86 1523.34C3013.83 1551.69 2905.29 1552.05 2798.29 1554.81C2744.78 1556.13 2691.2 1558.1 2637.94 1564.39C2585.19 1570.63 2532.85 1581.05 2481.58 1595.6C2424.82 1611.6 2366.45 1634.43 2306.57 1623.45C2304.21 1622.92 2303.57 1626.7 2306.04 1627.09Z" fill="#E8E8E8"/>
<path d="M2555.11 1848.82C2570.65 1840.45 2587.79 1835.25 2605.46 1833.98C2621.86 1832.83 2637.1 1836.67 2653.27 1838.36C2665.31 1839.7 2677.1 1838.51 2685.76 1829.18C2689.11 1825.63 2691.94 1822.01 2697.43 1823.12C2701.48 1823.87 2705.04 1826.2 2708.88 1827.47C2713.4 1829.07 2717.91 1829.38 2722.38 1828.03C2733.06 1824.77 2740.39 1814.93 2749.37 1808.77C2764.59 1798.51 2781.22 1808.49 2797.36 1811.08C2830.94 1816.52 2865.64 1810.32 2899.06 1806.55C2940.21 1802 2981.55 1798.07 3021.97 1788.85C3024.35 1788.35 3023.97 1784.54 3021.58 1785.04C2985.28 1793.2 2948.18 1797.22 2911.21 1801.34C2876.02 1805.29 2839.09 1812.36 2803.57 1808.02C2795.28 1807.06 2787.41 1805.17 2779.36 1802.78C2772.36 1800.67 2765.12 1798.71 2757.87 1800.47C2746.49 1803.16 2738.8 1813.17 2729.61 1819.74C2724.84 1823.17 2719.47 1825.76 2713.47 1824.7C2706.94 1823.44 2701.18 1818.39 2694.18 1818.84C2687.58 1819.38 2684.95 1825.03 2680.48 1828.94C2674.24 1834.32 2665.76 1835.3 2657.78 1834.83C2640.78 1833.86 2624.54 1828.97 2607.35 1829.94C2588.63 1830.94 2570.35 1836.25 2553.72 1845.24C2551.53 1846.36 2552.92 1849.93 2555.11 1848.82Z" fill="#E8E8E8"/>
<path d="M2624.5 1727.48C2626.82 1727.63 2629.03 1727.92 2631.35 1728.06C2633.8 1728.33 2634.36 1724.94 2631.99 1724.28C2630.54 1723.92 2629.1 1723.55 2627.52 1723.2C2625.42 1722.64 2624.36 1726.08 2626.35 1726.78C2638.63 1731.68 2651.28 1735.27 2664.3 1737.41C2666.77 1737.8 2667.41 1734.02 2664.94 1733.63C2652.19 1731.59 2639.93 1728.09 2627.92 1723.29C2627.53 1724.48 2627.13 1725.67 2626.74 1726.86C2628.19 1727.23 2629.63 1727.6 2631.21 1727.95C2631.46 1726.64 2631.6 1725.48 2631.85 1724.17C2629.53 1724.02 2627.32 1723.73 2625 1723.58C2622.68 1723.43 2622.04 1727.21 2624.5 1727.48Z" fill="#E8E8E8"/>
<path d="M2471.98 1920.54C2468.86 1917.53 2465.98 1914.36 2463.44 1910.77C2462.23 1908.97 2460.76 1907.07 2459.91 1904.98C2458.88 1903.67 2458.59 1902.03 2458.93 1900.33C2458.37 1898.6 2458.73 1897.15 2459.9 1896.01C2461.27 1890.61 2458.44 1885.39 2456.63 1880.19C2453.88 1872.01 2451.13 1863.83 2448.38 1855.65C2446.92 1851.31 2445.47 1847.1 2444.13 1842.75C2443.42 1840.78 2442.85 1838.91 2442.14 1836.93C2441.02 1833.46 2440.09 1831.89 2442.45 1828.7C2443.45 1825.91 2445.3 1825.21 2448.04 1826.98C2449.3 1828.01 2450.55 1829.03 2451.81 1830.06C2453.24 1831.58 2454.32 1833.39 2455.52 1835.07C2457.63 1838.18 2459.73 1841.3 2461.72 1844.43C2466.44 1851.9 2470.68 1859.67 2474.43 1867.62C2481.58 1882.53 2487 1898.13 2490.94 1914.26C2491.49 1913.44 2492.04 1912.49 2492.47 1911.67C2492.75 1911.9 2492.91 1912.27 2493.19 1912.5C2493.58 1910.02 2489.8 1909.38 2489.41 1911.86C2489.14 1914.19 2490.44 1915.72 2492.85 1915.48C2494.25 1915.34 2494.76 1914.13 2494.38 1912.89C2489.35 1892.26 2481.83 1872.38 2471.5 1853.82C2466.65 1845.09 2461.44 1835.36 2454.79 1827.84C2451.17 1823.72 2445.05 1820.23 2439.93 1823.96C2434.08 1828.14 2437.88 1836.6 2439.7 1841.92C2443.36 1852.83 2447.03 1863.73 2450.57 1874.65C2452.25 1879.87 2455.26 1885.58 2456.06 1891.01C2456.64 1895.44 2453.17 1897.84 2454.25 1902.22C2456.36 1910.33 2463.41 1918.08 2469.23 1923.64C2471.29 1925.1 2473.68 1922.16 2471.98 1920.54Z" fill="#E8E8E8"/>
<path d="M2478.12 1864.82C2475.06 1853.59 2474.13 1841.9 2475.65 1830.34C2475.99 1827.35 2476.59 1824.47 2477.32 1821.58C2478.61 1816.58 2481.2 1816.83 2484.09 1820.13C2487.86 1824.49 2490.92 1829.43 2493.36 1834.57C2503.33 1855.85 2502.31 1879.92 2501.29 1902.71C2501.15 1905.16 2504.93 1905.8 2505.07 1903.35C2506.38 1874.64 2507.44 1842.11 2487.78 1818.6C2485.59 1816 2482.58 1811.56 2478.72 1812.6C2474.61 1813.78 2473.8 1819.63 2472.99 1823.04C2469.83 1837.33 2470.56 1852.12 2474.41 1866.09C2475.3 1868.56 2478.87 1867.17 2478.12 1864.82Z" fill="#E8E8E8"/>
<path d="M2482.01 1834.95C2487.81 1854.35 2491.22 1874.12 2492.62 1894.23C2492.74 1896.65 2496.54 1896.27 2496.42 1893.85C2495.11 1873.35 2491.41 1853.22 2485.58 1833.56C2484.83 1831.2 2481.38 1832.57 2482.01 1834.95Z" fill="#27AE60"/>
<path d="M1988.51 1611.71C1984.01 1603.96 1975.2 1599.09 1969.28 1592.51C1962.78 1585.22 1957.11 1577.21 1951.57 1569.31C1951.28 1570.24 1951 1571.29 1950.71 1572.22C1975.72 1565.07 1992.97 1588.7 2000.06 1609.39C2000.81 1611.74 2004.38 1610.36 2003.63 1608C1995.8 1585.08 1976.47 1561.03 1949.33 1568.64C1948.09 1569.03 1947.86 1570.59 1948.47 1571.55C1954.02 1579.57 1959.57 1587.6 1966.18 1594.75C1972.1 1601.32 1981.06 1606.44 1985.41 1613.94C1986.65 1616.12 1989.76 1613.89 1988.51 1611.71Z" fill="#E8E8E8"/>
<path d="M1997.47 1590.17C1997.35 1570.06 2015.1 1555.7 2020.67 1537.33C2019.82 1537.8 2018.84 1538.28 2018 1538.75C2027.04 1543.34 2022.71 1563.78 2021.07 1571.63C2018.65 1583.15 2013.85 1593.89 2007.27 1603.53C2005.94 1605.58 2008.88 1607.98 2010.2 1605.92C2018.46 1593.94 2023.88 1580.44 2025.88 1566.02C2027.13 1556.92 2029.56 1540.4 2019.56 1535.26C2018.34 1534.61 2017.17 1535.63 2016.89 1536.68C2011.14 1555.72 1993.59 1569.54 1993.67 1590.55C1993.66 1592.99 1997.46 1592.6 1997.47 1590.17Z" fill="#E8E8E8"/>
<path d="M3128.65 1533.78C3127.21 1530.98 3125.77 1528.18 3124.34 1525.38C3123.56 1524.05 3122.9 1522.58 3122.13 1521.25C3121.26 1520.31 3121.15 1519.17 3121.67 1517.96C3122.91 1518.86 3125.13 1517.99 3124.82 1516.23C3123.54 1509.95 3122.25 1503.55 3120.98 1497.27C3120.7 1495.76 3118.57 1489.95 3119.34 1488.72C3122.72 1482.87 3126.29 1491.61 3126.82 1492.96C3131.42 1504.29 3132.65 1517.74 3133.75 1529.81C3133.99 1532.22 3137.79 1531.83 3137.55 1529.42C3136.67 1519.52 3135.18 1509.8 3132.79 1500.17C3131.28 1494.05 3129.35 1485.14 3122.9 1482.08C3118.72 1480.07 3115.69 1482.94 3115.35 1487.2C3115 1491.34 3116.76 1496.03 3117.53 1499.92C3118.61 1505.45 3119.81 1510.97 3120.88 1516.5C3121.97 1515.88 3122.94 1515.4 3124.03 1514.77C3121.67 1512.96 3118.42 1513.68 3117.43 1516.6C3116.74 1518.59 3117.7 1520.54 3118.53 1522.38C3120.5 1526.66 3122.96 1530.77 3125.06 1535.05C3126.19 1537.37 3129.76 1535.98 3128.65 1533.78Z" fill="#E8E8E8"/>
<path d="M3135.04 1512.25C3132.74 1494.54 3134.65 1476.79 3140.75 1459.9C3139.75 1460.13 3138.75 1460.36 3137.75 1460.59C3146.68 1466.6 3143.1 1485.67 3142.61 1494.69C3141.92 1506.81 3140.72 1518.98 3138.86 1530.96C3138.47 1533.43 3142.25 1534.07 3142.63 1531.6C3144.87 1517.02 3146.19 1502.28 3146.74 1487.48C3147.06 1477.97 3149.34 1463.77 3140.13 1457.53C3139.16 1456.85 3137.64 1457.01 3137.12 1458.21C3130.82 1475.64 3128.72 1494.05 3131.1 1512.52C3131.61 1515.03 3135.41 1514.65 3135.04 1512.25Z" fill="#E8E8E8"/>
<path d="M2509.3 1967.89C2516.46 1958.97 2529.99 1968.62 2539.18 1967.17C2543.59 1966.47 2547.48 1964.41 2551.4 1962.61C2556.67 1960.28 2561.8 1959.12 2567.55 1959.05C2590.3 1958.67 2612.39 1958.09 2634.92 1954.27C2637.32 1953.9 2636.93 1950.1 2634.54 1950.47C2622.32 1952.47 2610.18 1953.96 2597.84 1954.7C2585.37 1955.45 2572.13 1953.71 2559.93 1955.85C2555.03 1956.73 2550.63 1958.84 2546.1 1960.84C2539.47 1963.69 2534.24 1963.83 2527.4 1962.09C2519.91 1960.16 2511.58 1958.82 2506.24 1965.51C2504.77 1967.46 2507.71 1969.85 2509.3 1967.89Z" fill="#E8E8E8"/>
<path d="M2273.03 2022.96C2280.93 2012.42 2296.45 2010.21 2306.75 2018.4C2306.78 2017.37 2306.8 2016.34 2306.82 2015.31C2300.56 2019.15 2293.98 2021.23 2286.72 2021.58C2284.3 2021.69 2284.68 2025.5 2287.1 2025.38C2295.13 2024.96 2302.32 2022.69 2309.19 2018.41C2310.28 2017.78 2310.24 2016.12 2309.26 2015.32C2297.29 2005.9 2279.22 2008.24 2270.09 2020.44C2268.63 2022.51 2271.56 2024.91 2273.03 2022.96Z" fill="#E8E8E8"/>
<path d="M1923.31 2092.98C1916.8 2093.13 1910.53 2095.69 1906.03 2100.63C1903.27 2103.73 1899.49 2109.37 1903.79 2112.65C1908.64 2116.26 1919.02 2112.51 1924.16 2111.48C1933.56 2109.5 1942.63 2106.79 1951.64 2103.44C1953.98 2102.56 1952.6 2098.99 1950.25 2099.87C1939.4 2103.91 1928.31 2106.96 1916.86 2108.89C1914.59 2109.25 1912.21 2109.74 1909.92 2109.97C1904.2 2110.3 1906.42 2105.72 1908.96 2103.02C1912.76 2098.79 1918.07 2096.85 1923.7 2096.79C1926.24 2096.66 1925.73 2092.87 1923.31 2092.98Z" fill="#E8E8E8"/>
<path d="M2093.81 1969.99C2093.96 1968.95 2094.65 1968.24 2095.67 1968.14C2096.54 1967.92 2097.42 1967.7 2098.16 1967.5C2100.16 1967.04 2102.08 1966.98 2104.13 1967.02C2108.11 1967.13 2111.8 1968.17 2115.44 1969.98C2115.45 1968.82 2115.46 1967.67 2115.6 1966.5C2111.08 1968.63 2106.43 1969.48 2101.41 1969.22C2098.96 1969.09 2098.32 1972.87 2100.77 1973C2106.43 1973.33 2111.72 1972.41 2116.99 1970.08C2118.46 1969.42 2118.63 1967.35 2117.15 1966.6C2110.13 1963.08 2101.31 1961.93 2093.8 1964.87C2089.73 1966.43 2087.09 1973.23 2093.18 1973.9C2095.62 1974.04 2096.27 1970.26 2093.81 1969.99Z" fill="#E8E8E8"/>
<path d="M3134.61 634.843C3103.37 627.242 3078.85 600.121 3072.35 568.742C3065.61 536.362 3080.83 503.295 3106.76 483.753C3134.71 462.724 3177.03 458.31 3204.25 483.106C3218.2 495.662 3227.84 513.78 3234.21 531.204C3240.77 549.122 3243.59 569.468 3234.76 587.151C3225.8 604.846 3207.73 616.032 3190.56 624.818C3172.44 634.215 3150.35 642.347 3130.66 632.551C3128.51 631.488 3126.94 634.978 3129.09 636.041C3146.75 644.762 3166.5 640.07 3183.65 632.438C3200.44 624.971 3218 615.119 3230.13 600.82C3257.24 568.983 3240.13 522.659 3218.18 492.973C3206.6 477.23 3190.53 466.427 3171.13 463.265C3152.65 460.267 3133.55 463.867 3117.15 472.577C3087.03 488.699 3065.5 521.379 3066.97 556.088C3068.54 594.374 3096.82 629.571 3133.97 638.624C3136.34 639.281 3136.98 635.499 3134.61 634.843Z" fill="#F6C828"/>
<path d="M3137.83 1726.88C3223.71 1712.67 3308.45 1692.3 3391.29 1665.84C3415.22 1658.16 3438.97 1649.99 3462.55 1641.32C3464.89 1640.44 3463.51 1636.86 3461.16 1637.74C3379.44 1667.68 3295.59 1691.8 3210.33 1709.54C3186.13 1714.55 3161.88 1719.06 3137.57 1723.06C3135.05 1723.44 3135.44 1727.25 3137.83 1726.88Z" fill="#E8E8E8"/>
<path d="M2949.03 1838.52C2960.38 1839.3 2971.77 1838.01 2982.52 1834.23C2989.2 1831.89 2993.87 1828.73 3001.2 1830.29C3005.78 1831.24 3010.01 1831.32 3014.48 1829.97C3019.45 1828.44 3023.88 1825.43 3027.91 1822.2C3032.28 1818.56 3036.51 1813.64 3042.1 1811.92C3048.56 1809.99 3055.05 1814.59 3061.52 1815.34C3066.19 1815.89 3070.86 1815.29 3075.35 1814.07C3077.72 1813.44 3076.33 1809.87 3073.96 1810.49C3066.12 1812.7 3059.71 1811.29 3052.16 1808.85C3048.98 1807.77 3045.99 1807.3 3042.59 1807.9C3032.44 1810.08 3026.32 1820.44 3017.16 1824.83C3011.3 1827.6 3006.28 1827.34 3000.13 1826.04C2995.43 1825.11 2992.21 1826.2 2987.91 1828.05C2975.77 1833.25 2963.08 1835.69 2949.94 1834.84C2947.35 1834.59 2946.58 1838.39 2949.03 1838.52Z" fill="#E8E8E8"/>
<path d="M2337.81 2067.15C2436.28 2057.18 2534.74 2047.21 2633.21 2037.23C2638.15 2036.73 2637.38 2029.12 2632.44 2029.62C2533.97 2039.59 2435.51 2049.57 2337.04 2059.54C2332.1 2060.04 2332.87 2067.65 2337.81 2067.15Z" fill="#161616"/>
<path d="M2654.14 2032.81C2665.68 2031.64 2677.21 2030.47 2688.74 2029.3C2693.68 2028.8 2692.91 2021.19 2687.97 2021.69C2676.44 2022.86 2664.91 2024.03 2653.37 2025.2C2648.43 2025.7 2649.2 2033.31 2654.14 2032.81Z" fill="#F6C828"/>
<path d="M2714.22 2025.57C2717.9 2025.2 2721.7 2024.81 2725.38 2024.44C2730.32 2023.94 2729.55 2016.33 2724.6 2016.83C2720.93 2017.2 2717.13 2017.59 2713.45 2017.96C2708.51 2018.46 2709.28 2026.07 2714.22 2025.57Z" fill="#EC615B"/>
<path d="M2022.93 2127.24C2095.8 2119.86 2168.54 2112.49 2241.41 2105.11C2246.35 2104.61 2245.58 2097 2240.64 2097.5C2167.77 2104.88 2095.03 2112.24 2022.16 2119.62C2017.34 2120.11 2018.11 2127.72 2022.93 2127.24Z" fill="#161616"/>
<path d="M2262.57 2102.96C2281.58 2101.04 2300.46 2099.13 2319.47 2097.2C2324.41 2096.7 2323.64 2089.09 2318.7 2089.59C2299.69 2091.52 2280.81 2093.43 2261.8 2095.35C2256.98 2095.84 2257.75 2103.45 2262.57 2102.96Z" fill="#F6C828"/>
<path d="M2351.56 2091.65C2352.7 2091.53 2353.84 2091.41 2354.85 2091.31C2356.88 2091.11 2358.6 2089.14 2358.27 2087.12C2357.94 2085.1 2356.23 2083.48 2354.08 2083.7C2352.94 2083.82 2351.8 2083.93 2350.79 2084.03C2348.76 2084.24 2347.04 2086.21 2347.37 2088.23C2347.7 2090.24 2349.4 2091.86 2351.56 2091.65Z" fill="#35A163"/>
<path d="M1982.98 2132.31C1985.65 2132.04 1988.18 2131.78 1990.84 2131.51C1995.78 2131.01 1995.01 2123.4 1990.07 2123.9C1987.41 2124.17 1984.88 2124.43 1982.21 2124.69C1977.27 2125.2 1978.04 2132.81 1982.98 2132.31Z" fill="#EC615B"/>
<path d="M2973.06 1891.19C3075.2 1880.85 3177.34 1870.5 3279.61 1860.15C3284.55 1859.65 3283.78 1852.04 3278.84 1852.54C3176.7 1862.88 3074.56 1873.23 2972.29 1883.58C2967.34 1884.08 2968.12 1891.69 2973.06 1891.19Z" fill="#161616"/>
<path d="M3319.21 1851.65C3411.72 1842.28 3504.23 1832.91 3596.74 1823.54C3601.69 1823.04 3600.91 1815.43 3595.97 1815.93C3503.46 1825.3 3410.95 1834.67 3318.44 1844.04C3313.62 1844.53 3314.39 1852.14 3319.21 1851.65Z" fill="#161616"/>
<path d="M3621.1 1818.77C3628.57 1818.01 3635.92 1817.27 3643.4 1816.51C3648.34 1816.01 3647.57 1808.4 3642.63 1808.9C3635.15 1809.66 3627.8 1810.4 3620.33 1811.16C3615.38 1811.66 3616.15 1819.27 3621.1 1818.77Z" fill="#F6C828"/>
<path d="M3518.72 1786.34C3539.88 1784.19 3561.05 1782.05 3582.21 1779.91C3587.15 1779.41 3586.38 1771.79 3581.44 1772.29C3560.27 1774.44 3539.11 1776.58 3517.95 1778.73C3513 1779.23 3513.78 1786.84 3518.72 1786.34Z" fill="#2B9666"/>
<path d="M3603.26 1776.62C3608.45 1776.09 3613.65 1775.57 3618.84 1775.04C3623.79 1774.54 3623.02 1766.93 3618.07 1767.43C3612.88 1767.96 3607.68 1768.48 3602.49 1769.01C3597.67 1769.5 3598.44 1777.11 3603.26 1776.62Z" fill="#DB4842"/>
<path d="M2913.98 1919.73C2941.1 1916.99 2968.22 1914.24 2995.34 1911.49C3000.28 1910.99 2999.51 1903.38 2994.57 1903.88C2967.45 1906.63 2940.33 1909.37 2913.21 1912.12C2908.4 1912.61 2909.17 1920.22 2913.98 1919.73Z" fill="#161616"/>
<path d="M3024.25 1907.41C3035.78 1906.24 3047.31 1905.08 3058.84 1903.91C3063.79 1903.41 3063.02 1895.8 3058.07 1896.3C3046.54 1897.46 3035.01 1898.63 3023.48 1899.8C3018.53 1900.3 3019.3 1907.91 3024.25 1907.41Z" fill="#27AE60"/>
<path d="M3076.36 1921.36C3084.22 1920.56 3091.95 1919.78 3099.8 1918.98C3104.75 1918.48 3103.97 1910.87 3099.03 1911.37C3091.17 1912.17 3083.44 1912.95 3075.59 1913.75C3070.64 1914.25 3071.42 1921.86 3076.36 1921.36Z" fill="#EC615B"/>
<path d="M2472.21 1339.99C2467.07 1334.75 2483.94 1329.45 2486.62 1328.02C2491.82 1325.06 2494.79 1320.28 2495.47 1314.31C2496.13 1308.22 2494.22 1302.01 2495.41 1295.99C2497.19 1287.1 2507.13 1286.6 2514.52 1286.24C2519.49 1285.99 2518.59 1278.4 2513.75 1278.63C2505.33 1278.97 2495.73 1280.2 2490.59 1287.64C2486.01 1294.25 2487.86 1302.4 2487.99 1309.94C2488.16 1316.72 2485.96 1320.27 2479.56 1322.84C2475.88 1324.37 2472.14 1325.39 2469.21 1328.12C2463.81 1332.9 2462.15 1340.5 2467.43 1345.86C2470.74 1349.5 2475.64 1343.49 2472.21 1339.99Z" fill="#DB4842"/>
<path d="M3434.62 858.678C3429.48 853.432 3446.35 848.135 3449.02 846.711C3454.23 843.749 3457.2 838.962 3457.88 832.999C3458.54 826.909 3456.63 820.694 3457.82 814.68C3459.6 805.784 3469.54 805.29 3476.93 804.927C3481.9 804.68 3481 797.082 3476.16 797.316C3467.74 797.655 3458.14 798.884 3453 806.325C3448.42 812.94 3450.27 821.082 3450.39 828.631C3450.57 835.405 3448.37 838.96 3441.97 841.53C3438.28 843.057 3434.55 844.076 3431.62 846.807C3426.22 851.584 3424.55 859.185 3429.83 864.545C3433.15 868.182 3438.04 862.176 3434.62 858.678Z" fill="#27AE60"/>
<path d="M2499.84 1343.6C2496.01 1339.89 2503.46 1335.03 2505.84 1333.25C2509.05 1330.88 2511.78 1328.68 2514 1325.38C2518.57 1318.64 2520.79 1306.49 2530.12 1305.04C2534.91 1304.3 2534.27 1296.67 2529.35 1297.43C2513.84 1299.77 2514.22 1316.13 2504.34 1324.82C2500.1 1328.45 2494.83 1330.78 2492.43 1336.15C2490.23 1340.99 2491.24 1345.88 2494.93 1349.48C2498.49 1352.97 2503.38 1346.96 2499.84 1343.6Z" fill="#27AE60"/>
<path d="M3052.1 872.842C3052.42 881.012 3047.07 891.421 3055.37 897.501C3062.55 902.669 3070.35 897.521 3077.88 897.272C3086.18 897.072 3083.4 905.042 3082.95 910.726C3082.62 914.989 3082.7 919.594 3085.01 923.461C3088.7 929.495 3097.34 932.72 3102.96 927.538C3106.47 924.235 3102 918.024 3098.49 921.327C3092.76 926.649 3090.35 915.488 3090.64 911.998C3090.9 908.256 3091.79 904.449 3091.53 900.63C3091.12 895.29 3087.91 891.386 3082.79 890.111C3076.49 888.57 3071.28 891.532 3065.18 892.022C3054.13 892.885 3060.12 878.694 3059.83 872.059C3059.59 867.086 3051.98 867.856 3052.1 872.842Z" fill="#DB4842"/>
<path d="M3096.58 877.18C3094.11 884.351 3091.89 892.778 3097.65 899.114C3099.81 901.459 3102.5 902.724 3105.59 902.923C3107.65 902.972 3110.22 901.814 3112.07 902.396C3115.1 903.242 3117.09 906.5 3116.01 909.686C3114.3 914.344 3121.28 917.482 3122.98 912.824C3125.07 906.846 3123.38 900.353 3117.89 896.68C3114.87 894.679 3112.34 894.936 3108.88 894.902C3099.54 894.951 3101.29 886.956 3103.57 880.445C3105.15 875.8 3098.16 872.535 3096.58 877.18Z" fill="#F6C828"/>
<path d="M3527.11 1099.36C3523.59 1092.41 3529.25 1081.33 3538.01 1083.14C3544.7 1084.64 3548.59 1093.98 3544.82 1099.75C3542.16 1103.86 3548.02 1108.65 3550.68 1104.54C3557.57 1094.23 3551.96 1078.01 3539.3 1075.57C3525.33 1072.89 3513.84 1089.69 3520.08 1102C3522.2 1106.52 3529.35 1103.75 3527.11 1099.36Z" fill="#2F80ED"/>
<path d="M2078.19 1550.34C2076.52 1541.41 2087.41 1535.18 2093.08 1543.19C2097.89 1550.14 2090.56 1557.42 2083.34 1555.71C2078.61 1554.53 2077.33 1562.09 2082.06 1563.28C2096.64 1566.92 2108.33 1549.59 2098.55 1537.77C2088.05 1525.12 2067.7 1535.25 2070.71 1551.1C2071.45 1555.89 2079.07 1555.25 2078.19 1550.34Z" fill="#EC615B"/>
<path d="M2086.28 1190.31C2083.85 1195.43 2084.23 1201.67 2088.48 1205.72C2090.6 1207.69 2093.4 1208.81 2096.24 1209.04C2100.23 1209.27 2102.93 1206.82 2106.52 1208.12C2110.12 1209.55 2109.58 1211.79 2110.32 1215.3C2110.66 1217.44 2111 1219.46 2111.47 1221.59C2111.95 1223.85 2112.44 1226.11 2114.27 1227.72C2115.95 1229.21 2117.92 1229.65 2120.11 1229.82C2121.66 1229.91 2123.17 1229.63 2124.81 1229.47C2126.08 1229.34 2127.47 1229.2 2128.77 1229.32C2131.24 1229.71 2132.42 1231.26 2132.41 1233.7C2130.65 1235.28 2132.76 1238.4 2134.65 1236.8C2138.16 1233.63 2136.46 1229.44 2132.88 1226.98C2131.23 1225.87 2129.52 1225.4 2127.47 1225.35C2120.79 1225.13 2117.24 1228.06 2114.79 1218.95C2113.56 1214.46 2114.25 1204.78 2109.25 1202.21C2106.95 1201.03 2105.12 1201.86 2103.05 1202.97C2099.77 1204.71 2097.1 1206.13 2093.33 1204.33C2088.22 1201.9 2087.52 1196.21 2089.74 1191.63C2090.83 1189.72 2087.34 1188.15 2086.28 1190.31Z" fill="#27AE60"/>
<path d="M2139.01 1200.22C2136.92 1204.92 2134.56 1211.95 2138.95 1216.12C2141.8 1218.9 2146.07 1218.09 2149.55 1219.66C2155.04 1222.05 2158.07 1227.89 2157.63 1233.7C2157.5 1236.15 2161.28 1236.8 2161.41 1234.35C2161.85 1228.54 2160.01 1223.08 2155.65 1219.17C2153.81 1217.43 2151.51 1216.25 2149.13 1215.47C2146.35 1214.6 2141.65 1213.67 2140.43 1210.46C2139.55 1208.11 2141.67 1203.8 2142.49 1201.79C2143.42 1199.52 2139.93 1197.95 2139.01 1200.22Z" fill="#F6C828"/>
<path d="M2892.93 1528.57C2887.72 1520.12 2894.78 1508.9 2904.76 1511.35C2915.13 1513.89 2916.14 1527.63 2907.02 1532.39C2904.83 1533.51 2906.21 1537.09 2908.4 1535.97C2920.19 1529.78 2920.06 1511.98 2906.72 1507.95C2892.97 1503.7 2882.76 1519.22 2889.97 1530.92C2891.2 1532.97 2894.29 1530.61 2892.93 1528.57Z" fill="#494949"/>
<path d="M2423.15 1545.77C2414.87 1544.95 2427.04 1534.87 2428.34 1533.84C2430.23 1532.24 2431.97 1530.53 2432.74 1528.01C2435.38 1519.93 2427.6 1505.08 2441.21 1502.94C2443.61 1502.57 2443.22 1498.76 2440.83 1499.13C2435.53 1499.92 2431.9 1503.24 2429.95 1508.05C2426.77 1515.8 2432.47 1525.35 2425.38 1531.19C2421.37 1534.55 2417 1536.91 2417.07 1542.67C2417.16 1546.12 2418.87 1549.03 2422.49 1549.43C2424.96 1549.82 2425.61 1546.04 2423.15 1545.77Z" fill="#DB4842"/>
<path d="M2446.36 1532.27C2442.31 1527.69 2443.63 1520.5 2449.4 1518C2453.32 1516.32 2456.43 1516.65 2458.28 1512.23C2460.13 1507.68 2459.24 1502.65 2461.32 1497.95C2463.91 1491.92 2468.83 1487.45 2474.72 1484.93C2476.93 1483.94 2475.67 1480.35 2473.34 1481.36C2467.82 1483.71 2463.19 1487.38 2459.99 1492.45C2458.34 1495.05 2456.97 1498.01 2456.27 1501.16C2455.28 1505.36 2456.47 1510.75 2452.13 1513.36C2449.48 1515.04 2446.61 1514.56 2444.16 1516.86C2442.51 1518.31 2441.44 1520.34 2440.87 1522.32C2439.52 1526.69 2440.35 1531.09 2443.38 1534.5C2444.86 1536.4 2447.96 1534.16 2446.36 1532.27Z" fill="#F6C828"/>
<path d="M3420.07 1211.79C3417.69 1207.3 3427.53 1208.74 3427.92 1208.86C3429.33 1209.34 3430.75 1210.45 3432.04 1211.18C3434.1 1212.27 3436.41 1213.36 3438.83 1213.44C3442.02 1213.51 3444.67 1212.07 3446.66 1209.76C3452.38 1202.58 3449.86 1184.33 3463.72 1189.48C3467.83 1191.04 3472.46 1193.35 3476.87 1191.24C3480.41 1189.53 3481.1 1185.99 3480.52 1182.46C3480.24 1180.7 3478.13 1177.21 3478.6 1175.44C3479.56 1172.01 3482.73 1171.69 3485.18 1172.78C3486.33 1173.26 3487.37 1174 3488.65 1174.35C3492.49 1175.67 3496.18 1175.34 3498.41 1171.77C3499.64 1169.72 3496.29 1167.9 3495.06 1169.94C3492.59 1174.03 3482.24 1165.9 3477.7 1168.51C3474.05 1170.48 3474.25 1174.26 3475.21 1177.77C3476.31 1181.92 3478.98 1187.92 3471.2 1187.95C3467.77 1188.02 3464.53 1185.18 3461.2 1184.61C3457.24 1183.93 3453.69 1185.01 3451.21 1188.09C3444.98 1195.65 3447.78 1215.03 3432.86 1207.38C3428.48 1205.19 3424.87 1202.99 3420.07 1205.23C3416.41 1206.94 3414.69 1210.13 3416.67 1213.75C3417.99 1215.87 3421.14 1213.92 3420.07 1211.79Z" fill="#F6C828"/>
<path d="M2419.81 1050.17C2413.97 1049.35 2412.46 1042.07 2414.81 1037.47C2418.12 1030.99 2427.41 1030.43 2433.74 1030.94C2444.32 1031.79 2454.37 1034.88 2464.49 1029.88C2474.24 1025.05 2481.01 1016.03 2492.39 1014.62C2504.27 1013.16 2516.08 1017.22 2528.08 1015.62C2549.05 1012.86 2567.13 1000.52 2586.8 993.655C2598.41 989.531 2610.05 988.097 2622.27 989.935C2633.97 991.697 2645.09 995.312 2656.78 996.948C2669 998.786 2680.73 997.085 2692.67 994.851C2705.75 992.501 2719.2 990.113 2731.81 995.757C2731.48 995.021 2731.03 994.425 2730.7 993.69C2726.26 1012.98 2706.5 1022.67 2688.48 1025.52C2665.92 1029.09 2643.04 1023.07 2620.31 1026.27C2597.34 1029.5 2579.25 1045.55 2556.78 1050.01C2533.82 1054.64 2510.78 1045.82 2487.78 1048.79C2464.4 1051.8 2435.16 1067.71 2414.54 1048.65C2412.71 1047.04 2410.32 1049.97 2412.14 1051.58C2428.37 1066.47 2451.14 1061.22 2470.24 1056.34C2484.34 1052.73 2497.38 1051.28 2511.98 1052.62C2524.39 1053.8 2536.89 1055.87 2549.34 1054.86C2574.49 1052.95 2594.01 1034.57 2618.56 1030.42C2643.36 1026.24 2668.58 1033.81 2693.26 1028.49C2711.68 1024.58 2730.19 1013.86 2734.59 994.193C2734.77 993.406 2734.29 992.43 2733.49 992.126C2709.86 981.32 2684.24 996.345 2659.74 993.316C2646.25 991.607 2633.37 987.017 2619.78 985.573C2607.99 984.204 2596.65 985.994 2585.52 989.94C2573.65 994.089 2562.61 1000.08 2551.07 1004.96C2537.81 1010.54 2524.88 1013.13 2510.39 1011.65C2498.87 1010.38 2488.29 1009.53 2478.18 1015.93C2473.49 1018.97 2469.28 1022.86 2464.44 1025.65C2456.21 1030.33 2447.74 1028.88 2438.78 1027.61C2429.31 1026.39 2415.21 1026.28 2411.06 1037.08C2408.42 1043.89 2411.64 1052.92 2419.42 1053.92C2421.63 1054.21 2422.27 1050.43 2419.81 1050.17Z" fill="#E8E8E8"/>
<path d="M1911.91 1299.09C1928.92 1295.06 1946.16 1302.28 1963.05 1298.39C1969.93 1296.8 1976.09 1293.1 1982.28 1289.78C1985.19 1288.2 1988.25 1286.74 1991.46 1285.65C1997.53 1283.62 2003.28 1284.71 2009.49 1285.36C2026.84 1287.32 2045.44 1281.33 2062.18 1277.2C2070.43 1275.22 2078.53 1273.11 2086.76 1270.87C2096.09 1268.26 2105.34 1264.76 2114.74 1262.78C2124.65 1260.75 2136.89 1264 2134.08 1276.71C2131.72 1287.59 2119.23 1291.93 2109.68 1293.67C2093.08 1296.63 2075.99 1293.49 2059.58 1298.36C2044.29 1302.85 2031.17 1312.38 2016.54 1318.35C2008.43 1321.73 2000.17 1323.6 1991.44 1323.33C1982.69 1322.93 1974.37 1321.6 1965.56 1323.13C1947.68 1326.09 1929.61 1338.56 1911.19 1336.2C1899.91 1334.78 1893.18 1325.2 1897.43 1314.14C1901.6 1303.46 1913.24 1299.59 1923.64 1298.54C1926.04 1298.3 1925.66 1294.49 1923.25 1294.73C1908.68 1296.21 1892.08 1304.3 1892.26 1321.2C1892.43 1336.81 1908.28 1341.62 1921.28 1339.79C1930.75 1338.44 1939.84 1334.7 1948.88 1331.61C1960.63 1327.6 1971.56 1325.47 1983.95 1326.52C1993.12 1327.26 2001.57 1327.3 2010.52 1324.6C2019.72 1321.87 2028.2 1317.17 2036.59 1312.73C2045.1 1308.28 2053.72 1303.69 2063.08 1301.33C2074.07 1298.55 2085.4 1299.2 2096.62 1298.71C2111.28 1298.12 2134.41 1295.13 2137.98 1277.34C2139.26 1270.94 2137.13 1263.85 2131.27 1260.34C2125.55 1256.95 2118.35 1257.93 2112.22 1259.32C2089.73 1264.8 2067.82 1272.28 2045.02 1277.15C2032.23 1279.85 2019.98 1282.76 2007 1281C1996.48 1279.5 1988.54 1282.1 1979.31 1287.01C1974.45 1289.55 1969.74 1292.33 1964.52 1293.89C1958.06 1295.82 1951.12 1295.63 1944.42 1295.15C1933.44 1294.22 1922.64 1292.49 1911.88 1294.99C1909.14 1295.78 1909.53 1299.58 1911.91 1299.09Z" fill="#E8E8E8"/>
<path d="M3471.37 1293.52C3448.26 1304.32 3418.25 1287.36 3399.5 1274.14C3399.35 1275.18 3399.21 1276.35 3398.94 1277.4C3410.6 1271.22 3423.37 1269.67 3436.38 1269.13C3449.24 1268.46 3462.13 1268.06 3474.97 1267.14C3502.29 1265.14 3529.6 1261.73 3556.52 1256.96C3570.48 1254.52 3584.28 1251.71 3598.05 1248.65C3604.8 1247.07 3612.88 1244.59 3619.66 1247.1C3629.12 1250.76 3629.36 1260.73 3621.13 1265.41C3616.89 1267.76 3612.14 1268.88 3607.54 1270.24C3600.31 1272.26 3593.11 1274.4 3585.88 1276.41C3572.69 1280.18 3559.51 1283.95 3546.19 1287.74C3538.6 1289.91 3531.01 1292.09 3523.42 1294.27C3516.33 1296.27 3509.04 1298.93 3501.58 1299.81C3488.92 1301.22 3478.28 1291.02 3465.75 1293.7C3463.37 1294.2 3463.76 1298.01 3466.14 1297.51C3473.27 1295.89 3479.37 1299.24 3485.88 1301.53C3491.19 1303.43 3496.26 1304.2 3501.84 1303.63C3516.4 1302.03 3531.03 1296.06 3545.08 1291.95C3560.26 1287.59 3575.56 1283.22 3590.74 1278.87C3597.96 1276.85 3605.17 1274.71 3612.39 1272.7C3617.25 1271.31 3622.33 1269.64 3626.34 1266.29C3633.06 1260.61 3632.39 1251.45 3625.7 1246.11C3615.25 1237.68 3599.4 1244.28 3588 1246.72C3557.17 1253.3 3525.92 1258.26 3494.48 1261.32C3477.24 1263.06 3459.95 1264.18 3442.6 1264.78C3427.17 1265.44 3411.51 1266.26 3397.65 1273.56C3396.56 1274.18 3395.84 1275.92 3397.08 1276.82C3416.94 1290.83 3448.15 1308.3 3472.73 1296.84C3474.96 1296.1 3473.7 1292.51 3471.37 1293.52Z" fill="#E8E8E8"/>
<path d="M2765.42 686.433C2740.21 682.589 2716.2 707.317 2701.93 725.292C2701.5 724.336 2701.04 723.255 2700.47 722.322C2713.41 724.961 2726.1 722.845 2738.73 719.704C2751.26 716.711 2763.74 713.467 2776.31 710.725C2803.09 704.936 2830.25 700.503 2857.42 697.494C2871.51 695.896 2885.54 694.698 2899.61 693.75C2906.54 693.362 2914.98 693.468 2920.78 689.14C2928.83 682.965 2926.25 673.331 2917.03 671.164C2912.29 670.104 2907.42 670.368 2902.62 670.357C2895.13 670.463 2887.61 670.443 2880.11 670.549C2866.39 670.651 2852.68 670.753 2838.83 670.879C2830.94 670.929 2823.04 670.98 2815.15 671.031C2807.78 671.113 2800.04 670.615 2792.63 671.872C2780.08 674.09 2772.76 686.875 2759.98 687.839C2757.55 688.034 2756.85 684.274 2759.28 684.08C2766.58 683.622 2771.48 678.682 2777.08 674.652C2781.64 671.334 2786.29 669.167 2791.8 668.136C2806.22 665.567 2821.94 667.165 2836.58 667.15C2852.37 667.049 2868.29 666.924 2884.08 666.823C2891.58 666.717 2899.09 666.737 2906.59 666.632C2911.64 666.595 2916.98 666.763 2921.78 668.848C2929.83 672.401 2931.77 681.377 2926.86 688.392C2919.21 699.423 2902.14 697.557 2890.51 698.436C2859.08 700.816 2827.7 704.871 2796.67 710.807C2779.65 713.993 2762.74 717.806 2745.92 722.12C2730.93 725.832 2715.67 729.466 2700.32 726.372C2699.1 726.081 2697.92 724.616 2698.86 723.402C2713.96 704.363 2738.98 678.798 2765.79 682.861C2768.13 682.941 2767.94 686.739 2765.42 686.433Z" fill="#E8E8E8"/>
<path d="M2958.06 2022.53C2956.19 2015.42 2966.57 2015.52 2970.77 2016.5C2974.04 2017.2 2977.21 2018.16 2980.54 2018.2C2988.5 2018.42 2995.96 2014.98 3003.07 2011.82C3009.92 2008.69 3017.13 2005.27 3024.81 2005.26C3034.03 2005.23 3042.13 2011.97 3041.72 2021.75C3041.21 2031.92 3031.42 2037.66 3022.01 2035.79C3015.61 2034.52 3009.76 2031.13 3003.2 2030.77C2989.31 2030.13 2976.19 2043.51 2962.37 2038.5C2960.11 2037.7 2958.41 2041.08 2960.8 2041.99C2969.05 2045 2976.72 2042.43 2984.48 2039.33C2989.4 2037.43 2994.55 2035.11 2999.88 2034.7C3006.1 2034.2 3011.48 2036.73 3017.16 2038.46C3025.23 2040.97 3033.4 2040.79 3039.68 2034.51C3045.03 2029.23 3046.81 2021.49 3044.3 2014.44C3036.86 1994.05 3013.44 2002.95 2999.48 2009.24C2992.87 2012.21 2985.86 2015.1 2978.36 2014.32C2973.57 2013.78 2968.84 2011.32 2963.78 2011.96C2957.71 2012.7 2952.71 2017.69 2954.37 2023.93C2955.12 2026.29 2958.69 2024.9 2958.06 2022.53Z" fill="#E8E8E8"/>
<path d="M2807.67 1995.09C2813.17 1988.76 2821.29 1985.51 2829.71 1986.45C2833.21 1986.86 2842.97 1988.44 2837.48 1993.61C2834.55 1996.34 2827.56 1996.79 2823.76 1997.17C2821.35 1997.42 2821.73 2001.22 2824.14 2000.98C2829.72 2000.42 2839.45 1999.17 2843.18 1994.31C2846.35 1990.15 2841.87 1986.37 2838.25 1984.81C2826.71 1979.58 2812.89 1983.41 2804.74 1992.69C2803.13 1994.52 2806.06 1996.92 2807.67 1995.09Z" fill="#E8E8E8"/>
<path d="M2745.73 2086.33C2744.67 2086.05 2743.75 2085.76 2742.7 2085.48C2742.67 2086.51 2742.65 2087.53 2742.62 2088.56C2749.79 2082.2 2758.94 2085.37 2767.37 2086.44C2774.51 2087.38 2780.52 2086.01 2787.19 2083.66C2795.48 2080.77 2803.97 2078.63 2812.66 2077.24C2816.69 2076.58 2820.73 2076.04 2824.78 2075.5C2828.56 2074.99 2837.88 2072.12 2835.24 2078.93C2832.09 2087.06 2820.71 2088.47 2813.51 2086.89C2807.36 2085.59 2801.5 2083.37 2795.32 2085.53C2788.89 2087.72 2783.73 2092.47 2777.03 2094.56C2768.1 2097.39 2759.01 2097.41 2749.95 2095.13C2747.59 2094.6 2746.93 2098.25 2749.31 2098.91C2758.23 2101.08 2767.33 2101.18 2776.3 2098.74C2786.39 2095.92 2794.7 2087 2805.64 2088.84C2813.46 2090.23 2820.02 2093.03 2827.89 2089.79C2832.93 2087.75 2839.82 2082.43 2840.24 2076.5C2840.81 2069.52 2832.35 2070.63 2827.93 2071.21C2817.69 2072.5 2807.35 2074.06 2797.24 2076.62C2791.75 2078.08 2786.58 2080.14 2781.23 2081.7C2774.65 2083.65 2769.07 2082.94 2762.43 2081.82C2754.6 2080.43 2746.62 2079.96 2740.26 2085.47C2739.33 2086.33 2739.2 2087.63 2740.19 2088.55C2742.31 2090.52 2744.39 2090.82 2747 2090.04C2749.48 2089.28 2748.1 2085.7 2745.73 2086.33Z" fill="#E8E8E8"/>
<path d="M3261.75 1960.63C3268.79 1956.84 3276.36 1954.41 3284.35 1953.73C3292.6 1953.02 3299.89 1955.49 3307.93 1956.47C3319.75 1958.09 3327.64 1950.11 3336.47 1943.71C3350.41 1933.46 3365.69 1937.68 3381.47 1939.28C3392.73 1940.45 3404.55 1939.63 3413.38 1931.95C3415.26 1930.35 3413.03 1927.24 3411.14 1928.84C3400.1 1938.67 3384.98 1935.98 3371.6 1934.13C3359.02 1932.46 3346.68 1932.04 3335.79 1939.55C3331.01 1942.85 3326.69 1947.01 3321.61 1949.96C3313.87 1954.46 3306.99 1952.21 3298.9 1950.72C3285.73 1948.34 3272.27 1950.72 3260.49 1957.04C3258.17 1958.18 3259.56 1961.75 3261.75 1960.63Z" fill="#E8E8E8"/>
<path d="M2317.35 1425.26C2328.19 1419.81 2350.32 1441.02 2361.62 1455.25C2378.89 1476.7 2383.33 1496.5 2395.38 1542.18C2400 1559.91 2407.45 1587.99 2417.31 1623.38C2429.56 1633.16 2434.83 1643.4 2437.14 1649.83C2440.28 1658.09 2442.02 1668.94 2439.21 1670.25C2436.16 1671.71 2429.5 1661.62 2427.32 1662.87C2424.42 1664.57 2436.04 1680.69 2430.88 1689.16C2425.61 1697.77 2402.67 1698.81 2389.56 1688.22C2377.29 1678.31 2380.3 1663.78 2375.12 1630.35C2373.33 1619 2368.41 1588.1 2355.8 1558.36C2340.35 1522.12 2327.99 1521.45 2317.79 1489.04C2310.62 1466.18 2305.66 1431.19 2317.35 1425.26Z" fill="white" stroke="#161616" stroke-width="2" stroke-miterlimit="10"/>
<path opacity="0.15" d="M2337.4 1456.3C2344.21 1454.07 2359.58 1484.42 2360.52 1486.12C2374.62 1514.17 2370.56 1527.14 2379.86 1569.64C2387.46 1604.24 2391.76 1623.92 2405.53 1647.39C2418.82 1669.88 2432.89 1682.42 2428.72 1689.25C2424.56 1696.21 2405.04 1691.91 2389.61 1687.45C2387.9 1684.42 2385.37 1679.67 2383.1 1673.75C2377.42 1659.33 2376.48 1647.51 2375.9 1641.8C2375.58 1638.63 2371.73 1601.86 2361.25 1570.5C2355.59 1553.77 2354.07 1556.49 2347.71 1539.19C2333.79 1501.64 2329.83 1458.73 2337.4 1456.3Z" fill="#6D6C6C"/>
<path opacity="0.17" d="M2360.72 1515.96C2363.45 1529.01 2367.22 1548.49 2370.41 1572.39C2375.29 1609.19 2376.62 1640.06 2375.61 1640.17C2374.72 1640.26 2373.62 1618.07 2365.75 1588.37C2360.55 1568.64 2354.22 1552.88 2349.58 1542.46C2351.74 1539.81 2354.32 1536.21 2356.52 1531.38C2359.23 1525.21 2360.33 1519.71 2360.72 1515.96Z" fill="#6D6C6C"/>
<path d="M2397.55 1966.78C2394.87 1973.2 2395.03 1979.85 2408.45 2036.55C2410.06 2043.56 2411.54 2049.3 2412.46 2053.31C2432.15 2054.39 2459.77 2054.03 2491.89 2047.57C2511.34 2043.68 2534.06 2039.2 2534.57 2031.59C2534.97 2025.4 2520.56 2015.84 2457.62 2001.19C2452.78 1981.18 2447.81 1961.18 2442.96 1941.17C2407.6 1947.18 2399.73 1961.82 2397.55 1966.78Z" fill="#161616"/>
<path d="M2284.5 1612.87C2298.06 1627.9 2317.4 1649.52 2340.19 1676.05C2394.17 1738.76 2421.16 1770.11 2431.68 1791.86C2462.78 1856.24 2463.03 1921.83 2462.85 1944.15C2462.74 1956.97 2462.02 1967.56 2461.35 1974.8C2452.09 1979.46 2438.69 1984.91 2421.97 1988.02C2407.02 1990.81 2393.95 1990.73 2384.28 1990.04C2379.62 1973.08 2375.25 1953.92 2371.97 1932.98C2367.15 1901.81 2365.83 1873.62 2366.32 1849.35C2331.22 1827.66 2307.58 1804.04 2292.97 1787.45C2253.85 1742.59 2240.49 1701.65 2232.32 1675.31C2220.81 1638.8 2225.1 1628.11 2229.51 1622.29C2244.25 1603.49 2281.23 1612.18 2284.5 1612.87Z" fill="#27AE60" stroke="#161616" stroke-width="2" stroke-miterlimit="10"/>
<path opacity="0.19" d="M2299.02 1719.56C2313.19 1729.27 2331.83 1743.92 2350.58 1764.7C2355.78 1770.58 2377.4 1795.69 2398.4 1837.39C2427.3 1895.21 2434.88 1951.08 2437.08 1982.9C2431.7 1985.49 2424.07 1988.44 2414.77 1990.16C2402.31 1992.31 2391.83 1991.2 2385.03 1989.83C2378.47 1965.51 2372.54 1937.28 2369.07 1905.59C2366.86 1885.05 2365.81 1865.81 2365.69 1848.14C2362.34 1846.68 2297.63 1818.38 2292.55 1760.58C2291.04 1744.46 2294.73 1730.25 2299.02 1719.56Z" fill="#6D6C6C"/>
<path opacity="0.15" d="M2325.21 1815.07C2327.61 1810.98 2363.54 1818.11 2379.98 1842.59C2392.33 1860.94 2385.48 1876.76 2388.67 1904.37C2391.01 1925.03 2399.32 1953.92 2425.86 1987.24C2412.53 1988.33 2399.2 1989.43 2385.74 1990.53C2379.68 1967.31 2374.04 1940.71 2370.28 1911.23C2367.29 1887.96 2365.86 1866.32 2365.39 1846.5C2360.19 1844.46 2353.46 1841.17 2346.15 1836.02C2338.01 1830.18 2323.46 1818.07 2325.21 1815.07Z" fill="#6D6C6C"/>
<path d="M2172.6 1979.44C2163.6 1986.63 2162.83 1995.42 2156.01 2015.34C2151.26 2029.15 2143.93 2047.7 2131.89 2069.17C2140.78 2077.37 2155.36 2088.58 2175.82 2095.86C2203.84 2105.84 2241.97 2108.13 2246.68 2096.5C2251.68 2083.95 2216.25 2058.96 2205.64 2051.58C2207.7 2045.34 2211.05 2035.39 2215.2 2023.31C2226.21 1991.7 2228.55 1986.97 2225.71 1981.75C2219.08 1969.35 2188.96 1966.51 2172.6 1979.44Z" fill="#161616"/>
<path d="M2174.77 1595.02C2169.28 1616.72 2163.67 1638.44 2158.18 1660.01C2149.3 1697.56 2157.3 1722.12 2162.57 1733.76C2168.36 1746.63 2177.24 1757.27 2194.88 1778.42C2208.56 1794.72 2220.76 1807.71 2229.61 1816.68C2215.55 1834.64 2199.83 1857.63 2185.67 1885.98C2166.64 1924.3 2156.63 1959.53 2151.08 1986.87C2159.13 1991.83 2171.15 1997.91 2186.53 2001.87C2203.74 2006.27 2218.59 2006.18 2228.61 2005.29C2244.85 1989.94 2266.78 1966.31 2286.07 1932.96C2301.23 1906.95 2321.62 1871.95 2324.6 1825.51C2329.65 1746.45 2281.04 1687.42 2263.67 1666.37C2232.28 1628.16 2197.06 1606.61 2174.77 1595.02Z" fill="#27AE60" stroke="#161616" stroke-width="2" stroke-miterlimit="10"/>
<path opacity="0.2" d="M2241.29 1640.06C2235.67 1650.24 2228.14 1666.89 2226.3 1687.97C2220.61 1751.85 2274.11 1774.5 2268.4 1830.57C2265.37 1860.09 2250.02 1858.95 2222.4 1922.5C2208.39 1954.8 2200.21 1982.8 2195.6 2001.72C2187.11 2000.01 2177.77 1997.63 2167.83 1994.28C2162 1992.3 2156.55 1990.29 2151.59 1988.1C2156.7 1964.01 2165.13 1934.7 2179.05 1902.79C2194.86 1866.72 2213.32 1837.94 2229.2 1816.47C2223.62 1810.62 2215.29 1801.73 2205.58 1790.54C2178.77 1759.68 2165.13 1743.89 2159.23 1724.75C2152.61 1703.63 2154.42 1684.87 2155.7 1672.18C2157.6 1653.02 2162.57 1637.65 2166.75 1627.1C2191.51 1631.39 2216.41 1635.79 2241.29 1640.06Z" fill="#6D6C6C"/>
<path opacity="0.17" d="M2210.73 1635.34C2198.07 1653.15 2182.03 1681.94 2186.84 1714.26C2194.28 1764.9 2246.43 1779.22 2243.43 1821.69C2242.57 1833.44 2228.48 1853.57 2200.13 1893.48C2184.56 1915.43 2171.24 1933.06 2162.06 1944.88C2167.97 1924.8 2177.03 1900.56 2191.04 1874.54C2203.43 1851.5 2216.64 1832.73 2228.57 1817.81C2224.04 1812.25 2215.99 1802.3 2205.91 1789.99C2170.72 1747.16 2164.03 1740.54 2158.99 1724.9C2153.03 1706.54 2154.09 1690.41 2154.92 1678.41C2156.37 1656.09 2162.39 1638.44 2167.14 1627.19C2181.62 1629.83 2196.24 1632.57 2210.73 1635.34Z" fill="#6D6C6C"/>
<path d="M2184.25 1628.85L2184.24 1628.85C2177.83 1627.65 2171.52 1626.32 2165.33 1624.97C2162.09 1603.9 2157.08 1551 2184.31 1493.59C2205.86 1448.2 2237.4 1421.41 2254.3 1408.93C2259.18 1408.11 2270.27 1406.51 2283.12 1407.8C2296.19 1409.11 2310.98 1413.4 2322.92 1424.47L2322.92 1424.47C2330.54 1431.49 2334.12 1438.38 2341.18 1452.3L2341.18 1452.3C2347.5 1464.69 2353.52 1476.52 2357.06 1488.22C2360.58 1499.89 2361.6 1511.36 2357.95 1523.02L2357.95 1523.03C2356.19 1528.94 2350.38 1543.54 2330.69 1556.42L2330.37 1556.63L2330.27 1557C2325.79 1573.49 2321.51 1590.72 2317.57 1608.7L2317.57 1608.7C2315.02 1620.59 2312.68 1632.1 2310.57 1643.46C2270.76 1641.85 2228.4 1637.34 2184.25 1628.85Z" fill="#EC615B" stroke="black" stroke-width="2"/>
<path opacity="0.27" d="M2299.65 1433.72C2265.51 1441.79 2248.6 1459.39 2241.87 1467.51C2203.9 1513.52 2225.6 1582.44 2231.46 1601.07C2236.74 1617.84 2243.45 1631 2248.57 1639.83C2221.1 1635.31 2193.74 1630.65 2166.27 1626.13C2162.65 1606.89 2155.96 1557.2 2179.34 1501.14C2201.1 1449.21 2236.94 1420.08 2253.05 1408.45C2255.47 1408.33 2257.9 1408.34 2260.32 1408.23C2264.43 1412.17 2269.33 1416.29 2275.25 1420.43C2284.08 1426.71 2292.57 1430.85 2299.65 1433.72Z" fill="#6D6C6C"/>
<path opacity="0.2" d="M2191.98 1476.79C2190.32 1495.8 2190.14 1523.11 2197.18 1554.69C2205.55 1591.78 2220.53 1619.61 2231.76 1636.92C2209.4 1633.55 2186.91 1630.19 2164.56 1626.94C2161.77 1609.54 2159.62 1583.23 2164.92 1552.19C2170.71 1518.29 2182.97 1492.7 2191.98 1476.79Z" fill="#6D6C6C"/>
<path d="M3305.79 1787.4C3299.61 1806.09 3302.83 1822.68 3304.9 1830.42C3330.98 1838.93 3353.67 1841.75 3370.91 1842.57C3376.57 1842.89 3446.5 1845.68 3451.31 1826.1C3452.48 1821.24 3449.33 1816.69 3446.19 1812.26C3428.73 1787.76 3391.07 1790.04 3385.98 1790.42C3381.85 1763.55 3362.46 1745.26 3344.58 1745.66C3319.29 1746.3 3307.16 1783.29 3305.79 1787.4Z" fill="#161616"/>
<path d="M3294.54 1347.69C3313.42 1369.75 3339.34 1404.41 3360.39 1451.75C3394.7 1528.88 3397.18 1596.29 3398.1 1634.52C3398.99 1668.52 3397 1717.16 3383.46 1774.4C3378.6 1778.23 3357.05 1794.25 3327.4 1790.97C3309.79 1789.04 3297.21 1781.09 3291.12 1776.58C3299.1 1752.96 3308.08 1717.71 3308.47 1674.86C3308.99 1628.16 3299 1592.65 3285.93 1547.07C3256.3 1444.09 3226.03 1406.92 3245.75 1375.32C3255.2 1360.01 3273.19 1351.78 3294.54 1347.69Z" fill="#2F80ED" stroke="#161616" stroke-width="2" stroke-miterlimit="10"/>
<path opacity="0.16" d="M3309.41 1404.75C3322.28 1445.87 3334.01 1493.38 3342.09 1546.64C3356.27 1641.19 3354.31 1724.17 3347.46 1789.33C3341.84 1790.67 3328.12 1792.95 3312.67 1787.08C3303.48 1783.53 3296.93 1778.3 3293.1 1774.59C3305.24 1736.45 3307.79 1704.79 3307.95 1683.63C3308.17 1650.42 3302.59 1624.33 3292.15 1575.66C3286.07 1547.19 3280 1523.97 3275.71 1508.13C3286.96 1473.79 3298.18 1439.21 3309.41 1404.75Z" fill="#6D6C6C"/>
<path opacity="0.22" d="M3288.06 1470.74C3301.83 1498.05 3323.67 1550.56 3325.07 1620C3326.46 1686.88 3308.14 1738.59 3295.96 1766.22C3313.53 1691.91 3310.34 1647.76 3303.77 1620.88C3302.05 1614 3294.94 1586.78 3285.88 1546.57C3282.14 1529.9 3279.22 1516.23 3277.43 1507.44C3281.05 1495.15 3284.55 1482.88 3288.06 1470.74Z" fill="#6D6C6C"/>
<path d="M3116.85 1751.04C3106.86 1757.31 3104.55 1766.13 3092.89 1795.12C3085.11 1814.36 3078.48 1829.77 3074.11 1839.7C3091.51 1849.72 3118.79 1862.47 3153.95 1867.11C3174.72 1869.87 3217.6 1872.32 3221.25 1860.29C3225.27 1846.94 3178.94 1821.77 3159.48 1811.7C3176.39 1791.53 3174.59 1764.93 3160.54 1752.64C3148.6 1742.19 3129.01 1743.4 3116.85 1751.04Z" fill="#161616"/>
<path d="M3261.7 1348.33C3307.26 1381.01 3270.81 1509.01 3240.6 1611.51C3227.55 1655.76 3206.66 1720.03 3174.02 1796C3167.16 1797.72 3146.45 1801.87 3122.93 1792.08C3099.28 1782.3 3087.6 1764.39 3084.06 1758.46C3093.67 1737.11 3104.99 1708.54 3115.07 1674.08C3119.07 1660.47 3136.1 1599.8 3140.68 1516.03C3142.44 1482.92 3142.65 1439.46 3136.84 1388.4C3143.54 1380.03 3181.09 1334.84 3231.34 1339.23C3238.95 1339.87 3251.49 1341.03 3261.7 1348.33Z" fill="#2F80ED" stroke="#161616" stroke-width="2" stroke-miterlimit="10"/>
<path d="M3280.4 1397.7C3280.73 1402.15 3281.05 1406.6 3281.5 1411.04C3282.77 1410.91 3284.03 1410.78 3285.3 1410.66C3283.95 1403.62 3283.65 1396.86 3284.33 1389.74C3283.05 1389.74 3281.76 1389.61 3280.61 1389.6C3282.88 1404.49 3281.06 1420.57 3279.88 1435.55C3278.73 1450.66 3276.67 1465.74 3273.95 1480.62C3275.26 1480.88 3276.42 1481.01 3277.73 1481.27C3282.03 1454.17 3285.17 1427.07 3287.26 1399.69C3287.4 1397.24 3283.62 1396.6 3283.48 1399.05C3281.38 1426.3 3278.25 1453.53 3273.95 1480.62C3273.56 1483.1 3277.34 1483.74 3277.73 1481.27C3280.62 1465.59 3282.59 1449.63 3283.8 1433.75C3284.89 1419.28 3286.63 1403.6 3284.41 1389.22C3284.08 1387.2 3280.84 1386.89 3280.68 1389.08C3279.89 1396.47 3280.25 1403.74 3281.63 1411.03C3282.12 1413.41 3285.68 1413.18 3285.43 1410.64C3285.1 1406.19 3284.78 1401.74 3284.33 1397.3C3284.09 1394.89 3280.29 1395.27 3280.4 1397.7Z" fill="black"/>
<path opacity="0.19" d="M3210.45 1393.38C3213.41 1418.83 3215.54 1453.73 3212.14 1494.83C3208.49 1538.39 3199.68 1572.73 3186.98 1624.37C3176.67 1666.68 3170.94 1679.57 3160.82 1726.34C3154.61 1754.78 3150.61 1778.51 3148.13 1794.39C3141.07 1794.21 3126.32 1792.76 3110.78 1783.44C3096.34 1774.78 3088.29 1763.55 3084.61 1757.64C3103.78 1714.31 3114.97 1676.9 3121.71 1649.82C3142.54 1566.08 3142.27 1495.11 3141.82 1451.46C3141.64 1433.28 3141.01 1418.22 3140.4 1408.42C3163.7 1403.36 3187.14 1398.43 3210.45 1393.38Z" fill="#6D6C6C"/>
<path opacity="0.24" d="M3197.77 1398.38C3192.29 1442.89 3184.35 1478.29 3177.78 1503.18C3172.44 1523.71 3163.85 1551.49 3146.81 1606.91C3140.56 1627.41 3137.37 1637.6 3135.79 1642.25C3126.2 1671.41 3110.27 1712.62 3083.14 1762.02C3106.46 1707.88 3131.76 1631.51 3139.79 1537.65C3143.83 1490.34 3142.71 1447.65 3139.38 1410.95C3139.24 1410.84 3139.24 1410.84 3197.77 1398.38Z" fill="#6D6C6C"/>
<path d="M3139.76 1113.31C3160.24 1089.43 3191.06 1084.6 3205.65 1083.44C3208.25 1088.22 3212.53 1094.91 3219.56 1101.44L3219.56 1101.44L3219.79 1101.66C3224.95 1106.46 3231.74 1112.76 3241.06 1114.56C3250.28 1116.41 3258.82 1113.34 3265.24 1109.61C3270.94 1106.31 3275.06 1102.43 3276.68 1100.83C3294.04 1108.86 3311.39 1116.89 3328.63 1124.93C3332.2 1145.39 3335.38 1176.27 3331.01 1213.07C3329.02 1229.76 3326.4 1239.64 3323.9 1249.07C3323.76 1249.6 3323.62 1250.14 3323.48 1250.67C3320.85 1260.64 3318.4 1270.5 3317.05 1287.7C3314.98 1313.5 3316.8 1337.51 3318.85 1355.1C3319.63 1361.76 3320.44 1367.5 3321.09 1372.07C3321.29 1373.53 3321.48 1374.88 3321.65 1376.09C3321.82 1377.35 3321.97 1378.46 3322.08 1379.42C3321.89 1378.82 3321.68 1378.13 3321.45 1377.34L3321.2 1376.48L3320.31 1376.63L3223.17 1393.97L3127.04 1411.12C3121.27 1372.59 3118.22 1339.97 3116.53 1315.78L3116.53 1315.77C3113.69 1277.65 3112.08 1231.37 3119.33 1176.78L3119.33 1176.78C3124.45 1137.73 3130.21 1124.32 3139.75 1113.31L3139.76 1113.31Z" fill="#27AE60" stroke="black" stroke-width="2"/>
<path opacity="0.3" d="M3284.65 1103.41C3284.85 1126.85 3284.29 1161.76 3280.75 1203.9C3279.72 1216.56 3276.73 1251.46 3273.23 1268.73C3268.98 1289.93 3250.21 1351.16 3134.14 1411.1C3170.59 1403.05 3208.22 1395.4 3246.8 1388.28C3270.93 1383.79 3294.83 1379.58 3318.38 1375.78C3323.73 1345.12 3328.04 1310.6 3329.84 1272.74C3332.61 1215.43 3329.1 1164.27 3323.35 1121.41C3310.45 1115.41 3297.55 1109.41 3284.65 1103.41Z" fill="#3F3F3F"/>
<path d="M3221.6 996.642C3218.72 1020 3218.25 1043.12 3205.5 1074.01C3202.42 1081.5 3199.32 1087.58 3197.27 1091.38C3203.22 1097.05 3224.15 1115.31 3255.66 1116.73C3273.66 1117.47 3287.87 1112.44 3295.84 1108.95C3294.89 1100.84 3294.22 1091.68 3294.23 1081.68C3294.25 1066.69 3295.85 1053.45 3297.93 1042.35C3313.06 1038.77 3328.07 1035.33 3343.2 1031.74C3345.56 1024.71 3347.8 1017.69 3350.16 1010.66C3354.33 1010.11 3358.49 1009.56 3362.65 1008.88C3358.54 999.945 3352.26 985.972 3344.98 968.384C3331.14 935.441 3330.91 930.595 3324.56 923.548C3307.12 904.298 3271.29 894.343 3249.87 907.917C3231.58 919.382 3228 944.734 3221.6 996.642Z" fill="white" stroke="#161616" stroke-width="2" stroke-miterlimit="10"/>
<path d="M3362.1 1007.27C3354.64 1008.16 3347.11 1008.41 3339.52 1008.02C3337.07 1007.89 3336.43 1011.67 3338.88 1011.8C3346.72 1012.16 3354.64 1012 3362.49 1011.08C3365.02 1010.82 3364.64 1007.02 3362.1 1007.27Z" fill="#161616"/>
<path d="M3361.18 946.367C3354.22 943.356 3346.33 946.334 3342.64 952.859C3341.45 955.03 3344.94 956.599 3346.12 954.428C3348.84 949.667 3354.67 947.796 3359.62 949.858C3361.89 950.781 3363.45 947.291 3361.18 946.367Z" fill="#161616"/>
<path d="M3360.15 970.308C3360.62 967.313 3360.05 964.294 3358.38 961.645C3357.16 959.718 3354.66 957.793 3352.21 958.937C3349.66 960.222 3350.27 963.748 3350.88 965.992C3351.67 968.732 3353.44 970.988 3355.66 972.685C3356.9 973.585 3358.99 972.732 3358.81 970.956C3358.49 967.785 3357.42 964.818 3355.73 962.041C3354.5 959.988 3351.4 962.224 3352.63 964.278C3354 966.446 3354.75 968.804 3355.01 971.341C3356.1 970.718 3357.07 970.235 3358.16 969.612C3355.95 968.042 3354.43 965.633 3354.27 962.83C3354.37 962.563 3354.22 962.322 3353.97 962.348C3354.23 962.449 3354.51 962.677 3354.67 962.918C3355.24 963.501 3355.56 964.109 3355.89 964.845C3356.55 966.316 3356.7 967.838 3356.49 969.526C3355.98 972.14 3359.76 972.782 3360.15 970.308Z" fill="#161616"/>
<path d="M3323.44 955.443C3315.59 953.803 3307.79 957.669 3304.02 964.715C3302.83 966.886 3306.32 968.455 3307.51 966.284C3310.53 960.723 3316.65 957.925 3322.8 959.225C3325.14 959.628 3325.8 955.974 3323.44 955.443Z" fill="#161616"/>
<path d="M3327.68 977.057C3327.57 973.479 3325.62 968.166 3321.79 967.016C3316.79 965.601 3317.47 972.324 3318.4 975.177C3319.32 978.031 3322.13 983.001 3325.84 980.446C3327.27 979.404 3327.36 977.729 3326.69 976.132C3325.56 973.811 3323.92 971.543 3322.42 969.388C3321.48 970.251 3320.54 971.115 3319.61 971.979C3320.29 972.422 3320.6 972.904 3320.93 973.639C3321.81 975.985 3325.38 974.598 3324.5 972.252C3323.98 970.895 3323.23 969.818 3321.99 968.919C3320.19 967.563 3318.1 969.697 3319.18 971.51C3319.77 972.347 3320.26 973.323 3320.85 974.16C3321.31 974.882 3321.84 976.366 3322.53 976.809C3322.75 977.684 3323.13 977.646 3323.3 976.859C3323.02 976.631 3322.86 976.263 3322.69 975.895C3322.24 975.173 3321.89 974.311 3321.68 973.435C3321.33 972.573 3321.37 971.672 3321.17 970.924C3321.1 970.29 3321.1 970.29 3321.15 970.797C3321.57 971.139 3321.86 971.494 3322.16 971.849C3323.34 973.395 3323.77 975.146 3323.84 977.061C3323.88 980.004 3327.68 979.619 3327.68 977.057Z" fill="#161616"/>
<path d="M3331 931.483C3329.15 924.621 3325.35 913.601 3316.67 902.561C3313.59 898.645 3307.13 890.457 3297.4 885.419C3279.02 875.875 3252.62 879.445 3234.76 895.223C3217.25 910.708 3210.33 935.887 3216.97 959.691C3254.94 950.335 3293.04 940.966 3331 931.483Z" fill="#DB4842"/>
<path d="M3392.85 912.66C3334.17 926.163 3275.62 939.654 3216.94 953.158C3209.81 954.778 3210.97 966.194 3218.1 964.575C3276.78 951.071 3335.33 937.58 3394.01 924.076C3401.14 922.457 3400.11 911.027 3392.85 912.66Z" fill="#161616"/>
<path d="M3255.34 954.268C3266.24 957.008 3273.06 963.622 3280.9 971.542C3297.69 988.167 3293.94 995.34 3305.6 1005.56C3324.15 1021.88 3340.05 1009.51 3356.67 1025.64C3370.85 1039.32 3371.25 1059.66 3371.22 1064.4C3371.16 1068.89 3370.7 1087.14 3357.26 1101.06C3345.54 1113.01 3328.56 1117.29 3327.31 1114.99C3326.84 1114.14 3328.01 1111.84 3336.87 1104.53C3334.28 1106.72 3330.21 1109.56 3324.74 1111.14C3318.39 1112.94 3312.07 1112.43 3311.98 1111.54C3311.9 1110.78 3315.32 1110.43 3317.7 1107.37C3319.18 1105.56 3319.61 1103.46 3319.82 1101.77C3314.97 1105.73 3308.81 1109.3 3302.28 1108.04C3284.77 1104.56 3277.91 1067.19 3275.63 1054.73C3268.23 1014.6 3277.64 991.223 3262.14 978.44C3260.88 977.414 3254.59 972.157 3248.37 973.94C3240.54 976.271 3235.83 989.178 3239.18 997.04C3242.17 1003.79 3250.23 1005.02 3249.86 1006.34C3249.26 1008.07 3235.57 1006.89 3223.51 999.012C3219.12 996.125 3215.43 993.808 3213.29 989.154C3209.4 981.09 3211.98 971.09 3216.09 964.907C3224.79 952.236 3243.51 951.237 3255.34 954.268Z" fill="#161616" stroke="#161616" stroke-width="2" stroke-miterlimit="10"/>
<path opacity="0.22" d="M3244.92 1008.12C3247.48 1008.12 3251.04 1007.89 3251.2 1006.97C3251.29 1006.58 3250.34 1006.03 3250.34 1006.03C3250.32 1005.91 3253.76 1009.53 3257.49 1009.67C3259.29 1009.74 3260.87 1008.94 3261.71 1008.34C3256.36 1022.47 3250.99 1040.31 3247.61 1061.29C3244.36 1080.97 3243.7 1098.46 3244.01 1112.91C3237.91 1112.12 3229.02 1110.33 3219.05 1105.44C3208.96 1100.57 3201.94 1094.49 3197.65 1090.06C3205.2 1076.09 3209.11 1064.16 3211.36 1055.99C3212.93 1050.06 3213.32 1046.31 3216.71 1029.18C3219.15 1016.63 3221.05 1006.31 3222.39 999.381C3223.5 1000.17 3225.29 1001.4 3227.59 1002.7C3230.6 1004.57 3236.97 1008.03 3244.92 1008.12Z" fill="#6D6C6C"/>
<path d="M3275.03 880.764C3259.88 885.375 3249.6 898.847 3249.31 913.741C3249.04 931.325 3262.92 941.966 3264.29 942.852C3248.03 946.55 3231.88 950.236 3215.61 953.934C3214.98 950.154 3214.32 944.966 3214.72 938.774C3215.92 919.045 3226.11 905.84 3228.13 903.072C3231.53 898.754 3243.8 884.569 3263.7 881.399C3268.35 880.544 3272.32 880.527 3275.03 880.764Z" fill="#EC615B"/>
<path d="M3325.59 1123.36C3335.58 1120.81 3347.76 1137.39 3353.39 1145.02C3386.08 1189.64 3379.97 1245.62 3378.04 1261.96C3376.52 1274.8 3373.58 1297.53 3359.83 1323.65C3346.76 1348.81 3329.99 1365.25 3319.14 1374.42C3300.38 1383.88 3265.94 1397.75 3222.53 1395.1C3207.46 1394.19 3194.12 1391.44 3182.91 1388.22C3164.78 1391.21 3146.63 1394.07 3128.5 1397.06C3125.53 1396.85 3121.4 1396.5 3116.4 1395.21C3110.36 1393.64 3104.56 1392.05 3104.36 1390.02C3104.12 1387.74 3110.1 1383.55 3140.53 1375.59C3139.04 1376 3119.16 1381.99 3104.16 1369.15C3090.15 1357.25 3087.11 1334.74 3095.84 1324.89C3103.19 1316.58 3116.71 1318.55 3141.44 1322.58C3165.91 1326.51 3185.92 1333.19 3200.6 1339.14C3206.17 1341.01 3249.42 1354.7 3285.1 1329.04C3312.31 1309.5 3318.92 1278.71 3320.37 1270.24C3326.18 1236.59 3308.41 1226.72 3309.57 1178.81C3309.51 1170.61 3310.61 1127.06 3325.59 1123.36Z" fill="white" stroke="#161616" stroke-width="2" stroke-miterlimit="10"/>
<path d="M3093.89 1353.66C3108.7 1353.32 3123.13 1355.44 3137.18 1360.17C3139.44 1360.97 3141.13 1357.47 3138.75 1356.68C3124.02 1351.64 3108.94 1349.32 3093.49 1349.73C3091.08 1349.98 3091.47 1353.78 3093.89 1353.66Z" fill="#161616"/>
<path d="M3091.43 1338.28C3108.24 1336.06 3123.6 1344.89 3139.8 1348.12C3142.16 1348.65 3142.8 1344.87 3140.44 1344.34C3123.97 1341.01 3108.36 1332.21 3091.05 1334.47C3088.65 1334.84 3088.91 1338.66 3091.43 1338.28Z" fill="#161616"/>
<path d="M3106.29 1323.19C3120.22 1322.93 3133.06 1328.3 3145.65 1333.81C3147.92 1334.74 3149.5 1331.37 3147.22 1330.32C3133.96 1324.62 3120.61 1319.18 3105.91 1319.38C3103.35 1319.39 3103.73 1323.19 3106.29 1323.19Z" fill="#161616"/>
<path opacity="0.18" d="M3312.5 1148.27C3308.07 1179.09 3330.02 1197.37 3340.22 1231.06C3341.97 1237.04 3355.97 1285.47 3333.15 1323.15C3307.71 1365.2 3249.56 1372.5 3238.19 1374.03C3208.49 1377.81 3196.32 1370.2 3149.93 1377.33C3145.52 1378.04 3105.2 1384.43 3105.4 1390.17C3105.58 1393.23 3117.2 1395.51 3125.81 1395.8C3137.12 1396.19 3142.69 1393.06 3156.77 1390.48C3162.8 1389.36 3171.5 1388.09 3182.36 1387.89C3195.83 1391.91 3213.09 1395.42 3233.31 1395.42C3238.81 1395.37 3255.95 1395.17 3277.43 1389.8C3277.43 1389.8 3295.42 1385.41 3309.35 1378.87C3343.96 1362.81 3374.13 1306.83 3378.36 1248.73C3383.13 1183.28 3353.13 1137.36 3337.97 1128C3335.92 1126.67 3330.04 1123.04 3324.48 1125.01C3315.44 1127.98 3313.16 1143.46 3312.5 1148.27Z" fill="#6D6C6C"/>
<path opacity="0.17" d="M3369.84 1181.03C3367.82 1181.24 3370.27 1205.47 3367.78 1236.48C3366.23 1255.34 3363.08 1293.72 3348.88 1321.69C3323.59 1371.54 3263.32 1388.28 3240.28 1393.43C3260.59 1394.19 3291.45 1391.71 3319.86 1372.68C3381.48 1331.33 3379.33 1246.84 3378.92 1231.5C3378.1 1205.7 3371.87 1180.83 3369.84 1181.03Z" fill="#6D6C6C"/>
<path d="M2324.16 1771.86C2371.9 1719.87 2419.92 1668.1 2468.22 1616.69C2559.29 1519.68 2651.35 1423.73 2744.53 1328.69C2734.14 1305.77 2719.72 1265.71 2720.74 1215.12C2721.03 1199.07 2725.42 1080.6 2826.26 1009.39C2834.62 1003.41 2950.69 924.506 3073.18 986.172C3153.99 1026.81 3202.2 1111 3201.68 1198.06C3200.95 1327.44 3093.15 1395.64 3086.88 1399.48C3008.97 1446.84 2909.33 1445.27 2830.17 1395.62C2729.12 1497.61 2628.33 1599.71 2527.7 1702.04C2483.59 1746.87 2439.6 1791.7 2395.63 1836.65C2385.13 1832.84 2367.56 1824.88 2350.82 1808.76C2336.78 1795.32 2328.7 1781.27 2324.16 1771.86Z" fill="#161616"/>
<path d="M2982.7 1393.5C3093.7 1382.26 3174.95 1286.82 3164.16 1180.33C3153.38 1073.85 3054.65 996.636 2943.64 1007.88C2832.64 1019.12 2751.39 1114.56 2762.18 1221.05C2772.96 1327.53 2871.69 1404.75 2982.7 1393.5Z" fill="#FFD028" fill-opacity="0.96" stroke="#161616" stroke-width="2" stroke-miterlimit="10"/>
<path d="M2961.07 1016.88C2932.21 1098.49 2901.36 1179.53 2868.65 1259.73C2859.41 1282.32 2850.05 1304.93 2840.55 1327.42C2839.63 1329.69 2843.12 1331.26 2844.04 1328.99C2877.82 1249.19 2909.74 1168.68 2939.66 1087.35C2948.09 1064.45 2956.39 1041.44 2964.67 1018.31C2965.48 1016.17 2961.99 1014.61 2961.07 1016.88Z" fill="#E8E8E8"/>
<path d="M3024.95 1029.5C2991.1 1097.26 2959.4 1165.96 2929.71 1235.6C2928.78 1237.88 2932.27 1239.45 2933.19 1237.17C2962.88 1167.53 2994.59 1098.83 3028.44 1031.07C3029.5 1028.91 3026.01 1027.34 3024.95 1029.5Z" fill="#E8E8E8"/>
<path d="M2925.25 1258.61C2911.82 1292.91 2897.2 1326.81 2881.24 1360.08C2880.19 1362.36 2883.68 1363.93 2884.73 1361.65C2900.57 1328.39 2915.31 1294.47 2928.74 1260.18C2929.66 1257.91 2926.16 1256.21 2925.25 1258.61Z" fill="#E8E8E8"/>
<path d="M2985.95 1156.35C2968.72 1198.59 2951.61 1240.82 2934.38 1283.06C2933.46 1285.33 2936.95 1286.9 2937.87 1284.63C2955.1 1242.39 2972.21 1200.16 2989.44 1157.92C2990.36 1155.65 2986.87 1154.08 2985.95 1156.35Z" fill="#E8E8E8"/>
<path opacity="0.08" d="M2937.62 1007.85C2924.07 1014.35 2834.95 1058.48 2814.73 1154.6C2812.4 1165.73 2805.27 1201.56 2817.33 1240.96C2840.42 1316.03 2923.25 1370.31 3025.47 1380.97C3018.12 1384.28 3007.79 1388.4 2994.77 1391.38C2916.2 1409.46 2848.99 1361.42 2841.11 1355.69C2823.94 1342.94 2770.47 1299.15 2761.77 1222.11C2760.97 1215.4 2753.64 1139.25 2805.74 1078.49C2836.08 1043.12 2874.19 1027.47 2890.19 1021.11C2908.9 1013.7 2925.54 1009.97 2937.62 1007.85Z" fill="#6D6C6C"/>
<path d="M2235.64 1474.29C2244.65 1472.22 2258.33 1470.71 2269.16 1477.82C2292.48 1493.14 2279.73 1532.88 2294.45 1572.01C2302.34 1593 2320.36 1620.52 2367.12 1644.87C2385.37 1651.87 2400.49 1657 2410.96 1660.55C2425.93 1665.57 2435.43 1668.32 2435.81 1673.28C2436.18 1678.24 2427.55 1682.83 2421.31 1685.65C2429.77 1692.09 2434.63 1700.83 2432.67 1708.07C2431.2 1713.73 2425.89 1716.96 2419.99 1720.64C2413.25 1724.91 2407.37 1726.27 2400.62 1727.85C2387.99 1730.8 2381.73 1732.2 2375.65 1730.38C2366.27 1727.49 2361.37 1719.53 2354.19 1708.08C2350.23 1701.82 2345.13 1691.95 2341.63 1678.85C2326.64 1673.7 2304.95 1664.37 2282.61 1647.28C2273.87 1640.6 2192.67 1577.06 2209.77 1513.31C2212.44 1504.32 2218.5 1489.61 2235.64 1474.29Z" fill="white" stroke="#161616" stroke-width="2" stroke-miterlimit="10"/>
<path d="M2374.44 1714.61C2378.31 1721.27 2383.72 1726.62 2390.41 1730.68C2392.46 1732.01 2394.03 1728.52 2391.97 1727.19C2385.97 1723.57 2381.1 1718.42 2377.54 1712.38C2376.31 1710.32 2373.21 1712.56 2374.44 1714.61Z" fill="#161616"/>
<path d="M2389.44 1711.04C2393.99 1718.02 2400.31 1723.53 2407.74 1727.39C2409.9 1728.45 2411.46 1724.96 2409.31 1723.9C2402.43 1720.49 2396.66 1715.31 2392.42 1708.82C2391.18 1706.77 2388.08 1709 2389.44 1711.04Z" fill="#161616"/>
<path d="M2404.54 1700.8C2408.84 1707.92 2415.53 1713.27 2423.37 1716.07C2425.62 1716.86 2427.32 1713.36 2424.93 1712.57C2417.63 1709.98 2411.64 1705.21 2407.64 1698.56C2406.27 1696.4 2403.29 1698.62 2404.54 1700.8Z" fill="#161616"/>
<path opacity="0.2" d="M2238.84 1474.22C2237.32 1487.06 2236.28 1507.16 2241.36 1530.74C2254.45 1590.41 2297.51 1626.29 2304.63 1632.11C2340.06 1660.81 2360.66 1654.37 2376.35 1681.61C2380.54 1688.88 2388.37 1705.51 2405.76 1712.85C2412.57 1715.62 2418.78 1716.27 2422.88 1716.37C2420.91 1718.36 2417.6 1721.13 2413.12 1723.64C2405.61 1727.86 2398.78 1728.68 2388.02 1729.9C2380.05 1730.83 2376 1731.24 2372.28 1729.95C2364.46 1727.29 2360.19 1720.54 2358.43 1717.13C2351.98 1703.94 2345.65 1690.75 2339.19 1677.56C2313.19 1667.38 2275.93 1648.34 2244.39 1612.45C2231.22 1597.51 2209.16 1571.8 2207.44 1538.4C2206.67 1523.23 2210.42 1512.21 2211.31 1509.56C2218.41 1490 2232.39 1478.85 2238.84 1474.22Z" fill="#6D6C6C"/>
<path opacity="0.32" d="M2209.87 1545.97C2210.61 1545.64 2216.96 1560.38 2228.27 1577.17C2255.9 1618.71 2292.08 1642.22 2317.94 1658.57C2329.7 1665.96 2339.59 1671.37 2345.82 1674.71C2354.12 1685.91 2359.22 1695.78 2362.38 1703.02C2365.04 1709.03 2366.75 1714.5 2372.03 1719.86C2377.48 1725.71 2384.05 1728.63 2388.82 1730.2C2385.41 1730.67 2380.19 1730.95 2374.48 1728.96C2363.6 1725.19 2358.03 1715.63 2352.13 1705.47C2348.73 1699.66 2344.51 1690.86 2341.54 1679.24C2272 1652.45 2242.88 1612.73 2231.47 1593.64C2219.76 1574.06 2208.91 1546.58 2209.87 1545.97Z" fill="#6D6C6C"/>
<path d="M2296.15 1351.16C2287.51 1355.62 2294.63 1372.84 2281.82 1390.42C2275.53 1399.13 2267.3 1403.8 2261.56 1406.56C2265.94 1411.89 2274.35 1420.39 2287.39 1426.5C2296.68 1430.94 2305.3 1432.63 2311.24 1433.19C2312.8 1429.57 2315.42 1423.92 2318.71 1417.18C2330.53 1393.56 2335.35 1390.63 2335.37 1383.2C2335.45 1364.99 2307.22 1345.42 2296.15 1351.16Z" fill="white" stroke="#161616" stroke-width="2" stroke-miterlimit="10"/>
<path d="M2297.97 1385.58C2304.22 1395.45 2310.71 1405.17 2320.14 1412.29C2322.08 1413.76 2324.47 1410.83 2322.53 1409.36C2313.38 1402.47 2307.16 1392.85 2301.07 1383.34C2299.71 1381.3 2296.61 1383.54 2297.97 1385.58Z" fill="#161616"/>
<path d="M2293.47 1379.11C2300.46 1389.94 2307.94 1400.59 2319.8 1406.43C2321.81 1407.38 2323.46 1404.65 2321.77 1403.16C2317.7 1399.6 2313.5 1396.05 2309.55 1392.48C2308.75 1393.45 2307.96 1394.43 2307.16 1395.41C2309.54 1397.48 2312.04 1399.4 2314.76 1400.92C2315.71 1401.46 2318.63 1402.45 2319.21 1403.16C2320.1 1404.35 2319.54 1406.46 2319.29 1407.77C2320.6 1408.02 2321.76 1408.16 2323.07 1408.41C2323.13 1407.76 2323.07 1407.13 2323.14 1406.61C2323.23 1404.93 2321.02 1403.36 2319.78 1405.02C2319.64 1403.63 2319.12 1402.27 2318.12 1401.22C2317.04 1401.97 2316.09 1402.71 2315.02 1403.46C2316.6 1405.22 2318.19 1406.98 2319.78 1408.74C2320.71 1407.88 2321.65 1407.01 2322.59 1406.15C2321.32 1405 2320.3 1403.82 2319.27 1402.51C2317.97 1400.98 2314.9 1402.32 2316.01 1404.38C2316.93 1405.95 2317.25 1406.56 2318.53 1407.84C2320.25 1409.59 2322.64 1406.66 2320.92 1404.91C2320.48 1404.31 2320.04 1403.72 2319.58 1403C2318.49 1403.62 2317.4 1404.24 2316.31 1404.86C2317.62 1406.4 2318.91 1407.8 2320.33 1409.2C2321.9 1410.71 2324.59 1408.25 2323.14 1406.61C2321.56 1404.84 2319.97 1403.08 2318.38 1401.32C2316.78 1399.43 2314.05 1401.5 2315.28 1403.56C2316.81 1405.97 2319.94 1411.67 2322.98 1407.52C2321.9 1406.99 2320.7 1406.47 2319.62 1405.94C2319.56 1406.59 2319.62 1407.22 2319.55 1407.74C2319.41 1410.19 2322.93 1410.86 2323.32 1408.38C2323.9 1405.25 2325.92 1403.63 2323.07 1400.85C2321.79 1399.57 2319.83 1399.13 2318.34 1398.38C2315.23 1396.77 2312.47 1394.74 2309.8 1392.45C2307.98 1390.84 2305.59 1393.78 2307.41 1395.38C2311.49 1398.94 2315.56 1402.5 2319.63 1406.07C2320.29 1404.97 2320.95 1403.88 2321.61 1402.79C2310.42 1397.26 2303.48 1386.94 2296.82 1376.72C2295.2 1374.71 2292.11 1377.07 2293.47 1379.11Z" fill="#161616"/>
<path d="M2409.33 1305.74C2407.94 1317.28 2404.44 1334.55 2394.28 1353.01C2376.44 1385.45 2349.35 1401.13 2337.66 1407.06C2330.42 1405.1 2320.82 1401.33 2311.39 1394.21C2285.6 1374.65 2280.78 1344.77 2279.74 1337.06C2277.14 1336.68 2273.33 1335.66 2269.85 1332.93C2260.94 1325.89 2257.46 1310.48 2264.28 1303.25C2272.03 1295.04 2289.16 1302.4 2291.03 1303.11C2295.17 1304.87 2298.23 1307.25 2300.21 1309.1C2305.05 1287.34 2320.17 1269.79 2339.73 1264.47C2366.4 1257.29 2398.06 1274.07 2409.33 1305.74Z" fill="white" stroke="#161616" stroke-width="2" stroke-miterlimit="10"/>
<path d="M2381.74 1339.16C2377.82 1351.09 2371.34 1361.61 2362.51 1370.58C2360.77 1372.3 2363.7 1374.69 2365.44 1372.98C2374.63 1363.84 2381.22 1353.05 2385.22 1340.73C2386.01 1338.34 2382.52 1336.77 2381.74 1339.16Z" fill="#161616"/>
<path d="M2356.84 1362.57C2356.77 1366.93 2358.71 1370.97 2361.95 1373.84C2363.77 1375.45 2366.17 1372.52 2364.34 1370.91C2361.8 1368.6 2360.61 1365.65 2360.64 1362.19C2360.65 1359.75 2356.85 1360.13 2356.84 1362.57Z" fill="#161616"/>
<path d="M2346.91 1341.66C2349.74 1336.76 2353.26 1332.3 2357.32 1328.18C2356.24 1327.64 2355.04 1327.13 2353.96 1326.59C2352.83 1331.84 2349.69 1336.25 2345.26 1339.27C2346.12 1340.2 2346.99 1341.14 2347.85 1342.08C2350.4 1338.23 2352.97 1334.51 2355.53 1330.67C2356.85 1328.61 2353.92 1326.21 2352.6 1328.27C2350.04 1332.12 2347.47 1335.84 2344.92 1339.68C2343.69 1341.48 2345.71 1343.71 2347.51 1342.5C2352.77 1338.89 2356.33 1333.53 2357.75 1327.36C2358.18 1325.27 2355.68 1324.63 2354.39 1325.78C2350.09 1330.06 2346.47 1334.79 2343.55 1340.08C2342.23 1342.26 2345.72 1343.83 2346.91 1341.66Z" fill="#161616"/>
<path d="M2390.11 1348.56C2391.48 1345.61 2393.39 1342.98 2395.58 1340.58C2394.5 1340.05 2393.3 1339.53 2392.22 1339C2391.46 1342.92 2389.53 1346.57 2386.48 1349.32C2387.44 1349.99 2388.52 1350.52 2389.48 1351.19C2390.04 1349.08 2390.99 1347.07 2392.21 1345.28C2393.54 1343.22 2390.61 1340.82 2389.28 1342.88C2387.74 1345.34 2386.58 1347.77 2385.83 1350.53C2385.35 1352.12 2387.67 1353.55 2388.84 1352.41C2392.59 1348.95 2395.1 1344.73 2396.01 1339.76C2396.45 1337.8 2393.93 1336.9 2392.65 1338.18C2390.22 1340.74 2388.22 1343.76 2386.63 1346.99C2385.44 1349.17 2388.93 1350.73 2390.11 1348.56Z" fill="#161616"/>
<path d="M2332.91 1333.6C2335.26 1337.84 2336.73 1342.31 2337.21 1347C2337.34 1348.27 2339.24 1348.08 2339.11 1346.81C2338.6 1341.73 2336.95 1336.9 2334.45 1332.41C2333.83 1331.32 2332.28 1332.51 2332.91 1333.6Z" fill="#161616"/>
<path d="M2327.25 1330.84C2328.72 1332.74 2329.82 1334.68 2330.79 1336.76C2331.29 1337.86 2333.01 1337.17 2332.52 1336.07C2331.51 1333.74 2330.28 1331.68 2328.79 1329.66C2328.06 1328.71 2326.51 1329.89 2327.25 1330.84Z" fill="#161616"/>
<path d="M2355.47 1317.47C2360.02 1315.6 2364.77 1318.32 2365.4 1323.26C2365.58 1325.03 2368.51 1324.86 2368.32 1322.96C2367.38 1316.26 2360.84 1312.31 2354.43 1314.76C2352.7 1315.44 2353.75 1318.16 2355.47 1317.47Z" fill="#161616"/>
<path d="M2391.32 1332.68C2393.22 1331.2 2395.62 1330.83 2397.9 1331.88C2399.52 1332.74 2400.79 1330.05 2399.05 1329.33C2395.95 1327.85 2392.28 1328.22 2389.68 1330.41C2388.27 1331.58 2389.9 1333.85 2391.32 1332.68Z" fill="#161616"/>
<path d="M2332.78 1371.54C2336.37 1376.69 2341.97 1380.09 2348.22 1381.13C2350.69 1381.52 2351.33 1377.74 2348.86 1377.35C2343.52 1376.48 2339.02 1373.73 2335.88 1369.31C2334.4 1367.28 2331.29 1369.51 2332.78 1371.54Z" fill="#161616"/>
<path d="M2300.6 1314.19C2302.9 1309.08 2308.57 1298.13 2320.78 1289.72C2329.15 1283.87 2337.37 1281.63 2342.39 1280.61C2345.55 1284 2350.6 1288.36 2357.63 1290.73C2374.2 1296.35 2386.04 1285.54 2396.06 1290.93C2401.33 1293.73 2407.08 1301.22 2407.39 1323.23C2416.63 1331.01 2422.26 1330.95 2425.24 1330.01C2437.65 1326.19 2443.88 1296.73 2433.79 1276.73C2430.76 1270.76 2427.23 1267.53 2398.19 1248.81C2357.24 1222.46 2352.37 1221.16 2347.32 1220.52C2320.59 1217.07 2298.86 1232.6 2295.17 1235.28C2290.39 1238.71 2289.39 1240.22 2263.47 1273.73C2243.31 1299.74 2241.38 1302.11 2239.94 1308.15C2236.11 1323.41 2239.28 1344.62 2254.42 1358.85C2268.7 1372.14 2286.15 1372.55 2290.64 1372.61C2288.3 1368.49 2285.66 1362.6 2283.89 1355.22C2281.64 1345.71 2282.1 1337.59 2282.71 1332.27C2281.76 1331.73 2276.27 1328.06 2275.17 1320.99C2274.39 1315.81 2276.13 1308.97 2281.49 1306.25C2287.45 1303.21 2296.32 1306.03 2300.6 1314.19Z" fill="#232323"/>
<path d="M2288.69 1250.93C2282.45 1241.18 2267.09 1241.2 2264.4 1241.22C2243.02 1241.2 2227.95 1261.82 2219.06 1273.87C2203.31 1295.33 2208.97 1300.66 2194.13 1326.12C2174.51 1359.89 2157.54 1363.02 2156.19 1385.07C2156.11 1386.74 2155.15 1408.88 2170.93 1420.61C2184.51 1430.77 2204.54 1428.87 2217.03 1420.69C2233.96 1409.62 2230.55 1391.12 2240.3 1358.48C2259.45 1294.77 2300.7 1269.71 2288.69 1250.93Z" fill="#232323"/>
<path opacity="0.12" d="M2313.77 1295.04C2310.74 1305.6 2307.55 1322.2 2309.85 1342.34C2313.49 1374.52 2329.06 1396.78 2336.68 1406.26C2329.15 1403.95 2316.45 1398.7 2304.65 1387.08C2299.82 1382.31 2288.43 1371.04 2283.86 1352.4C2281.73 1344.03 2281.77 1336.85 2282.04 1331.96C2281.22 1331.4 2275.54 1327.23 2275.05 1319.85C2274.69 1315.02 2276.57 1308.29 2281.83 1305.83C2287.69 1303.06 2296.45 1306.15 2300.61 1314.31C2301.62 1311.65 2303.07 1308.3 2305.4 1304.73C2308.3 1300.46 2311.31 1297.34 2313.77 1295.04Z" fill="#6D6C6C"/>
<path opacity="0.13" d="M2300.87 1390.15C2300.08 1392.54 2299.17 1394.94 2298.01 1397.36C2292.75 1408.66 2285.24 1416.6 2279.21 1421.56C2276.79 1420.4 2273.53 1418.55 2270.15 1415.56C2266.5 1412.34 2264.11 1409 2262.71 1406.58C2267.5 1404.55 2279.32 1398.61 2286.44 1385.46C2288.9 1380.73 2290.24 1376.24 2290.89 1372.58C2294.18 1378.53 2297.46 1384.35 2300.87 1390.15Z" fill="#6D6C6C"/>
<path opacity="0.18" d="M2283.47 1329.63C2284.99 1338.32 2287.79 1349.57 2293.4 1361.95C2301.12 1378.72 2311.03 1390.66 2318.44 1398.11C2311.31 1393.45 2302.65 1386.26 2295.18 1375.73C2290.24 1368.67 2282.94 1358.52 2282.21 1343.73C2281.88 1338 2282.66 1333.05 2283.47 1329.63Z" fill="#6D6C6C"/>
<path opacity="0.32" d="M2293.84 1238.62C2289.04 1244.36 2259.23 1281.21 2268.61 1328.32C2272.57 1348.42 2282.24 1362.95 2288.98 1371.37C2284.9 1371.52 2276.95 1371.43 2267.96 1367.34C2258.97 1363.26 2253.49 1357.27 2251.01 1354.19C2249.09 1351.7 2246.62 1347.59 2244.8 1342.26C2244.8 1342.26 2241.44 1331.84 2244.29 1318.22C2247.26 1303.31 2264.43 1273.12 2293.84 1238.62Z" fill="#111111"/>
<path opacity="0.33" d="M2227.36 1266.11C2230.47 1267.72 2217.81 1303.22 2203.06 1334.57C2189.77 1362.7 2182.66 1370.85 2183.17 1387.21C2183.73 1404.19 2192.3 1417.94 2199.62 1427.06C2196.48 1427.64 2184.6 1429.22 2173.38 1422.03C2167.21 1418.04 2163.63 1413.02 2161.9 1409.86C2157.96 1401.29 2153.99 1388.62 2158.08 1375.91C2160.79 1367.3 2164.91 1366.24 2176.63 1351.73C2186.98 1338.89 2197.21 1326.19 2203.84 1308.22C2207.27 1299.03 2208.15 1292.54 2214.49 1281.9C2218.64 1274.81 2225.6 1265.14 2227.36 1266.11Z" fill="#111111"/>
<path d="M2004.34 1600.94C2003.09 1598.57 2001.79 1595.78 2002.7 1593.03C2003.48 1590.67 2004.83 1588.79 2005.88 1586.57C2007.87 1582.34 2009.22 1577.65 2010.88 1573.28C2012.52 1568.95 2013.9 1564.41 2015.32 1559.97C2016.32 1556.86 2017.62 1553.68 2018.33 1550.51" stroke="#27AE60" stroke-linecap="round" stroke-linejoin="round"/>
<path d="M1996.82 1608.76C1994.79 1607.1 1991.75 1604.84 1990.4 1602.56C1989.46 1600.96 1988.41 1599.31 1987.2 1597.89C1984.64 1594.89 1983.09 1590.73 1979.81 1588.44C1978.44 1587.49 1977.43 1586.15 1976.15 1585.1C1974.8 1584 1973.08 1583.29 1971.7 1582.23C1969.61 1580.61 1965.45 1580.4 1963.85 1578.45" stroke="#27AE60" stroke-linecap="round" stroke-linejoin="round"/>
</g>
<rect width="3733" height="2160" fill="url(#paint3_radial)" fill-opacity="0.56"/>
</g>
<defs>
<linearGradient id="paint0_linear" x1="81.6594" y1="140" x2="3692.62" y2="2019.07" gradientUnits="userSpaceOnUse">
<stop stop-color="#0F2027"/>
<stop offset="0.567708" stop-color="#203A43"/>
<stop offset="1" stop-color="#2C5364"/>
</linearGradient>
<linearGradient id="paint1_linear" x1="81.6594" y1="140" x2="3692.62" y2="2019.07" gradientUnits="userSpaceOnUse">
<stop stop-color="#0F2027"/>
<stop offset="0.567708" stop-color="#203A43"/>
<stop offset="1" stop-color="#2C5364"/>
</linearGradient>
<linearGradient id="paint2_linear" x1="3777.8" y1="1698.68" x2="1362.99" y2="2034.72" gradientUnits="userSpaceOnUse">
<stop stop-color="#2C5364"/>
<stop offset="1" stop-color="#203A43"/>
</linearGradient>
<radialGradient id="paint3_radial" cx="0" cy="0" r="1" gradientUnits="userSpaceOnUse" gradientTransform="translate(2872.66 1266.83) rotate(-153.04) scale(859.442 842.877)">
<stop stop-opacity="0"/>
<stop offset="1"/>
</radialGradient>
<clipPath id="clip0">
<rect width="3733" height="2160" fill="white"/>
</clipPath>
<clipPath id="clip1">
<rect width="2038.02" height="1720.11" fill="white" transform="translate(1656.03 586.576) rotate(-5.78312)"/>
</clipPath>
</defs>
</svg>
