<svg width="414" height="896" viewBox="0 0 414 896" fill="none" xmlns="http://www.w3.org/2000/svg">
<g clip-path="url(#clip0)">
<rect width="414" height="896" fill="white"/>
<g clip-path="url(#clip1)">
<rect width="896" height="414" transform="translate(414) rotate(90)" fill="url(#paint0_linear)"/>
</g>
<mask id="mask0" mask-type="alpha" maskUnits="userSpaceOnUse" x="-91" y="447" width="578" height="432">
<path d="M485.979 878.216H-90C-85.6116 733.974 -8.81435 657.74 46.5894 645.126C101.993 632.512 112.964 603.444 124.484 577.667C137.474 548.599 140.94 528.307 168.916 497.594C196.893 466.881 226.514 452.073 287.404 448.234C348.293 444.394 423.993 488.819 485.979 510.757C483.552 508.341 485.979 878.216 485.979 878.216Z" fill="black" stroke="black"/>
</mask>
<g mask="url(#mask0)">
<rect x="-161.703" y="392.336" width="707.591" height="508.051" fill="url(#paint1_linear)"/>
<path d="M485.979 878.215H-45.6576C-41.607 735.714 29.2779 660.399 80.4163 647.937C131.555 635.475 141.681 606.758 152.314 581.292C164.304 552.575 167.504 532.528 193.326 502.185C219.148 471.842 246.49 457.213 302.691 453.42C358.893 449.627 428.765 493.515 485.979 515.189C483.739 512.802 485.979 878.215 485.979 878.215Z" fill="black" fill-opacity="0.05" style="mix-blend-mode:darken"/>
<path d="M485.979 878.216H-90C-85.6116 733.974 -8.81435 657.74 46.5894 645.126C101.993 632.512 112.964 603.444 124.484 577.667C137.474 548.599 140.94 528.307 168.916 497.594C196.893 466.881 226.514 452.073 287.404 448.234C348.293 444.394 423.993 488.819 485.979 510.757C483.552 508.341 485.979 878.216 485.979 878.216Z" fill="white" fill-opacity="0.05" style="mix-blend-mode:lighten"/>
</g>
<g clip-path="url(#clip2)">
<path d="M74.1202 855.229C69.7197 852.315 65.1563 849.568 61.0194 846.298C59.098 844.783 57.2802 843.107 55.8209 841.125C55.06 840.122 54.4089 839.019 53.903 837.87C53.4775 836.923 52.9978 835.442 54.4066 835.149C54.9345 835.036 55.5101 835.098 56.0293 835.195C56.608 835.286 56.758 834.401 56.1794 834.31C54.4466 834.066 52.0264 834.431 52.5339 836.779C53.1308 839.418 55.1575 841.972 56.9667 843.859C61.6606 848.782 67.9396 852.196 73.5604 855.916C74.0414 856.227 74.6012 855.54 74.1202 855.229Z" fill="#E8E8E8"/>
<path d="M56.3428 834.444C54.4149 832.569 52.8396 830.329 51.8068 827.824C51.3336 826.702 51.065 825.53 50.5948 824.437C50.2853 823.749 49.7742 823.141 50.3636 822.451C50.6332 822.154 51.0601 821.931 51.3623 821.66C52.3016 820.875 52.784 820.016 51.451 819.282C50.691 818.879 49.7922 818.88 48.9819 818.572C47.8866 818.113 46.9925 817.274 46.3 816.354C44.8498 814.461 43.927 812.155 42.9599 810.003C41.8024 807.451 40.6686 804.836 39.6268 802.242C37.5371 796.995 35.7083 791.661 34.1139 786.273C34.0429 786.46 33.9423 786.651 33.8714 786.838C39.2614 784.432 45.2862 788.591 49.6007 791.544C54.0428 794.573 58.1208 798.15 61.787 802.097C69.363 810.329 75.0603 820.13 79.0527 830.554C81.4969 836.935 83.3067 843.561 84.6152 850.267C84.7316 850.825 85.6215 850.735 85.505 850.177C80.9732 827.03 69.9747 804.238 49.9941 790.694C45.4273 787.617 39.2541 783.473 33.5765 785.998C33.3483 786.111 33.2507 786.331 33.334 786.562C35.0269 792.33 37.0104 798.008 39.2845 803.597C40.359 806.217 41.4601 808.805 42.6473 811.355C43.6053 813.417 44.5191 815.634 46.0137 817.373C46.5901 818.034 47.2198 818.63 47.9828 819.063C48.9061 819.599 49.9207 819.557 50.835 820.004C52.0313 820.573 50.454 821.272 49.9029 821.748C49.491 822.12 49.1148 822.548 49.086 823.15C49.0576 824.053 49.934 825.014 50.2258 825.825C50.6518 827.071 51.045 828.291 51.6459 829.49C52.7286 831.6 54.1492 833.496 55.8454 835.154C56.1841 835.539 56.7439 834.853 56.3428 834.444Z" fill="#E8E8E8"/>
<path d="M39.0769 790.6C52.8948 803.358 64.1918 818.741 72.2662 835.74C74.5124 840.462 76.471 845.303 78.1983 850.227C78.4038 850.776 79.2103 850.454 79.0345 849.902C72.7922 832.058 63.1371 815.429 50.6669 801.184C47.2084 797.215 43.5307 793.448 39.6633 789.881C39.2089 789.537 38.6492 790.223 39.0769 790.6Z" fill="#27AE60"/>
<path d="M43.0725 809.932C44.5323 810.144 45.9746 810.478 47.3961 810.904C47.9511 811.057 48.1012 810.172 47.5462 810.018C46.1247 809.593 44.6824 809.259 43.2226 809.047C42.6736 808.952 42.5235 809.837 43.0725 809.932Z" fill="#E8E8E8"/>
<path d="M55.5101 828.589C57.4321 828.334 59.1361 829.181 60.8044 829.972C62.3153 830.689 63.7966 831.409 65.2573 832.221C68.2736 833.895 71.0591 835.952 73.0565 838.81C73.3746 839.287 74.1007 838.764 73.7826 838.286C71.6842 835.319 68.768 833.155 65.6271 831.433C63.9764 830.521 62.2428 829.676 60.5151 828.892C58.8795 828.127 57.2292 827.515 55.3932 827.731C54.8563 827.755 54.9465 828.646 55.5101 828.589Z" fill="#27AE60"/>
<path d="M66.7742 822.049C65.4862 817.32 65.0227 812.448 65.3988 807.58C65.4307 807.007 64.5464 806.857 64.5145 807.43C64.1269 812.478 64.6054 817.499 65.9381 822.373C66.0842 822.928 66.9203 822.604 66.7742 822.049Z" fill="#27AE60"/>
<path d="M63.2017 801.864C63.2292 795.922 63.8796 789.917 65.3966 784.185C66.6746 779.346 68.8217 774.509 73.0481 771.562C72.7988 771.467 72.5761 771.34 72.3268 771.245C73.6373 779.451 79.2149 786.295 80.2615 794.557C80.3651 794.397 80.439 794.239 80.5457 794.108C79.4486 794.52 78.3515 794.931 77.2544 795.342C76.9372 795.464 76.8606 795.891 77.122 796.105C78.6187 797.273 79.0721 799.087 79.3149 800.892C79.4408 801.839 80.4111 806.39 79.3437 806.798C79.0857 806.914 78.9705 807.256 79.1429 807.478C82.9706 812.43 82.0923 818.848 81.7501 824.641C81.3963 830.616 81.8791 836.566 83.1567 842.376C83.2732 842.934 84.163 842.844 84.0466 842.286C82.6048 835.743 82.3319 829.202 82.7975 822.556C83.1817 817.178 83.3489 811.432 79.8956 806.922C79.8277 807.139 79.7628 807.386 79.6948 807.602C80.4746 807.313 80.6785 806.663 80.7189 805.879C80.7822 804.433 80.4745 802.874 80.3005 801.452C80.0423 799.199 79.5675 796.877 77.6817 795.418C77.6465 795.662 77.6142 795.935 77.5493 796.182C78.6463 795.771 79.7434 795.36 80.8405 794.948C81.0125 794.871 81.1427 794.678 81.1247 794.5C80.0751 786.207 74.5302 779.39 73.19 771.187C73.1272 770.864 72.7769 770.659 72.4687 770.871C68.2986 773.782 66.0711 778.417 64.6981 783.206C62.9472 789.292 62.2766 795.689 62.2585 802.02C62.3096 802.524 63.1995 802.434 63.2017 801.864Z" fill="#E8E8E8"/>
<path d="M71.4431 775.833C69.4871 788.179 69.1126 800.755 70.3429 813.199C70.4 813.763 71.2899 813.673 71.2327 813.108C70.0085 800.724 70.3653 788.27 72.2977 775.987C72.4185 775.405 71.5342 775.254 71.4431 775.833Z" fill="#27AE60"/>
<path d="M50.4408 759.304C68.2068 754.235 86.9117 752.521 105.31 754.287C114.419 755.164 123.43 756.861 132.197 759.392C141.365 762.033 150.248 765.423 159.277 768.468C193.343 779.955 229.176 786.104 265.108 786.725C285.492 787.09 305.903 785.652 326.018 782.475C326.578 782.389 326.488 781.498 325.928 781.585C289.829 787.31 252.88 787.303 216.766 781.632C198.648 778.788 180.745 774.512 163.303 768.87C154.257 765.947 145.37 762.528 136.303 759.696C127.64 757.004 118.779 755.022 109.795 753.893C89.856 751.413 69.4569 752.969 50.1194 758.497C49.5618 758.613 49.8863 759.45 50.4408 759.304Z" fill="#E8E8E8"/>
<path d="M215.662 781.084C232.627 780.236 248.295 772.5 263.67 766.023C279.767 759.264 295.938 752.647 312.15 746.146C328.277 739.683 344.379 732.983 360.869 727.444C377.302 721.94 394.263 718.393 411.445 716.143C430.576 713.605 435.57 712.443 454.821 711.393C440.626 712.204 455.388 711.365 454.821 711.393C420.821 713.277 400.573 714.424 367.774 724.315C351.141 729.329 335.041 736.059 318.909 742.462C302.693 748.933 286.52 755.521 270.388 762.224C261.445 765.949 252.557 769.908 243.531 773.402C234.536 776.893 225.23 779.695 215.542 780.196C215.005 780.221 215.095 781.111 215.662 781.084Z" fill="#E8E8E8"/>
<path d="M140.558 757.915C152.617 760.113 164.541 756.536 175.999 753.096C188.273 749.423 200.743 746.511 213.447 744.714C238.622 741.205 264.113 742.282 289.398 740.741C303.396 739.894 317.363 738.149 330.895 734.469C331.449 734.323 331.125 733.486 330.57 733.632C306.221 740.267 280.818 740.351 255.772 740.997C243.247 741.306 230.708 741.766 218.242 743.239C205.894 744.699 193.645 747.14 181.644 750.545C168.359 754.29 154.696 759.633 140.681 757.063C140.129 756.939 139.979 757.824 140.558 757.915Z" fill="#E8E8E8"/>
<path d="M198.854 809.812C202.491 807.854 206.503 806.638 210.638 806.339C214.477 806.07 218.044 806.969 221.83 807.365C224.648 807.679 227.407 807.4 229.433 805.215C230.218 804.386 230.881 803.539 232.166 803.799C233.113 803.973 233.947 804.518 234.846 804.817C235.903 805.19 236.959 805.263 238.006 804.947C240.506 804.184 242.22 801.88 244.322 800.438C247.884 798.037 251.777 800.373 255.554 800.98C263.414 802.254 271.538 800.801 279.359 799.919C288.99 798.853 298.666 797.933 308.127 795.775C308.684 795.659 308.594 794.768 308.036 794.885C299.54 796.795 290.855 797.735 282.203 798.701C273.966 799.625 265.323 801.28 257.01 800.263C255.069 800.039 253.226 799.596 251.342 799.037C249.703 798.543 248.009 798.085 246.313 798.496C243.649 799.126 241.849 801.468 239.697 803.006C238.58 803.809 237.323 804.416 235.919 804.168C234.391 803.873 233.043 802.69 231.405 802.796C229.86 802.922 229.245 804.244 228.199 805.16C226.738 806.418 224.754 806.649 222.885 806.538C218.906 806.311 215.104 805.167 211.082 805.394C206.701 805.628 202.421 806.871 198.529 808.975C198.016 809.237 198.341 810.074 198.854 809.812Z" fill="#E8E8E8"/>
<path d="M215.096 781.411C215.639 781.446 216.155 781.514 216.698 781.549C217.273 781.61 217.403 780.817 216.848 780.664C216.51 780.578 216.171 780.492 215.803 780.41C215.311 780.28 215.063 781.085 215.529 781.247C218.402 782.396 221.364 783.236 224.411 783.737C224.99 783.828 225.14 782.943 224.561 782.852C221.576 782.374 218.706 781.555 215.895 780.43C215.804 780.71 215.712 780.989 215.621 781.268C215.959 781.354 216.297 781.439 216.665 781.522C216.724 781.216 216.756 780.943 216.815 780.637C216.272 780.602 215.756 780.534 215.213 780.499C214.67 780.464 214.52 781.349 215.096 781.411Z" fill="#E8E8E8"/>
<path d="M179.398 826.6C178.667 825.894 177.993 825.152 177.398 824.313C177.116 823.891 176.771 823.446 176.572 822.957C176.331 822.651 176.262 822.268 176.342 821.87C176.211 821.463 176.296 821.125 176.569 820.857C176.891 819.595 176.227 818.372 175.804 817.155C175.161 815.241 174.518 813.326 173.874 811.412C173.532 810.397 173.192 809.411 172.879 808.393C172.713 807.93 172.578 807.494 172.412 807.031C172.149 806.217 171.932 805.849 172.486 805.103C172.72 804.45 173.153 804.286 173.794 804.701C174.088 804.941 174.382 805.181 174.676 805.422C175.012 805.777 175.264 806.202 175.544 806.593C176.037 807.323 176.531 808.053 176.994 808.786C178.1 810.534 179.094 812.353 179.971 814.214C181.643 817.704 182.912 821.355 183.834 825.131C183.964 824.937 184.091 824.715 184.192 824.524C184.257 824.578 184.296 824.664 184.361 824.717C184.453 824.138 183.568 823.988 183.477 824.567C183.413 825.113 183.719 825.472 184.282 825.415C184.609 825.382 184.73 825.1 184.64 824.809C183.462 819.979 181.702 815.328 179.285 810.984C178.149 808.939 176.929 806.663 175.372 804.901C174.526 803.937 173.095 803.122 171.894 803.994C170.525 804.972 171.415 806.952 171.841 808.198C172.699 810.751 173.556 813.304 174.385 815.859C174.778 817.079 175.483 818.418 175.671 819.688C175.806 820.724 174.994 821.287 175.248 822.311C175.74 824.211 177.392 826.023 178.752 827.325C179.236 827.666 179.796 826.979 179.398 826.6Z" fill="#E8E8E8"/>
<path d="M180.834 813.557C180.118 810.93 179.901 808.192 180.256 805.487C180.335 804.789 180.477 804.115 180.648 803.437C180.949 802.267 181.554 802.326 182.232 803.097C183.114 804.117 183.831 805.275 184.402 806.477C186.734 811.459 186.496 817.093 186.257 822.426C186.225 822.999 187.109 823.15 187.141 822.576C187.449 815.856 187.697 808.242 183.094 802.74C182.583 802.132 181.879 801.093 180.974 801.335C180.014 801.612 179.823 802.981 179.634 803.78C178.894 807.124 179.065 810.587 179.965 813.855C180.173 814.434 181.01 814.109 180.834 813.557Z" fill="#E8E8E8"/>
<path d="M181.744 806.565C183.103 811.107 183.901 815.735 184.228 820.441C184.255 821.008 185.145 820.918 185.118 820.351C184.812 815.553 183.945 810.842 182.58 806.241C182.404 805.689 181.598 806.01 181.744 806.565Z" fill="#27AE60"/>
<path d="M66.237 754.314C65.1844 752.501 63.1211 751.361 61.7365 749.821C60.2153 748.115 58.8867 746.24 57.5908 744.392C57.5228 744.609 57.4579 744.855 57.3899 745.072C63.2437 743.399 67.2799 748.93 68.9388 753.771C69.1146 754.323 69.9507 753.998 69.775 753.446C67.9432 748.083 63.4174 742.452 57.0655 744.235C56.7748 744.325 56.7219 744.69 56.8646 744.915C58.1636 746.793 59.4626 748.672 61.0104 750.344C62.3949 751.884 64.494 753.081 65.5109 754.838C65.8023 755.348 66.5284 754.825 66.237 754.314Z" fill="#E8E8E8"/>
<path d="M68.3335 749.273C68.3064 744.567 72.4609 741.206 73.7633 736.905C73.5647 737.015 73.3365 737.128 73.1378 737.238C75.2545 738.314 74.2405 743.096 73.8573 744.934C73.2914 747.631 72.1675 750.145 70.628 752.4C70.3172 752.881 71.0032 753.442 71.314 752.96C73.2474 750.155 74.5158 746.997 74.9828 743.62C75.2766 741.491 75.8439 737.624 73.5046 736.421C73.2196 736.27 72.944 736.508 72.8791 736.755C71.5324 741.21 67.4251 744.446 67.4437 749.363C67.4415 749.933 68.3313 749.843 68.3335 749.273Z" fill="#E8E8E8"/>
<path d="M333.095 736.076C332.759 735.42 332.423 734.764 332.087 734.108C331.905 733.797 331.751 733.452 331.569 733.141C331.367 732.921 331.34 732.654 331.461 732.372C331.752 732.582 332.271 732.38 332.2 731.967C331.901 730.498 331.599 728.999 331.301 727.529C331.235 727.176 330.738 725.816 330.918 725.528C331.708 724.158 332.545 726.203 332.667 726.521C333.744 729.171 334.033 732.321 334.289 735.145C334.347 735.709 335.236 735.619 335.179 735.055C334.974 732.736 334.624 730.462 334.066 728.209C333.711 726.775 333.261 724.691 331.75 723.974C330.773 723.503 330.062 724.175 329.983 725.173C329.901 726.141 330.312 727.239 330.495 728.151C330.746 729.445 331.026 730.736 331.277 732.031C331.532 731.885 331.76 731.772 332.015 731.626C331.463 731.202 330.701 731.369 330.47 732.052C330.308 732.519 330.534 732.976 330.727 733.406C331.188 734.409 331.765 735.371 332.256 736.371C332.521 736.914 333.357 736.589 333.095 736.076Z" fill="#E8E8E8"/>
<path d="M334.592 731.035C334.053 726.891 334.501 722.736 335.928 718.782C335.694 718.836 335.46 718.89 335.226 718.943C337.316 720.351 336.48 724.815 336.364 726.927C336.202 729.763 335.921 732.611 335.485 735.414C335.394 735.993 336.278 736.144 336.37 735.565C336.893 732.152 337.203 728.701 337.332 725.239C337.406 723.012 337.938 719.688 335.782 718.227C335.557 718.07 335.201 718.106 335.079 718.388C333.605 722.467 333.112 726.776 333.67 731.099C333.789 731.687 334.679 731.596 334.592 731.035Z" fill="#E8E8E8"/>
<path d="M188.132 837.683C189.808 835.594 192.974 837.853 195.127 837.515C196.159 837.35 197.069 836.868 197.985 836.445C199.218 835.901 200.42 835.629 201.766 835.613C207.091 835.523 212.262 835.389 217.535 834.495C218.096 834.409 218.006 833.518 217.445 833.605C214.586 834.074 211.744 834.422 208.855 834.595C205.936 834.77 202.839 834.364 199.982 834.863C198.835 835.07 197.806 835.564 196.745 836.031C195.194 836.698 193.969 836.732 192.369 836.324C190.615 835.872 188.666 835.56 187.416 837.126C187.073 837.581 187.759 838.141 188.132 837.683Z" fill="#E8E8E8"/>
<path d="M132.831 850.573C134.679 848.106 138.313 847.588 140.724 849.503C140.73 849.263 140.735 849.022 140.741 848.782C139.274 849.68 137.735 850.166 136.035 850.248C135.468 850.276 135.559 851.166 136.125 851.139C138.003 851.039 139.687 850.508 141.294 849.506C141.549 849.36 141.539 848.971 141.311 848.784C138.51 846.578 134.28 847.126 132.142 849.983C131.802 850.467 132.488 851.027 132.831 850.573Z" fill="#E8E8E8"/>
<path d="M50.976 866.962C49.4512 866.996 47.9836 867.595 46.932 868.751C46.2863 869.476 45.4011 870.796 46.4078 871.564C47.5422 872.409 49.9706 871.533 51.1747 871.291C53.3753 870.828 55.4985 870.193 57.6067 869.41C58.1552 869.204 57.8307 868.367 57.2822 868.573C54.7411 869.52 52.1463 870.233 49.4651 870.684C48.9342 870.768 48.3767 870.884 47.8428 870.938C46.502 871.014 47.0226 869.942 47.6181 869.311C48.5067 868.322 49.7491 867.866 51.0662 867.852C51.6625 867.822 51.5426 866.934 50.976 866.962Z" fill="#E8E8E8"/>
<path d="M90.8819 838.174C90.9172 837.93 91.0801 837.764 91.3174 837.74C91.5221 837.689 91.7267 837.639 91.9017 837.591C92.3702 837.483 92.8182 837.468 93.2988 837.479C94.2303 837.505 95.0939 837.747 95.9459 838.171C95.9485 837.901 95.9511 837.631 95.9833 837.357C94.9249 837.855 93.8365 838.055 92.6616 837.994C92.089 837.962 91.939 838.847 92.5116 838.879C93.8377 838.954 95.0745 838.739 96.3078 838.194C96.6517 838.04 96.6926 837.556 96.3453 837.381C94.7037 836.557 92.6385 836.286 90.8803 836.974C89.9285 837.341 89.3107 838.933 90.7349 839.089C91.3074 839.121 91.4575 838.236 90.8819 838.174Z" fill="#E8E8E8"/>
<path d="M334.491 525.671C327.178 523.892 321.441 517.544 319.918 510.199C318.342 502.62 321.903 494.881 327.972 490.307C334.516 485.385 344.42 484.352 350.791 490.156C354.055 493.094 356.313 497.335 357.805 501.413C359.338 505.607 360 510.369 357.932 514.508C355.834 518.65 351.605 521.268 347.588 523.324C343.346 525.524 338.174 527.427 333.567 525.134C333.063 524.886 332.696 525.703 333.2 525.951C337.333 527.992 341.956 526.894 345.97 525.108C349.899 523.36 354.01 521.054 356.848 517.707C363.195 510.256 359.19 499.413 354.051 492.465C351.341 488.78 347.579 486.252 343.039 485.512C338.713 484.81 334.243 485.653 330.404 487.691C323.355 491.464 318.316 499.114 318.659 507.237C319.028 516.199 325.645 524.437 334.34 526.556C334.895 526.71 335.045 525.825 334.491 525.671Z" fill="#F6C828"/>
<path d="M335.245 781.271C355.345 777.945 375.179 773.177 394.569 766.984C400.171 765.187 405.731 763.274 411.249 761.245C411.797 761.04 411.473 760.203 410.924 760.408C391.796 767.415 372.171 773.062 352.215 777.213C346.55 778.386 340.873 779.441 335.185 780.377C334.594 780.467 334.685 781.358 335.245 781.271Z" fill="#E8E8E8"/>
<path d="M291.055 807.403C293.71 807.584 296.377 807.284 298.894 806.399C300.457 805.851 301.551 805.11 303.266 805.476C304.337 805.698 305.328 805.717 306.375 805.401C307.537 805.044 308.574 804.339 309.517 803.583C310.539 802.73 311.531 801.58 312.839 801.177C314.351 800.724 315.869 801.8 317.385 801.977C318.477 802.106 319.571 801.965 320.621 801.679C321.176 801.533 320.851 800.696 320.297 800.842C318.461 801.358 316.959 801.03 315.193 800.459C314.448 800.204 313.748 800.095 312.953 800.236C310.578 800.746 309.145 803.171 307.002 804.198C305.629 804.847 304.454 804.786 303.015 804.482C301.914 804.263 301.161 804.52 300.156 804.951C297.313 806.169 294.344 806.74 291.267 806.541C290.662 806.483 290.482 807.371 291.055 807.403Z" fill="#E8E8E8"/>
<path d="M147.993 860.915C171.04 858.581 194.087 856.247 217.135 853.913C218.291 853.796 218.111 852.014 216.954 852.131C193.907 854.465 170.86 856.8 147.813 859.134C146.656 859.251 146.836 861.032 147.993 860.915Z" fill="#161616"/>
<path d="M222.034 852.877C224.733 852.603 227.432 852.33 230.132 852.057C231.288 851.939 231.108 850.158 229.951 850.275C227.252 850.548 224.553 850.822 221.854 851.095C220.697 851.212 220.877 852.994 222.034 852.877Z" fill="#F6C828"/>
<path d="M236.096 851.182C236.956 851.095 237.846 851.005 238.706 850.918C239.863 850.801 239.683 849.019 238.526 849.137C237.666 849.224 236.776 849.314 235.916 849.401C234.759 849.518 234.939 851.299 236.096 851.182Z" fill="#EC615B"/>
<path d="M74.2924 874.978C91.3479 873.251 108.374 871.527 125.429 869.799C126.586 869.682 126.406 867.901 125.249 868.018C108.193 869.745 91.1675 871.47 74.1119 873.197C72.9848 873.311 73.1652 875.093 74.2924 874.978Z" fill="#161616"/>
<path d="M130.383 869.297C134.832 868.847 139.252 868.399 143.701 867.949C144.858 867.831 144.677 866.05 143.52 866.167C139.071 866.618 134.652 867.065 130.202 867.516C129.075 867.63 129.256 869.412 130.383 869.297Z" fill="#F6C828"/>
<path d="M151.211 866.648C151.478 866.621 151.745 866.594 151.982 866.57C152.456 866.522 152.859 866.061 152.782 865.589C152.704 865.117 152.306 864.738 151.801 864.789C151.534 864.816 151.268 864.843 151.03 864.867C150.556 864.915 150.153 865.376 150.231 865.848C150.308 866.32 150.706 866.699 151.211 866.648Z" fill="#35A163"/>
<path d="M64.9434 876.165C65.5663 876.102 66.1595 876.042 66.7824 875.979C67.9392 875.862 67.7588 874.08 66.602 874.198C65.9791 874.261 65.3859 874.321 64.763 874.384C63.6061 874.501 63.7866 876.282 64.9434 876.165Z" fill="#EC615B"/>
<path d="M296.679 819.731C320.586 817.309 344.493 814.888 368.43 812.464C369.587 812.347 369.407 810.565 368.25 810.682C344.343 813.104 320.435 815.525 296.498 817.949C295.341 818.066 295.522 819.848 296.679 819.731Z" fill="#161616"/>
<path d="M377.698 810.476C399.351 808.283 421.005 806.09 442.658 803.897C443.814 803.779 443.634 801.998 442.477 802.115C420.824 804.308 399.171 806.501 377.518 808.694C376.391 808.808 376.571 810.59 377.698 810.476Z" fill="#161616"/>
<path d="M282.851 826.41C289.199 825.767 295.547 825.124 301.894 824.482C303.051 824.364 302.871 822.583 301.714 822.7C295.366 823.343 289.019 823.986 282.671 824.629C281.544 824.743 281.724 826.524 282.851 826.41Z" fill="#161616"/>
<path d="M308.66 823.527C311.359 823.253 314.058 822.98 316.757 822.706C317.914 822.589 317.734 820.808 316.577 820.925C313.878 821.198 311.179 821.472 308.479 821.745C307.323 821.862 307.503 823.644 308.66 823.527Z" fill="#27AE60"/>
<path d="M320.857 826.791C322.696 826.605 324.505 826.421 326.344 826.235C327.501 826.118 327.321 824.336 326.164 824.454C324.325 824.64 322.515 824.823 320.676 825.009C319.52 825.126 319.7 826.908 320.857 826.791Z" fill="#EC615B"/>
<path d="M179.45 690.717C178.247 689.489 182.197 688.249 182.822 687.916C184.041 687.223 184.736 686.102 184.895 684.707C185.05 683.281 184.603 681.827 184.88 680.419C185.298 678.337 187.624 678.221 189.353 678.136C190.516 678.078 190.306 676.3 189.173 676.355C187.203 676.434 184.955 676.722 183.753 678.463C182.681 680.012 183.114 681.918 183.143 683.684C183.184 685.27 182.669 686.102 181.171 686.703C180.309 687.061 179.434 687.299 178.749 687.939C177.484 689.057 177.095 690.836 178.331 692.09C179.106 692.942 180.252 691.536 179.45 690.717Z" fill="#DB4842"/>
<path d="M404.711 578.061C403.508 576.833 407.457 575.594 408.083 575.26C409.301 574.567 409.997 573.447 410.155 572.051C410.31 570.625 409.863 569.171 410.14 567.763C410.559 565.681 412.884 565.566 414.614 565.48C415.777 565.423 415.567 563.644 414.433 563.699C412.464 563.778 410.215 564.066 409.013 565.808C407.942 567.356 408.374 569.262 408.403 571.029C408.444 572.614 407.929 573.446 406.432 574.048C405.569 574.405 404.694 574.644 404.01 575.283C402.745 576.401 402.355 578.18 403.591 579.435C404.367 580.286 405.513 578.88 404.711 578.061Z" fill="#27AE60"/>
<path d="M185.919 691.562C185.022 690.693 186.764 689.557 187.322 689.14C188.074 688.584 188.711 688.07 189.232 687.297C190.301 685.719 190.822 682.877 193.005 682.536C194.127 682.362 193.976 680.578 192.825 680.754C189.195 681.302 189.283 685.132 186.972 687.166C185.979 688.016 184.746 688.561 184.184 689.818C183.669 690.95 183.905 692.096 184.769 692.938C185.601 693.754 186.747 692.348 185.919 691.562Z" fill="#27AE60"/>
<path d="M315.18 581.376C315.254 583.289 314.002 585.725 315.944 587.148C317.625 588.358 319.451 587.153 321.213 587.094C323.156 587.048 322.506 588.913 322.401 590.244C322.322 591.241 322.341 592.319 322.883 593.224C323.745 594.637 325.769 595.392 327.084 594.178C327.905 593.405 326.859 591.952 326.038 592.725C324.696 593.97 324.132 591.358 324.199 590.541C324.26 589.665 324.47 588.774 324.409 587.881C324.312 586.631 323.561 585.717 322.362 585.418C320.887 585.058 319.668 585.751 318.242 585.866C315.655 586.068 317.057 582.746 316.989 581.193C316.931 580.029 315.152 580.21 315.18 581.376Z" fill="#DB4842"/>
<path d="M325.591 582.392C325.012 584.07 324.493 586.043 325.841 587.526C326.346 588.075 326.976 588.371 327.7 588.417C328.18 588.429 328.782 588.158 329.215 588.294C329.925 588.492 330.392 589.255 330.137 590C329.738 591.09 331.371 591.825 331.77 590.735C332.258 589.336 331.864 587.816 330.578 586.956C329.872 586.488 329.278 586.548 328.468 586.54C326.282 586.551 326.692 584.68 327.227 583.156C327.596 582.069 325.96 581.305 325.591 582.392Z" fill="#F6C828"/>
<path d="M87.2268 739.951C86.8353 737.861 89.3846 736.403 90.7132 738.278C91.8368 739.904 90.1215 741.607 88.433 741.208C87.326 740.93 87.0259 742.701 88.1328 742.978C91.5455 743.833 94.2811 739.776 91.9931 737.008C89.5357 734.048 84.7716 736.42 85.4768 740.128C85.6503 741.25 87.4331 741.1 87.2268 739.951Z" fill="#EC615B"/>
<path d="M89.1205 655.683C88.5525 656.88 88.6405 658.341 89.6356 659.29C90.1317 659.75 90.7877 660.013 91.4522 660.066C92.3868 660.121 93.0179 659.547 93.8579 659.852C94.7008 660.187 94.574 660.71 94.7471 661.532C94.8279 662.034 94.9057 662.506 95.0161 663.004C95.1296 663.533 95.243 664.061 95.6707 664.438C96.0658 664.788 96.5257 664.891 97.039 664.929C97.401 664.952 97.7539 664.887 98.1395 664.848C98.4361 664.818 98.7624 664.785 99.065 664.814C99.6436 664.905 99.92 665.267 99.9178 665.837C99.506 666.209 99.9994 666.939 100.441 666.564C101.265 665.821 100.866 664.841 100.028 664.266C99.6424 664.006 99.2418 663.896 98.7612 663.885C97.1977 663.833 96.368 664.517 95.7925 662.386C95.5063 661.335 95.6664 659.069 94.4967 658.468C93.9594 658.192 93.5295 658.386 93.0463 658.645C92.2785 659.052 91.653 659.386 90.7714 658.965C89.5751 658.396 89.4101 657.063 89.9308 655.991C90.1853 655.545 89.369 655.178 89.1205 655.683Z" fill="#27AE60"/>
<path d="M101.462 658.003C100.974 659.102 100.421 660.748 101.449 661.723C102.114 662.376 103.114 662.185 103.93 662.552C105.216 663.111 105.923 664.48 105.821 665.84C105.79 666.413 106.674 666.563 106.706 665.99C106.808 664.63 106.379 663.354 105.357 662.437C104.926 662.031 104.389 661.755 103.831 661.572C103.181 661.368 102.08 661.149 101.794 660.398C101.589 659.849 102.086 658.839 102.278 658.37C102.494 657.838 101.678 657.471 101.462 658.003Z" fill="#F6C828"/>
<path d="M277.924 734.855C276.705 732.879 278.357 730.252 280.692 730.825C283.12 731.419 283.355 734.635 281.221 735.751C280.708 736.013 281.033 736.85 281.546 736.588C284.305 735.138 284.273 730.972 281.151 730.029C277.934 729.035 275.545 732.666 277.231 735.405C277.519 735.886 278.242 735.333 277.924 734.855Z" fill="#494949"/>
<path d="M167.967 738.883C166.03 738.689 168.877 736.331 169.182 736.09C169.624 735.715 170.033 735.314 170.213 734.726C170.83 732.833 169.01 729.358 172.196 728.856C172.756 728.769 172.666 727.878 172.105 727.965C170.866 728.151 170.015 728.927 169.56 730.053C168.815 731.868 170.15 734.102 168.49 735.47C167.551 736.255 166.528 736.809 166.545 738.157C166.567 738.964 166.965 739.644 167.814 739.738C168.393 739.829 168.543 738.944 167.967 738.883Z" fill="#DB4842"/>
<path d="M173.4 735.722C172.453 734.649 172.762 732.967 174.111 732.381C175.03 731.988 175.757 732.064 176.192 731.03C176.623 729.967 176.414 728.788 176.902 727.689C177.508 726.278 178.661 725.231 180.039 724.642C180.555 724.409 180.26 723.569 179.715 723.805C178.422 724.356 177.341 725.215 176.592 726.401C176.204 727.01 175.884 727.702 175.719 728.439C175.489 729.422 175.767 730.683 174.75 731.296C174.131 731.689 173.46 731.577 172.885 732.115C172.5 732.454 172.249 732.929 172.116 733.393C171.8 734.415 171.994 735.445 172.704 736.243C173.049 736.688 173.775 736.164 173.4 735.722Z" fill="#F6C828"/>
<path d="M401.306 660.702C400.748 659.65 403.051 659.99 403.142 660.018C403.472 660.129 403.805 660.389 404.107 660.56C404.589 660.816 405.131 661.071 405.699 661.09C406.445 661.105 407.064 660.769 407.531 660.229C408.869 658.551 408.276 654.283 411.522 655.49C412.484 655.855 413.569 656.395 414.603 655.903C415.43 655.504 415.593 654.675 415.457 653.851C415.389 653.439 414.895 652.622 415.006 652.207C415.229 651.406 415.973 651.333 416.545 651.587C416.816 651.7 417.058 651.873 417.358 651.955C418.259 652.263 419.122 652.187 419.642 651.351C419.931 650.873 419.147 650.446 418.858 650.923C418.281 651.879 415.856 649.978 414.795 650.588C413.939 651.047 413.986 651.931 414.212 652.753C414.47 653.722 415.095 655.127 413.275 655.132C412.47 655.147 411.711 654.483 410.933 654.35C410.005 654.191 409.175 654.443 408.592 655.162C407.136 656.931 407.794 661.463 404.298 659.671C403.273 659.159 402.428 658.644 401.305 659.167C400.448 659.567 400.045 660.313 400.51 661.16C400.818 661.656 401.554 661.199 401.306 660.702Z" fill="#F6C828"/>
<path d="M167.186 622.881C165.818 622.689 165.466 620.985 166.016 619.91C166.791 618.392 168.966 618.261 170.446 618.381C172.924 618.58 175.274 619.302 177.643 618.132C179.925 617.001 181.51 614.891 184.173 614.562C186.955 614.22 189.719 615.17 192.528 614.795C197.436 614.148 201.669 611.26 206.271 609.654C208.99 608.689 211.713 608.353 214.573 608.783C217.312 609.196 219.915 610.042 222.65 610.425C225.511 610.855 228.257 610.457 231.051 609.934C234.112 609.384 237.261 608.825 240.212 610.146C240.135 609.974 240.031 609.834 239.953 609.662C238.912 614.177 234.287 616.445 230.07 617.112C224.79 617.947 219.434 616.539 214.116 617.288C208.738 618.043 204.504 621.801 199.246 622.843C193.872 623.928 188.479 621.864 183.095 622.559C177.623 623.264 170.778 626.986 165.951 622.526C165.524 622.149 164.964 622.836 165.392 623.213C169.191 626.697 174.52 625.468 178.989 624.325C182.29 623.481 185.342 623.142 188.76 623.455C191.665 623.731 194.59 624.215 197.503 623.98C203.391 623.533 207.96 619.231 213.705 618.26C219.509 617.282 225.412 619.053 231.189 617.808C235.501 616.892 239.832 614.384 240.864 609.78C240.905 609.596 240.792 609.367 240.605 609.296C235.075 606.767 229.079 610.284 223.343 609.575C220.186 609.175 217.171 608.1 213.99 607.762C211.231 607.442 208.576 607.861 205.973 608.784C203.194 609.756 200.609 611.157 197.908 612.301C194.804 613.605 191.779 614.211 188.388 613.865C185.691 613.568 183.213 613.369 180.848 614.868C179.751 615.579 178.765 616.489 177.633 617.144C175.706 618.239 173.724 617.9 171.626 617.602C169.409 617.317 166.11 617.291 165.138 619.819C164.52 621.411 165.273 623.525 167.095 623.76C167.612 623.828 167.762 622.943 167.186 622.881Z" fill="#E8E8E8"/>
<path d="M48.3082 681.143C52.2881 680.2 56.325 681.891 60.2782 680.98C61.8885 680.607 63.3291 679.742 64.7787 678.965C65.4605 678.596 66.175 678.254 66.9282 677.997C68.3485 677.523 69.6927 677.777 71.1466 677.93C75.2085 678.388 79.5615 676.988 83.479 676.021C85.4097 675.556 87.3076 675.063 89.2322 674.539C91.4177 673.927 93.5822 673.108 95.7828 672.645C98.102 672.17 100.966 672.93 100.308 675.906C99.757 678.452 96.8334 679.468 94.5971 679.874C90.7118 680.568 86.7119 679.833 82.8717 680.972C79.2925 682.024 76.2221 684.255 72.7976 685.651C70.9001 686.444 68.9665 686.879 66.9224 686.816C64.8753 686.724 62.9259 686.411 60.8646 686.77C56.6797 687.464 52.4503 690.382 48.1391 689.829C45.4984 689.496 43.9231 687.256 44.9193 684.666C45.8948 682.167 48.6199 681.261 51.0522 681.015C51.6157 680.958 51.5255 680.067 50.962 680.124C47.5508 680.47 43.6672 682.363 43.7082 686.318C43.7488 689.973 47.4585 691.097 50.5017 690.669C52.7173 690.355 54.8461 689.479 56.9603 688.755C59.712 687.817 62.2685 687.318 65.1702 687.564C67.3152 687.736 69.294 687.746 71.3875 687.114C73.5404 686.476 75.5265 685.375 77.489 684.336C79.4811 683.295 81.4999 682.221 83.6914 681.669C86.2626 681.018 88.9149 681.17 91.5402 681.054C94.9723 680.916 100.385 680.218 101.222 676.054C101.52 674.554 101.022 672.895 99.6505 672.074C98.3114 671.279 96.6267 671.51 95.1914 671.835C89.9274 673.118 84.8006 674.867 79.4623 676.008C76.4698 676.641 73.6021 677.321 70.5637 676.909C68.101 676.559 66.2447 677.167 64.0837 678.315C62.9453 678.911 61.8426 679.562 60.6209 679.926C59.1085 680.379 57.4858 680.333 55.9163 680.222C53.3469 680.003 50.8188 679.599 48.301 680.184C47.6605 680.369 47.7507 681.259 48.3082 681.143Z" fill="#E8E8E8"/>
<path d="M413.312 679.84C407.905 682.367 400.88 678.399 396.492 675.304C396.456 675.548 396.424 675.821 396.359 676.068C399.089 674.621 402.079 674.259 405.123 674.13C408.134 673.975 411.15 673.88 414.155 673.665C420.551 673.198 426.943 672.4 433.242 671.282C436.51 670.711 439.74 670.054 442.964 669.338C444.544 668.968 446.433 668.387 448.021 668.976C450.236 669.831 450.292 672.165 448.365 673.26C447.372 673.811 446.26 674.073 445.184 674.392C443.493 674.863 441.806 675.364 440.116 675.835C437.029 676.718 433.942 677.6 430.825 678.486C429.049 678.996 427.273 679.506 425.496 680.016C423.836 680.484 422.131 681.106 420.384 681.313C417.42 681.643 414.931 679.256 411.998 679.883C411.441 679.999 411.531 680.89 412.088 680.774C413.758 680.395 415.186 681.18 416.709 681.715C417.952 682.159 419.139 682.339 420.444 682.207C423.852 681.832 427.277 680.435 430.565 679.472C434.118 678.452 437.7 677.43 441.253 676.41C442.943 675.939 444.63 675.438 446.321 674.967C447.457 674.642 448.646 674.252 449.585 673.467C451.158 672.137 451.001 669.994 449.436 668.742C446.989 666.771 443.28 668.316 440.611 668.886C433.395 670.427 426.081 671.588 418.722 672.303C414.688 672.712 410.639 672.972 406.578 673.113C402.968 673.269 399.301 673.46 396.058 675.168C395.803 675.314 395.635 675.721 395.926 675.932C400.573 679.21 407.879 683.3 413.631 680.617C414.153 680.445 413.858 679.605 413.312 679.84Z" fill="#E8E8E8"/>
<path d="M248.08 537.754C242.18 536.86 236.556 542.643 233.216 546.845C233.114 546.622 233.006 546.369 232.874 546.152C235.901 546.766 238.872 546.27 241.828 545.534C244.761 544.832 247.683 544.072 250.626 543.43C256.894 542.073 263.252 541.032 269.611 540.325C272.908 539.949 276.192 539.667 279.487 539.443C281.108 539.351 283.084 539.375 284.442 538.363C286.325 536.918 285.723 534.667 283.566 534.162C282.458 533.915 281.317 533.978 280.195 533.976C278.44 534.002 276.68 533.998 274.926 534.024C271.715 534.05 268.505 534.076 265.265 534.108C263.417 534.121 261.569 534.134 259.721 534.147C257.996 534.167 256.185 534.052 254.451 534.347C251.514 534.867 249.798 537.856 246.807 538.084C246.239 538.13 246.075 537.251 246.643 537.205C248.351 537.097 249.501 535.942 250.811 534.999C251.879 534.223 252.968 533.716 254.257 533.474C257.633 532.872 261.312 533.243 264.738 533.237C268.434 533.211 272.159 533.179 275.855 533.153C277.609 533.127 279.369 533.13 281.124 533.105C282.305 533.095 283.556 533.134 284.678 533.62C286.562 534.449 287.014 536.547 285.865 538.187C284.071 540.766 280.078 540.333 277.356 540.54C269.999 541.101 262.654 542.053 255.391 543.445C251.406 544.193 247.447 545.086 243.511 546.097C240.003 546.967 236.431 547.819 232.838 547.098C232.553 547.03 232.277 546.688 232.497 546.404C236.033 541.953 241.893 535.974 248.167 536.92C248.716 536.938 248.67 537.825 248.08 537.754Z" fill="#E8E8E8"/>
<path d="M293.169 850.471C292.731 848.806 295.161 848.83 296.143 849.06C296.909 849.223 297.651 849.447 298.431 849.458C300.294 849.51 302.04 848.703 303.703 847.965C305.307 847.232 306.994 846.431 308.792 846.429C310.949 846.421 312.846 847.998 312.749 850.288C312.63 852.67 310.339 854.011 308.137 853.574C306.639 853.276 305.27 852.485 303.733 852.401C300.481 852.25 297.412 855.381 294.177 854.208C293.649 854.022 293.249 854.812 293.81 855.025C295.74 855.73 297.537 855.128 299.351 854.404C300.505 853.958 301.708 853.416 302.957 853.319C304.413 853.202 305.672 853.794 307.002 854.199C308.889 854.788 310.803 854.744 312.272 853.276C313.525 852.039 313.941 850.227 313.354 848.577C311.612 843.804 306.13 845.889 302.863 847.36C301.315 848.056 299.676 848.732 297.919 848.55C296.798 848.424 295.69 847.846 294.507 847.996C293.086 848.17 291.916 849.338 292.304 850.799C292.479 851.351 293.316 851.026 293.169 850.471Z" fill="#E8E8E8"/>
<path d="M257.968 844.048C259.257 842.568 261.157 841.806 263.127 842.026C263.946 842.123 266.231 842.491 264.945 843.701C264.261 844.341 262.623 844.447 261.733 844.537C261.17 844.594 261.26 845.484 261.824 845.427C263.129 845.295 265.407 845.004 266.28 843.866C267.02 842.891 265.972 842.008 265.126 841.644C262.425 840.417 259.19 841.315 257.282 843.488C256.906 843.916 257.592 844.476 257.968 844.048Z" fill="#E8E8E8"/>
<path d="M243.47 865.403C243.223 865.338 243.007 865.27 242.76 865.205C242.755 865.445 242.749 865.686 242.744 865.926C244.421 864.437 246.564 865.18 248.537 865.43C250.207 865.65 251.613 865.328 253.176 864.78C255.115 864.104 257.102 863.602 259.136 863.276C260.079 863.121 261.026 862.995 261.972 862.869C262.859 862.749 265.038 862.079 264.42 863.671C263.684 865.575 261.021 865.905 259.335 865.536C257.896 865.232 256.525 864.711 255.078 865.217C253.571 865.73 252.365 866.842 250.797 867.33C248.706 867.992 246.579 867.998 244.457 867.463C243.905 867.339 243.752 868.194 244.307 868.348C246.396 868.856 248.527 868.88 250.626 868.308C252.987 867.649 254.933 865.562 257.494 865.992C259.324 866.317 260.859 866.971 262.7 866.215C263.88 865.735 265.492 864.492 265.591 863.103C265.726 861.469 263.744 861.73 262.709 861.865C260.313 862.167 257.892 862.533 255.526 863.132C254.242 863.472 253.032 863.955 251.781 864.321C250.239 864.777 248.933 864.61 247.378 864.347C245.547 864.023 243.678 863.912 242.191 865.203C241.972 865.405 241.942 865.708 242.174 865.924C242.67 866.384 243.157 866.455 243.768 866.273C244.349 866.094 244.024 865.257 243.47 865.403Z" fill="#E8E8E8"/>
<path d="M364.25 835.984C365.898 835.097 367.668 834.528 369.54 834.368C371.471 834.202 373.178 834.779 375.059 835.009C377.824 835.389 379.673 833.522 381.738 832.023C385.001 829.623 388.577 830.61 392.271 830.986C394.906 831.259 397.674 831.069 399.739 829.27C400.18 828.895 399.657 828.168 399.216 828.543C396.632 830.844 393.092 830.213 389.962 829.78C387.015 829.389 384.129 829.291 381.58 831.049C380.459 831.822 379.449 832.795 378.261 833.485C376.449 834.538 374.838 834.011 372.945 833.663C369.862 833.106 366.712 833.665 363.955 835.144C363.412 835.409 363.737 836.246 364.25 835.984Z" fill="#E8E8E8"/>
<path d="M143.205 710.675C145.743 709.399 150.92 714.363 153.565 717.695C157.609 722.714 158.648 727.348 161.469 738.041C162.549 742.191 164.293 748.763 166.6 757.048C169.469 759.337 170.701 761.732 171.243 763.237C171.978 765.172 172.385 767.71 171.727 768.017C171.012 768.359 169.455 765.997 168.945 766.289C168.266 766.688 170.985 770.461 169.778 772.443C168.543 774.458 163.174 774.702 160.106 772.223C157.235 769.904 157.939 766.504 156.727 758.678C156.308 756.021 155.156 748.789 152.204 741.829C148.588 733.346 145.695 733.19 143.308 725.603C141.628 720.254 140.469 712.062 143.205 710.675Z" fill="white" stroke="#161616" stroke-width="2" stroke-miterlimit="10"/>
<path opacity="0.15" d="M147.896 717.939C149.492 717.417 153.088 724.522 153.308 724.92C156.61 731.484 155.659 734.52 157.835 744.468C159.614 752.566 160.62 757.174 163.843 762.666C166.953 767.93 170.247 770.866 169.271 772.465C168.297 774.093 163.73 773.086 160.118 772.042C159.717 771.333 159.125 770.223 158.595 768.837C157.264 765.462 157.044 762.695 156.909 761.359C156.833 760.617 155.932 752.009 153.48 744.669C152.155 740.754 151.8 741.39 150.311 737.341C147.053 728.553 146.126 718.508 147.896 717.939Z" fill="#6D6C6C"/>
<path opacity="0.17" d="M153.356 731.904C153.995 734.958 154.876 739.518 155.623 745.112C156.765 753.725 157.077 760.952 156.84 760.976C156.632 760.997 156.376 755.804 154.533 748.852C153.316 744.236 151.834 740.546 150.748 738.107C151.254 737.486 151.858 736.645 152.373 735.513C153.006 734.069 153.265 732.783 153.356 731.904Z" fill="#6D6C6C"/>
<path d="M161.975 837.423C161.348 838.926 161.386 840.482 164.528 853.751C164.904 855.393 165.25 856.738 165.465 857.676C170.075 857.929 176.539 857.844 184.057 856.333C188.61 855.422 193.927 854.373 194.047 852.591C194.14 851.142 190.767 848.904 176.036 845.477C174.902 840.793 173.739 836.111 172.605 831.427C164.327 832.835 162.487 836.261 161.975 837.423Z" fill="#161616"/>
<path d="M135.516 754.587C138.689 758.105 143.217 763.165 148.551 769.374C161.185 784.052 167.502 791.391 169.965 796.48C177.245 811.55 177.301 826.902 177.261 832.125C177.235 835.127 177.066 837.604 176.909 839.3C174.741 840.389 171.605 841.666 167.693 842.393C164.193 843.047 161.134 843.027 158.871 842.866C157.779 838.897 156.756 834.412 155.99 829.51C154.861 822.216 154.553 815.618 154.667 809.938C146.451 804.861 140.917 799.332 137.497 795.449C128.343 784.948 125.215 775.367 123.302 769.201C120.608 760.656 121.614 758.154 122.644 756.79C126.094 752.391 134.751 754.424 135.516 754.587Z" fill="#27AE60" stroke="#161616" stroke-width="2" stroke-miterlimit="10"/>
<path opacity="0.19" d="M138.914 779.558C142.231 781.832 146.594 785.259 150.982 790.124C152.2 791.5 157.26 797.377 162.174 807.137C168.939 820.67 170.713 833.748 171.227 841.195C169.97 841.802 168.182 842.493 166.005 842.893C163.09 843.399 160.636 843.137 159.046 842.818C157.51 837.125 156.122 830.517 155.311 823.1C154.794 818.293 154.547 813.789 154.518 809.652C153.734 809.312 138.59 802.687 137.4 789.16C137.047 785.386 137.909 782.06 138.914 779.558Z" fill="#6D6C6C"/>
<path opacity="0.15" d="M145.044 801.914C145.606 800.957 154.016 802.625 157.863 808.354C160.755 812.65 159.152 816.352 159.897 822.816C160.446 827.649 162.389 834.411 168.603 842.21C165.483 842.466 162.362 842.723 159.212 842.982C157.792 837.546 156.473 831.321 155.594 824.421C154.893 818.973 154.559 813.908 154.449 809.27C153.232 808.793 151.656 808.023 149.946 806.816C148.039 805.45 144.636 802.615 145.044 801.914Z" fill="#6D6C6C"/>
<path d="M109.325 840.386C107.218 842.069 107.037 844.127 105.442 848.788C104.331 852.02 102.613 856.363 99.7955 861.388C101.878 863.306 105.29 865.93 110.077 867.635C116.637 869.97 125.561 870.506 126.664 867.785C127.834 864.847 119.541 858.998 117.058 857.27C117.54 855.811 118.323 853.482 119.295 850.654C121.872 843.254 122.419 842.149 121.756 840.927C120.203 838.024 113.154 837.359 109.325 840.386Z" fill="#161616"/>
<path d="M109.832 750.409C108.548 755.489 107.235 760.571 105.948 765.62C103.872 774.409 105.743 780.159 106.978 782.883C108.331 785.895 110.411 788.384 114.539 793.335C117.742 797.15 120.597 800.191 122.668 802.291C119.377 806.493 115.697 811.875 112.384 818.51C107.928 827.479 105.587 835.725 104.287 842.126C106.173 843.285 108.984 844.71 112.584 845.635C116.614 846.666 120.088 846.644 122.434 846.437C126.235 842.842 131.369 837.313 135.882 829.507C139.431 823.419 144.205 815.227 144.902 804.358C146.084 785.851 134.706 772.036 130.641 767.109C123.293 758.165 115.051 753.12 109.832 750.409Z" fill="#27AE60" stroke="#161616" stroke-width="2" stroke-miterlimit="10"/>
<path opacity="0.2" d="M125.403 760.95C124.086 763.333 122.323 767.231 121.894 772.164C120.561 787.116 133.085 792.417 131.747 805.54C131.038 812.451 127.445 812.185 120.981 827.057C117.701 834.618 115.788 841.171 114.708 845.6C112.72 845.201 110.536 844.642 108.209 843.858C106.843 843.397 105.567 842.926 104.407 842.414C105.603 836.773 107.576 829.915 110.835 822.446C114.534 814.002 118.856 807.266 122.573 802.24C121.265 800.873 119.317 798.79 117.044 796.171C110.768 788.948 107.577 785.252 106.195 780.773C104.645 775.83 105.069 771.438 105.368 768.468C105.813 763.984 106.977 760.387 107.955 757.918C113.75 758.921 119.578 759.95 125.403 760.95Z" fill="#6D6C6C"/>
<path opacity="0.17" d="M118.249 759.846C115.285 764.015 111.533 770.754 112.658 778.319C114.398 790.171 126.604 793.524 125.903 803.463C125.702 806.213 122.403 810.926 115.768 820.267C112.123 825.405 109.005 829.53 106.858 832.297C108.24 827.598 110.362 821.924 113.641 815.833C116.541 810.44 119.632 806.048 122.425 802.555C121.364 801.253 119.48 798.924 117.12 796.044C108.883 786.02 107.318 784.469 106.138 780.809C104.744 776.511 104.991 772.736 105.186 769.927C105.526 764.704 106.935 760.571 108.047 757.939C111.436 758.556 114.857 759.199 118.249 759.846Z" fill="#6D6C6C"/>
<path d="M112.196 757.576L112.192 757.575C110.879 757.329 109.583 757.059 108.303 756.782C107.563 751.611 106.693 739.787 112.757 726.998C117.666 716.66 124.822 710.506 128.755 707.578C129.947 707.386 132.357 707.073 135.118 707.35C138.076 707.647 141.359 708.612 143.989 711.051L143.991 711.053C145.656 712.587 146.44 714.076 148.099 717.35L148.1 717.353C149.587 720.267 150.963 722.972 151.766 725.632C152.562 728.268 152.772 730.788 151.978 733.328L151.978 733.328L151.975 733.34C151.601 734.59 150.334 737.839 145.908 740.734L145.59 740.942L145.491 741.309C144.439 745.179 143.435 749.226 142.508 753.446L142.507 753.451C141.959 756.011 141.451 758.498 140.987 760.953C131.899 760.556 122.246 759.508 112.196 757.576Z" fill="#EC615B" stroke="black" stroke-width="2"/>
<path opacity="0.27" d="M139.061 712.655C131.071 714.544 127.113 718.664 125.538 720.563C116.65 731.332 121.73 747.465 123.1 751.825C124.337 755.749 125.907 758.83 127.106 760.898C120.676 759.839 114.272 758.748 107.842 757.69C106.997 753.186 105.429 741.557 110.902 728.435C115.994 716.281 124.384 709.462 128.153 706.741C128.72 706.713 129.289 706.716 129.856 706.688C130.818 707.611 131.965 708.574 133.352 709.544C135.418 711.014 137.404 711.983 139.061 712.655Z" fill="#6D6C6C"/>
<path opacity="0.2" d="M113.861 722.736C113.473 727.184 113.431 733.577 115.079 740.969C117.036 749.65 120.543 756.163 123.171 760.216C117.937 759.427 112.673 758.64 107.442 757.88C106.79 753.807 106.286 747.649 107.528 740.384C108.882 732.448 111.751 726.459 113.861 722.736Z" fill="#6D6C6C"/>
<path d="M374.557 795.436C373.112 799.812 373.865 803.695 374.348 805.506C380.453 807.497 385.764 808.159 389.799 808.35C391.125 808.426 407.493 809.078 408.617 804.495C408.891 803.357 408.154 802.292 407.42 801.256C403.333 795.521 394.517 796.054 393.328 796.145C392.361 789.854 387.822 785.574 383.636 785.668C377.718 785.818 374.879 794.474 374.557 795.436Z" fill="#161616"/>
<path d="M371.925 692.52C376.343 697.682 382.409 705.796 387.337 716.875C395.368 734.928 395.948 750.707 396.164 759.653C396.371 767.611 395.906 778.996 392.738 792.395C391.6 793.29 386.556 797.041 379.616 796.274C375.495 795.821 372.55 793.96 371.124 792.904C372.992 787.376 375.092 779.125 375.186 769.097C375.307 758.166 372.967 749.855 369.909 739.186C362.973 715.083 355.889 706.382 360.503 698.986C362.718 695.402 366.928 693.476 371.925 692.52Z" fill="#2F80ED" stroke="#161616" stroke-width="2" stroke-miterlimit="10"/>
<path opacity="0.16" d="M375.405 705.875C378.417 715.498 381.162 726.618 383.054 739.085C386.374 761.215 385.914 780.638 384.312 795.888C382.995 796.201 379.783 796.736 376.168 795.363C374.016 794.531 372.483 793.306 371.586 792.437C374.428 783.511 375.026 776.102 375.064 771.149C375.116 763.375 373.808 757.268 371.366 745.877C369.942 739.213 368.522 733.778 367.517 730.07C370.15 722.035 372.776 713.94 375.405 705.875Z" fill="#6D6C6C"/>
<path opacity="0.22" d="M370.407 721.319C373.631 727.711 378.742 740.001 379.069 756.255C379.396 771.91 375.108 784.012 372.257 790.48C376.369 773.086 375.622 762.753 374.086 756.46C373.683 754.851 372.019 748.481 369.897 739.067C369.022 735.167 368.339 731.966 367.921 729.909C368.768 727.034 369.586 724.161 370.407 721.319Z" fill="#6D6C6C"/>
<path d="M330.334 786.927C327.996 788.394 327.456 790.458 324.727 797.243C322.905 801.747 321.353 805.354 320.33 807.677C324.403 810.024 330.788 813.007 339.019 814.093C343.879 814.741 353.916 815.314 354.769 812.498C355.711 809.373 344.866 803.482 340.312 801.124C344.269 796.404 343.849 790.178 340.561 787.301C337.766 784.855 333.18 785.139 330.334 786.927Z" fill="#161616"/>
<path d="M364.239 692.668C374.902 700.317 366.37 730.276 359.3 754.268C356.244 764.626 351.355 779.669 343.716 797.45C342.109 797.852 337.263 798.823 331.757 796.531C326.221 794.242 323.489 790.05 322.659 788.664C324.91 783.667 327.559 776.98 329.918 768.912C330.854 765.728 334.84 751.526 335.911 731.921C336.325 724.171 336.373 713.997 335.013 702.047C336.582 700.089 345.37 689.51 357.131 690.539C358.914 690.688 361.848 690.961 364.239 692.668Z" fill="#2F80ED" stroke="#161616" stroke-width="2" stroke-miterlimit="10"/>
<path d="M368.615 704.223C368.691 705.266 368.767 706.308 368.872 707.347C369.168 707.317 369.465 707.287 369.762 707.257C369.445 705.609 369.375 704.026 369.535 702.36C369.236 702.361 368.933 702.331 368.663 702.329C369.196 705.814 368.768 709.577 368.494 713.084C368.223 716.621 367.741 720.149 367.105 723.633C367.411 723.692 367.684 723.724 367.989 723.783C368.995 717.443 369.731 711.099 370.221 704.691C370.253 704.117 369.369 703.967 369.337 704.54C368.844 710.919 368.111 717.292 367.105 723.633C367.014 724.212 367.898 724.363 367.989 723.783C368.667 720.115 369.127 716.379 369.41 712.661C369.666 709.276 370.074 705.605 369.553 702.239C369.475 701.767 368.719 701.693 368.681 702.207C368.496 703.935 368.579 705.637 368.901 707.344C369.018 707.902 369.851 707.848 369.791 707.254C369.716 706.212 369.64 705.169 369.535 704.13C369.478 703.566 368.588 703.656 368.615 704.223Z" fill="black"/>
<path opacity="0.19" d="M352.241 703.212C352.935 709.171 353.432 717.339 352.639 726.958C351.783 737.153 349.721 745.19 346.75 757.279C344.336 767.182 342.994 770.198 340.626 781.146C339.173 787.802 338.237 793.356 337.655 797.074C336.002 797.031 332.552 796.691 328.915 794.51C325.533 792.483 323.649 789.854 322.789 788.471C327.276 778.328 329.895 769.575 331.471 763.236C336.348 743.635 336.284 727.024 336.178 716.807C336.137 712.552 335.989 709.027 335.847 706.732C341.301 705.55 346.787 704.394 352.241 703.212Z" fill="#6D6C6C"/>
<path opacity="0.24" d="M349.273 704.383C347.991 714.801 346.134 723.088 344.596 728.912C343.345 733.718 341.336 740.221 337.346 753.193C335.884 757.99 335.137 760.375 334.767 761.463C332.522 768.289 328.794 777.935 322.444 789.496C327.903 776.825 333.824 758.949 335.704 736.982C336.65 725.908 336.387 715.916 335.607 707.326C335.575 707.3 335.575 707.3 349.273 704.383Z" fill="#6D6C6C"/>
<path d="M377.419 698.611L333.36 706.473C332.089 697.818 331.407 690.48 331.024 684.996L331.024 684.991C330.362 676.095 329.986 665.321 331.674 652.616L331.674 652.614C332.869 643.509 334.194 640.561 336.274 638.162L336.274 638.162L336.277 638.158C340.655 633.056 347.177 631.811 350.693 631.475C351.342 632.595 352.336 634.034 353.852 635.444L353.853 635.444C353.883 635.472 353.914 635.501 353.944 635.529C355.133 636.634 356.861 638.239 359.259 638.704C361.674 639.189 363.867 638.377 365.452 637.457C366.527 636.833 367.374 636.129 367.894 635.653C371.678 637.403 375.459 639.153 379.216 640.905C380.013 645.639 380.685 652.631 379.7 660.919C379.24 664.771 378.639 667.042 378.056 669.241C378.023 669.366 377.99 669.49 377.957 669.614C377.335 671.972 376.75 674.328 376.43 678.416C375.938 684.525 376.37 690.2 376.854 694.342C377.037 695.91 377.229 697.269 377.38 698.339C377.393 698.432 377.406 698.523 377.419 698.611Z" fill="#27AE60" stroke="black" stroke-width="2"/>
<path opacity="0.3" d="M369.61 635.344C369.656 640.829 369.525 649 368.696 658.863C368.457 661.827 367.756 669.996 366.937 674.038C365.941 678.999 361.549 693.331 334.382 707.36C342.912 705.477 351.72 703.685 360.751 702.02C366.398 700.969 371.992 699.982 377.505 699.094C378.756 691.918 379.766 683.837 380.187 674.976C380.836 661.563 380.013 649.588 378.667 639.556C375.648 638.152 372.629 636.748 369.61 635.344Z" fill="#3F3F3F"/>
<path d="M354.853 610.353C354.178 615.821 354.067 621.231 351.084 628.462C350.362 630.215 349.637 631.638 349.158 632.526C350.551 633.855 355.449 638.128 362.824 638.461C367.037 638.634 370.364 637.457 372.229 636.639C372.007 634.742 371.849 632.598 371.852 630.258C371.856 626.748 372.232 623.651 372.718 621.052C376.259 620.213 379.773 619.407 383.314 618.569C383.867 616.923 384.389 615.28 384.942 613.635C385.918 613.506 386.894 613.377 387.866 613.219C386.905 611.126 385.435 607.856 383.73 603.739C380.492 596.029 380.437 594.894 378.951 593.245C374.869 588.739 366.482 586.409 361.47 589.586C357.187 592.27 356.35 598.204 354.853 610.353Z" fill="white" stroke="#161616" stroke-width="2" stroke-miterlimit="10"/>
<path d="M387.738 612.842C385.991 613.049 384.229 613.107 382.452 613.017C381.879 612.985 381.729 613.87 382.302 613.902C384.138 613.986 385.992 613.948 387.828 613.732C388.422 613.672 388.331 612.782 387.738 612.842Z" fill="#161616"/>
<path d="M387.523 598.586C385.893 597.881 384.046 598.578 383.182 600.105C382.904 600.614 383.72 600.981 383.998 600.473C384.635 599.358 385.999 598.92 387.156 599.403C387.687 599.619 388.054 598.802 387.523 598.586Z" fill="#161616"/>
<path d="M387.281 604.189C387.39 603.488 387.259 602.782 386.866 602.162C386.581 601.711 385.996 601.26 385.424 601.528C384.825 601.829 384.968 602.654 385.111 603.179C385.296 603.82 385.709 604.349 386.229 604.746C386.52 604.956 387.009 604.757 386.967 604.341C386.892 603.599 386.642 602.904 386.246 602.254C385.958 601.774 385.232 602.297 385.52 602.778C385.841 603.285 386.017 603.837 386.077 604.431C386.332 604.285 386.56 604.172 386.815 604.027C386.299 603.659 385.942 603.095 385.905 602.439C385.929 602.377 385.893 602.32 385.834 602.326C385.896 602.35 385.962 602.403 385.997 602.46C386.131 602.596 386.206 602.739 386.283 602.911C386.438 603.255 386.474 603.611 386.424 604.006C386.306 604.618 387.19 604.768 387.281 604.189Z" fill="#161616"/>
<path d="M378.688 600.71C376.852 600.326 375.025 601.231 374.144 602.88C373.865 603.388 374.682 603.756 374.96 603.248C375.667 601.946 377.099 601.291 378.538 601.595C379.087 601.69 379.24 600.834 378.688 600.71Z" fill="#161616"/>
<path d="M379.68 605.769C379.655 604.932 379.2 603.688 378.303 603.419C377.131 603.088 377.29 604.661 377.508 605.329C377.725 605.997 378.383 607.16 379.251 606.562C379.586 606.318 379.606 605.926 379.448 605.553C379.184 605.009 378.8 604.478 378.45 603.974C378.23 604.176 378.011 604.378 377.792 604.58C377.952 604.684 378.023 604.797 378.101 604.969C378.306 605.518 379.142 605.194 378.937 604.644C378.815 604.327 378.639 604.075 378.348 603.864C377.927 603.547 377.438 604.046 377.691 604.471C377.83 604.667 377.943 604.895 378.083 605.091C378.19 605.26 378.315 605.607 378.476 605.711C378.526 605.916 378.615 605.907 378.657 605.723C378.591 605.669 378.553 605.583 378.514 605.497C378.407 605.328 378.326 605.126 378.276 604.921C378.195 604.72 378.204 604.509 378.156 604.334C378.141 604.185 378.141 604.185 378.153 604.304C378.251 604.384 378.32 604.467 378.388 604.55C378.664 604.912 378.766 605.322 378.781 605.77C378.791 606.459 379.681 606.369 379.68 605.769Z" fill="#161616"/>
<path d="M380.458 595.102C380.025 593.496 379.135 590.917 377.105 588.333C376.383 587.416 374.87 585.499 372.593 584.32C368.292 582.086 362.113 582.922 357.933 586.615C353.835 590.239 352.214 596.133 353.767 601.704C362.655 599.514 371.573 597.321 380.458 595.102Z" fill="#DB4842"/>
<path d="M394.935 590.696C381.201 593.857 367.496 597.014 353.762 600.175C352.093 600.554 352.363 603.226 354.033 602.847C367.767 599.687 381.471 596.529 395.205 593.368C396.875 592.989 396.634 590.314 394.935 590.696Z" fill="#161616"/>
<path d="M362.749 600.435C365.301 601.076 366.896 602.625 368.732 604.478C372.662 608.37 371.783 610.048 374.513 612.441C378.855 616.261 382.577 613.364 386.465 617.14C389.786 620.343 389.879 625.103 389.872 626.213C389.858 627.264 389.751 631.535 386.605 634.793C383.862 637.59 379.888 638.592 379.594 638.052C379.484 637.854 379.759 637.316 381.833 635.606C381.226 636.117 380.274 636.784 378.993 637.153C377.508 637.574 376.027 637.454 376.006 637.246C375.988 637.068 376.789 636.987 377.346 636.27C377.692 635.845 377.792 635.355 377.842 634.96C376.707 635.885 375.264 636.721 373.735 636.426C369.637 635.611 368.032 626.865 367.497 623.95C365.767 614.557 367.97 609.085 364.34 606.093C364.046 605.853 362.573 604.622 361.117 605.04C359.285 605.585 358.182 608.606 358.968 610.446C359.667 612.025 361.554 612.314 361.466 612.623C361.327 613.027 358.123 612.752 355.299 610.908C354.272 610.232 353.408 609.69 352.908 608.601C351.997 606.713 352.599 604.372 353.561 602.925C355.598 599.959 359.98 599.726 362.749 600.435Z" fill="#161616" stroke="#161616" stroke-width="2" stroke-miterlimit="10"/>
<path opacity="0.22" d="M360.309 613.04C360.909 613.039 361.742 612.985 361.78 612.771C361.801 612.679 361.578 612.552 361.578 612.552C361.575 612.522 362.381 613.37 363.253 613.402C363.674 613.419 364.045 613.232 364.24 613.092C362.987 616.398 361.732 620.575 360.94 625.484C360.178 630.091 360.024 634.186 360.097 637.568C358.669 637.382 356.589 636.963 354.256 635.819C351.893 634.679 350.251 633.256 349.246 632.218C351.013 628.949 351.929 626.157 352.454 624.244C352.823 622.857 352.914 621.978 353.707 617.968C354.278 615.031 354.723 612.616 355.038 610.994C355.296 611.178 355.715 611.466 356.255 611.771C356.959 612.21 358.449 613.019 360.309 613.04Z" fill="#6D6C6C"/>
<path d="M367.359 583.231C363.812 584.31 361.405 587.463 361.338 590.949C361.276 595.065 364.525 597.555 364.845 597.763C361.037 598.629 357.259 599.491 353.451 600.357C353.302 599.472 353.149 598.258 353.242 596.809C353.523 592.191 355.907 589.1 356.381 588.452C357.177 587.441 360.047 584.121 364.707 583.379C365.795 583.179 366.724 583.175 367.359 583.231Z" fill="#EC615B"/>
<path d="M379.193 640.012C381.53 639.416 384.38 643.296 385.7 645.083C393.35 655.526 391.92 668.628 391.468 672.454C391.113 675.459 390.424 680.778 387.207 686.893C384.148 692.782 380.222 696.629 377.683 698.776C373.292 700.99 365.231 704.236 355.069 703.615C351.542 703.403 348.42 702.759 345.796 702.005C341.552 702.705 337.305 703.375 333.061 704.075C332.367 704.025 331.399 703.943 330.23 703.642C328.815 703.275 327.458 702.902 327.41 702.427C327.356 701.893 328.755 700.911 335.878 699.05C335.528 699.146 330.876 700.547 327.365 697.543C324.086 694.755 323.373 689.489 325.417 687.182C327.138 685.238 330.301 685.697 336.09 686.641C341.816 687.561 346.5 689.126 349.937 690.518C351.24 690.955 361.363 694.159 369.715 688.155C376.084 683.58 377.632 676.375 377.97 674.391C379.33 666.514 375.171 664.206 375.443 652.99C375.429 651.072 375.685 640.878 379.193 640.012Z" fill="white" stroke="#161616" stroke-width="2" stroke-miterlimit="10"/>
<path d="M324.96 693.917C328.428 693.836 331.804 694.334 335.093 695.44C335.621 695.627 336.017 694.807 335.459 694.623C332.014 693.443 328.483 692.9 324.867 692.997C324.303 693.054 324.393 693.945 324.96 693.917Z" fill="#161616"/>
<path d="M324.385 690.316C328.318 689.798 331.914 691.863 335.706 692.619C336.258 692.743 336.408 691.858 335.856 691.734C332.002 690.954 328.347 688.895 324.295 689.425C323.735 689.512 323.795 690.406 324.385 690.316Z" fill="#161616"/>
<path d="M327.864 686.784C331.124 686.724 334.128 687.979 337.075 689.271C337.607 689.487 337.976 688.699 337.442 688.454C334.34 687.118 331.215 685.845 327.773 685.893C327.174 685.894 327.264 686.785 327.864 686.784Z" fill="#161616"/>
<path opacity="0.18" d="M376.127 645.842C375.09 653.056 380.228 657.335 382.615 665.222C383.026 666.62 386.302 677.956 380.962 686.775C375.007 696.617 361.396 698.325 358.735 698.685C351.783 699.569 348.935 697.788 338.077 699.457C337.045 699.622 327.607 701.118 327.653 702.463C327.696 703.178 330.417 703.713 332.431 703.778C335.078 703.87 336.382 703.138 339.677 702.535C341.089 702.272 343.126 701.975 345.669 701.928C348.821 702.868 352.859 703.689 357.594 703.69C358.881 703.679 362.892 703.633 367.919 702.374C367.919 702.374 372.13 701.348 375.391 699.818C383.491 696.058 390.554 682.954 391.544 669.356C392.659 654.036 385.638 643.289 382.09 641.099C381.609 640.788 380.234 639.937 378.932 640.399C376.815 641.093 376.283 644.716 376.127 645.842Z" fill="#6D6C6C"/>
<path opacity="0.17" d="M389.55 653.511C389.075 653.559 389.65 659.23 389.066 666.488C388.704 670.904 387.966 679.887 384.643 686.433C378.723 698.101 364.616 702.019 359.225 703.225C363.978 703.403 371.2 702.822 377.851 698.369C392.274 688.69 391.769 668.914 391.675 665.324C391.483 659.285 390.024 653.463 389.55 653.511Z" fill="#6D6C6C"/>
<path d="M144.799 791.8C155.972 779.631 167.211 767.514 178.518 755.481C199.832 732.776 221.38 710.317 243.19 688.071C240.759 682.708 237.382 673.332 237.621 661.49C237.69 657.733 238.717 630.004 262.32 613.336C264.276 611.938 291.443 593.469 320.114 607.902C339.027 617.415 350.312 637.119 350.189 657.498C350.019 687.78 324.786 703.743 323.319 704.642C305.084 715.727 281.763 715.359 263.236 703.738C239.583 727.61 215.992 751.505 192.438 775.457C182.113 785.952 171.819 796.443 161.527 806.963C159.07 806.072 154.955 804.209 151.037 800.437C147.752 797.29 145.861 794.002 144.799 791.8Z" fill="#161616"/>
<path d="M298.935 703.242C324.916 700.611 343.932 678.272 341.408 653.348C338.884 628.424 315.775 610.352 289.794 612.983C263.812 615.614 244.796 637.953 247.321 662.877C249.845 687.801 272.953 705.873 298.935 703.242Z" fill="#FFD028" fill-opacity="0.96" stroke="#161616" stroke-width="2" stroke-miterlimit="10"/>
<path d="M293.872 615.089C287.117 634.191 279.898 653.159 272.24 671.931C270.079 677.219 267.888 682.51 265.664 687.775C265.448 688.306 266.265 688.674 266.48 688.142C274.388 669.464 281.859 650.62 288.861 631.584C290.835 626.225 292.777 620.839 294.715 615.424C294.905 614.925 294.088 614.558 293.872 615.089Z" fill="#E8E8E8"/>
<path d="M308.825 618.044C300.902 633.904 293.481 649.983 286.532 666.284C286.316 666.816 287.132 667.183 287.348 666.652C294.297 650.35 301.719 634.271 309.641 618.412C309.89 617.906 309.074 617.539 308.825 618.044Z" fill="#E8E8E8"/>
<path d="M285.489 671.669C282.346 679.696 278.925 687.631 275.188 695.418C274.943 695.953 275.759 696.32 276.005 695.786C279.711 688.002 283.162 680.063 286.305 672.036C286.521 671.505 285.702 671.108 285.489 671.669Z" fill="#E8E8E8"/>
<path d="M299.696 647.734C295.663 657.621 291.66 667.505 287.627 677.392C287.411 677.924 288.227 678.291 288.443 677.759C292.476 667.872 296.479 657.988 300.512 648.101C300.728 647.57 299.912 647.202 299.696 647.734Z" fill="#E8E8E8"/>
<path opacity="0.08" d="M288.384 612.976C285.212 614.497 264.353 624.828 259.62 647.324C259.074 649.928 257.407 658.316 260.229 667.538C265.634 685.108 285.02 697.812 308.946 700.308C307.226 701.082 304.807 702.047 301.761 702.745C283.371 706.978 267.639 695.733 265.795 694.39C261.777 691.408 249.262 681.157 247.226 663.126C247.037 661.556 245.322 643.732 257.516 629.51C264.618 621.232 273.537 617.569 277.282 616.08C281.661 614.346 285.558 613.472 288.384 612.976Z" fill="#6D6C6C"/>
<path d="M124.081 722.15C126.189 721.667 129.39 721.313 131.925 722.976C137.383 726.562 134.399 735.863 137.844 745.022C139.69 749.935 143.908 756.376 154.854 762.076C159.125 763.714 162.663 764.915 165.114 765.746C168.62 766.921 170.842 767.566 170.93 768.727C171.018 769.888 168.999 770.962 167.537 771.62C169.518 773.129 170.654 775.174 170.197 776.87C169.851 778.195 168.609 778.95 167.228 779.81C165.651 780.81 164.275 781.129 162.694 781.499C159.738 782.188 158.273 782.517 156.851 782.091C154.655 781.413 153.507 779.55 151.827 776.871C150.9 775.405 149.707 773.096 148.887 770.03C145.379 768.825 140.303 766.64 135.074 762.64C133.027 761.078 114.021 746.205 118.023 731.282C118.65 729.179 120.069 725.736 124.081 722.15Z" fill="white" stroke="#161616" stroke-width="2" stroke-miterlimit="10"/>
<path d="M156.567 778.4C157.474 779.958 158.739 781.21 160.304 782.161C160.785 782.472 161.152 781.655 160.671 781.344C159.266 780.496 158.125 779.292 157.293 777.877C157.004 777.396 156.278 777.919 156.567 778.4Z" fill="#161616"/>
<path d="M160.078 777.565C161.142 779.197 162.621 780.487 164.361 781.39C164.866 781.639 165.232 780.822 164.728 780.573C163.119 779.776 161.767 778.563 160.774 777.044C160.486 776.563 159.76 777.087 160.078 777.565Z" fill="#161616"/>
<path d="M163.611 775.167C164.619 776.835 166.184 778.086 168.018 778.74C168.547 778.927 168.943 778.107 168.385 777.923C166.675 777.317 165.274 776.199 164.337 774.644C164.016 774.136 163.32 774.657 163.611 775.167Z" fill="#161616"/>
<path opacity="0.2" d="M124.828 722.135C124.473 725.14 124.23 729.844 125.418 735.363C128.481 749.33 138.561 757.728 140.227 759.089C148.519 765.808 153.341 764.3 157.013 770.677C157.994 772.377 159.827 776.271 163.897 777.988C165.491 778.636 166.944 778.789 167.906 778.812C167.443 779.279 166.67 779.927 165.621 780.513C163.863 781.501 162.264 781.693 159.746 781.978C157.88 782.197 156.931 782.293 156.061 781.991C154.23 781.367 153.231 779.788 152.821 778.99C151.31 775.903 149.828 772.814 148.317 769.728C142.232 767.344 133.51 762.889 126.127 754.488C123.046 750.991 117.881 744.975 117.479 737.157C117.299 733.605 118.177 731.027 118.384 730.406C120.048 725.828 123.319 723.217 124.828 722.135Z" fill="#6D6C6C"/>
<path opacity="0.32" d="M118.048 738.929C118.22 738.851 119.708 742.3 122.354 746.231C128.822 755.955 137.291 761.456 143.342 765.282C146.094 767.013 148.41 768.279 149.867 769.061C151.811 771.683 153.004 773.992 153.745 775.687C154.367 777.094 154.766 778.373 156.002 779.628C157.279 780.998 158.817 781.682 159.933 782.049C159.135 782.16 157.913 782.224 156.577 781.759C154.031 780.877 152.725 778.64 151.346 776.26C150.549 774.901 149.561 772.841 148.866 770.122C132.589 763.852 125.774 754.554 123.104 750.085C120.362 745.503 117.823 739.072 118.048 738.929Z" fill="#6D6C6C"/>
<path d="M138.242 693.331C136.22 694.376 137.887 698.406 134.887 702.519C133.416 704.558 131.489 705.653 130.146 706.299C131.171 707.545 133.141 709.535 136.192 710.966C138.365 712.005 140.383 712.401 141.775 712.53C142.138 711.683 142.754 710.361 143.523 708.784C146.289 703.254 147.418 702.57 147.422 700.83C147.44 696.569 140.833 691.989 138.242 693.331Z" fill="white" stroke="#161616" stroke-width="2" stroke-miterlimit="10"/>
<path d="M138.668 701.386C140.131 703.698 141.65 705.974 143.856 707.64C144.311 707.984 144.871 707.297 144.416 706.953C142.275 705.34 140.818 703.088 139.394 700.863C139.076 700.385 138.35 700.909 138.668 701.386Z" fill="#161616"/>
<path d="M137.616 699.873C139.251 702.407 141.002 704.9 143.778 706.268C144.249 706.49 144.634 705.851 144.239 705.501C143.286 704.668 142.303 703.838 141.379 703.002C141.192 703.231 141.006 703.459 140.819 703.688C141.378 704.172 141.963 704.622 142.598 704.978C142.821 705.105 143.503 705.336 143.64 705.502C143.848 705.781 143.718 706.274 143.659 706.58C143.965 706.639 144.238 706.671 144.544 706.73C144.558 706.579 144.543 706.431 144.561 706.309C144.581 705.917 144.064 705.549 143.774 705.939C143.741 705.612 143.619 705.294 143.384 705.048C143.132 705.224 142.91 705.396 142.658 705.572C143.03 705.984 143.401 706.396 143.772 706.809C143.992 706.606 144.211 706.404 144.43 706.202C144.133 705.932 143.895 705.656 143.655 705.351C143.349 704.992 142.631 705.304 142.89 705.788C143.107 706.156 143.181 706.299 143.481 706.598C143.882 707.007 144.442 706.321 144.041 705.912C143.937 705.772 143.833 705.633 143.726 705.463C143.471 705.609 143.216 705.755 142.961 705.901C143.267 706.26 143.57 706.589 143.903 706.915C144.268 707.268 144.899 706.694 144.561 706.309C144.189 705.896 143.818 705.484 143.447 705.072C143.072 704.63 142.432 705.115 142.72 705.595C143.077 706.159 143.812 707.494 144.522 706.523C144.27 706.398 143.988 706.277 143.736 706.152C143.721 706.304 143.736 706.452 143.719 706.574C143.687 707.147 144.512 707.304 144.603 706.724C144.738 705.991 145.209 705.613 144.544 704.961C144.244 704.661 143.784 704.558 143.437 704.383C142.709 704.007 142.062 703.532 141.438 702.996C141.011 702.619 140.451 703.306 140.879 703.682C141.832 704.516 142.785 705.349 143.739 706.182C143.893 705.927 144.047 705.671 144.201 705.415C141.582 704.121 139.959 701.706 138.399 699.314C138.021 698.842 137.298 699.396 137.616 699.873Z" fill="#161616"/>
<path d="M164.734 682.699C164.408 685.402 163.589 689.444 161.21 693.765C157.034 701.356 150.694 705.028 147.958 706.415C146.263 705.957 144.016 705.074 141.81 703.408C135.772 698.83 134.644 691.836 134.402 690.031C133.793 689.942 132.9 689.703 132.086 689.065C130.002 687.417 129.187 683.81 130.784 682.119C132.596 680.195 136.607 681.919 137.043 682.085C138.014 682.496 138.729 683.054 139.193 683.487C140.325 678.393 143.864 674.285 148.443 673.041C154.686 671.359 162.095 675.288 164.734 682.699Z" fill="white" stroke="#161616" stroke-width="2" stroke-miterlimit="10"/>
<path d="M158.275 690.522C157.359 693.315 155.84 695.778 153.775 697.877C153.367 698.278 154.053 698.839 154.461 698.437C156.612 696.3 158.154 693.774 159.091 690.89C159.274 690.331 158.458 689.964 158.275 690.522Z" fill="#161616"/>
<path d="M152.447 696.002C152.43 697.023 152.886 697.967 153.643 698.64C154.071 699.017 154.63 698.33 154.203 697.954C153.609 697.414 153.329 696.722 153.337 695.912C153.339 695.342 152.449 695.432 152.447 696.002Z" fill="#161616"/>
<path d="M150.123 691.108C150.786 689.961 151.609 688.918 152.56 687.952C152.308 687.827 152.026 687.706 151.774 687.581C151.508 688.808 150.774 689.842 149.737 690.547C149.939 690.767 150.141 690.986 150.343 691.206C150.941 690.305 151.542 689.435 152.14 688.534C152.451 688.053 151.765 687.492 151.454 687.974C150.856 688.874 150.255 689.745 149.657 690.645C149.37 691.064 149.842 691.586 150.263 691.304C151.496 690.459 152.328 689.205 152.661 687.762C152.761 687.272 152.177 687.121 151.874 687.391C150.867 688.393 150.02 689.499 149.336 690.738C149.029 691.249 149.845 691.616 150.123 691.108Z" fill="#161616"/>
<path d="M160.235 692.724C160.555 692.031 161.002 691.416 161.514 690.854C161.262 690.73 160.98 690.609 160.728 690.484C160.551 691.402 160.098 692.258 159.384 692.9C159.61 693.057 159.862 693.181 160.088 693.339C160.218 692.845 160.44 692.373 160.727 691.954C161.038 691.473 160.352 690.912 160.041 691.394C159.68 691.97 159.407 692.538 159.233 693.185C159.121 693.556 159.664 693.891 159.937 693.624C160.814 692.815 161.403 691.826 161.615 690.664C161.718 690.204 161.128 689.994 160.828 690.294C160.26 690.892 159.792 691.599 159.419 692.356C159.141 692.865 159.957 693.232 160.235 692.724Z" fill="#161616"/>
<path d="M146.846 689.221C147.396 690.215 147.741 691.26 147.852 692.358C147.883 692.655 148.327 692.61 148.297 692.313C148.177 691.125 147.793 689.994 147.207 688.944C147.061 688.689 146.7 688.965 146.846 689.221Z" fill="#161616"/>
<path d="M145.522 688.575C145.866 689.02 146.122 689.474 146.351 689.96C146.467 690.219 146.87 690.058 146.754 689.8C146.519 689.254 146.231 688.773 145.883 688.298C145.711 688.076 145.349 688.352 145.522 688.575Z" fill="#161616"/>
<path d="M152.127 685.446C153.191 685.008 154.304 685.645 154.451 686.8C154.494 687.216 155.179 687.177 155.134 686.731C154.915 685.164 153.383 684.239 151.883 684.811C151.479 684.972 151.724 685.607 152.127 685.446Z" fill="#161616"/>
<path d="M160.518 689.006C160.963 688.661 161.523 688.574 162.058 688.82C162.438 689.021 162.733 688.391 162.327 688.223C161.602 687.876 160.742 687.963 160.135 688.475C159.803 688.748 160.186 689.279 160.518 689.006Z" fill="#161616"/>
<path d="M146.816 698.102C147.657 699.307 148.967 700.104 150.429 700.346C151.008 700.437 151.158 699.552 150.579 699.461C149.33 699.257 148.276 698.614 147.542 697.579C147.194 697.104 146.468 697.627 146.816 698.102Z" fill="#161616"/>
<path d="M139.283 684.677C139.822 683.483 141.15 680.919 144.007 678.95C145.966 677.581 147.891 677.057 149.065 676.818C149.805 677.613 150.987 678.633 152.632 679.186C156.511 680.503 159.281 677.973 161.626 679.235C162.861 679.89 164.208 681.643 164.28 686.795C166.442 688.616 167.759 688.602 168.456 688.382C171.362 687.487 172.821 680.591 170.459 675.911C169.748 674.513 168.923 673.757 162.126 669.376C152.542 663.208 151.402 662.903 150.218 662.753C143.963 661.947 138.878 665.582 138.012 666.209C136.895 667.012 136.661 667.366 130.593 675.209C125.876 681.296 125.423 681.852 125.086 683.266C124.189 686.836 124.932 691.8 128.476 695.13C131.817 698.241 135.902 698.337 136.953 698.351C136.405 697.387 135.786 696.01 135.372 694.282C134.847 692.055 134.954 690.155 135.097 688.911C134.875 688.783 133.589 687.924 133.332 686.27C133.149 685.059 133.556 683.458 134.81 682.821C136.207 682.109 138.281 682.769 139.283 684.677Z" fill="#232323"/>
<path d="M136.495 669.872C135.036 667.59 131.44 667.594 130.811 667.598C125.807 667.595 122.28 672.421 120.198 675.242C116.512 680.264 117.837 681.51 114.365 687.471C109.771 695.374 105.8 696.107 105.484 701.268C105.464 701.66 105.239 706.842 108.933 709.587C112.111 711.965 116.801 711.52 119.723 709.604C123.686 707.013 122.888 702.685 125.171 695.045C129.654 680.133 139.308 674.266 136.495 669.872Z" fill="#232323"/>
<path opacity="0.12" d="M142.365 680.196C141.657 682.667 140.912 686.552 141.449 691.267C142.302 698.799 145.946 704.009 147.729 706.228C145.966 705.687 142.995 704.458 140.232 701.738C139.1 700.623 136.436 697.983 135.365 693.622C134.867 691.663 134.876 689.983 134.94 688.836C134.747 688.706 133.42 687.73 133.305 686.002C133.22 684.871 133.66 683.297 134.89 682.722C136.263 682.073 138.314 682.796 139.286 684.707C139.523 684.083 139.863 683.299 140.408 682.463C141.086 681.465 141.791 680.734 142.365 680.196Z" fill="#6D6C6C"/>
<path opacity="0.13" d="M139.346 702.458C139.163 703.016 138.95 703.578 138.678 704.145C137.448 706.789 135.688 708.647 134.277 709.81C133.71 709.537 132.947 709.105 132.157 708.405C131.302 707.652 130.743 706.868 130.416 706.302C131.537 705.828 134.303 704.438 135.969 701.36C136.546 700.252 136.859 699.2 137.012 698.345C137.782 699.737 138.549 701.099 139.346 702.458Z" fill="#6D6C6C"/>
<path opacity="0.18" d="M135.275 688.292C135.63 690.326 136.287 692.959 137.599 695.856C139.405 699.782 141.726 702.577 143.46 704.32C141.792 703.23 139.763 701.545 138.016 699.083C136.859 697.43 135.15 695.054 134.979 691.592C134.903 690.25 135.086 689.091 135.275 688.292Z" fill="#6D6C6C"/>
<path opacity="0.32" d="M137.702 666.99C136.579 668.334 129.602 676.959 131.797 687.985C132.723 692.69 134.985 696.091 136.563 698.06C135.608 698.097 133.748 698.076 131.644 697.119C129.539 696.162 128.258 694.762 127.676 694.041C127.227 693.457 126.65 692.495 126.224 691.249C126.224 691.249 125.438 688.809 126.104 685.622C126.799 682.132 130.818 675.066 137.702 666.99Z" fill="#111111"/>
<path opacity="0.33" d="M122.142 673.425C122.869 673.802 119.905 682.111 116.453 689.449C113.344 696.033 111.68 697.941 111.797 701.769C111.93 705.744 113.934 708.961 115.649 711.097C114.913 711.231 112.134 711.603 109.507 709.919C108.063 708.986 107.225 707.811 106.821 707.072C105.898 705.066 104.969 702.1 105.926 699.124C106.561 697.11 107.525 696.862 110.267 693.465C112.69 690.46 115.086 687.488 116.638 683.281C117.439 681.131 117.644 679.61 119.13 677.12C120.101 675.462 121.729 673.197 122.142 673.425Z" fill="#111111"/>
<path d="M69.9406 751.793C69.6483 751.239 69.3451 750.587 69.5587 749.942C69.741 749.391 70.0573 748.95 70.3021 748.43C70.767 747.441 71.0839 746.342 71.4723 745.319C71.8569 744.306 72.1785 743.243 72.5126 742.205C72.7468 741.478 73.0507 740.732 73.2172 739.99" stroke="#27AE60" stroke-linecap="round" stroke-linejoin="round"/>
<path d="M68.1816 753.624C67.7059 753.236 66.9948 752.707 66.6789 752.172C66.4583 751.799 66.2136 751.412 65.9311 751.081C65.3314 750.379 64.969 749.404 64.2002 748.869C63.8793 748.646 63.6429 748.331 63.3432 748.087C63.0275 747.829 62.6253 747.664 62.3029 747.414C61.8134 747.035 60.8387 746.987 60.4636 746.531" stroke="#27AE60" stroke-linecap="round" stroke-linejoin="round"/>
</g>
<rect y="-10" width="413" height="906" fill="url(#paint2_radial)" fill-opacity="0.56"/>
</g>
<defs>
<linearGradient id="paint0_linear" x1="19.6" y1="26.8333" x2="792.699" y2="530.634" gradientUnits="userSpaceOnUse">
<stop stop-color="#0F2027"/>
<stop offset="0.567708" stop-color="#203A43"/>
<stop offset="1" stop-color="#2C5364"/>
</linearGradient>
<linearGradient id="paint1_linear" x1="485.036" y1="774.671" x2="-80.1709" y2="853.324" gradientUnits="userSpaceOnUse">
<stop stop-color="#2C5364"/>
<stop offset="1" stop-color="#203A43"/>
</linearGradient>
<radialGradient id="paint2_radial" cx="0" cy="0" r="1" gradientUnits="userSpaceOnUse" gradientTransform="translate(277 713.5) rotate(-132.143) scale(205.67 297.359)">
<stop stop-opacity="0"/>
<stop offset="1"/>
</radialGradient>
<clipPath id="clip0">
<rect width="414" height="896" fill="white"/>
</clipPath>
<clipPath id="clip1">
<rect width="896" height="414" fill="white" transform="translate(414) rotate(90)"/>
</clipPath>
<clipPath id="clip2">
<rect width="477.016" height="402.607" fill="white" transform="translate(-11.5831 514.374) rotate(-5.78312)"/>
</clipPath>
</defs>
</svg>
