<svg width="4070" height="2216" viewBox="0 0 4070 2216" fill="none" xmlns="http://www.w3.org/2000/svg">
<g id="Group 48" filter="url(#filter0_dd)">
<path id="g21" opacity="0.93" d="M808.543 464.094L806.023 452.323L798.179 461.455C764.984 500.106 724.46 526.978 673.705 537.845C552.375 563.822 432.458 484.144 405.844 359.836C379.234 235.543 456.448 113.645 577.794 87.6649C699.169 61.6787 819.303 140.396 845.906 264.658C857.166 317.248 850.544 370.173 828.953 412.085L823.178 423.292L835.507 420.653L853.062 416.895C858 415.838 863.821 417.1 868.738 420.358C868.74 420.359 868.742 420.36 868.745 420.361L1000.45 508.031C1010.66 515.15 1013.35 529.015 1007.1 538.429L1007.06 538.485L1007.03 538.541L983.116 576.368L983.081 576.424L983.047 576.481C977.226 586.159 964.438 589.041 954.547 582.485L954.536 582.479L954.526 582.471L821.983 495.427C821.981 495.426 821.979 495.425 821.977 495.423C817.065 492.166 813.49 487.201 812.382 482.031L808.543 464.094ZM770.9 281.678C753.395 199.916 674.149 147.661 594.298 164.757C513.985 181.952 463.546 261.985 481.048 343.735C498.55 425.485 577.337 477.851 657.65 460.656C737.963 443.461 788.402 363.428 770.9 281.678Z" stroke="url(#paint0_linear)" stroke-width="10.6667"/>
<path id="g20" opacity="0.87" d="M1390.96 386.232L1398.73 385.961L1393.81 379.939C1366.47 346.485 1350.01 308.612 1348.48 264.551C1344.8 159.249 1429.24 70.8887 1537.05 67.1237C1644.86 63.3591 1735.28 145.992 1738.96 251.303C1742.63 356.634 1658.97 445.327 1551.18 449.09C1505.59 450.682 1462.33 437.294 1430.47 412.986L1423.99 408.045L1424.27 416.186L1424.81 431.324C1424.97 435.948 1422.9 440.894 1419.29 444.69C1419.29 444.691 1419.29 444.692 1419.29 444.693L1326.99 541.153C1319.16 549.012 1306.5 549.279 1299.1 542.22L1299.07 542.191L1299.04 542.162L1271.15 516.709L1271.11 516.68L1271.09 516.652C1263.38 509.929 1262.88 498.105 1270.23 490.389V490.383L1270.24 490.377L1362.13 393.133C1362.13 393.133 1362.13 393.133 1362.13 393.132C1365.74 389.339 1370.68 386.94 1375.49 386.772L1390.96 386.232ZM1548.05 381.912C1617.92 379.472 1672.5 321.89 1670.12 253.707C1667.73 185.127 1609.27 131.89 1539.4 134.33C1469.53 136.769 1414.93 193.955 1417.33 262.535C1419.72 331.114 1478.18 384.352 1548.05 381.912Z" stroke="url(#paint1_linear)" stroke-width="10.6667"/>
<path id="g19" opacity="0.78" d="M2548.63 384.347L2545.5 377.93L2542.28 384.306C2526.4 415.831 2503.61 440.683 2471.25 456.464C2393.91 494.184 2299.93 460.544 2261.3 381.341C2222.68 302.146 2254.3 207.233 2331.65 169.51C2409.01 131.778 2502.97 164.732 2541.59 243.91C2557.93 277.41 2562.31 314.133 2554.76 345.964L2553.03 353.24L2559.76 349.962L2570.9 344.526C2574.2 342.918 2578.48 342.807 2582.44 344.218C2582.44 344.219 2582.44 344.219 2582.44 344.22L2685.32 381.125C2693.62 384.305 2697.92 393.471 2695.17 401.144L2695.16 401.181L2695.15 401.219L2685.4 430.554L2685.39 430.591L2685.38 430.628C2682.98 438.413 2674.54 442.625 2666.51 439.766L2666.5 439.763L2666.5 439.761L2563.17 403.417C2563.17 403.415 2563.16 403.415 2563.16 403.413C2559.21 402 2555.85 399.172 2554.18 395.735L2548.63 384.347ZM2493.08 268.293C2467.9 216.661 2406.43 194.923 2356.03 219.505C2305.34 244.229 2284.92 305.915 2310.1 357.541C2335.28 409.167 2396.46 431.054 2447.15 406.329C2497.85 381.605 2518.26 319.919 2493.08 268.293Z" stroke="url(#paint2_linear)" stroke-width="10.6667"/>
<path id="g18" opacity="0.78" d="M541.805 1574.44L538.673 1568.03L535.461 1574.4C519.573 1605.93 496.783 1630.78 464.424 1646.56C387.088 1684.28 293.109 1650.64 254.478 1571.44C215.854 1492.24 247.476 1397.33 324.825 1359.61C402.187 1321.87 496.153 1354.83 534.771 1434.01C551.11 1467.51 555.49 1504.23 547.937 1536.06L546.212 1543.34L552.935 1540.06L564.077 1534.62C567.376 1533.01 571.656 1532.9 575.618 1534.32C575.618 1534.32 575.618 1534.32 575.618 1534.32L678.497 1571.22C686.8 1574.4 691.093 1583.57 688.353 1591.24L688.339 1591.28L688.326 1591.32L678.577 1620.65L678.57 1620.69L678.557 1620.72C676.161 1628.51 667.713 1632.72 659.689 1629.86L659.683 1629.86L659.676 1629.86L556.346 1593.51C556.346 1593.51 556.339 1593.51 556.339 1593.51C552.384 1592.1 549.032 1589.27 547.353 1585.83L541.805 1574.44ZM486.258 1458.39C461.079 1406.76 399.605 1385.02 349.207 1409.6C298.518 1434.33 278.097 1496.01 303.276 1547.64C328.455 1599.26 389.637 1621.15 440.327 1596.43C491.023 1571.7 511.437 1510.02 486.258 1458.39Z" stroke="url(#paint3_linear)" stroke-width="10.6667"/>
<path id="g17" opacity="0.78" d="M3395.81 2057.44L3392.67 2051.03L3389.46 2057.4C3373.57 2088.93 3350.78 2113.78 3318.42 2129.56C3241.09 2167.28 3147.11 2133.64 3108.48 2054.44C3069.85 1975.24 3101.48 1880.33 3178.82 1842.61C3256.19 1804.87 3350.15 1837.83 3388.77 1917.01C3405.11 1950.51 3409.49 1987.23 3401.94 2019.06L3400.21 2026.34L3406.93 2023.06L3418.08 2017.62C3421.38 2016.01 3425.66 2015.9 3429.62 2017.32C3429.62 2017.32 3429.62 2017.32 3429.62 2017.32L3532.5 2054.22C3540.8 2057.4 3545.09 2066.57 3542.35 2074.24L3542.34 2074.28L3542.33 2074.32L3532.58 2103.65L3532.57 2103.69L3532.56 2103.72C3530.16 2111.51 3521.71 2115.72 3513.69 2112.86L3513.68 2112.86L3513.68 2112.86L3410.35 2076.51C3410.35 2076.51 3410.34 2076.51 3410.34 2076.51C3406.38 2075.1 3403.03 2072.27 3401.35 2068.83L3395.81 2057.44ZM3340.26 1941.39C3315.08 1889.76 3253.6 1868.02 3203.21 1892.6C3152.52 1917.33 3132.1 1979.01 3157.28 2030.64C3182.46 2082.26 3243.64 2104.15 3294.33 2079.43C3345.02 2054.7 3365.44 1993.02 3340.26 1941.39Z" stroke="url(#paint4_linear)" stroke-width="10.6667"/>
<path id="g16" opacity="0.78" d="M2219.81 816.444L2216.67 810.027L2213.46 816.403C2197.57 847.928 2174.78 872.78 2142.42 888.561C2065.09 926.281 1971.11 892.64 1932.48 813.438C1893.85 734.243 1925.48 639.33 2002.82 601.606C2080.19 563.875 2174.15 596.829 2212.77 676.006C2229.11 709.507 2233.49 746.23 2225.94 778.061L2224.21 785.337L2230.93 782.059L2242.08 776.622C2245.38 775.014 2249.66 774.904 2253.62 776.315C2253.62 776.316 2253.62 776.316 2253.62 776.316L2356.5 813.222C2364.8 816.401 2369.09 825.568 2366.35 833.241L2366.34 833.277L2366.33 833.315L2356.58 862.651L2356.57 862.688L2356.56 862.725C2354.16 870.51 2345.71 874.722 2337.69 871.863L2337.68 871.86L2337.68 871.858L2234.35 835.513C2234.35 835.512 2234.34 835.511 2234.34 835.51C2230.38 834.097 2227.03 831.269 2225.35 827.832L2219.81 816.444ZM2164.26 700.39C2139.08 648.757 2077.6 627.02 2027.21 651.602C1976.52 676.326 1956.1 738.012 1981.28 789.638C2006.46 841.264 2067.64 863.15 2118.33 838.426C2169.02 813.702 2189.44 752.016 2164.26 700.39Z" stroke="url(#paint5_linear)" stroke-width="10.6667"/>
<path id="g15" opacity="0.77" d="M3454.73 551.233L3464.7 547.203L3455.46 541.704C3402.21 510.037 3361.46 467.069 3337.78 408.445C3281.17 268.345 3351.63 107.862 3495.06 49.9096C3638.48 -8.03608 3800.86 58.9636 3857.47 199.077C3914.09 339.216 3844.84 499.767 3701.45 557.702C3640.79 582.209 3575.93 585.387 3521.07 568.255L3510.31 564.897L3514.53 575.344L3522.66 595.47C3525.17 601.673 3524.81 609.4 3521.78 616.322C3521.78 616.324 3521.78 616.326 3521.78 616.328L3444.77 791.461C3438.03 805.974 3421.01 812.589 3407.48 806.664L3407.43 806.64L3407.37 806.617L3357.34 786.012L3357.29 785.99L3357.23 785.968C3343.46 780.65 3336.94 764.856 3343.1 750.765L3343.11 750.755V750.745L3419.19 574.755C3419.19 574.754 3419.19 574.752 3419.19 574.75C3422.22 567.832 3427.72 562.145 3434.17 559.541L3454.73 551.233ZM3664.15 468.422C3756.95 430.927 3802.18 326.744 3765.6 236.196C3728.8 145.122 3624.1 102.126 3531.3 139.617C3438.51 177.107 3393.06 280.769 3429.86 371.843C3466.65 462.917 3571.36 505.912 3664.15 468.422Z" stroke="url(#paint6_linear)" stroke-width="10.6667"/>
<path id="g14" opacity="0.77" d="M1050.36 1297.3L1055.42 1295.25L1050.73 1292.46C1023.67 1276.37 1002.97 1254.54 990.938 1224.75C962.176 1153.57 997.974 1072.04 1070.85 1042.59C1143.71 1013.15 1226.21 1047.19 1254.97 1118.38C1283.74 1189.58 1248.56 1271.15 1175.71 1300.59C1144.89 1313.04 1111.93 1314.65 1084.06 1305.95L1078.59 1304.24L1080.74 1309.55L1084.87 1319.77C1086.14 1322.93 1085.96 1326.85 1084.42 1330.37C1084.42 1330.37 1084.42 1330.37 1084.42 1330.37L1045.3 1419.35C1041.87 1426.72 1033.22 1430.08 1026.35 1427.07L1026.32 1427.06L1026.29 1427.05L1000.88 1416.58L1000.85 1416.57L1000.82 1416.56C993.823 1413.86 990.511 1405.83 993.641 1398.67L993.646 1398.67V1398.66L1032.3 1309.25C1032.3 1309.25 1032.3 1309.25 1032.3 1309.25C1033.84 1305.73 1036.63 1302.84 1039.91 1301.52L1050.36 1297.3ZM1156.75 1255.23C1203.9 1236.18 1226.88 1183.24 1208.3 1137.24C1189.6 1090.97 1136.41 1069.12 1089.26 1088.17C1042.11 1107.22 1019.02 1159.89 1037.72 1206.16C1056.41 1252.43 1109.61 1274.27 1156.75 1255.23Z" stroke="url(#paint7_linear)" stroke-width="10.6667"/>
<path id="g13" opacity="0.77" d="M2539.36 2042.3L2544.42 2040.25L2539.73 2037.46C2512.67 2021.37 2491.97 1999.54 2479.94 1969.75C2451.18 1898.57 2486.97 1817.04 2559.85 1787.59C2632.71 1758.15 2715.21 1792.19 2743.97 1863.38C2772.74 1934.58 2737.56 2016.15 2664.71 2045.59C2633.89 2058.04 2600.93 2059.65 2573.06 2050.95L2567.59 2049.24L2569.74 2054.55L2573.87 2064.77C2575.14 2067.93 2574.96 2071.85 2573.42 2075.37C2573.42 2075.37 2573.42 2075.37 2573.42 2075.37L2534.3 2164.35C2530.87 2171.72 2522.22 2175.08 2515.35 2172.07L2515.32 2172.06L2515.29 2172.05L2489.88 2161.58L2489.85 2161.57L2489.82 2161.56C2482.82 2158.86 2479.51 2150.83 2482.64 2143.67L2482.65 2143.67V2143.66L2521.3 2054.25C2521.3 2054.25 2521.3 2054.25 2521.3 2054.25C2522.84 2050.73 2525.63 2047.84 2528.91 2046.52L2539.36 2042.3ZM2645.75 2000.23C2692.9 1981.18 2715.88 1928.24 2697.3 1882.24C2678.6 1835.97 2625.41 1814.12 2578.26 1833.17C2531.11 1852.22 2508.02 1904.89 2526.72 1951.16C2545.41 1997.43 2598.61 2019.27 2645.75 2000.23Z" stroke="url(#paint8_linear)" stroke-width="10.6667"/>
<path id="g12" opacity="0.8" d="M291.223 1009.07L291.905 1005.2L288.414 1007C269.378 1016.81 249.321 1020.89 227.803 1017.09C176.374 1008.02 142.238 957.981 151.523 905.324C160.807 852.672 210.185 817.351 261.619 826.42C313.062 835.49 347.439 885.189 338.157 937.834C334.23 960.101 323.281 979.696 308.214 992.637L305.094 995.316L309.145 996.028L316.541 997.335C318.789 997.729 320.968 999.233 322.431 1001.37C322.432 1001.37 322.432 1001.37 322.432 1001.38L359.69 1056.06C359.692 1056.07 359.696 1056.07 359.699 1056.08C362.693 1060.68 361.521 1066.82 357.351 1069.67L357.333 1069.68L357.315 1069.69L342.097 1080.59L342.079 1080.61L342.062 1080.62C338.024 1083.65 332.26 1082.68 329.286 1078.34L329.284 1078.33L329.282 1078.33L291.593 1023.74C291.593 1023.74 291.592 1023.74 291.592 1023.74C290.13 1021.6 289.478 1018.97 289.891 1016.63L291.223 1009.07ZM305.322 932.443C311.345 898.287 289.033 865.861 255.701 859.98C222.175 854.07 190.311 876.947 184.289 911.103C178.266 945.255 200.384 977.652 233.91 983.562C267.436 989.476 299.3 966.595 305.322 932.443Z" stroke="url(#paint9_linear)" stroke-width="10.6667"/>
<path id="g11" opacity="0.8" d="M1643.22 1009.07L1643.91 1005.2L1640.41 1007C1621.38 1016.81 1601.32 1020.89 1579.8 1017.09C1528.37 1008.02 1494.24 957.981 1503.52 905.324C1512.81 852.672 1562.19 817.351 1613.62 826.42C1665.06 835.49 1699.44 885.189 1690.16 937.834C1686.23 960.101 1675.28 979.696 1660.21 992.637L1657.09 995.316L1661.14 996.028L1668.54 997.335C1670.79 997.729 1672.97 999.233 1674.43 1001.37C1674.43 1001.37 1674.43 1001.37 1674.43 1001.38L1711.69 1056.06C1711.69 1056.07 1711.7 1056.07 1711.7 1056.08C1714.69 1060.68 1713.52 1066.82 1709.35 1069.67L1709.33 1069.68L1709.32 1069.69L1694.1 1080.59L1694.08 1080.61L1694.06 1080.62C1690.02 1083.65 1684.26 1082.68 1681.29 1078.34L1681.28 1078.33L1681.28 1078.33L1643.59 1023.74C1643.59 1023.74 1643.59 1023.74 1643.59 1023.74C1642.13 1021.6 1641.48 1018.97 1641.89 1016.63L1643.22 1009.07ZM1657.32 932.443C1663.34 898.287 1641.03 865.861 1607.7 859.98C1574.17 854.07 1542.31 876.947 1536.29 911.103C1530.27 945.255 1552.38 977.652 1585.91 983.562C1619.44 989.476 1651.3 966.595 1657.32 932.443Z" stroke="url(#paint10_linear)" stroke-width="10.6667"/>
<path id="g10" opacity="0.8" d="M159.76 318.177L163.135 316.165L159.492 314.698C139.63 306.694 123.442 294.172 112.257 275.4C85.5227 230.541 101.107 172.003 147.037 144.631C192.965 117.26 251.966 131.568 278.703 176.432C305.445 221.304 290.278 279.8 244.357 307.167C224.934 318.741 202.946 323.254 183.306 320.302L179.239 319.69L181.346 323.222L185.189 329.675C186.359 331.635 186.644 334.266 185.981 336.772C185.981 336.772 185.981 336.773 185.979 336.775L168.918 400.709C168.915 400.716 168.914 400.721 168.913 400.726C167.387 405.998 161.97 409.124 157.091 407.827L157.071 407.821L157.048 407.817L138.853 403.416L138.831 403.412L138.811 403.407C133.876 402.331 130.846 397.333 132.192 392.244L132.193 392.24L132.194 392.236L148.901 328.037C148.901 328.037 148.9 328.036 148.9 328.036C149.564 325.532 151.128 323.321 153.169 322.105L159.76 318.177ZM226.988 278.786C256.781 261.031 266.754 222.954 249.429 193.877C232 164.634 193.863 155.457 164.07 173.212C134.279 190.966 124.202 228.876 141.631 258.119C159.058 287.365 197.197 296.539 226.988 278.786Z" stroke="url(#paint11_linear)" stroke-width="10.6667"/>
<path id="g9" opacity="0.8" d="M1592.22 1589.07L1592.91 1585.2L1589.41 1587C1570.38 1596.81 1550.32 1600.89 1528.8 1597.09C1477.37 1588.02 1443.24 1537.98 1452.52 1485.32C1461.81 1432.67 1511.19 1397.35 1562.62 1406.42C1614.06 1415.49 1648.44 1465.19 1639.16 1517.83C1635.23 1540.1 1624.28 1559.7 1609.21 1572.64L1606.09 1575.32L1610.14 1576.03L1617.54 1577.33C1619.79 1577.73 1621.97 1579.23 1623.43 1581.37C1623.43 1581.37 1623.43 1581.37 1623.43 1581.38L1660.69 1636.06C1660.69 1636.07 1660.7 1636.07 1660.7 1636.08C1663.69 1640.68 1662.52 1646.82 1658.35 1649.67L1658.33 1649.68L1658.32 1649.69L1643.1 1660.59L1643.08 1660.61L1643.06 1660.62C1639.02 1663.65 1633.26 1662.68 1630.29 1658.34L1630.28 1658.33L1630.28 1658.33L1592.59 1603.74C1592.59 1603.74 1592.59 1603.74 1592.59 1603.74C1591.13 1601.6 1590.48 1598.97 1590.89 1596.63L1592.22 1589.07ZM1606.32 1512.44C1612.34 1478.29 1590.03 1445.86 1556.7 1439.98C1523.17 1434.07 1491.31 1456.95 1485.29 1491.1C1479.27 1525.26 1501.38 1557.65 1534.91 1563.56C1568.44 1569.48 1600.3 1546.6 1606.32 1512.44Z" stroke="url(#paint12_linear)" stroke-width="10.6667"/>
<path id="g8" opacity="0.8" d="M3666.89 1198.07L3656.28 1199.83L3664.11 1207.21C3695.14 1236.45 3716.04 1271.35 3723.17 1314.17C3740.21 1416.56 3669.02 1513.71 3564.1 1531.18C3459.2 1548.64 3360.3 1479.42 3343.25 1377.02C3326.2 1274.59 3396.6 1177.22 3501.48 1159.76C3545.87 1152.37 3589.84 1159.95 3624.03 1179.59L3633.8 1185.21L3631.95 1174.09L3629.47 1159.25C3628.8 1155.18 3630.05 1150.45 3632.92 1146.51L3711.38 1039.63C3717.64 1031.49 3729.14 1029.82 3736.63 1035.3L3736.68 1035.34L3736.73 1035.37L3767.47 1056.85L3767.52 1056.88L3767.57 1056.91C3775.28 1062.05 3777.18 1072.65 3771.41 1080.53V1080.54L3771.4 1080.55L3693.43 1188.16C3693.42 1188.16 3693.42 1188.16 3693.42 1188.16C3690.55 1192.09 3686.33 1194.83 3682.06 1195.54L3666.89 1198.07ZM3512.73 1222.56C3443.43 1234.09 3396.51 1298.59 3407.77 1366.28C3419.11 1434.36 3484.34 1479.79 3553.63 1468.25C3622.91 1456.72 3669.92 1392.62 3658.58 1324.53C3647.25 1256.45 3582.02 1211.02 3512.73 1222.56Z" stroke="url(#paint13_linear)" stroke-width="10.6667"/>
<path id="g7" opacity="0.8" d="M3166.22 558.074L3166.91 554.205L3163.41 556.004C3144.38 565.813 3124.32 569.887 3102.8 566.09C3051.37 557.023 3017.24 506.981 3026.52 454.324C3035.81 401.672 3085.19 366.351 3136.62 375.42C3188.06 384.49 3222.44 434.189 3213.16 486.834C3209.23 509.101 3198.28 528.696 3183.21 541.637L3180.09 544.316L3184.14 545.028L3191.54 546.335C3193.79 546.729 3195.97 548.233 3197.43 550.372C3197.43 550.372 3197.43 550.372 3197.43 550.376L3234.69 605.061C3234.69 605.069 3234.7 605.072 3234.7 605.076C3237.69 609.675 3236.52 615.819 3232.35 618.666L3232.33 618.677L3232.32 618.692L3217.1 629.592L3217.08 629.606L3217.06 629.617C3213.02 632.651 3207.26 631.68 3204.29 627.336L3204.28 627.332L3204.28 627.328L3166.59 572.738C3166.59 572.738 3166.59 572.738 3166.59 572.738C3165.13 570.599 3164.48 567.97 3164.89 565.63L3166.22 558.074ZM3180.32 481.443C3186.34 447.287 3164.03 414.861 3130.7 408.98C3097.17 403.07 3065.31 425.947 3059.29 460.103C3053.27 494.255 3075.38 526.652 3108.91 532.562C3142.44 538.476 3174.3 515.595 3180.32 481.443Z" stroke="url(#paint14_linear)" stroke-width="10.6667"/>
<path id="g6" opacity="0.8" d="M1661.45 1964.45L1667.74 1973.17L1670.87 1962.88C1680.04 1932.73 1696.26 1907.49 1722.21 1888.75C1784.27 1843.93 1871.85 1859.1 1917.82 1922.77C1963.79 1986.42 1950.43 2074.49 1888.35 2119.32C1826.26 2164.16 1738.8 2149.58 1692.85 2085.95C1673.39 2059 1663.99 2027.44 1665.77 1998.47L1666.46 1987.22L1657.32 1993.82L1648.23 2000.38C1646.08 2001.93 1642.89 2002.62 1639.62 2002.06C1639.62 2002.06 1639.62 2002.06 1639.61 2002.06L1542.32 1985.08C1535.49 1983.73 1531.11 1977.26 1532.16 1971.23L1532.17 1971.17L1532.17 1971.11L1536.33 1943.48L1536.34 1943.42L1536.35 1943.36C1537.12 1937.31 1542.82 1933.04 1549.26 1934.15H1549.27H1549.28L1646.92 1950.56C1646.92 1950.57 1646.92 1950.57 1646.92 1950.57C1650.19 1951.13 1653.09 1952.87 1654.74 1955.16L1661.45 1964.45ZM1728.83 2059.24C1759.9 2102.26 1819.32 2112.4 1861.4 2082.02C1903.73 2051.45 1912.56 1992.01 1881.49 1949C1850.43 1905.99 1791.23 1895.66 1748.9 1926.23C1706.58 1956.79 1697.77 2016.23 1728.83 2059.24Z" stroke="url(#paint15_linear)" stroke-width="10.6667"/>
<path id="g5" opacity="0.91" d="M1048.49 722.471L1043.16 723.411L1047.13 727.082C1068.8 747.108 1083.52 771.152 1088.75 800.798C1101.24 871.652 1052.55 939.423 979.997 952.217C907.459 965.006 838.465 917.723 825.973 846.864C813.476 775.995 861.619 708.068 934.143 695.279C964.825 689.873 995.346 694.816 1019.2 708.223L1024.14 711L1023.16 705.417L1021.36 695.228C1020.81 692.131 1021.73 688.6 1023.82 685.698L1077.06 611.696C1077.06 611.686 1077.07 611.681 1077.07 611.676C1081.61 605.631 1090.12 604.258 1095.77 608.312L1095.8 608.332L1095.82 608.347L1117.1 622.911L1117.13 622.931L1117.15 622.946C1122.98 626.743 1124.44 634.664 1120.22 640.558V640.563L1120.21 640.568L1067.3 715.083C1067.3 715.083 1067.3 715.083 1067.3 715.088C1065.22 717.985 1062.12 720.067 1058.9 720.635L1048.49 722.471ZM942.637 740.329C895.58 748.627 864.113 792.792 872.21 838.712C880.357 884.903 924.985 915.369 972.041 907.076C1019.09 898.778 1050.61 854.88 1042.47 808.693C1034.32 762.502 989.693 732.031 942.637 740.329Z" stroke="url(#paint16_linear)" stroke-width="10.6667"/>
<path id="g4" opacity="0.71" d="M2219.49 1500.97L2229.93 1498.37L2221.54 1491.64C2176.21 1455.27 2143.97 1410.04 2129.62 1352.5C2095.34 1214.99 2181.72 1075.12 2322.52 1040.02C2463.31 1004.92 2605.38 1088.35 2639.67 1225.87C2673.96 1363.42 2588.69 1503.51 2447.93 1538.61C2388.39 1553.45 2327.73 1547.93 2279.02 1524.86L2268.83 1520.04L2271.56 1530.97L2276.49 1550.75C2277.99 1556.75 2276.66 1563.8 2272.98 1569.78V1569.79L2178.48 1722.59C2170.39 1735.07 2153.9 1738.93 2142.26 1731.75L2142.21 1731.72L2142.16 1731.69L2098.32 1705.99L2098.27 1705.96L2098.22 1705.93C2086.27 1699.28 2082.32 1683.95 2089.8 1671.8V1671.79L2089.81 1671.78L2183.56 1518.06C2183.56 1518.05 2183.57 1518.05 2183.57 1518.04C2187.25 1512.07 2193.04 1507.57 2199.28 1506.01L2219.49 1500.97ZM2425.07 1451.33C2516.45 1428.55 2572.24 1337.4 2550 1248.23C2527.64 1158.54 2435.71 1104.77 2344.34 1127.55C2252.98 1150.33 2197.05 1240.97 2219.41 1330.65C2241.77 1420.34 2333.71 1474.11 2425.07 1451.33Z" stroke="url(#paint17_linear)" stroke-width="10.6667"/>
<path id="g3" opacity="0.71" d="M3011 942.652L3005.66 947.441L3012.7 948.785C3050.74 956.052 3083.84 972.621 3110.24 1002.02C3173.34 1072.28 3166.13 1181.59 3094.19 1246.2C3022.25 1310.81 2912.57 1306.02 2849.46 1235.76C2786.34 1165.47 2792.83 1056.38 2864.75 991.783C2895.17 964.464 2932.61 948.783 2968.49 947.165L2975.99 946.823L2970.98 941.239L2961.9 931.132C2959.14 928.067 2957.73 923.501 2958.03 918.832L2958.02 918.826L2965.98 799.369C2966.84 789.497 2975.35 782.078 2984.44 782.673L2984.48 782.675L2984.52 782.677L3018.35 784.126L3018.39 784.128L3018.43 784.131C3027.54 784.316 3034.65 792.11 3034.04 801.598L3034.04 801.604L3034.04 801.613L3026.82 921.377C3026.82 921.383 3026.81 921.386 3026.82 921.392C3026.51 926.055 3024.51 930.512 3021.32 933.378L3011 942.652ZM2905.45 1036.04C2858.75 1077.97 2854.35 1149.05 2895.28 1194.61C2936.43 1240.44 3007.34 1243.4 3054.03 1201.48C3100.71 1159.55 3105.35 1088.73 3064.2 1042.91C3023.04 997.078 2952.13 994.113 2905.45 1036.04Z" stroke="url(#paint18_linear)" stroke-width="10.6667"/>
<path id="g2" opacity="0.91" d="M983.98 1846.93L973.547 1849.53L981.94 1856.26C1013.18 1881.33 1035.34 1912.45 1045.2 1952.01C1068.79 2046.59 1009.38 2142.86 912.435 2167.03C815.508 2191.2 717.756 2133.75 694.17 2039.15C670.578 1944.53 729.231 1848.11 826.131 1823.95C867.152 1813.73 908.886 1817.54 942.342 1833.39L952.526 1838.21L949.799 1827.28L946.375 1813.54C945.459 1809.87 946.253 1805.42 948.617 1801.58C948.618 1801.58 948.619 1801.57 948.62 1801.57L1014.23 1695.48C1019.4 1687.51 1029.88 1685.15 1037.16 1689.63L1037.21 1689.66L1037.26 1689.69L1067.7 1707.54L1067.75 1707.57L1067.8 1707.6C1075.26 1711.75 1077.78 1721.35 1073.06 1729.02L1073.05 1729.03L1073.04 1729.04L1007.94 1835.79C1005.57 1839.63 1001.88 1842.46 998.021 1843.43L983.98 1846.93ZM841.219 1881.4C776.92 1897.43 737.608 1961.59 753.272 2024.42C769.027 2087.61 833.78 2125.44 898.068 2109.41C962.356 2093.38 1001.77 2029.58 986.01 1966.39C970.258 1903.2 905.507 1865.37 841.219 1881.4Z" stroke="url(#paint19_linear)" stroke-width="10.6667"/>
<path id="g1" opacity="0.76" d="M4012.49 1917.19L4002.31 1920.69L4011.26 1926.67C4038.2 1944.66 4058.2 1968.14 4068.92 1999.26C4094.55 2073.68 4053.54 2155.34 3977.21 2181.62C3900.88 2207.9 3818.19 2168.54 3792.56 2094.1C3766.92 2019.64 3807.31 1937.92 3883.61 1911.65C3915.92 1900.52 3949.77 1900.67 3977.76 1911.05L3988.33 1914.96L3984.66 1904.31L3980.91 1893.42C3980.01 1890.8 3980.29 1887.42 3981.83 1884.34L4027.47 1793.74C4030.86 1787.36 4038.61 1784.95 4044.29 1787.8L4044.35 1787.83L4044.4 1787.86L4070.33 1800.16L4070.38 1800.19L4070.44 1800.21C4076.24 1802.8 4078.77 1809.77 4075.73 1815.84V1815.85L4075.72 1815.86L4030.54 1906.96C4030.54 1906.97 4030.54 1906.97 4030.54 1906.97C4028.99 1910.05 4026.39 1912.4 4023.61 1913.36L4012.49 1917.19ZM3899.26 1955.24C3847.79 1972.96 3820.19 2028.29 3837.52 2078.62C3854.95 2129.24 3910.67 2155.55 3962.13 2137.84C4013.58 2120.12 4041.29 2065.08 4023.86 2014.46C4006.43 1963.84 3950.71 1937.53 3899.26 1955.24Z" stroke="url(#paint20_linear)" stroke-width="10.6667"/>
</g>
<defs>
<filter id="filter0_dd" x="0.476562" y="0.871094" width="4101.88" height="2214.24" filterUnits="userSpaceOnUse" color-interpolation-filters="sRGB">
<feFlood flood-opacity="0" result="BackgroundImageFix"/>
<feColorMatrix in="SourceAlpha" type="matrix" values="0 0 0 0 0 0 0 0 0 0 0 0 0 0 0 0 0 0 127 0"/>
<feOffset dy="4"/>
<feGaussianBlur stdDeviation="2"/>
<feColorMatrix type="matrix" values="0 0 0 0 1 0 0 0 0 0.869943 0 0 0 0 0.545833 0 0 0 1 0"/>
<feBlend mode="normal" in2="BackgroundImageFix" result="effect1_dropShadow"/>
<feColorMatrix in="SourceAlpha" type="matrix" values="0 0 0 0 0 0 0 0 0 0 0 0 0 0 0 0 0 0 127 0"/>
<feOffset dx="10" dy="10"/>
<feGaussianBlur stdDeviation="5"/>
<feColorMatrix type="matrix" values="0 0 0 0 0.808333 0 0 0 0 0.372486 0 0 0 0 0.127986 0 0 0 1 0"/>
<feBlend mode="normal" in2="effect1_dropShadow" result="effect2_dropShadow"/>
<feBlend mode="normal" in="SourceGraphic" in2="effect2_dropShadow" result="shape"/>
</filter>
<linearGradient id="paint0_linear" x1="628.59" y1="70.6859" x2="750.221" y2="638.797" gradientUnits="userSpaceOnUse">
<stop stop-color="#CC5E17"/>
<stop offset="1" stop-color="#FDBB1B"/>
</linearGradient>
<linearGradient id="paint1_linear" x1="1744.37" y1="296.048" x2="1254.49" y2="313.156" gradientUnits="userSpaceOnUse">
<stop stop-color="#CC5E17"/>
<stop offset="1" stop-color="#FDBB1B"/>
</linearGradient>
<linearGradient id="paint2_linear" x1="2363.14" y1="150.211" x2="2539.06" y2="510.916" gradientUnits="userSpaceOnUse">
<stop stop-color="#CC5E17"/>
<stop offset="1" stop-color="#FDBB1B"/>
</linearGradient>
<linearGradient id="paint3_linear" x1="356.315" y1="1340.31" x2="532.242" y2="1701.01" gradientUnits="userSpaceOnUse">
<stop stop-color="#CC5E17"/>
<stop offset="1" stop-color="#FDBB1B"/>
</linearGradient>
<linearGradient id="paint4_linear" x1="3210.32" y1="1823.31" x2="3386.24" y2="2184.01" gradientUnits="userSpaceOnUse">
<stop stop-color="#CC5E17"/>
<stop offset="1" stop-color="#FDBB1B"/>
</linearGradient>
<linearGradient id="paint5_linear" x1="2034.32" y1="582.307" x2="2210.24" y2="943.013" gradientUnits="userSpaceOnUse">
<stop stop-color="#CC5E17"/>
<stop offset="1" stop-color="#FDBB1B"/>
</linearGradient>
<linearGradient id="paint6_linear" x1="3886.52" y1="256.747" x2="3235.22" y2="519.89" gradientUnits="userSpaceOnUse">
<stop stop-color="#CC5E17"/>
<stop offset="1" stop-color="#FDBB1B"/>
</linearGradient>
<linearGradient id="paint7_linear" x1="1269.73" y1="1147.68" x2="938.831" y2="1281.37" gradientUnits="userSpaceOnUse">
<stop stop-color="#CC5E17"/>
<stop offset="1" stop-color="#FDBB1B"/>
</linearGradient>
<linearGradient id="paint8_linear" x1="2758.73" y1="1892.68" x2="2427.83" y2="2026.37" gradientUnits="userSpaceOnUse">
<stop stop-color="#CC5E17"/>
<stop offset="1" stop-color="#FDBB1B"/>
</linearGradient>
<linearGradient id="paint9_linear" x1="283.884" y1="828.369" x2="241.68" y2="1067.72" gradientUnits="userSpaceOnUse">
<stop stop-color="#CC5E17"/>
<stop offset="1" stop-color="#FDBB1B"/>
</linearGradient>
<linearGradient id="paint10_linear" x1="1635.88" y1="828.369" x2="1593.68" y2="1067.72" gradientUnits="userSpaceOnUse">
<stop stop-color="#CC5E17"/>
<stop offset="1" stop-color="#FDBB1B"/>
</linearGradient>
<linearGradient id="paint11_linear" x1="291.774" y1="194.561" x2="82.996" y2="318.982" gradientUnits="userSpaceOnUse">
<stop stop-color="#CC5E17"/>
<stop offset="1" stop-color="#FDBB1B"/>
</linearGradient>
<linearGradient id="paint12_linear" x1="1584.88" y1="1408.37" x2="1542.68" y2="1647.72" gradientUnits="userSpaceOnUse">
<stop stop-color="#CC5E17"/>
<stop offset="1" stop-color="#FDBB1B"/>
</linearGradient>
<linearGradient id="paint13_linear" x1="3330.67" y1="1333.89" x2="3810.95" y2="1253.95" gradientUnits="userSpaceOnUse">
<stop stop-color="#CC5E17"/>
<stop offset="1" stop-color="#FDBB1B"/>
</linearGradient>
<linearGradient id="paint14_linear" x1="3158.88" y1="377.369" x2="3116.68" y2="616.717" gradientUnits="userSpaceOnUse">
<stop stop-color="#CC5E17"/>
<stop offset="1" stop-color="#FDBB1B"/>
</linearGradient>
<linearGradient id="paint15_linear" x1="1864.53" y1="2143.1" x2="1652.15" y2="1848.99" gradientUnits="userSpaceOnUse">
<stop stop-color="#CC5E17"/>
<stop offset="1" stop-color="#FDBB1B"/>
</linearGradient>
<linearGradient id="paint16_linear" x1="818.007" y1="817.122" x2="1147.75" y2="758.976" gradientUnits="userSpaceOnUse">
<stop stop-color="#CC5E17"/>
<stop offset="1" stop-color="#FDBB1B"/>
</linearGradient>
<linearGradient id="paint17_linear" x1="2659.46" y1="1283.22" x2="2019.36" y2="1442.82" gradientUnits="userSpaceOnUse">
<stop stop-color="#CC5E17"/>
<stop offset="1" stop-color="#FDBB1B"/>
</linearGradient>
<linearGradient id="paint18_linear" x1="2819.91" y1="1208.17" x2="3146.97" y2="914.432" gradientUnits="userSpaceOnUse">
<stop stop-color="#CC5E17"/>
<stop offset="1" stop-color="#FDBB1B"/>
</linearGradient>
<linearGradient id="paint19_linear" x1="678.842" y1="1999.72" x2="1123.35" y2="1888.89" gradientUnits="userSpaceOnUse">
<stop stop-color="#CC5E17"/>
<stop offset="1" stop-color="#FDBB1B"/>
</linearGradient>
<linearGradient id="paint20_linear" x1="3776.4" y1="2063.56" x2="4128.71" y2="1942.25" gradientUnits="userSpaceOnUse">
<stop stop-color="#CC5E17"/>
<stop offset="1" stop-color="#FDBB1B"/>
</linearGradient>
</defs>
</svg>
