<svg width="4096" height="2265" viewBox="0 0 4096 2265" fill="none" xmlns="http://www.w3.org/2000/svg">
<g id="Group">
<g id="g23" opacity="0.87" filter="url(#filter0_dd)">
<path d="M1849.13 493.016L1778.78 162.03C1771.59 128.189 1793.19 94.9241 1827.03 87.7311L2158.02 17.3779C2191.86 10.1848 2225.12 31.7871 2232.32 65.6281L2302.67 396.614C2309.86 430.455 2288.26 463.72 2254.42 470.913L1923.43 541.266C1889.59 548.459 1856.33 526.857 1849.13 493.016Z" stroke="url(#paint0_linear)" stroke-width="10"/>
</g>
<g id="g22" opacity="0.84" filter="url(#filter1_dd)">
<path d="M847.007 443.395L744.301 285.241C725.458 256.226 733.705 217.429 762.72 198.586L920.873 95.8802C949.889 77.0372 988.686 85.2842 1007.53 114.299L1110.23 272.453C1129.08 301.468 1120.83 340.265 1091.82 359.108L933.662 461.814C904.647 480.657 865.85 472.41 847.007 443.395Z" stroke="url(#paint1_linear)" stroke-width="10"/>
</g>
<g id="g21" opacity="0.76" filter="url(#filter2_dd)">
<path d="M598.244 528.892L282.608 625.392C249.522 635.507 214.502 616.886 204.386 583.801L107.887 268.165C97.7713 235.079 116.392 200.059 149.478 189.944L465.114 93.4443C498.199 83.3293 533.22 101.949 543.335 135.035L639.835 450.671C649.95 483.756 631.329 518.777 598.244 528.892Z" stroke="url(#paint2_linear)" stroke-width="10"/>
</g>
<g id="g20" opacity="0.7" filter="url(#filter3_dd)">
<path d="M1810.93 697.708L1925.24 1011.77C1937.07 1044.28 1920.31 1080.23 1887.8 1092.06L1573.73 1206.37C1541.22 1218.21 1505.27 1201.44 1493.44 1168.93L1379.13 854.868C1367.3 822.358 1384.06 786.41 1416.57 774.578L1730.64 660.268C1763.15 648.435 1799.09 665.197 1810.93 697.708Z" stroke="url(#paint3_linear)" stroke-width="10"/>
</g>
<g id="g19" opacity="0.71" filter="url(#filter4_dd)">
<path d="M2894 235.246L2905.83 460.964C2907.64 495.513 2881.1 524.989 2846.55 526.8L2620.84 538.629C2586.29 540.44 2556.81 513.9 2555 479.35L2543.17 253.632C2541.36 219.083 2567.9 189.607 2602.45 187.796L2828.17 175.967C2862.72 174.156 2892.19 200.696 2894 235.246Z" stroke="url(#paint4_linear)" stroke-width="10"/>
</g>
<g id="g18" opacity="0.74" filter="url(#filter5_dd)">
<path d="M3099.8 572.712L2996 233.199C2985.89 200.114 3004.51 165.093 3037.59 154.978L3377.11 51.1786C3410.19 41.0635 3445.21 59.6844 3455.33 92.7692L3559.13 432.283C3569.24 465.368 3550.62 500.388 3517.54 510.504L3178.02 614.303C3144.94 624.418 3109.92 605.797 3099.8 572.712Z" stroke="url(#paint5_linear)" stroke-width="10"/>
</g>
<g id="g17" opacity="0.8" filter="url(#filter6_dd)">
<path d="M677.817 936.277L556.243 1057.85C531.779 1082.32 492.116 1082.32 467.652 1057.85L346.078 936.277C321.615 911.814 321.615 872.15 346.078 847.687L467.652 726.113C492.116 701.649 531.779 701.649 556.243 726.113L677.817 847.687C702.281 872.15 702.281 911.814 677.817 936.277Z" stroke="url(#paint6_linear)" stroke-width="10"/>
</g>
<g id="g16" opacity="0.93" filter="url(#filter7_dd)">
<path d="M1170.32 715.041L1146.68 864.305C1141.27 898.476 1109.18 921.79 1075.01 916.378L925.741 892.736C891.57 887.324 868.256 855.236 873.669 821.065L897.31 671.8C902.722 637.629 934.81 614.316 968.981 619.728L1118.25 643.369C1152.42 648.781 1175.73 680.87 1170.32 715.041Z" stroke="url(#paint7_linear)" stroke-width="10"/>
</g>
<g id="g15" opacity="0.72" filter="url(#filter8_dd)">
<path d="M2250.13 756.406L2546.86 751.226C2581.45 750.622 2609.98 778.175 2610.58 812.767L2615.76 1109.49C2616.37 1144.08 2588.82 1172.61 2554.22 1173.22L2257.5 1178.4C2222.91 1179 2194.38 1151.45 2193.77 1116.86L2188.59 820.132C2187.99 785.541 2215.54 757.009 2250.13 756.406Z" stroke="url(#paint8_linear)" stroke-width="10"/>
</g>
<g id="g14" opacity="0.94" filter="url(#filter9_dd)">
<path d="M2984.46 1688.64L2767.28 1703.82C2732.77 1706.24 2702.83 1680.22 2700.42 1645.7L2685.23 1428.53C2682.82 1394.02 2708.84 1364.08 2743.35 1361.67L2960.53 1346.48C2995.04 1344.07 3024.98 1370.09 3027.39 1404.6L3042.58 1621.78C3044.99 1656.29 3018.97 1686.22 2984.46 1688.64Z" stroke="url(#paint9_linear)" stroke-width="10"/>
</g>
<g id="g13" opacity="0.96" filter="url(#filter10_dd)">
<path d="M3799.98 1030.69L4041.73 1009.54C4076.2 1006.52 4106.58 1032.02 4109.6 1066.48L4130.75 1308.23C4133.76 1342.7 4108.27 1373.08 4073.8 1376.1L3832.05 1397.25C3797.59 1400.26 3767.2 1374.77 3764.19 1340.3L3743.04 1098.55C3740.02 1064.09 3765.52 1033.7 3799.98 1030.69Z" stroke="url(#paint10_linear)" stroke-width="10"/>
</g>
<g id="g12" opacity="0.71" filter="url(#filter11_dd)">
<path d="M3838.29 809.634L3681.81 629.627C3659.11 603.516 3661.88 563.949 3687.99 541.252L3868 384.774C3894.11 362.077 3933.67 364.843 3956.37 390.954L4112.85 570.961C4135.55 597.072 4132.78 636.638 4106.67 659.336L3926.66 815.813C3900.55 838.511 3860.98 835.744 3838.29 809.634Z" stroke="url(#paint11_linear)" stroke-width="10"/>
</g>
<g id="g11" opacity="0.96" filter="url(#filter12_dd)">
<path d="M502.196 1570.34L258.539 1753.95C230.909 1774.77 191.631 1769.25 170.81 1741.62L-12.7983 1497.96C-33.6192 1470.33 -28.0992 1431.05 -0.468884 1410.23L243.188 1226.63C270.818 1205.8 310.096 1211.32 330.917 1238.95L514.525 1482.61C535.346 1510.24 529.826 1549.52 502.196 1570.34Z" stroke="url(#paint12_linear)" stroke-width="10"/>
</g>
<g id="g10" opacity="0.7" filter="url(#filter13_dd)">
<path d="M837.899 1222.12L992.333 1156.57C1024.18 1143.05 1060.95 1157.91 1074.47 1189.76L1140.03 1344.19C1153.54 1376.04 1138.69 1412.81 1106.84 1426.33L952.406 1491.88C920.559 1505.4 883.784 1490.54 870.266 1458.69L804.713 1304.26C791.194 1272.41 806.053 1235.64 837.899 1222.12Z" stroke="url(#paint13_linear)" stroke-width="10"/>
</g>
<g id="g9" opacity="0.93" filter="url(#filter14_dd)">
<path d="M1734.59 1666.05L1636.43 1540.4C1615.13 1513.14 1619.96 1473.77 1647.22 1452.47L1772.87 1354.31C1800.13 1333.01 1839.5 1337.84 1860.8 1365.1L1958.97 1490.75C1980.27 1518.01 1975.43 1557.38 1948.17 1578.68L1822.52 1676.84C1795.26 1698.14 1755.89 1693.31 1734.59 1666.05Z" stroke="url(#paint14_linear)" stroke-width="10"/>
</g>
<g id="g8" opacity="0.74" filter="url(#filter15_dd)">
<path d="M2985.14 1098.98L2804.92 1102.13C2770.33 1102.73 2741.79 1075.18 2741.19 1040.59L2738.04 860.362C2737.44 825.771 2764.99 797.239 2799.58 796.635L2979.81 793.489C3014.4 792.886 3042.93 820.438 3043.54 855.03L3046.68 1035.26C3047.29 1069.85 3019.74 1098.38 2985.14 1098.98Z" stroke="url(#paint15_linear)" stroke-width="10"/>
</g>
<g id="g7" opacity="0.81" filter="url(#filter16_dd)">
<path d="M3572.32 1031.49L3518.08 1310.55C3511.48 1344.51 3478.59 1366.69 3444.63 1360.09L3165.57 1305.85C3131.61 1299.24 3109.43 1266.36 3116.03 1232.4L3170.27 953.338C3176.88 919.377 3209.76 897.198 3243.72 903.799L3522.78 958.043C3556.74 964.64 3578.92 997.53 3572.32 1031.49Z" stroke="url(#paint16_linear)" stroke-width="10"/>
</g>
<g id="g6" opacity="0.87" filter="url(#filter17_dd)">
<path d="M2103.69 2249.12L2033.34 1918.13C2026.15 1884.29 2047.75 1851.03 2081.59 1843.84L2412.58 1773.48C2446.42 1766.29 2479.68 1787.89 2486.87 1821.73L2557.23 2152.72C2564.42 2186.56 2542.82 2219.82 2508.98 2227.02L2177.99 2297.37C2144.15 2304.56 2110.89 2282.96 2103.69 2249.12Z" stroke="url(#paint17_linear)" stroke-width="10"/>
</g>
<g id="g5" opacity="0.84" filter="url(#filter18_dd)">
<path d="M1101.57 2199.5L998.86 2041.35C980.017 2012.33 988.263 1973.53 1017.28 1954.69L1175.43 1851.98C1204.45 1833.14 1243.24 1841.39 1262.09 1870.4L1364.79 2028.56C1383.64 2057.57 1375.39 2096.37 1346.37 2115.21L1188.22 2217.92C1159.21 2236.76 1120.41 2228.51 1101.57 2199.5Z" stroke="url(#paint18_linear)" stroke-width="10"/>
</g>
<g id="g4" opacity="0.76" filter="url(#filter19_dd)">
<path d="M852.803 2285L537.166 2381.5C504.081 2391.61 469.06 2372.99 458.945 2339.91L362.445 2024.27C352.33 1991.18 370.951 1956.16 404.036 1946.05L719.673 1849.55C752.758 1839.43 787.779 1858.05 797.894 1891.14L894.394 2206.78C904.509 2239.86 885.888 2274.88 852.803 2285Z" stroke="url(#paint19_linear)" stroke-width="10"/>
</g>
<g id="g3" opacity="0.71" filter="url(#filter20_dd)">
<path d="M3148.56 1991.35L3160.39 2217.07C3162.2 2251.62 3135.66 2281.09 3101.11 2282.9L2875.39 2294.73C2840.84 2296.54 2811.37 2270 2809.56 2235.45L2797.73 2009.74C2795.92 1975.19 2822.46 1945.71 2857.01 1943.9L3082.73 1932.07C3117.27 1930.26 3146.75 1956.8 3148.56 1991.35Z" stroke="url(#paint20_linear)" stroke-width="10"/>
</g>
<g id="g2" opacity="0.74" filter="url(#filter21_dd)">
<path d="M3354.36 2328.82L3250.56 1989.3C3240.45 1956.22 3259.07 1921.2 3292.15 1911.08L3631.67 1807.28C3664.75 1797.17 3699.77 1815.79 3709.89 1848.87L3813.69 2188.39C3823.8 2221.47 3805.18 2256.49 3772.1 2266.61L3432.58 2370.41C3399.5 2380.52 3364.48 2361.9 3354.36 2328.82Z" stroke="url(#paint21_linear)" stroke-width="10"/>
</g>
<g id="g1" opacity="0.71" filter="url(#filter22_dd)">
<path d="M4092.85 2565.74L3936.37 2385.73C3913.67 2359.62 3916.44 2320.05 3942.55 2297.36L4122.55 2140.88C4148.67 2118.18 4188.23 2120.95 4210.93 2147.06L4367.41 2327.06C4390.1 2353.18 4387.34 2392.74 4361.23 2415.44L4181.22 2571.92C4155.11 2594.62 4115.54 2591.85 4092.85 2565.74Z" stroke="url(#paint22_linear)" stroke-width="10"/>
</g>
</g>
<defs>
<filter id="filter0_dd" x="1762.4" y="0.995117" width="576.654" height="576.654" filterUnits="userSpaceOnUse" color-interpolation-filters="sRGB">
<feFlood flood-opacity="0" result="BackgroundImageFix"/>
<feColorMatrix in="SourceAlpha" type="matrix" values="0 0 0 0 0 0 0 0 0 0 0 0 0 0 0 0 0 0 127 0"/>
<feOffset dx="10" dy="10"/>
<feGaussianBlur stdDeviation="10"/>
<feColorMatrix type="matrix" values="0 0 0 0 0.227451 0 0 0 0 0.733333 0 0 0 0 0.301961 0 0 0 1 0"/>
<feBlend mode="normal" in2="BackgroundImageFix" result="effect1_dropShadow"/>
<feColorMatrix in="SourceAlpha" type="matrix" values="0 0 0 0 0 0 0 0 0 0 0 0 0 0 0 0 0 0 127 0"/>
<feOffset dx="10" dy="10"/>
<feGaussianBlur stdDeviation="10"/>
<feColorMatrix type="matrix" values="0 0 0 0 0.0627451 0 0 0 0 0.403922 0 0 0 0 0.345098 0 0 0 1 0"/>
<feBlend mode="normal" in2="effect1_dropShadow" result="effect2_dropShadow"/>
<feBlend mode="normal" in="SourceGraphic" in2="effect2_dropShadow" result="shape"/>
</filter>
<filter id="filter1_dd" x="719.187" y="70.7661" width="436.162" height="436.162" filterUnits="userSpaceOnUse" color-interpolation-filters="sRGB">
<feFlood flood-opacity="0" result="BackgroundImageFix"/>
<feColorMatrix in="SourceAlpha" type="matrix" values="0 0 0 0 0 0 0 0 0 0 0 0 0 0 0 0 0 0 127 0"/>
<feOffset dx="10" dy="10"/>
<feGaussianBlur stdDeviation="10"/>
<feColorMatrix type="matrix" values="0 0 0 0 0.227451 0 0 0 0 0.733333 0 0 0 0 0.301961 0 0 0 1 0"/>
<feBlend mode="normal" in2="BackgroundImageFix" result="effect1_dropShadow"/>
<feColorMatrix in="SourceAlpha" type="matrix" values="0 0 0 0 0 0 0 0 0 0 0 0 0 0 0 0 0 0 127 0"/>
<feOffset dx="10" dy="10"/>
<feGaussianBlur stdDeviation="10"/>
<feColorMatrix type="matrix" values="0 0 0 0 0.0627451 0 0 0 0 0.403922 0 0 0 0 0.345098 0 0 0 1 0"/>
<feBlend mode="normal" in2="effect1_dropShadow" result="effect2_dropShadow"/>
<feBlend mode="normal" in="SourceGraphic" in2="effect2_dropShadow" result="shape"/>
</filter>
<filter id="filter2_dd" x="90.1313" y="75.689" width="587.458" height="587.458" filterUnits="userSpaceOnUse" color-interpolation-filters="sRGB">
<feFlood flood-opacity="0" result="BackgroundImageFix"/>
<feColorMatrix in="SourceAlpha" type="matrix" values="0 0 0 0 0 0 0 0 0 0 0 0 0 0 0 0 0 0 127 0"/>
<feOffset dx="10" dy="10"/>
<feGaussianBlur stdDeviation="10"/>
<feColorMatrix type="matrix" values="0 0 0 0 0.227451 0 0 0 0 0.733333 0 0 0 0 0.301961 0 0 0 1 0"/>
<feBlend mode="normal" in2="BackgroundImageFix" result="effect1_dropShadow"/>
<feColorMatrix in="SourceAlpha" type="matrix" values="0 0 0 0 0 0 0 0 0 0 0 0 0 0 0 0 0 0 127 0"/>
<feOffset dx="10" dy="10"/>
<feGaussianBlur stdDeviation="10"/>
<feColorMatrix type="matrix" values="0 0 0 0 0.0627451 0 0 0 0 0.403922 0 0 0 0 0.345098 0 0 0 1 0"/>
<feBlend mode="normal" in2="effect1_dropShadow" result="effect2_dropShadow"/>
<feBlend mode="normal" in="SourceGraphic" in2="effect2_dropShadow" result="shape"/>
</filter>
<filter id="filter3_dd" x="1360.33" y="641.472" width="603.7" height="603.698" filterUnits="userSpaceOnUse" color-interpolation-filters="sRGB">
<feFlood flood-opacity="0" result="BackgroundImageFix"/>
<feColorMatrix in="SourceAlpha" type="matrix" values="0 0 0 0 0 0 0 0 0 0 0 0 0 0 0 0 0 0 127 0"/>
<feOffset dx="10" dy="10"/>
<feGaussianBlur stdDeviation="10"/>
<feColorMatrix type="matrix" values="0 0 0 0 0.227451 0 0 0 0 0.733333 0 0 0 0 0.301961 0 0 0 1 0"/>
<feBlend mode="normal" in2="BackgroundImageFix" result="effect1_dropShadow"/>
<feColorMatrix in="SourceAlpha" type="matrix" values="0 0 0 0 0 0 0 0 0 0 0 0 0 0 0 0 0 0 127 0"/>
<feOffset dx="10" dy="10"/>
<feGaussianBlur stdDeviation="10"/>
<feColorMatrix type="matrix" values="0 0 0 0 0.0627451 0 0 0 0 0.403922 0 0 0 0 0.345098 0 0 0 1 0"/>
<feBlend mode="normal" in2="effect1_dropShadow" result="effect2_dropShadow"/>
<feBlend mode="normal" in="SourceGraphic" in2="effect2_dropShadow" result="shape"/>
</filter>
<filter id="filter4_dd" x="2528.08" y="160.879" width="412.835" height="412.837" filterUnits="userSpaceOnUse" color-interpolation-filters="sRGB">
<feFlood flood-opacity="0" result="BackgroundImageFix"/>
<feColorMatrix in="SourceAlpha" type="matrix" values="0 0 0 0 0 0 0 0 0 0 0 0 0 0 0 0 0 0 127 0"/>
<feOffset dx="10" dy="10"/>
<feGaussianBlur stdDeviation="10"/>
<feColorMatrix type="matrix" values="0 0 0 0 0.227451 0 0 0 0 0.733333 0 0 0 0 0.301961 0 0 0 1 0"/>
<feBlend mode="normal" in2="BackgroundImageFix" result="effect1_dropShadow"/>
<feColorMatrix in="SourceAlpha" type="matrix" values="0 0 0 0 0 0 0 0 0 0 0 0 0 0 0 0 0 0 127 0"/>
<feOffset dx="10" dy="10"/>
<feGaussianBlur stdDeviation="10"/>
<feColorMatrix type="matrix" values="0 0 0 0 0.0627451 0 0 0 0 0.403922 0 0 0 0 0.345098 0 0 0 1 0"/>
<feBlend mode="normal" in2="effect1_dropShadow" result="effect2_dropShadow"/>
<feBlend mode="normal" in="SourceGraphic" in2="effect2_dropShadow" result="shape"/>
</filter>
<filter id="filter5_dd" x="2978.25" y="33.4233" width="618.636" height="618.635" filterUnits="userSpaceOnUse" color-interpolation-filters="sRGB">
<feFlood flood-opacity="0" result="BackgroundImageFix"/>
<feColorMatrix in="SourceAlpha" type="matrix" values="0 0 0 0 0 0 0 0 0 0 0 0 0 0 0 0 0 0 127 0"/>
<feOffset dx="10" dy="10"/>
<feGaussianBlur stdDeviation="10"/>
<feColorMatrix type="matrix" values="0 0 0 0 0.227451 0 0 0 0 0.733333 0 0 0 0 0.301961 0 0 0 1 0"/>
<feBlend mode="normal" in2="BackgroundImageFix" result="effect1_dropShadow"/>
<feColorMatrix in="SourceAlpha" type="matrix" values="0 0 0 0 0 0 0 0 0 0 0 0 0 0 0 0 0 0 127 0"/>
<feOffset dx="10" dy="10"/>
<feGaussianBlur stdDeviation="10"/>
<feColorMatrix type="matrix" values="0 0 0 0 0.0627451 0 0 0 0 0.403922 0 0 0 0 0.345098 0 0 0 1 0"/>
<feBlend mode="normal" in2="effect1_dropShadow" result="effect2_dropShadow"/>
<feBlend mode="normal" in="SourceGraphic" in2="effect2_dropShadow" result="shape"/>
</filter>
<filter id="filter6_dd" x="312.731" y="692.765" width="418.434" height="418.438" filterUnits="userSpaceOnUse" color-interpolation-filters="sRGB">
<feFlood flood-opacity="0" result="BackgroundImageFix"/>
<feColorMatrix in="SourceAlpha" type="matrix" values="0 0 0 0 0 0 0 0 0 0 0 0 0 0 0 0 0 0 127 0"/>
<feOffset dx="10" dy="10"/>
<feGaussianBlur stdDeviation="10"/>
<feColorMatrix type="matrix" values="0 0 0 0 0.227451 0 0 0 0 0.733333 0 0 0 0 0.301961 0 0 0 1 0"/>
<feBlend mode="normal" in2="BackgroundImageFix" result="effect1_dropShadow"/>
<feColorMatrix in="SourceAlpha" type="matrix" values="0 0 0 0 0 0 0 0 0 0 0 0 0 0 0 0 0 0 127 0"/>
<feOffset dx="10" dy="10"/>
<feGaussianBlur stdDeviation="10"/>
<feColorMatrix type="matrix" values="0 0 0 0 0.0627451 0 0 0 0 0.403922 0 0 0 0 0.345098 0 0 0 1 0"/>
<feBlend mode="normal" in2="effect1_dropShadow" result="effect2_dropShadow"/>
<feBlend mode="normal" in="SourceGraphic" in2="effect2_dropShadow" result="shape"/>
</filter>
<filter id="filter7_dd" x="857.887" y="603.947" width="348.213" height="348.212" filterUnits="userSpaceOnUse" color-interpolation-filters="sRGB">
<feFlood flood-opacity="0" result="BackgroundImageFix"/>
<feColorMatrix in="SourceAlpha" type="matrix" values="0 0 0 0 0 0 0 0 0 0 0 0 0 0 0 0 0 0 127 0"/>
<feOffset dx="10" dy="10"/>
<feGaussianBlur stdDeviation="10"/>
<feColorMatrix type="matrix" values="0 0 0 0 0.227451 0 0 0 0 0.733333 0 0 0 0 0.301961 0 0 0 1 0"/>
<feBlend mode="normal" in2="BackgroundImageFix" result="effect1_dropShadow"/>
<feColorMatrix in="SourceAlpha" type="matrix" values="0 0 0 0 0 0 0 0 0 0 0 0 0 0 0 0 0 0 127 0"/>
<feOffset dx="10" dy="10"/>
<feGaussianBlur stdDeviation="10"/>
<feColorMatrix type="matrix" values="0 0 0 0 0.0627451 0 0 0 0 0.403922 0 0 0 0 0.345098 0 0 0 1 0"/>
<feBlend mode="normal" in2="effect1_dropShadow" result="effect2_dropShadow"/>
<feBlend mode="normal" in="SourceGraphic" in2="effect2_dropShadow" result="shape"/>
</filter>
<filter id="filter8_dd" x="2173.58" y="736.216" width="477.19" height="477.193" filterUnits="userSpaceOnUse" color-interpolation-filters="sRGB">
<feFlood flood-opacity="0" result="BackgroundImageFix"/>
<feColorMatrix in="SourceAlpha" type="matrix" values="0 0 0 0 0 0 0 0 0 0 0 0 0 0 0 0 0 0 127 0"/>
<feOffset dx="10" dy="10"/>
<feGaussianBlur stdDeviation="10"/>
<feColorMatrix type="matrix" values="0 0 0 0 0.227451 0 0 0 0 0.733333 0 0 0 0 0.301961 0 0 0 1 0"/>
<feBlend mode="normal" in2="BackgroundImageFix" result="effect1_dropShadow"/>
<feColorMatrix in="SourceAlpha" type="matrix" values="0 0 0 0 0 0 0 0 0 0 0 0 0 0 0 0 0 0 127 0"/>
<feOffset dx="10" dy="10"/>
<feGaussianBlur stdDeviation="10"/>
<feColorMatrix type="matrix" values="0 0 0 0 0.0627451 0 0 0 0 0.403922 0 0 0 0 0.345098 0 0 0 1 0"/>
<feBlend mode="normal" in2="effect1_dropShadow" result="effect2_dropShadow"/>
<feBlend mode="normal" in="SourceGraphic" in2="effect2_dropShadow" result="shape"/>
</filter>
<filter id="filter9_dd" x="2670.08" y="1331.33" width="407.66" height="407.651" filterUnits="userSpaceOnUse" color-interpolation-filters="sRGB">
<feFlood flood-opacity="0" result="BackgroundImageFix"/>
<feColorMatrix in="SourceAlpha" type="matrix" values="0 0 0 0 0 0 0 0 0 0 0 0 0 0 0 0 0 0 127 0"/>
<feOffset dx="10" dy="10"/>
<feGaussianBlur stdDeviation="10"/>
<feColorMatrix type="matrix" values="0 0 0 0 0.227451 0 0 0 0 0.733333 0 0 0 0 0.301961 0 0 0 1 0"/>
<feBlend mode="normal" in2="BackgroundImageFix" result="effect1_dropShadow"/>
<feColorMatrix in="SourceAlpha" type="matrix" values="0 0 0 0 0 0 0 0 0 0 0 0 0 0 0 0 0 0 127 0"/>
<feOffset dx="10" dy="10"/>
<feGaussianBlur stdDeviation="10"/>
<feColorMatrix type="matrix" values="0 0 0 0 0.0627451 0 0 0 0 0.403922 0 0 0 0 0.345098 0 0 0 1 0"/>
<feBlend mode="normal" in2="effect1_dropShadow" result="effect2_dropShadow"/>
<feBlend mode="normal" in="SourceGraphic" in2="effect2_dropShadow" result="shape"/>
</filter>
<filter id="filter10_dd" x="3727.8" y="994.297" width="438.195" height="438.195" filterUnits="userSpaceOnUse" color-interpolation-filters="sRGB">
<feFlood flood-opacity="0" result="BackgroundImageFix"/>
<feColorMatrix in="SourceAlpha" type="matrix" values="0 0 0 0 0 0 0 0 0 0 0 0 0 0 0 0 0 0 127 0"/>
<feOffset dx="10" dy="10"/>
<feGaussianBlur stdDeviation="10"/>
<feColorMatrix type="matrix" values="0 0 0 0 0.227451 0 0 0 0 0.733333 0 0 0 0 0.301961 0 0 0 1 0"/>
<feBlend mode="normal" in2="BackgroundImageFix" result="effect1_dropShadow"/>
<feColorMatrix in="SourceAlpha" type="matrix" values="0 0 0 0 0 0 0 0 0 0 0 0 0 0 0 0 0 0 127 0"/>
<feOffset dx="10" dy="10"/>
<feGaussianBlur stdDeviation="10"/>
<feColorMatrix type="matrix" values="0 0 0 0 0.0627451 0 0 0 0 0.403922 0 0 0 0 0.345098 0 0 0 1 0"/>
<feBlend mode="normal" in2="effect1_dropShadow" result="effect2_dropShadow"/>
<feBlend mode="normal" in="SourceGraphic" in2="effect2_dropShadow" result="shape"/>
</filter>
<filter id="filter11_dd" x="3651.44" y="354.408" width="511.775" height="511.773" filterUnits="userSpaceOnUse" color-interpolation-filters="sRGB">
<feFlood flood-opacity="0" result="BackgroundImageFix"/>
<feColorMatrix in="SourceAlpha" type="matrix" values="0 0 0 0 0 0 0 0 0 0 0 0 0 0 0 0 0 0 127 0"/>
<feOffset dx="10" dy="10"/>
<feGaussianBlur stdDeviation="10"/>
<feColorMatrix type="matrix" values="0 0 0 0 0.227451 0 0 0 0 0.733333 0 0 0 0 0.301961 0 0 0 1 0"/>
<feBlend mode="normal" in2="BackgroundImageFix" result="effect1_dropShadow"/>
<feColorMatrix in="SourceAlpha" type="matrix" values="0 0 0 0 0 0 0 0 0 0 0 0 0 0 0 0 0 0 127 0"/>
<feOffset dx="10" dy="10"/>
<feGaussianBlur stdDeviation="10"/>
<feColorMatrix type="matrix" values="0 0 0 0 0.0627451 0 0 0 0 0.403922 0 0 0 0 0.345098 0 0 0 1 0"/>
<feBlend mode="normal" in2="effect1_dropShadow" result="effect2_dropShadow"/>
<feBlend mode="normal" in="SourceGraphic" in2="effect2_dropShadow" result="shape"/>
</filter>
<filter id="filter12_dd" x="-40.4165" y="1199" width="602.559" height="602.562" filterUnits="userSpaceOnUse" color-interpolation-filters="sRGB">
<feFlood flood-opacity="0" result="BackgroundImageFix"/>
<feColorMatrix in="SourceAlpha" type="matrix" values="0 0 0 0 0 0 0 0 0 0 0 0 0 0 0 0 0 0 127 0"/>
<feOffset dx="10" dy="10"/>
<feGaussianBlur stdDeviation="10"/>
<feColorMatrix type="matrix" values="0 0 0 0 0.227451 0 0 0 0 0.733333 0 0 0 0 0.301961 0 0 0 1 0"/>
<feBlend mode="normal" in2="BackgroundImageFix" result="effect1_dropShadow"/>
<feColorMatrix in="SourceAlpha" type="matrix" values="0 0 0 0 0 0 0 0 0 0 0 0 0 0 0 0 0 0 127 0"/>
<feOffset dx="10" dy="10"/>
<feGaussianBlur stdDeviation="10"/>
<feColorMatrix type="matrix" values="0 0 0 0 0.0627451 0 0 0 0 0.403922 0 0 0 0 0.345098 0 0 0 1 0"/>
<feBlend mode="normal" in2="effect1_dropShadow" result="effect2_dropShadow"/>
<feBlend mode="normal" in="SourceGraphic" in2="effect2_dropShadow" result="shape"/>
</filter>
<filter id="filter13_dd" x="784.715" y="1136.57" width="395.309" height="395.306" filterUnits="userSpaceOnUse" color-interpolation-filters="sRGB">
<feFlood flood-opacity="0" result="BackgroundImageFix"/>
<feColorMatrix in="SourceAlpha" type="matrix" values="0 0 0 0 0 0 0 0 0 0 0 0 0 0 0 0 0 0 127 0"/>
<feOffset dx="10" dy="10"/>
<feGaussianBlur stdDeviation="10"/>
<feColorMatrix type="matrix" values="0 0 0 0 0.227451 0 0 0 0 0.733333 0 0 0 0 0.301961 0 0 0 1 0"/>
<feBlend mode="normal" in2="BackgroundImageFix" result="effect1_dropShadow"/>
<feColorMatrix in="SourceAlpha" type="matrix" values="0 0 0 0 0 0 0 0 0 0 0 0 0 0 0 0 0 0 127 0"/>
<feOffset dx="10" dy="10"/>
<feGaussianBlur stdDeviation="10"/>
<feColorMatrix type="matrix" values="0 0 0 0 0.0627451 0 0 0 0 0.403922 0 0 0 0 0.345098 0 0 0 1 0"/>
<feBlend mode="normal" in2="effect1_dropShadow" result="effect2_dropShadow"/>
<feBlend mode="normal" in="SourceGraphic" in2="effect2_dropShadow" result="shape"/>
</filter>
<filter id="filter14_dd" x="1608.15" y="1326.03" width="399.105" height="399.099" filterUnits="userSpaceOnUse" color-interpolation-filters="sRGB">
<feFlood flood-opacity="0" result="BackgroundImageFix"/>
<feColorMatrix in="SourceAlpha" type="matrix" values="0 0 0 0 0 0 0 0 0 0 0 0 0 0 0 0 0 0 127 0"/>
<feOffset dx="10" dy="10"/>
<feGaussianBlur stdDeviation="10"/>
<feColorMatrix type="matrix" values="0 0 0 0 0.227451 0 0 0 0 0.733333 0 0 0 0 0.301961 0 0 0 1 0"/>
<feBlend mode="normal" in2="BackgroundImageFix" result="effect1_dropShadow"/>
<feColorMatrix in="SourceAlpha" type="matrix" values="0 0 0 0 0 0 0 0 0 0 0 0 0 0 0 0 0 0 127 0"/>
<feOffset dx="10" dy="10"/>
<feGaussianBlur stdDeviation="10"/>
<feColorMatrix type="matrix" values="0 0 0 0 0.0627451 0 0 0 0 0.403922 0 0 0 0 0.345098 0 0 0 1 0"/>
<feBlend mode="normal" in2="effect1_dropShadow" result="effect2_dropShadow"/>
<feBlend mode="normal" in="SourceGraphic" in2="effect2_dropShadow" result="shape"/>
</filter>
<filter id="filter15_dd" x="2723.03" y="778.479" width="358.659" height="358.66" filterUnits="userSpaceOnUse" color-interpolation-filters="sRGB">
<feFlood flood-opacity="0" result="BackgroundImageFix"/>
<feColorMatrix in="SourceAlpha" type="matrix" values="0 0 0 0 0 0 0 0 0 0 0 0 0 0 0 0 0 0 127 0"/>
<feOffset dx="10" dy="10"/>
<feGaussianBlur stdDeviation="10"/>
<feColorMatrix type="matrix" values="0 0 0 0 0.227451 0 0 0 0 0.733333 0 0 0 0 0.301961 0 0 0 1 0"/>
<feBlend mode="normal" in2="BackgroundImageFix" result="effect1_dropShadow"/>
<feColorMatrix in="SourceAlpha" type="matrix" values="0 0 0 0 0 0 0 0 0 0 0 0 0 0 0 0 0 0 127 0"/>
<feOffset dx="10" dy="10"/>
<feGaussianBlur stdDeviation="10"/>
<feColorMatrix type="matrix" values="0 0 0 0 0.0627451 0 0 0 0 0.403922 0 0 0 0 0.345098 0 0 0 1 0"/>
<feBlend mode="normal" in2="effect1_dropShadow" result="effect2_dropShadow"/>
<feBlend mode="normal" in="SourceGraphic" in2="effect2_dropShadow" result="shape"/>
</filter>
<filter id="filter16_dd" x="3099.87" y="887.636" width="508.616" height="508.618" filterUnits="userSpaceOnUse" color-interpolation-filters="sRGB">
<feFlood flood-opacity="0" result="BackgroundImageFix"/>
<feColorMatrix in="SourceAlpha" type="matrix" values="0 0 0 0 0 0 0 0 0 0 0 0 0 0 0 0 0 0 127 0"/>
<feOffset dx="10" dy="10"/>
<feGaussianBlur stdDeviation="10"/>
<feColorMatrix type="matrix" values="0 0 0 0 0.227451 0 0 0 0 0.733333 0 0 0 0 0.301961 0 0 0 1 0"/>
<feBlend mode="normal" in2="BackgroundImageFix" result="effect1_dropShadow"/>
<feColorMatrix in="SourceAlpha" type="matrix" values="0 0 0 0 0 0 0 0 0 0 0 0 0 0 0 0 0 0 127 0"/>
<feOffset dx="10" dy="10"/>
<feGaussianBlur stdDeviation="10"/>
<feColorMatrix type="matrix" values="0 0 0 0 0.0627451 0 0 0 0 0.403922 0 0 0 0 0.345098 0 0 0 1 0"/>
<feBlend mode="normal" in2="effect1_dropShadow" result="effect2_dropShadow"/>
<feBlend mode="normal" in="SourceGraphic" in2="effect2_dropShadow" result="shape"/>
</filter>
<filter id="filter17_dd" x="2016.96" y="1757.1" width="576.654" height="576.654" filterUnits="userSpaceOnUse" color-interpolation-filters="sRGB">
<feFlood flood-opacity="0" result="BackgroundImageFix"/>
<feColorMatrix in="SourceAlpha" type="matrix" values="0 0 0 0 0 0 0 0 0 0 0 0 0 0 0 0 0 0 127 0"/>
<feOffset dx="10" dy="10"/>
<feGaussianBlur stdDeviation="10"/>
<feColorMatrix type="matrix" values="0 0 0 0 0.227451 0 0 0 0 0.733333 0 0 0 0 0.301961 0 0 0 1 0"/>
<feBlend mode="normal" in2="BackgroundImageFix" result="effect1_dropShadow"/>
<feColorMatrix in="SourceAlpha" type="matrix" values="0 0 0 0 0 0 0 0 0 0 0 0 0 0 0 0 0 0 127 0"/>
<feOffset dx="10" dy="10"/>
<feGaussianBlur stdDeviation="10"/>
<feColorMatrix type="matrix" values="0 0 0 0 0.0627451 0 0 0 0 0.403922 0 0 0 0 0.345098 0 0 0 1 0"/>
<feBlend mode="normal" in2="effect1_dropShadow" result="effect2_dropShadow"/>
<feBlend mode="normal" in="SourceGraphic" in2="effect2_dropShadow" result="shape"/>
</filter>
<filter id="filter18_dd" x="973.746" y="1826.87" width="436.163" height="436.163" filterUnits="userSpaceOnUse" color-interpolation-filters="sRGB">
<feFlood flood-opacity="0" result="BackgroundImageFix"/>
<feColorMatrix in="SourceAlpha" type="matrix" values="0 0 0 0 0 0 0 0 0 0 0 0 0 0 0 0 0 0 127 0"/>
<feOffset dx="10" dy="10"/>
<feGaussianBlur stdDeviation="10"/>
<feColorMatrix type="matrix" values="0 0 0 0 0.227451 0 0 0 0 0.733333 0 0 0 0 0.301961 0 0 0 1 0"/>
<feBlend mode="normal" in2="BackgroundImageFix" result="effect1_dropShadow"/>
<feColorMatrix in="SourceAlpha" type="matrix" values="0 0 0 0 0 0 0 0 0 0 0 0 0 0 0 0 0 0 127 0"/>
<feOffset dx="10" dy="10"/>
<feGaussianBlur stdDeviation="10"/>
<feColorMatrix type="matrix" values="0 0 0 0 0.0627451 0 0 0 0 0.403922 0 0 0 0 0.345098 0 0 0 1 0"/>
<feBlend mode="normal" in2="effect1_dropShadow" result="effect2_dropShadow"/>
<feBlend mode="normal" in="SourceGraphic" in2="effect2_dropShadow" result="shape"/>
</filter>
<filter id="filter19_dd" x="344.69" y="1831.79" width="587.459" height="587.46" filterUnits="userSpaceOnUse" color-interpolation-filters="sRGB">
<feFlood flood-opacity="0" result="BackgroundImageFix"/>
<feColorMatrix in="SourceAlpha" type="matrix" values="0 0 0 0 0 0 0 0 0 0 0 0 0 0 0 0 0 0 127 0"/>
<feOffset dx="10" dy="10"/>
<feGaussianBlur stdDeviation="10"/>
<feColorMatrix type="matrix" values="0 0 0 0 0.227451 0 0 0 0 0.733333 0 0 0 0 0.301961 0 0 0 1 0"/>
<feBlend mode="normal" in2="BackgroundImageFix" result="effect1_dropShadow"/>
<feColorMatrix in="SourceAlpha" type="matrix" values="0 0 0 0 0 0 0 0 0 0 0 0 0 0 0 0 0 0 127 0"/>
<feOffset dx="10" dy="10"/>
<feGaussianBlur stdDeviation="10"/>
<feColorMatrix type="matrix" values="0 0 0 0 0.0627451 0 0 0 0 0.403922 0 0 0 0 0.345098 0 0 0 1 0"/>
<feBlend mode="normal" in2="effect1_dropShadow" result="effect2_dropShadow"/>
<feBlend mode="normal" in="SourceGraphic" in2="effect2_dropShadow" result="shape"/>
</filter>
<filter id="filter20_dd" x="2782.64" y="1916.98" width="412.835" height="412.835" filterUnits="userSpaceOnUse" color-interpolation-filters="sRGB">
<feFlood flood-opacity="0" result="BackgroundImageFix"/>
<feColorMatrix in="SourceAlpha" type="matrix" values="0 0 0 0 0 0 0 0 0 0 0 0 0 0 0 0 0 0 127 0"/>
<feOffset dx="10" dy="10"/>
<feGaussianBlur stdDeviation="10"/>
<feColorMatrix type="matrix" values="0 0 0 0 0.227451 0 0 0 0 0.733333 0 0 0 0 0.301961 0 0 0 1 0"/>
<feBlend mode="normal" in2="BackgroundImageFix" result="effect1_dropShadow"/>
<feColorMatrix in="SourceAlpha" type="matrix" values="0 0 0 0 0 0 0 0 0 0 0 0 0 0 0 0 0 0 127 0"/>
<feOffset dx="10" dy="10"/>
<feGaussianBlur stdDeviation="10"/>
<feColorMatrix type="matrix" values="0 0 0 0 0.0627451 0 0 0 0 0.403922 0 0 0 0 0.345098 0 0 0 1 0"/>
<feBlend mode="normal" in2="effect1_dropShadow" result="effect2_dropShadow"/>
<feBlend mode="normal" in="SourceGraphic" in2="effect2_dropShadow" result="shape"/>
</filter>
<filter id="filter21_dd" x="3232.81" y="1789.53" width="618.636" height="618.636" filterUnits="userSpaceOnUse" color-interpolation-filters="sRGB">
<feFlood flood-opacity="0" result="BackgroundImageFix"/>
<feColorMatrix in="SourceAlpha" type="matrix" values="0 0 0 0 0 0 0 0 0 0 0 0 0 0 0 0 0 0 127 0"/>
<feOffset dx="10" dy="10"/>
<feGaussianBlur stdDeviation="10"/>
<feColorMatrix type="matrix" values="0 0 0 0 0.227451 0 0 0 0 0.733333 0 0 0 0 0.301961 0 0 0 1 0"/>
<feBlend mode="normal" in2="BackgroundImageFix" result="effect1_dropShadow"/>
<feColorMatrix in="SourceAlpha" type="matrix" values="0 0 0 0 0 0 0 0 0 0 0 0 0 0 0 0 0 0 127 0"/>
<feOffset dx="10" dy="10"/>
<feGaussianBlur stdDeviation="10"/>
<feColorMatrix type="matrix" values="0 0 0 0 0.0627451 0 0 0 0 0.403922 0 0 0 0 0.345098 0 0 0 1 0"/>
<feBlend mode="normal" in2="effect1_dropShadow" result="effect2_dropShadow"/>
<feBlend mode="normal" in="SourceGraphic" in2="effect2_dropShadow" result="shape"/>
</filter>
<filter id="filter22_dd" x="3906" y="2110.51" width="511.771" height="511.775" filterUnits="userSpaceOnUse" color-interpolation-filters="sRGB">
<feFlood flood-opacity="0" result="BackgroundImageFix"/>
<feColorMatrix in="SourceAlpha" type="matrix" values="0 0 0 0 0 0 0 0 0 0 0 0 0 0 0 0 0 0 127 0"/>
<feOffset dx="10" dy="10"/>
<feGaussianBlur stdDeviation="10"/>
<feColorMatrix type="matrix" values="0 0 0 0 0.227451 0 0 0 0 0.733333 0 0 0 0 0.301961 0 0 0 1 0"/>
<feBlend mode="normal" in2="BackgroundImageFix" result="effect1_dropShadow"/>
<feColorMatrix in="SourceAlpha" type="matrix" values="0 0 0 0 0 0 0 0 0 0 0 0 0 0 0 0 0 0 127 0"/>
<feOffset dx="10" dy="10"/>
<feGaussianBlur stdDeviation="10"/>
<feColorMatrix type="matrix" values="0 0 0 0 0.0627451 0 0 0 0 0.403922 0 0 0 0 0.345098 0 0 0 1 0"/>
<feBlend mode="normal" in2="effect1_dropShadow" result="effect2_dropShadow"/>
<feBlend mode="normal" in="SourceGraphic" in2="effect2_dropShadow" result="shape"/>
</filter>
<linearGradient id="paint0_linear" x1="1808.72" y1="328.637" x2="2272.73" y2="230.007" gradientUnits="userSpaceOnUse">
<stop stop-color="#0E6633"/>
<stop offset="1" stop-color="#3ACC77"/>
</linearGradient>
<linearGradient id="paint1_linear" x1="791.161" y1="367.235" x2="1063.37" y2="190.458" gradientUnits="userSpaceOnUse">
<stop stop-color="#0E6633"/>
<stop offset="1" stop-color="#3ACC77"/>
</linearGradient>
<linearGradient id="paint2_linear" x1="441.992" y1="582.265" x2="305.73" y2="136.571" gradientUnits="userSpaceOnUse">
<stop stop-color="#0E6633"/>
<stop offset="1" stop-color="#3ACC77"/>
</linearGradient>
<linearGradient id="paint3_linear" x1="1873.11" y1="852.908" x2="1431.25" y2="1013.73" gradientUnits="userSpaceOnUse">
<stop stop-color="#0E6633"/>
<stop offset="1" stop-color="#3ACC77"/>
</linearGradient>
<linearGradient id="paint4_linear" x1="2905.27" y1="347.824" x2="2543.74" y2="366.771" gradientUnits="userSpaceOnUse">
<stop stop-color="#0E6633"/>
<stop offset="1" stop-color="#3ACC77"/>
</linearGradient>
<linearGradient id="paint5_linear" x1="3042.78" y1="404.522" x2="3512.35" y2="260.96" gradientUnits="userSpaceOnUse">
<stop stop-color="#0E6633"/>
<stop offset="1" stop-color="#3ACC77"/>
</linearGradient>
<linearGradient id="paint6_linear" x1="620.818" y1="1000.85" x2="403.078" y2="783.112" gradientUnits="userSpaceOnUse">
<stop stop-color="#0E6633"/>
<stop offset="1" stop-color="#3ACC77"/>
</linearGradient>
<linearGradient id="paint7_linear" x1="1163.79" y1="790.511" x2="880.198" y2="745.594" gradientUnits="userSpaceOnUse">
<stop stop-color="#0E6633"/>
<stop offset="1" stop-color="#3ACC77"/>
</linearGradient>
<linearGradient id="paint8_linear" x1="2398.4" y1="748.46" x2="2405.96" y2="1181.16" gradientUnits="userSpaceOnUse">
<stop stop-color="#0E6633"/>
<stop offset="1" stop-color="#3ACC77"/>
</linearGradient>
<linearGradient id="paint9_linear" x1="2876.24" y1="1701.57" x2="2851.57" y2="1348.73" gradientUnits="userSpaceOnUse">
<stop stop-color="#0E6633"/>
<stop offset="1" stop-color="#3ACC77"/>
</linearGradient>
<linearGradient id="paint10_linear" x1="3920.39" y1="1014.78" x2="3953.4" y2="1392.01" gradientUnits="userSpaceOnUse">
<stop stop-color="#0E6633"/>
<stop offset="1" stop-color="#3ACC77"/>
</linearGradient>
<linearGradient id="paint11_linear" x1="3756" y1="723.145" x2="4038.65" y2="477.443" gradientUnits="userSpaceOnUse">
<stop stop-color="#0E6633"/>
<stop offset="1" stop-color="#3ACC77"/>
</linearGradient>
<linearGradient id="paint12_linear" x1="383.591" y1="1666.42" x2="118.136" y2="1314.15" gradientUnits="userSpaceOnUse">
<stop stop-color="#0E6633"/>
<stop offset="1" stop-color="#3ACC77"/>
</linearGradient>
<linearGradient id="paint13_linear" x1="913.023" y1="1184.41" x2="1031.72" y2="1464.04" gradientUnits="userSpaceOnUse">
<stop stop-color="#0E6633"/>
<stop offset="1" stop-color="#3ACC77"/>
</linearGradient>
<linearGradient id="paint14_linear" x1="1681.29" y1="1606.52" x2="1914.1" y2="1424.63" gradientUnits="userSpaceOnUse">
<stop stop-color="#0E6633"/>
<stop offset="1" stop-color="#3ACC77"/>
</linearGradient>
<linearGradient id="paint15_linear" x1="2895.12" y1="1105.91" x2="2889.6" y2="789.706" gradientUnits="userSpaceOnUse">
<stop stop-color="#0E6633"/>
<stop offset="1" stop-color="#3ACC77"/>
</linearGradient>
<linearGradient id="paint16_linear" x1="3550.46" y1="1172.04" x2="3137.89" y2="1091.85" gradientUnits="userSpaceOnUse">
<stop stop-color="#0E6633"/>
<stop offset="1" stop-color="#3ACC77"/>
</linearGradient>
<linearGradient id="paint17_linear" x1="2063.28" y1="2084.74" x2="2527.29" y2="1986.11" gradientUnits="userSpaceOnUse">
<stop stop-color="#0D6B34"/>
<stop offset="1" stop-color="#36C071"/>
</linearGradient>
<linearGradient id="paint18_linear" x1="1045.72" y1="2123.34" x2="1317.93" y2="1946.56" gradientUnits="userSpaceOnUse">
<stop stop-color="#0D6B34"/>
<stop offset="1" stop-color="#36C071"/>
</linearGradient>
<linearGradient id="paint19_linear" x1="696.551" y1="2338.37" x2="560.289" y2="1892.67" gradientUnits="userSpaceOnUse">
<stop stop-color="#0D6B34"/>
<stop offset="1" stop-color="#36C071"/>
</linearGradient>
<linearGradient id="paint20_linear" x1="3159.83" y1="2103.93" x2="2798.29" y2="2122.87" gradientUnits="userSpaceOnUse">
<stop stop-color="#0D6B34"/>
<stop offset="1" stop-color="#36C071"/>
</linearGradient>
<linearGradient id="paint21_linear" x1="3297.34" y1="2160.63" x2="3766.91" y2="2017.06" gradientUnits="userSpaceOnUse">
<stop stop-color="#0D6B34"/>
<stop offset="1" stop-color="#36C071"/>
</linearGradient>
<linearGradient id="paint22_linear" x1="4010.56" y1="2479.25" x2="4293.21" y2="2233.55" gradientUnits="userSpaceOnUse">
<stop stop-color="#0D6B34"/>
<stop offset="1" stop-color="#36C071"/>
</linearGradient>
</defs>
</svg>
