<svg width="4127" height="2321" viewBox="0 0 4127 2321" fill="none" xmlns="http://www.w3.org/2000/svg">
<g clip-path="url(#clip0)">
<rect width="4127" height="2321" fill="url(#paint0_linear)"/>
<path opacity="0.89" d="M561.835 1190.87L696.89 1176.71C723.299 1173.94 742.808 1200.79 732.013 1225.05L676.81 1349.09C666.012 1373.36 632.988 1376.83 617.374 1355.34L537.522 1245.46C521.908 1223.97 535.416 1193.64 561.835 1190.87Z" stroke="url(#paint1_linear)" stroke-width="5"/>
<path opacity="0.89" d="M2736.59 1382.73L2871.64 1368.57C2898.05 1365.8 2917.56 1392.65 2906.77 1416.9L2851.56 1540.95C2840.76 1565.21 2807.74 1568.68 2792.13 1547.2L2712.27 1437.31C2696.66 1415.82 2710.17 1385.5 2736.59 1382.73Z" stroke="url(#paint2_linear)" stroke-width="5"/>
<path opacity="0.76" d="M1151.27 1519.17L964.959 1525.63C938.422 1526.55 920.833 1498.41 933.293 1474.96L1020.77 1310.37C1033.24 1286.92 1066.42 1285.76 1080.5 1308.29L1179.33 1466.41C1193.4 1488.94 1177.81 1518.25 1151.27 1519.17Z" stroke="url(#paint3_linear)" stroke-width="5"/>
<path opacity="0.8" d="M1653.52 1320.8L1561.47 1527.38C1550.67 1551.63 1517.67 1555.1 1502.05 1533.62L1369.06 1350.7C1353.44 1329.21 1366.94 1298.87 1393.36 1296.1L1618.4 1272.45C1644.82 1269.67 1664.33 1296.54 1653.52 1320.8Z" stroke="url(#paint4_linear)" stroke-width="5"/>
<path opacity="0.9" d="M2181.65 1435.24L1954.92 1612.25C1934 1628.59 1903.23 1616.16 1899.53 1589.87L1859.42 1305.07C1855.72 1278.77 1881.89 1258.32 1906.51 1268.27L2173.34 1376.06C2197.97 1386.01 2202.59 1418.89 2181.65 1435.24Z" stroke="url(#paint5_linear)" stroke-width="5"/>
<path opacity="0.76" d="M2615.77 1350.4L2524.28 1455.57C2506.85 1475.61 2474.28 1469.28 2465.63 1444.18L2420.21 1312.4C2411.56 1287.28 2433.34 1262.22 2459.41 1267.29L2596.32 1293.89C2622.39 1298.96 2633.2 1330.36 2615.77 1350.4Z" stroke="url(#paint6_linear)" stroke-width="5"/>
<path opacity="0.7" d="M486.676 1476.62L490.694 1709.96C491.151 1736.51 462.706 1753.6 439.479 1740.73L235.294 1627.63C212.056 1614.76 211.471 1581.57 234.24 1567.89L434.408 1447.64C457.177 1433.96 486.219 1450.06 486.676 1476.62Z" stroke="url(#paint7_linear)" stroke-width="5"/>
<path opacity="0.7" d="M1117.68 942.135L1121.69 1175.48C1122.15 1202.03 1093.71 1219.11 1070.48 1206.25L866.294 1093.15C843.056 1080.28 842.471 1047.08 865.24 1033.41L1065.41 913.155C1088.18 899.477 1117.22 915.579 1117.68 942.135Z" stroke="url(#paint8_linear)" stroke-width="5"/>
<path opacity="0.89" d="M801.546 1655.73L962.051 1853.99C978.757 1874.63 966.861 1905.61 940.635 1909.77L688.665 1949.74C662.431 1953.9 641.534 1928.1 651.054 1903.3L742.519 1665.07C752.039 1640.28 784.835 1635.08 801.546 1655.73Z" stroke="url(#paint9_linear)" stroke-width="5"/>
<path opacity="0.86" d="M1326.56 1777.81L1394.61 1891.11C1408.28 1913.87 1392.19 1942.89 1365.64 1943.36L1233.48 1945.7C1206.92 1946.17 1189.82 1917.71 1202.7 1894.48L1266.81 1778.85C1279.69 1755.62 1312.89 1755.04 1326.56 1777.81Z" stroke="url(#paint10_linear)" stroke-width="5"/>
<path opacity="0.86" d="M3320.09 2012.3L3388.14 2125.6C3401.81 2148.36 3385.71 2177.38 3359.16 2177.85L3227.01 2180.19C3200.45 2180.66 3183.34 2152.2 3196.22 2128.97L3260.33 2013.34C3273.21 1990.11 3306.41 1989.53 3320.09 2012.3Z" stroke="url(#paint11_linear)" stroke-width="5"/>
<path opacity="0.84" d="M2235.25 2042.6L2459.25 1873.92C2480.46 1857.95 2511 1870.91 2514.25 1897.26L2548.49 2175.54C2551.73 2201.91 2525.22 2221.89 2500.76 2211.52L2242.52 2101.92C2218.07 2091.54 2214.03 2058.58 2235.25 2042.6Z" stroke="url(#paint12_linear)" stroke-width="5"/>
<path opacity="0.82" d="M2349.75 1713.63L2235.71 1717.58C2209.18 1718.5 2191.59 1690.36 2204.05 1666.92L2257.59 1566.18C2270.06 1542.73 2303.24 1541.57 2317.32 1564.09L2377.81 1660.87C2391.88 1683.4 2376.29 1712.71 2349.75 1713.63Z" stroke="url(#paint13_linear)" stroke-width="5"/>
<path opacity="0.82" d="M3803.18 2038.22L3689.15 2042.18C3662.61 2043.1 3645.03 2014.95 3657.49 1991.51L3711.03 1890.77C3723.49 1867.32 3756.68 1866.16 3770.76 1888.68L3831.24 1985.47C3845.32 2007.99 3829.73 2037.3 3803.18 2038.22Z" stroke="url(#paint14_linear)" stroke-width="5"/>
<path opacity="0.82" d="M1557.18 966.223L1443.15 970.177C1416.61 971.097 1399.03 942.954 1411.49 919.51L1465.03 818.772C1477.49 795.319 1510.68 794.158 1524.76 816.682L1585.24 913.467C1599.32 935.991 1583.73 965.302 1557.18 966.223Z" stroke="url(#paint15_linear)" stroke-width="5"/>
<path opacity="0.94" d="M2766.14 1672.53L3062.78 1746.55C3088.55 1752.98 3097.7 1784.89 3079.26 1803.99L2866.92 2023.93C2848.47 2043.04 2816.26 2035.01 2808.93 2009.48L2724.63 1715.51C2717.3 1689.98 2740.37 1666.1 2766.14 1672.53Z" stroke="url(#paint16_linear)" stroke-width="5"/>
<path opacity="0.81" d="M348.312 2233.68L468.155 2214.73C494.382 2210.58 515.27 2236.37 505.76 2261.16L462.305 2374.42C452.792 2399.22 419.995 2404.41 403.278 2383.77L326.889 2289.46C310.172 2268.82 322.075 2237.83 348.312 2233.68Z" stroke="url(#paint17_linear)" stroke-width="5"/>
<path opacity="0.96" d="M717 2568.8L712.858 2328.23C712.401 2301.68 740.846 2284.59 764.073 2297.46L974.584 2414.06C997.822 2426.93 998.407 2460.13 975.637 2473.81L769.269 2597.78C746.499 2611.46 717.457 2595.36 717 2568.8Z" stroke="url(#paint18_linear)" stroke-width="5"/>
<path opacity="0.94" d="M2087.29 2213.75L1839.61 2170.02C1813.46 2165.41 1802.11 2134.22 1819.17 2113.88L1980.79 1921.21C1997.86 1900.86 2030.56 1906.63 2039.65 1931.59L2125.7 2167.98C2134.79 2192.93 2113.44 2218.37 2087.29 2213.75Z" stroke="url(#paint19_linear)" stroke-width="5"/>
<path opacity="0.96" d="M2780.23 2311.92L2962.83 2426.06C2985.34 2440.13 2984.18 2473.3 2960.74 2485.77L2770.63 2586.89C2747.18 2599.37 2719.02 2581.78 2719.95 2555.23L2727.47 2339.97C2728.39 2313.42 2757.71 2297.84 2780.23 2311.92Z" stroke="url(#paint20_linear)" stroke-width="5"/>
<path opacity="0.79" d="M423.474 2080.72L425.109 1988.35C425.579 1961.81 454.603 1945.72 477.366 1959.39L556.584 2006.95C579.358 2020.63 578.785 2053.83 555.552 2066.7L474.699 2111.51C451.466 2124.39 423.004 2107.28 423.474 2080.72Z" stroke="url(#paint21_linear)" stroke-width="5"/>
<path opacity="0.79" d="M1617.46 1888.87L1619.09 1796.5C1619.56 1769.95 1648.59 1753.87 1671.35 1767.54L1750.57 1815.1C1773.34 1828.77 1772.77 1861.97 1749.54 1874.85L1668.68 1919.66C1645.45 1932.53 1616.99 1915.43 1617.46 1888.87Z" stroke="url(#paint22_linear)" stroke-width="5"/>
<path opacity="0.81" d="M938.347 2243.52L836.605 2177.43C814.338 2162.96 816.076 2129.82 839.733 2117.76L947.827 2062.66C971.491 2050.6 999.337 2068.68 997.947 2095.2L991.594 2216.39C990.204 2242.92 960.62 2257.99 938.347 2243.52Z" stroke="url(#paint23_linear)" stroke-width="5"/>
<path opacity="0.87" d="M3104.22 1558.33L3248.76 1418.84C3267.86 1400.41 3299.76 1409.55 3306.19 1435.31L3354.83 1630.17C3361.26 1655.94 3337.38 1679.02 3311.85 1671.69L3118.67 1616.31C3093.13 1608.99 3085.11 1576.77 3104.22 1558.33Z" stroke="url(#paint24_linear)" stroke-width="5"/>
<path opacity="0.89" d="M114.809 -15.0221L-20.2464 -29.1815C-46.6553 -31.9503 -66.1645 -5.10323 -55.37 19.1527L-0.16674 143.198C10.6318 167.463 43.6553 170.936 59.2696 149.449L139.121 39.563C154.736 18.0757 141.227 -12.2523 114.809 -15.0221Z" stroke="url(#paint25_linear)" stroke-width="5"/>
<path opacity="0.76" d="M1700.13 121.42L1886.44 127.88C1912.97 128.8 1930.56 100.657 1918.1 77.2132L1830.62 -87.3743C1818.16 -110.827 1784.97 -111.988 1770.9 -89.4635L1672.07 68.6638C1657.99 91.1879 1673.58 120.5 1700.13 121.42Z" stroke="url(#paint26_linear)" stroke-width="5"/>
<path opacity="0.8" d="M1197.87 -76.9467L1289.92 129.63C1300.73 153.879 1333.73 157.347 1349.34 135.874L1482.34 -47.0539C1497.96 -68.539 1484.46 -98.8756 1458.04 -101.652L1232.99 -125.301C1206.58 -128.077 1187.06 -101.209 1197.87 -76.9467Z" stroke="url(#paint27_linear)" stroke-width="5"/>
<path opacity="0.9" d="M669.748 37.4875L896.472 214.503C917.4 230.842 948.167 218.414 951.869 192.126L991.972 -92.6751C995.676 -118.977 969.511 -139.424 944.882 -129.475L678.054 -21.69C653.425 -11.741 648.81 21.1399 669.748 37.4875Z" stroke="url(#paint28_linear)" stroke-width="5"/>
<path opacity="0.76" d="M235.63 -47.3474L327.117 57.8258C344.542 77.857 377.114 71.5267 385.765 46.428L431.184 -85.3522C439.84 -110.465 418.058 -135.529 391.983 -130.461L255.076 -103.854C229.001 -98.7869 218.196 -67.3896 235.63 -47.3474Z" stroke="url(#paint29_linear)" stroke-width="5"/>
<path opacity="0.7" d="M2364.72 78.868L2360.7 312.214C2360.24 338.758 2388.69 355.847 2411.92 342.982L2616.1 229.885C2639.34 217.014 2639.92 183.817 2617.16 170.138L2416.99 49.8884C2394.22 36.2096 2365.18 52.3115 2364.72 78.868Z" stroke="url(#paint30_linear)" stroke-width="5"/>
<path opacity="0.89" d="M2049.85 257.977L1889.34 456.244C1872.64 476.881 1884.53 507.864 1910.76 512.024L2162.73 551.986C2188.96 556.147 2209.86 530.348 2200.34 505.552L2108.88 267.323C2099.36 242.527 2066.56 237.334 2049.85 257.977Z" stroke="url(#paint31_linear)" stroke-width="5"/>
<path opacity="0.86" d="M1524.83 380.063L1456.78 493.358C1443.11 516.118 1459.21 545.144 1485.75 545.613L1617.91 547.951C1644.47 548.421 1661.58 519.965 1648.7 496.736L1584.59 381.103C1571.71 357.873 1538.51 357.295 1524.83 380.063Z" stroke="url(#paint32_linear)" stroke-width="5"/>
<path opacity="0.84" d="M616.15 644.856L392.147 476.173C370.937 460.202 340.391 473.165 337.149 499.514L302.906 777.795C299.662 804.157 326.18 824.145 350.632 813.768L608.878 704.169C633.33 693.792 637.37 660.836 616.15 644.856Z" stroke="url(#paint33_linear)" stroke-width="5"/>
<path opacity="0.82" d="M501.651 315.882L615.682 319.836C642.22 320.756 659.809 292.613 647.348 269.169L593.806 168.43C581.341 144.978 548.156 143.817 534.079 166.341L473.59 263.125C459.513 285.649 475.103 314.961 501.651 315.882Z" stroke="url(#paint34_linear)" stroke-width="5"/>
<path opacity="0.94" d="M85.2553 274.783L-211.388 348.806C-237.152 355.235 -246.302 387.138 -227.86 406.24L-15.5261 626.183C2.92095 645.291 35.1385 637.261 42.4609 611.729L126.77 317.763C134.093 292.232 111.027 268.352 85.2553 274.783Z" stroke="url(#paint35_linear)" stroke-width="5"/>
<path opacity="0.81" d="M2503.08 835.929L2383.24 816.981C2357.01 812.834 2336.13 838.623 2345.64 863.41L2389.09 976.672C2398.6 1001.47 2431.4 1006.67 2448.12 986.025L2524.51 891.711C2541.22 871.071 2529.32 840.077 2503.08 835.929Z" stroke="url(#paint36_linear)" stroke-width="5"/>
<path opacity="0.96" d="M2134.4 1171.05L2138.54 930.477C2138.99 903.933 2110.55 886.845 2087.32 899.71L1876.81 1016.31C1853.57 1029.18 1852.99 1062.38 1875.76 1076.06L2082.13 1200.03C2104.9 1213.71 2133.94 1197.61 2134.4 1171.05Z" stroke="url(#paint37_linear)" stroke-width="5"/>
<path opacity="0.96" d="M3960.88 1746.56L3965.02 1505.99C3965.48 1479.44 3937.03 1462.36 3913.81 1475.22L3703.29 1591.82C3680.06 1604.69 3679.47 1637.89 3702.24 1651.57L3908.61 1775.54C3931.38 1789.22 3960.42 1773.12 3960.88 1746.56Z" stroke="url(#paint38_linear)" stroke-width="5"/>
<path opacity="0.94" d="M764.11 815.998L1011.78 772.274C1037.93 767.657 1049.29 736.471 1032.22 716.129L870.604 523.463C853.535 503.115 820.835 508.878 811.749 533.837L725.694 770.227C716.608 795.186 737.952 820.616 764.11 815.998Z" stroke="url(#paint39_linear)" stroke-width="5"/>
<path opacity="0.96" d="M71.1641 914.169L-111.432 1028.31C-133.948 1042.38 -132.789 1075.55 -109.346 1088.02L80.7683 1189.15C104.218 1201.62 132.376 1184.03 131.449 1157.48L123.93 942.22C123.003 915.676 93.6865 900.091 71.1641 914.169Z" stroke="url(#paint40_linear)" stroke-width="5"/>
<path opacity="0.79" d="M2427.92 682.975L2426.29 590.603C2425.82 564.059 2396.79 547.974 2374.03 561.642L2294.81 609.205C2272.04 622.88 2272.61 656.077 2295.84 668.953L2376.7 713.762C2399.93 726.638 2428.39 709.532 2427.92 682.975Z" stroke="url(#paint41_linear)" stroke-width="5"/>
<path opacity="0.79" d="M1233.94 491.122L1232.3 398.749C1231.83 372.206 1202.81 356.12 1180.05 369.788L1100.83 417.352C1078.05 431.026 1078.63 464.224 1101.86 477.099L1182.71 521.908C1205.95 534.784 1234.41 517.678 1233.94 491.122Z" stroke="url(#paint42_linear)" stroke-width="5"/>
<path opacity="0.81" d="M1913.05 845.772L2014.79 779.678C2037.06 765.213 2035.32 732.069 2011.66 720.01L1903.57 664.911C1879.9 652.849 1852.06 670.929 1853.45 697.453L1859.8 818.646C1861.19 845.17 1890.78 860.241 1913.05 845.772Z" stroke="url(#paint43_linear)" stroke-width="5"/>
<path opacity="0.89" d="M3584.81 184.978L3449.75 170.818C3423.34 168.05 3403.83 194.897 3414.63 219.153L3469.83 343.198C3480.63 367.463 3513.65 370.936 3529.27 349.449L3609.12 239.563C3624.73 218.076 3611.23 187.748 3584.81 184.978Z" stroke="url(#paint44_linear)" stroke-width="5"/>
<path opacity="0.9" d="M4139.75 237.487L4366.47 414.503C4387.4 430.842 4418.17 418.414 4421.87 392.126L4461.97 107.325C4465.68 81.0232 4439.51 60.576 4414.88 70.5249L4148.05 178.31C4123.42 188.259 4118.81 221.14 4139.75 237.487Z" stroke="url(#paint45_linear)" stroke-width="5"/>
<path opacity="0.76" d="M3705.63 152.653L3797.12 257.826C3814.54 277.857 3847.11 271.527 3855.76 246.428L3901.18 114.648C3909.84 89.5354 3888.06 64.4711 3861.98 69.5386L3725.08 96.1456C3699 101.213 3688.2 132.61 3705.63 152.653Z" stroke="url(#paint46_linear)" stroke-width="5"/>
<path opacity="0.86" d="M3001.31 814.552L2933.26 927.847C2919.59 950.607 2935.68 979.632 2962.23 980.102L3094.39 982.44C3120.95 982.91 3138.05 954.454 3125.17 931.224L3061.06 815.591C3048.19 792.362 3014.99 791.784 3001.31 814.552Z" stroke="url(#paint47_linear)" stroke-width="5"/>
<path opacity="0.84" d="M4086.15 844.856L3862.15 676.173C3840.94 660.202 3810.39 673.165 3807.15 699.514L3772.91 977.795C3769.66 1004.16 3796.18 1024.14 3820.63 1013.77L4078.88 904.169C4103.33 893.792 4107.37 860.836 4086.15 844.856Z" stroke="url(#paint48_linear)" stroke-width="5"/>
<path opacity="0.82" d="M3971.65 515.882L4085.68 519.836C4112.22 520.756 4129.81 492.613 4117.35 469.169L4063.81 368.43C4051.34 344.978 4018.16 343.817 4004.08 366.341L3943.59 463.125C3929.51 485.649 3945.1 514.961 3971.65 515.882Z" stroke="url(#paint49_linear)" stroke-width="5"/>
<path opacity="0.94" d="M3555.26 474.783L3258.61 548.806C3232.85 555.235 3223.7 587.138 3242.14 606.24L3454.47 826.183C3472.92 845.291 3505.14 837.261 3512.46 811.729L3596.77 517.763C3604.09 492.232 3581.03 468.352 3555.26 474.783Z" stroke="url(#paint50_linear)" stroke-width="5"/>
<path opacity="0.96" d="M3541.16 1114.17L3358.57 1228.31C3336.05 1242.38 3337.21 1275.55 3360.65 1288.02L3550.77 1389.15C3574.22 1401.62 3602.38 1384.03 3601.45 1357.48L3593.93 1142.22C3593 1115.68 3563.69 1100.09 3541.16 1114.17Z" stroke="url(#paint51_linear)" stroke-width="5"/>
<path opacity="0.87" d="M3217.18 360.577L3072.64 221.094C3053.54 202.657 3021.64 211.802 3015.21 237.559L2966.56 432.425C2960.13 458.196 2984.01 481.267 3009.55 473.946L3202.73 418.563C3228.26 411.243 3236.29 379.024 3217.18 360.577Z" stroke="url(#paint52_linear)" stroke-width="5"/>
</g>
<defs>
<linearGradient id="paint0_linear" x1="90.2782" y1="150.435" x2="4033.17" y2="2261.44" gradientUnits="userSpaceOnUse">
<stop stop-color="#2F80ED"/>
<stop offset="1" stop-color="#0B356D"/>
</linearGradient>
<linearGradient id="paint1_linear" x1="760.339" y1="1167.55" x2="575.45" y2="1301.9" gradientUnits="userSpaceOnUse">
<stop stop-color="#5EA3FF"/>
<stop offset="1" stop-color="#083064"/>
</linearGradient>
<linearGradient id="paint2_linear" x1="2935.09" y1="1359.4" x2="2750.2" y2="1493.76" gradientUnits="userSpaceOnUse">
<stop stop-color="#5EA3FF"/>
<stop offset="1" stop-color="#083064"/>
</linearGradient>
<linearGradient id="paint3_linear" x1="901.024" y1="1530.35" x2="1132.01" y2="1385.98" gradientUnits="userSpaceOnUse">
<stop stop-color="#5EA3FF"/>
<stop offset="1" stop-color="#083064"/>
</linearGradient>
<linearGradient id="paint4_linear" x1="1537.69" y1="1586.89" x2="1505.63" y2="1281.79" gradientUnits="userSpaceOnUse">
<stop stop-color="#5EA3FF"/>
<stop offset="1" stop-color="#083064"/>
</linearGradient>
<linearGradient id="paint5_linear" x1="1905.98" y1="1653.64" x2="2040.82" y2="1319.83" gradientUnits="userSpaceOnUse">
<stop stop-color="#5EA3FF"/>
<stop offset="1" stop-color="#083064"/>
</linearGradient>
<linearGradient id="paint6_linear" x1="2484.13" y1="1505.53" x2="2528.33" y2="1278.13" gradientUnits="userSpaceOnUse">
<stop stop-color="#5EA3FF"/>
<stop offset="1" stop-color="#083064"/>
</linearGradient>
<linearGradient id="paint7_linear" x1="494.297" y1="1773.95" x2="333.081" y2="1505.59" gradientUnits="userSpaceOnUse">
<stop stop-color="#5EA3FF"/>
<stop offset="1" stop-color="#083064"/>
</linearGradient>
<linearGradient id="paint8_linear" x1="1125.3" y1="1239.47" x2="964.081" y2="971.111" gradientUnits="userSpaceOnUse">
<stop stop-color="#5EA3FF"/>
<stop offset="1" stop-color="#083064"/>
</linearGradient>
<linearGradient id="paint9_linear" x1="1004.3" y1="1902.21" x2="694.468" y2="1783.25" gradientUnits="userSpaceOnUse">
<stop stop-color="#5EA3FF"/>
<stop offset="1" stop-color="#083064"/>
</linearGradient>
<linearGradient id="paint10_linear" x1="1429.74" y1="1944.73" x2="1232.58" y2="1835.42" gradientUnits="userSpaceOnUse">
<stop stop-color="#5EA3FF"/>
<stop offset="1" stop-color="#083064"/>
</linearGradient>
<linearGradient id="paint11_linear" x1="3423.26" y1="2179.22" x2="3226.11" y2="2069.91" gradientUnits="userSpaceOnUse">
<stop stop-color="#5EA3FF"/>
<stop offset="1" stop-color="#083064"/>
</linearGradient>
<linearGradient id="paint12_linear" x1="2508.91" y1="1833.4" x2="2370.71" y2="2159.04" gradientUnits="userSpaceOnUse">
<stop stop-color="#5EA3FF"/>
<stop offset="1" stop-color="#083064"/>
</linearGradient>
<linearGradient id="paint13_linear" x1="2171.78" y1="1722.3" x2="2349.66" y2="1611.13" gradientUnits="userSpaceOnUse">
<stop stop-color="#5EA3FF"/>
<stop offset="1" stop-color="#083064"/>
</linearGradient>
<linearGradient id="paint14_linear" x1="3625.22" y1="2046.9" x2="3803.1" y2="1935.72" gradientUnits="userSpaceOnUse">
<stop stop-color="#5EA3FF"/>
<stop offset="1" stop-color="#083064"/>
</linearGradient>
<linearGradient id="paint15_linear" x1="1379.22" y1="974.895" x2="1557.1" y2="863.72" gradientUnits="userSpaceOnUse">
<stop stop-color="#5EA3FF"/>
<stop offset="1" stop-color="#083064"/>
</linearGradient>
<linearGradient id="paint16_linear" x1="3125.55" y1="1759.64" x2="2764.39" y2="1863.22" gradientUnits="userSpaceOnUse">
<stop stop-color="#5EA3FF"/>
<stop offset="1" stop-color="#083064"/>
</linearGradient>
<linearGradient id="paint17_linear" x1="531.036" y1="2202.26" x2="363.165" y2="2338.22" gradientUnits="userSpaceOnUse">
<stop stop-color="#5EA3FF"/>
<stop offset="1" stop-color="#083064"/>
</linearGradient>
<linearGradient id="paint18_linear" x1="709.255" y1="2264.24" x2="873.695" y2="2537.96" gradientUnits="userSpaceOnUse">
<stop stop-color="#5EA3FF"/>
<stop offset="1" stop-color="#083064"/>
</linearGradient>
<linearGradient id="paint19_linear" x1="1776.09" y1="2161.35" x2="2085.01" y2="2048.89" gradientUnits="userSpaceOnUse">
<stop stop-color="#5EA3FF"/>
<stop offset="1" stop-color="#083064"/>
</linearGradient>
<linearGradient id="paint20_linear" x1="3018.47" y1="2457.89" x2="2721.21" y2="2447.51" gradientUnits="userSpaceOnUse">
<stop stop-color="#5EA3FF"/>
<stop offset="1" stop-color="#083064"/>
</linearGradient>
<linearGradient id="paint21_linear" x1="423.742" y1="1924.28" x2="516.311" y2="2091.31" gradientUnits="userSpaceOnUse">
<stop stop-color="#5EA3FF"/>
<stop offset="1" stop-color="#083064"/>
</linearGradient>
<linearGradient id="paint22_linear" x1="1617.73" y1="1732.42" x2="1710.29" y2="1899.45" gradientUnits="userSpaceOnUse">
<stop stop-color="#5EA3FF"/>
<stop offset="1" stop-color="#083064"/>
</linearGradient>
<linearGradient id="paint23_linear" x1="781.522" y1="2144.62" x2="997.267" y2="2155.93" gradientUnits="userSpaceOnUse">
<stop stop-color="#5EA3FF"/>
<stop offset="1" stop-color="#083064"/>
</linearGradient>
<linearGradient id="paint24_linear" x1="3293.1" y1="1372.57" x2="3214.59" y2="1646.41" gradientUnits="userSpaceOnUse">
<stop stop-color="#5EA3FF"/>
<stop offset="1" stop-color="#083064"/>
</linearGradient>
<linearGradient id="paint25_linear" x1="-83.6955" y1="-38.3471" x2="101.194" y2="96.0084" gradientUnits="userSpaceOnUse">
<stop stop-color="#5EA3FF"/>
<stop offset="1" stop-color="#083064"/>
</linearGradient>
<linearGradient id="paint26_linear" x1="1950.37" y1="132.599" x2="1719.39" y2="-11.7636" gradientUnits="userSpaceOnUse">
<stop stop-color="#5EA3FF"/>
<stop offset="1" stop-color="#083064"/>
</linearGradient>
<linearGradient id="paint27_linear" x1="1313.7" y1="189.141" x2="1345.77" y2="-115.964" gradientUnits="userSpaceOnUse">
<stop stop-color="#5EA3FF"/>
<stop offset="1" stop-color="#083064"/>
</linearGradient>
<linearGradient id="paint28_linear" x1="945.415" y1="255.887" x2="810.575" y2="-77.9181" gradientUnits="userSpaceOnUse">
<stop stop-color="#5EA3FF"/>
<stop offset="1" stop-color="#083064"/>
</linearGradient>
<linearGradient id="paint29_linear" x1="367.262" y1="107.785" x2="323.068" y2="-119.615" gradientUnits="userSpaceOnUse">
<stop stop-color="#5EA3FF"/>
<stop offset="1" stop-color="#083064"/>
</linearGradient>
<linearGradient id="paint30_linear" x1="2357.1" y1="376.202" x2="2518.31" y2="107.844" gradientUnits="userSpaceOnUse">
<stop stop-color="#5EA3FF"/>
<stop offset="1" stop-color="#083064"/>
</linearGradient>
<linearGradient id="paint31_linear" x1="1847.1" y1="504.458" x2="2156.93" y2="385.503" gradientUnits="userSpaceOnUse">
<stop stop-color="#5EA3FF"/>
<stop offset="1" stop-color="#083064"/>
</linearGradient>
<linearGradient id="paint32_linear" x1="1421.66" y1="546.98" x2="1618.81" y2="437.676" gradientUnits="userSpaceOnUse">
<stop stop-color="#5EA3FF"/>
<stop offset="1" stop-color="#083064"/>
</linearGradient>
<linearGradient id="paint33_linear" x1="342.489" y1="435.65" x2="480.688" y2="761.288" gradientUnits="userSpaceOnUse">
<stop stop-color="#5EA3FF"/>
<stop offset="1" stop-color="#083064"/>
</linearGradient>
<linearGradient id="paint34_linear" x1="679.617" y1="324.554" x2="501.733" y2="213.378" gradientUnits="userSpaceOnUse">
<stop stop-color="#5EA3FF"/>
<stop offset="1" stop-color="#083064"/>
</linearGradient>
<linearGradient id="paint35_linear" x1="-274.151" y1="361.891" x2="87.0084" y2="465.471" gradientUnits="userSpaceOnUse">
<stop stop-color="#5EA3FF"/>
<stop offset="1" stop-color="#083064"/>
</linearGradient>
<linearGradient id="paint36_linear" x1="2320.36" y1="804.508" x2="2488.23" y2="940.472" gradientUnits="userSpaceOnUse">
<stop stop-color="#5EA3FF"/>
<stop offset="1" stop-color="#083064"/>
</linearGradient>
<linearGradient id="paint37_linear" x1="2142.14" y1="866.489" x2="1977.7" y2="1140.21" gradientUnits="userSpaceOnUse">
<stop stop-color="#5EA3FF"/>
<stop offset="1" stop-color="#083064"/>
</linearGradient>
<linearGradient id="paint38_linear" x1="3968.62" y1="1442" x2="3804.18" y2="1715.73" gradientUnits="userSpaceOnUse">
<stop stop-color="#5EA3FF"/>
<stop offset="1" stop-color="#083064"/>
</linearGradient>
<linearGradient id="paint39_linear" x1="1075.3" y1="763.598" x2="766.386" y2="651.14" gradientUnits="userSpaceOnUse">
<stop stop-color="#5EA3FF"/>
<stop offset="1" stop-color="#083064"/>
</linearGradient>
<linearGradient id="paint40_linear" x1="-167.079" y1="1060.14" x2="130.188" y2="1049.76" gradientUnits="userSpaceOnUse">
<stop stop-color="#5EA3FF"/>
<stop offset="1" stop-color="#083064"/>
</linearGradient>
<linearGradient id="paint41_linear" x1="2427.65" y1="526.529" x2="2335.08" y2="693.559" gradientUnits="userSpaceOnUse">
<stop stop-color="#5EA3FF"/>
<stop offset="1" stop-color="#083064"/>
</linearGradient>
<linearGradient id="paint42_linear" x1="1233.67" y1="334.675" x2="1141.1" y2="501.705" gradientUnits="userSpaceOnUse">
<stop stop-color="#5EA3FF"/>
<stop offset="1" stop-color="#083064"/>
</linearGradient>
<linearGradient id="paint43_linear" x1="2069.87" y1="746.876" x2="1854.13" y2="758.185" gradientUnits="userSpaceOnUse">
<stop stop-color="#5EA3FF"/>
<stop offset="1" stop-color="#083064"/>
</linearGradient>
<linearGradient id="paint44_linear" x1="3386.3" y1="161.653" x2="3571.19" y2="296.008" gradientUnits="userSpaceOnUse">
<stop stop-color="#5EA3FF"/>
<stop offset="1" stop-color="#083064"/>
</linearGradient>
<linearGradient id="paint45_linear" x1="4415.41" y1="455.887" x2="4280.57" y2="122.082" gradientUnits="userSpaceOnUse">
<stop stop-color="#5EA3FF"/>
<stop offset="1" stop-color="#083064"/>
</linearGradient>
<linearGradient id="paint46_linear" x1="3837.26" y1="307.785" x2="3793.07" y2="80.3849" gradientUnits="userSpaceOnUse">
<stop stop-color="#5EA3FF"/>
<stop offset="1" stop-color="#083064"/>
</linearGradient>
<linearGradient id="paint47_linear" x1="2898.14" y1="981.468" x2="3095.29" y2="872.164" gradientUnits="userSpaceOnUse">
<stop stop-color="#5EA3FF"/>
<stop offset="1" stop-color="#083064"/>
</linearGradient>
<linearGradient id="paint48_linear" x1="3812.49" y1="635.65" x2="3950.69" y2="961.288" gradientUnits="userSpaceOnUse">
<stop stop-color="#5EA3FF"/>
<stop offset="1" stop-color="#083064"/>
</linearGradient>
<linearGradient id="paint49_linear" x1="4149.62" y1="524.554" x2="3971.73" y2="413.378" gradientUnits="userSpaceOnUse">
<stop stop-color="#5EA3FF"/>
<stop offset="1" stop-color="#083064"/>
</linearGradient>
<linearGradient id="paint50_linear" x1="3195.85" y1="561.891" x2="3557.01" y2="665.471" gradientUnits="userSpaceOnUse">
<stop stop-color="#5EA3FF"/>
<stop offset="1" stop-color="#083064"/>
</linearGradient>
<linearGradient id="paint51_linear" x1="3302.92" y1="1260.14" x2="3600.19" y2="1249.76" gradientUnits="userSpaceOnUse">
<stop stop-color="#5EA3FF"/>
<stop offset="1" stop-color="#083064"/>
</linearGradient>
<linearGradient id="paint52_linear" x1="3028.29" y1="174.823" x2="3106.8" y2="448.666" gradientUnits="userSpaceOnUse">
<stop stop-color="#5EA3FF"/>
<stop offset="1" stop-color="#083064"/>
</linearGradient>
<clipPath id="clip0">
<rect width="4127" height="2321" fill="white"/>
</clipPath>
</defs>
</svg>
