<svg width="3733" height="2160" viewBox="0 0 3733 2160" fill="none" xmlns="http://www.w3.org/2000/svg">
<g id="Homepage" clip-path="url(#clip0)">
<rect width="3733" height="2160" fill="url(#paint0_linear)"/>
<rect width="3733" height="2160" fill="#406E82"/>
<rect id="Rectangle 17" x="1" width="3732" height="2194" fill="url(#paint1_radial)" fill-opacity="0.56"/>
<g id="g76" opacity="0.77" filter="url(#filter0_dd)">
<path d="M2688.77 197.822L2936 281.014C2983.45 296.987 3008.68 347.506 2992.33 393.849L2907.15 635.33C2890.79 681.675 2839.07 706.304 2791.62 690.336L2544.37 607.134C2496.92 591.165 2471.71 540.649 2488.05 494.297L2573.24 252.819C2589.59 206.47 2641.31 181.844 2688.77 197.822Z" stroke="#588CA3" stroke-width="10"/>
</g>
<g id="g75" opacity="0.8" filter="url(#filter1_dd)">
<path d="M1008.01 1016.66L1000.3 1016.92L1005.18 1022.75C1031.8 1054.55 1047.81 1090.56 1049.31 1132.44C1052.89 1232.55 970.697 1316.55 865.759 1320.12C760.828 1323.7 672.817 1245.15 669.238 1145.04C665.656 1044.91 747.088 960.592 852.004 957.013C896.38 955.5 938.491 968.227 969.5 991.334L975.921 996.119L975.634 988.236L975.125 973.839C974.964 969.463 976.963 964.777 980.475 961.177C980.475 961.177 980.474 961.176 980.481 961.174L1070.32 869.467C1070.33 869.459 1070.33 869.452 1070.34 869.445C1077.95 861.993 1090.23 861.742 1097.4 868.429L1097.43 868.458L1097.47 868.486L1124.62 892.691L1124.65 892.719L1124.68 892.747C1132.16 899.113 1132.65 910.314 1125.52 917.625L1125.51 917.631L1125.5 917.636L1036.03 1010.11L1036.03 1010.12C1032.52 1013.71 1027.73 1015.98 1023.07 1016.14L1008.01 1016.66ZM855.054 1020.76C786.984 1023.09 733.807 1077.88 736.12 1142.76C738.457 1208.01 795.41 1258.67 863.48 1256.35C931.543 1254.03 984.743 1199.61 982.407 1134.36C980.077 1069.1 923.116 1018.44 855.054 1020.76Z" stroke="#588CA3" stroke-width="10"/>
</g>
<g id="g74" opacity="0.8" filter="url(#filter2_dd)">
<path d="M2148.59 211.802L2145.36 204.958L2141.75 211.61C2122 247.875 2094.19 276.216 2055.22 293.75C1962.07 335.666 1850.98 294.098 1807.05 200.954C1763.11 107.817 1803.27 -1.8228 1896.43 -43.7403C1989.59 -85.6675 2100.69 -44.9037 2144.62 48.2198C2163.2 87.6084 2167.46 130.46 2157.62 167.323L2155.58 174.957L2162.92 171.652L2176.32 165.628C2180.39 163.792 2185.58 163.782 2190.34 165.554C2190.34 165.554 2190.34 165.553 2190.35 165.558L2311.67 211.034C2311.68 211.042 2311.69 211.045 2311.7 211.047C2321.68 215.024 2326.66 225.989 2323.12 235.034L2323.1 235.07L2323.09 235.113L2310.72 268.926L2310.71 268.969L2310.7 269.005C2307.57 278.199 2297.19 282.968 2287.53 279.371L2287.52 279.368L2287.51 279.364L2165.6 234.51L2165.6 234.511C2160.84 232.737 2156.85 229.307 2154.9 225.168L2148.59 211.802ZM2085.6 75.6075C2057.09 15.1882 1984.8 -11.5364 1924.43 15.6245C1863.71 42.9508 1837.89 113.833 1866.39 174.251C1894.89 234.664 1966.83 261.555 2027.55 234.229C2088.28 206.908 2114.09 136.02 2085.6 75.6075Z" stroke="#588CA3" stroke-width="10"/>
</g>
<g id="g73" opacity="0.8" filter="url(#filter3_dd)">
<path d="M1955.28 1054.01L1947.62 1053.07L1951.49 1059.59C1972.55 1095.14 1982.47 1133.18 1977.09 1174.76C1964.24 1274.13 1869.36 1344.22 1765.18 1331.37C1661.01 1318.52 1586.99 1227.23 1599.85 1127.85C1612.7 1028.44 1706.89 957.928 1811.04 970.776C1855.09 976.212 1894.58 995.35 1921.41 1023L1926.96 1028.73L1927.97 1020.9L1929.82 1006.61C1930.38 1002.26 1933.12 997.951 1937.17 994.946C1937.17 994.946 1937.17 994.945 1937.18 994.944L2040.87 918.443C2040.88 918.437 2040.89 918.43 2040.9 918.424C2049.63 912.257 2061.8 913.927 2067.78 921.648L2067.8 921.681L2067.83 921.714L2090.67 949.847L2090.71 949.88L2090.73 949.912C2097.07 957.363 2095.71 968.496 2087.48 974.6L2087.47 974.605L2087.47 974.609L1984 1051.93L1984 1051.93C1979.95 1054.93 1974.86 1056.43 1970.23 1055.86L1955.28 1054.01ZM1803.61 1034.18C1736.04 1025.85 1674.58 1071.63 1666.24 1136.04C1657.87 1200.82 1705.8 1259.72 1773.37 1268.05C1840.94 1276.39 1902.36 1230.98 1910.74 1166.2C1919.12 1101.42 1871.18 1042.52 1803.61 1034.18Z" stroke="#588CA3" stroke-width="10"/>
</g>
<g id="g72" opacity="0.8" filter="url(#filter4_dd)">
<path d="M2630.28 1859.15L2623.18 1856.2L2625.08 1863.5C2635.39 1903.32 2634.29 1942.56 2617.48 1981.12C2577.32 2073.28 2466.44 2115.38 2369.83 2075.22C2273.22 2035.06 2227.55 1927.49 2267.72 1835.32C2307.89 1743.13 2418.22 1700.43 2514.82 1740.59C2555.67 1757.57 2588.3 1786.52 2606.37 1820.28L2610.11 1827.27L2613.27 1820.01L2619.05 1806.75C2620.81 1802.72 2624.65 1799.31 2629.39 1797.5C2629.39 1797.5 2629.39 1797.5 2629.4 1797.5L2750.54 1751.58C2750.56 1751.58 2750.57 1751.57 2750.57 1751.57C2760.7 1747.97 2771.94 1752.82 2775.53 1761.84L2775.55 1761.88L2775.57 1761.92L2789.67 1795.08L2789.69 1795.12L2789.7 1795.15C2793.71 1804.01 2789.3 1814.36 2779.67 1818.04L2779.66 1818.04L2779.65 1818.04L2658.5 1864.81L2658.5 1864.81C2653.76 1866.61 2648.44 1866.69 2644.15 1864.91L2630.28 1859.15ZM2489.93 1799.6C2427.26 1773.55 2355.33 1801.19 2329.3 1860.92C2303.12 1921 2332.75 1990.45 2395.42 2016.5C2458.08 2042.55 2529.87 2015.26 2556.05 1955.18C2582.24 1895.1 2552.6 1825.65 2489.93 1799.6Z" stroke="#588CA3" stroke-width="10"/>
</g>
<g id="g71" opacity="0.96" filter="url(#filter5_dd)">
<path d="M3451.36 520.542L3574.53 237.418C3586.19 210.611 3563.75 181.556 3534.13 185.106L3221.27 222.597C3191.63 226.148 3177.03 259.67 3194.99 282.928L3384.68 528.561C3402.65 551.819 3439.69 547.362 3451.36 520.542Z" stroke="#588CA3" stroke-width="10"/>
</g>
<g id="g70" opacity="0.84" filter="url(#filter6_dd)">
<path d="M2866.58 1596.76L2962.8 1269.47C2971.91 1238.48 2943.24 1209.52 2911.19 1217.32L2572.64 1299.73C2540.57 1307.54 2529.16 1346.29 2552.1 1369.48L2794.44 1614.35C2817.38 1637.54 2857.47 1627.76 2866.58 1596.76Z" stroke="#588CA3" stroke-width="10"/>
</g>
<g id="g69" opacity="0.84" filter="url(#filter7_dd)">
<path d="M328.312 1367.93L424.529 1040.65C433.638 1009.66 404.975 980.696 372.919 988.499L34.3708 1070.91C2.29951 1078.72 -9.11279 1117.47 13.8321 1140.65L256.166 1385.53C279.111 1408.71 319.197 1398.94 328.312 1367.93Z" stroke="#588CA3" stroke-width="10"/>
</g>
<g id="g68" opacity="0.84" filter="url(#filter8_dd)">
<path d="M2372.62 1036.56L2595.9 900.295C2617.04 887.392 2615.93 856.99 2593.9 845.556L2361.22 724.798C2339.17 713.358 2312.72 729.484 2313.61 753.82L2323.01 1010.85C2323.9 1035.19 2351.46 1049.47 2372.62 1036.56Z" stroke="#588CA3" stroke-width="10"/>
</g>
<g id="g67" opacity="0.84" filter="url(#filter9_dd)">
<path d="M809.826 789.592L887.814 576.06C895.198 555.841 877.396 535.421 855.761 539.293L627.263 580.183C605.617 584.057 596.37 609.34 610.62 625.686L761.13 798.327C775.381 814.674 802.437 809.82 809.826 789.592Z" stroke="#588CA3" stroke-width="10"/>
</g>
<g id="g66" opacity="0.75" filter="url(#filter10_dd)">
<path d="M394.384 89.5368L500.755 322.864C521.164 367.649 500.55 420.129 454.696 440.063L215.789 543.958C169.933 563.892 116.211 543.754 95.7955 498.971L-10.5755 265.629C-30.9893 220.845 -10.367 168.377 35.4846 148.429L274.4 44.5461C320.249 24.5992 373.968 44.7382 394.384 89.5368Z" stroke="#588CA3" stroke-width="10"/>
</g>
<g id="g65" opacity="0.75" filter="url(#filter11_dd)">
<path d="M1537.3 522.022L1621.18 706.012C1637.27 741.327 1621.02 782.71 1584.86 798.429L1396.47 880.355C1360.31 896.074 1317.95 880.195 1301.85 844.881L1217.97 660.879C1201.87 625.564 1218.13 584.191 1254.29 568.461L1442.69 486.544C1478.84 470.815 1521.2 486.696 1537.3 522.022Z" stroke="#588CA3" stroke-width="10"/>
</g>
<g id="g64" opacity="0.8" filter="url(#filter12_dd)">
<path d="M3397.06 980.949L3389.86 983.509L3396.3 987.553C3431.43 1009.61 3457.87 1038.82 3472.44 1077.93C3507.27 1171.4 3456.04 1275.37 3358.05 1310.2C3260.08 1345.03 3152.27 1297.22 3117.43 1203.74C3082.59 1110.24 3133.01 1006.2 3230.97 971.376C3272.41 956.647 3316.18 956.046 3352.73 968.575L3360.3 971.171L3357.55 963.811L3352.54 950.366C3351.02 946.282 3351.43 941.256 3353.62 936.805C3353.62 936.805 3353.62 936.803 3353.62 936.799L3409.65 823.261C3409.66 823.249 3409.67 823.24 3409.67 823.232C3414.52 813.912 3426.04 809.995 3434.91 814.161L3434.95 814.18L3434.99 814.196L3468.24 828.919L3468.28 828.935L3468.32 828.953C3477.38 832.725 3481.36 843.157 3476.92 852.199L3476.92 852.206L3476.91 852.213L3421.46 966.374L3421.46 966.376C3419.28 970.824 3415.47 974.402 3411.12 975.95L3397.06 980.949ZM3253.88 1030.67C3190.32 1053.27 3157.32 1120.95 3179.89 1181.54C3202.6 1242.47 3272.3 1273.24 3335.86 1250.65C3399.42 1228.06 3432.57 1160.72 3409.86 1099.79C3387.15 1038.85 3317.44 1008.08 3253.88 1030.67Z" stroke="#588CA3" stroke-width="10"/>
</g>
<g id="g63" opacity="0.98" filter="url(#filter13_dd)">
<path d="M1249.79 1525.22C1375.7 1540.32 1465.23 1652.24 1449.77 1775.21C1434.31 1898.18 1319.71 1985.63 1193.81 1970.54C1067.9 1955.44 978.367 1843.51 993.828 1720.54C1009.29 1597.57 1123.88 1510.12 1249.79 1525.22Z" stroke="#588CA3" stroke-width="10"/>
</g>
<g id="g62" opacity="0.98" filter="url(#filter14_dd)">
<path d="M1181.76 -2.07014C1293.45 11.3249 1372.87 110.602 1359.15 219.683C1345.44 328.764 1243.78 406.334 1132.1 392.951C1020.42 379.556 940.995 280.266 954.71 171.184C968.425 62.1028 1070.07 -15.4637 1181.76 -2.07014Z" stroke="#588CA3" stroke-width="10"/>
</g>
<g id="g61" opacity="0.98" filter="url(#filter15_dd)">
<path d="M3463.7 1602.81C3589.61 1617.91 3679.14 1729.83 3663.68 1852.8C3648.22 1975.77 3533.62 2063.22 3407.72 2048.13C3281.81 2033.03 3192.28 1921.1 3207.74 1798.13C3223.2 1675.16 3337.79 1587.71 3463.7 1602.81Z" stroke="#588CA3" stroke-width="10"/>
</g>
<g id="g60" opacity="0.94" filter="url(#filter16_dd)">
<path d="M192.631 2135.69L6.14997 1977.37C-29.6376 1946.97 -33.4399 1893.99 -2.32181 1859.04L159.792 1676.9C190.911 1641.94 245.149 1638.24 280.94 1668.63L467.428 1826.97C503.218 1857.36 507.009 1910.33 475.899 1945.3L313.773 2127.43C282.665 2162.39 228.429 2166.09 192.631 2135.69Z" stroke="#588CA3" stroke-width="10"/>
</g>
<g id="g59" opacity="0.87" filter="url(#filter17_dd)">
<path d="M1971.59 1779.92L2152.03 1684.78C2169.11 1675.77 2171.27 1651.82 2155.92 1641.65L1993.75 1534.31C1978.39 1524.14 1957.02 1535.4 1955.29 1554.57L1937.01 1757.06C1935.28 1776.23 1954.49 1788.94 1971.59 1779.92Z" stroke="#588CA3" stroke-width="10"/>
</g>
<g id="g58" opacity="0.87" filter="url(#filter18_dd)">
<path d="M1943.1 668.68L2057.38 540.38C2068.2 528.232 2061.48 509.214 2045.29 506.138L1874.25 473.651C1858.04 470.573 1844.51 485.761 1849.88 500.985L1906.65 661.771C1912.02 676.995 1932.28 680.834 1943.1 668.68Z" stroke="#588CA3" stroke-width="10"/>
</g>
</g>
<defs>
<filter id="filter0_dd" x="2467.79" y="187.978" width="585.785" height="563.438" filterUnits="userSpaceOnUse" color-interpolation-filters="sRGB">
<feFlood flood-opacity="0" result="BackgroundImageFix"/>
<feColorMatrix in="SourceAlpha" type="matrix" values="0 0 0 0 0 0 0 0 0 0 0 0 0 0 0 0 0 0 127 0"/>
<feOffset dy="10.2481"/>
<feGaussianBlur stdDeviation="5.12406"/>
<feColorMatrix type="matrix" values="0 0 0 0 0.243137 0 0 0 0 0.419608 0 0 0 0 0.494118 0 0 0 1 0"/>
<feBlend mode="normal" in2="BackgroundImageFix" result="effect1_dropShadow"/>
<feColorMatrix in="SourceAlpha" type="matrix" values="0 0 0 0 0 0 0 0 0 0 0 0 0 0 0 0 0 0 127 0"/>
<feOffset dx="25.6203" dy="25.6203"/>
<feGaussianBlur stdDeviation="12.8101"/>
<feColorMatrix type="matrix" values="0 0 0 0 0.160784 0 0 0 0 0.27451 0 0 0 0 0.32549 0 0 0 1 0"/>
<feBlend mode="normal" in2="effect1_dropShadow" result="effect2_dropShadow"/>
<feBlend mode="normal" in="SourceGraphic" in2="effect2_dropShadow" result="shape"/>
</filter>
<filter id="filter1_dd" x="656.114" y="858.633" width="519.483" height="506.6" filterUnits="userSpaceOnUse" color-interpolation-filters="sRGB">
<feFlood flood-opacity="0" result="BackgroundImageFix"/>
<feColorMatrix in="SourceAlpha" type="matrix" values="0 0 0 0 0 0 0 0 0 0 0 0 0 0 0 0 0 0 127 0"/>
<feOffset dy="8.00017"/>
<feGaussianBlur stdDeviation="4.00008"/>
<feColorMatrix type="matrix" values="0 0 0 0 0.243137 0 0 0 0 0.419608 0 0 0 0 0.494118 0 0 0 1 0"/>
<feBlend mode="normal" in2="BackgroundImageFix" result="effect1_dropShadow"/>
<feColorMatrix in="SourceAlpha" type="matrix" values="0 0 0 0 0 0 0 0 0 0 0 0 0 0 0 0 0 0 127 0"/>
<feOffset dx="20.0004" dy="20.0004"/>
<feGaussianBlur stdDeviation="10.0002"/>
<feColorMatrix type="matrix" values="0 0 0 0 0.160784 0 0 0 0 0.27451 0 0 0 0 0.32549 0 0 0 1 0"/>
<feBlend mode="normal" in2="effect1_dropShadow" result="effect2_dropShadow"/>
<feBlend mode="normal" in="SourceGraphic" in2="effect2_dropShadow" result="shape"/>
</filter>
<filter id="filter2_dd" x="1776.18" y="-65.167" width="593.132" height="420.199" filterUnits="userSpaceOnUse" color-interpolation-filters="sRGB">
<feFlood flood-opacity="0" result="BackgroundImageFix"/>
<feColorMatrix in="SourceAlpha" type="matrix" values="0 0 0 0 0 0 0 0 0 0 0 0 0 0 0 0 0 0 127 0"/>
<feOffset dy="8.00017"/>
<feGaussianBlur stdDeviation="4.00008"/>
<feColorMatrix type="matrix" values="0 0 0 0 0.243137 0 0 0 0 0.419608 0 0 0 0 0.494118 0 0 0 1 0"/>
<feBlend mode="normal" in2="BackgroundImageFix" result="effect1_dropShadow"/>
<feColorMatrix in="SourceAlpha" type="matrix" values="0 0 0 0 0 0 0 0 0 0 0 0 0 0 0 0 0 0 127 0"/>
<feOffset dx="20.0004" dy="20.0004"/>
<feGaussianBlur stdDeviation="10.0002"/>
<feColorMatrix type="matrix" values="0 0 0 0 0.160784 0 0 0 0 0.27451 0 0 0 0 0.32549 0 0 0 1 0"/>
<feBlend mode="normal" in2="effect1_dropShadow" result="effect2_dropShadow"/>
<feBlend mode="normal" in="SourceGraphic" in2="effect2_dropShadow" result="shape"/>
</filter>
<filter id="filter3_dd" x="1585.39" y="909.672" width="554.315" height="468.212" filterUnits="userSpaceOnUse" color-interpolation-filters="sRGB">
<feFlood flood-opacity="0" result="BackgroundImageFix"/>
<feColorMatrix in="SourceAlpha" type="matrix" values="0 0 0 0 0 0 0 0 0 0 0 0 0 0 0 0 0 0 127 0"/>
<feOffset dy="8.00017"/>
<feGaussianBlur stdDeviation="4.00008"/>
<feColorMatrix type="matrix" values="0 0 0 0 0.243137 0 0 0 0 0.419608 0 0 0 0 0.494118 0 0 0 1 0"/>
<feBlend mode="normal" in2="BackgroundImageFix" result="effect1_dropShadow"/>
<feColorMatrix in="SourceAlpha" type="matrix" values="0 0 0 0 0 0 0 0 0 0 0 0 0 0 0 0 0 0 127 0"/>
<feOffset dx="20.0004" dy="20.0004"/>
<feGaussianBlur stdDeviation="10.0002"/>
<feColorMatrix type="matrix" values="0 0 0 0 0.160784 0 0 0 0 0.27451 0 0 0 0 0.32549 0 0 0 1 0"/>
<feBlend mode="normal" in2="effect1_dropShadow" result="effect2_dropShadow"/>
<feBlend mode="normal" in="SourceGraphic" in2="effect2_dropShadow" result="shape"/>
</filter>
<filter id="filter4_dd" x="2240.12" y="1720.49" width="596.078" height="414.919" filterUnits="userSpaceOnUse" color-interpolation-filters="sRGB">
<feFlood flood-opacity="0" result="BackgroundImageFix"/>
<feColorMatrix in="SourceAlpha" type="matrix" values="0 0 0 0 0 0 0 0 0 0 0 0 0 0 0 0 0 0 127 0"/>
<feOffset dy="8.00017"/>
<feGaussianBlur stdDeviation="4.00008"/>
<feColorMatrix type="matrix" values="0 0 0 0 0.243137 0 0 0 0 0.419608 0 0 0 0 0.494118 0 0 0 1 0"/>
<feBlend mode="normal" in2="BackgroundImageFix" result="effect1_dropShadow"/>
<feColorMatrix in="SourceAlpha" type="matrix" values="0 0 0 0 0 0 0 0 0 0 0 0 0 0 0 0 0 0 127 0"/>
<feOffset dx="20.0004" dy="20.0004"/>
<feGaussianBlur stdDeviation="10.0002"/>
<feColorMatrix type="matrix" values="0 0 0 0 0.160784 0 0 0 0 0.27451 0 0 0 0 0.32549 0 0 0 1 0"/>
<feBlend mode="normal" in2="effect1_dropShadow" result="effect2_dropShadow"/>
<feBlend mode="normal" in="SourceGraphic" in2="effect2_dropShadow" result="shape"/>
</filter>
<filter id="filter5_dd" x="3171.32" y="179.823" width="465.342" height="422.745" filterUnits="userSpaceOnUse" color-interpolation-filters="sRGB">
<feFlood flood-opacity="0" result="BackgroundImageFix"/>
<feColorMatrix in="SourceAlpha" type="matrix" values="0 0 0 0 0 0 0 0 0 0 0 0 0 0 0 0 0 0 127 0"/>
<feOffset dy="10.7917"/>
<feGaussianBlur stdDeviation="5.39586"/>
<feColorMatrix type="matrix" values="0 0 0 0 0.243137 0 0 0 0 0.419608 0 0 0 0 0.494118 0 0 0 1 0"/>
<feBlend mode="normal" in2="BackgroundImageFix" result="effect1_dropShadow"/>
<feColorMatrix in="SourceAlpha" type="matrix" values="0 0 0 0 0 0 0 0 0 0 0 0 0 0 0 0 0 0 127 0"/>
<feOffset dx="26.9793" dy="26.9793"/>
<feGaussianBlur stdDeviation="13.4897"/>
<feColorMatrix type="matrix" values="0 0 0 0 0.160784 0 0 0 0 0.27451 0 0 0 0 0.32549 0 0 0 1 0"/>
<feBlend mode="normal" in2="effect1_dropShadow" result="effect2_dropShadow"/>
<feBlend mode="normal" in="SourceGraphic" in2="effect2_dropShadow" result="shape"/>
</filter>
<filter id="filter6_dd" x="2527" y="1211.06" width="482.552" height="461.067" filterUnits="userSpaceOnUse" color-interpolation-filters="sRGB">
<feFlood flood-opacity="0" result="BackgroundImageFix"/>
<feColorMatrix in="SourceAlpha" type="matrix" values="0 0 0 0 0 0 0 0 0 0 0 0 0 0 0 0 0 0 127 0"/>
<feOffset dy="8.00017"/>
<feGaussianBlur stdDeviation="4.00008"/>
<feColorMatrix type="matrix" values="0 0 0 0 0.243137 0 0 0 0 0.419608 0 0 0 0 0.494118 0 0 0 1 0"/>
<feBlend mode="normal" in2="BackgroundImageFix" result="effect1_dropShadow"/>
<feColorMatrix in="SourceAlpha" type="matrix" values="0 0 0 0 0 0 0 0 0 0 0 0 0 0 0 0 0 0 127 0"/>
<feOffset dx="20.0004" dy="20.0004"/>
<feGaussianBlur stdDeviation="10.0002"/>
<feColorMatrix type="matrix" values="0 0 0 0 0.160784 0 0 0 0 0.27451 0 0 0 0 0.32549 0 0 0 1 0"/>
<feBlend mode="normal" in2="effect1_dropShadow" result="effect2_dropShadow"/>
<feBlend mode="normal" in="SourceGraphic" in2="effect2_dropShadow" result="shape"/>
</filter>
<filter id="filter7_dd" x="-11.2717" y="982.238" width="482.552" height="461.067" filterUnits="userSpaceOnUse" color-interpolation-filters="sRGB">
<feFlood flood-opacity="0" result="BackgroundImageFix"/>
<feColorMatrix in="SourceAlpha" type="matrix" values="0 0 0 0 0 0 0 0 0 0 0 0 0 0 0 0 0 0 127 0"/>
<feOffset dy="8.00017"/>
<feGaussianBlur stdDeviation="4.00008"/>
<feColorMatrix type="matrix" values="0 0 0 0 0.243137 0 0 0 0 0.419608 0 0 0 0 0.494118 0 0 0 1 0"/>
<feBlend mode="normal" in2="BackgroundImageFix" result="effect1_dropShadow"/>
<feColorMatrix in="SourceAlpha" type="matrix" values="0 0 0 0 0 0 0 0 0 0 0 0 0 0 0 0 0 0 127 0"/>
<feOffset dx="20.0004" dy="20.0004"/>
<feGaussianBlur stdDeviation="10.0002"/>
<feColorMatrix type="matrix" values="0 0 0 0 0.160784 0 0 0 0 0.27451 0 0 0 0 0.32549 0 0 0 1 0"/>
<feBlend mode="normal" in2="effect1_dropShadow" result="effect2_dropShadow"/>
<feBlend mode="normal" in="SourceGraphic" in2="effect2_dropShadow" result="shape"/>
</filter>
<filter id="filter8_dd" x="2302.52" y="716.073" width="343.824" height="360.531" filterUnits="userSpaceOnUse" color-interpolation-filters="sRGB">
<feFlood flood-opacity="0" result="BackgroundImageFix"/>
<feColorMatrix in="SourceAlpha" type="matrix" values="0 0 0 0 0 0 0 0 0 0 0 0 0 0 0 0 0 0 127 0"/>
<feOffset dy="6.04173"/>
<feGaussianBlur stdDeviation="3.02087"/>
<feColorMatrix type="matrix" values="0 0 0 0 0.243137 0 0 0 0 0.419608 0 0 0 0 0.494118 0 0 0 1 0"/>
<feBlend mode="normal" in2="BackgroundImageFix" result="effect1_dropShadow"/>
<feColorMatrix in="SourceAlpha" type="matrix" values="0 0 0 0 0 0 0 0 0 0 0 0 0 0 0 0 0 0 127 0"/>
<feOffset dx="15.1043" dy="15.1043"/>
<feGaussianBlur stdDeviation="7.55217"/>
<feColorMatrix type="matrix" values="0 0 0 0 0.160784 0 0 0 0 0.27451 0 0 0 0 0.32549 0 0 0 1 0"/>
<feBlend mode="normal" in2="effect1_dropShadow" result="effect2_dropShadow"/>
<feBlend mode="normal" in="SourceGraphic" in2="effect2_dropShadow" result="shape"/>
</filter>
<filter id="filter9_dd" x="593.425" y="533.836" width="327.754" height="305.925" filterUnits="userSpaceOnUse" color-interpolation-filters="sRGB">
<feFlood flood-opacity="0" result="BackgroundImageFix"/>
<feColorMatrix in="SourceAlpha" type="matrix" values="0 0 0 0 0 0 0 0 0 0 0 0 0 0 0 0 0 0 127 0"/>
<feOffset dy="5.32653"/>
<feGaussianBlur stdDeviation="2.66326"/>
<feColorMatrix type="matrix" values="0 0 0 0 0.243137 0 0 0 0 0.419608 0 0 0 0 0.494118 0 0 0 1 0"/>
<feBlend mode="normal" in2="BackgroundImageFix" result="effect1_dropShadow"/>
<feColorMatrix in="SourceAlpha" type="matrix" values="0 0 0 0 0 0 0 0 0 0 0 0 0 0 0 0 0 0 127 0"/>
<feOffset dx="13.3163" dy="13.3163"/>
<feGaussianBlur stdDeviation="6.65816"/>
<feColorMatrix type="matrix" values="0 0 0 0 0.160784 0 0 0 0 0.27451 0 0 0 0 0.32549 0 0 0 1 0"/>
<feBlend mode="normal" in2="effect1_dropShadow" result="effect2_dropShadow"/>
<feBlend mode="normal" in="SourceGraphic" in2="effect2_dropShadow" result="shape"/>
</filter>
<filter id="filter10_dd" x="-34.2602" y="31.877" width="601.784" height="578.599" filterUnits="userSpaceOnUse" color-interpolation-filters="sRGB">
<feFlood flood-opacity="0" result="BackgroundImageFix"/>
<feColorMatrix in="SourceAlpha" type="matrix" values="0 0 0 0 0 0 0 0 0 0 0 0 0 0 0 0 0 0 127 0"/>
<feOffset dy="10.7715"/>
<feGaussianBlur stdDeviation="5.38573"/>
<feColorMatrix type="matrix" values="0 0 0 0 0.243137 0 0 0 0 0.419608 0 0 0 0 0.494118 0 0 0 1 0"/>
<feBlend mode="normal" in2="BackgroundImageFix" result="effect1_dropShadow"/>
<feColorMatrix in="SourceAlpha" type="matrix" values="0 0 0 0 0 0 0 0 0 0 0 0 0 0 0 0 0 0 127 0"/>
<feOffset dx="26.9286" dy="26.9286"/>
<feGaussianBlur stdDeviation="13.4643"/>
<feColorMatrix type="matrix" values="0 0 0 0 0.160784 0 0 0 0 0.27451 0 0 0 0 0.32549 0 0 0 1 0"/>
<feBlend mode="normal" in2="effect1_dropShadow" result="effect2_dropShadow"/>
<feBlend mode="normal" in="SourceGraphic" in2="effect2_dropShadow" result="shape"/>
</filter>
<filter id="filter11_dd" x="1198.23" y="475.504" width="476.666" height="458.355" filterUnits="userSpaceOnUse" color-interpolation-filters="sRGB">
<feFlood flood-opacity="0" result="BackgroundImageFix"/>
<feColorMatrix in="SourceAlpha" type="matrix" values="0 0 0 0 0 0 0 0 0 0 0 0 0 0 0 0 0 0 127 0"/>
<feOffset dy="8.49382"/>
<feGaussianBlur stdDeviation="4.24691"/>
<feColorMatrix type="matrix" values="0 0 0 0 0.243137 0 0 0 0 0.419608 0 0 0 0 0.494118 0 0 0 1 0"/>
<feBlend mode="normal" in2="BackgroundImageFix" result="effect1_dropShadow"/>
<feColorMatrix in="SourceAlpha" type="matrix" values="0 0 0 0 0 0 0 0 0 0 0 0 0 0 0 0 0 0 127 0"/>
<feOffset dx="21.2346" dy="21.2346"/>
<feGaussianBlur stdDeviation="10.6173"/>
<feColorMatrix type="matrix" values="0 0 0 0 0.160784 0 0 0 0 0.27451 0 0 0 0 0.32549 0 0 0 1 0"/>
<feBlend mode="normal" in2="effect1_dropShadow" result="effect2_dropShadow"/>
<feBlend mode="normal" in="SourceGraphic" in2="effect2_dropShadow" result="shape"/>
</filter>
<filter id="filter12_dd" x="3093.36" y="807.538" width="435.054" height="558.997" filterUnits="userSpaceOnUse" color-interpolation-filters="sRGB">
<feFlood flood-opacity="0" result="BackgroundImageFix"/>
<feColorMatrix in="SourceAlpha" type="matrix" values="0 0 0 0 0 0 0 0 0 0 0 0 0 0 0 0 0 0 127 0"/>
<feOffset dy="8.00017"/>
<feGaussianBlur stdDeviation="4.00008"/>
<feColorMatrix type="matrix" values="0 0 0 0 0.243137 0 0 0 0 0.419608 0 0 0 0 0.494118 0 0 0 1 0"/>
<feBlend mode="normal" in2="BackgroundImageFix" result="effect1_dropShadow"/>
<feColorMatrix in="SourceAlpha" type="matrix" values="0 0 0 0 0 0 0 0 0 0 0 0 0 0 0 0 0 0 127 0"/>
<feOffset dx="20.0004" dy="20.0004"/>
<feGaussianBlur stdDeviation="10.0002"/>
<feColorMatrix type="matrix" values="0 0 0 0 0.160784 0 0 0 0 0.27451 0 0 0 0 0.32549 0 0 0 1 0"/>
<feBlend mode="normal" in2="effect1_dropShadow" result="effect2_dropShadow"/>
<feBlend mode="normal" in="SourceGraphic" in2="effect2_dropShadow" result="shape"/>
</filter>
<filter id="filter13_dd" x="973.707" y="1518.55" width="549.613" height="525.443" filterUnits="userSpaceOnUse" color-interpolation-filters="sRGB">
<feFlood flood-opacity="0" result="BackgroundImageFix"/>
<feColorMatrix in="SourceAlpha" type="matrix" values="0 0 0 0 0 0 0 0 0 0 0 0 0 0 0 0 0 0 127 0"/>
<feOffset dy="13.3578"/>
<feGaussianBlur stdDeviation="6.67892"/>
<feColorMatrix type="matrix" values="0 0 0 0 0.243137 0 0 0 0 0.419608 0 0 0 0 0.494118 0 0 0 1 0"/>
<feBlend mode="normal" in2="BackgroundImageFix" result="effect1_dropShadow"/>
<feColorMatrix in="SourceAlpha" type="matrix" values="0 0 0 0 0 0 0 0 0 0 0 0 0 0 0 0 0 0 127 0"/>
<feOffset dx="33.3946" dy="33.3946"/>
<feGaussianBlur stdDeviation="16.6973"/>
<feColorMatrix type="matrix" values="0 0 0 0 0.160784 0 0 0 0 0.27451 0 0 0 0 0.32549 0 0 0 1 0"/>
<feBlend mode="normal" in2="effect1_dropShadow" result="effect2_dropShadow"/>
<feBlend mode="normal" in="SourceGraphic" in2="effect2_dropShadow" result="shape"/>
</filter>
<filter id="filter14_dd" x="936.294" y="-8.54785" width="488.671" height="467.22" filterUnits="userSpaceOnUse" color-interpolation-filters="sRGB">
<feFlood flood-opacity="0" result="BackgroundImageFix"/>
<feColorMatrix in="SourceAlpha" type="matrix" values="0 0 0 0 0 0 0 0 0 0 0 0 0 0 0 0 0 0 127 0"/>
<feOffset dy="11.8491"/>
<feGaussianBlur stdDeviation="5.92455"/>
<feColorMatrix type="matrix" values="0 0 0 0 0.243137 0 0 0 0 0.419608 0 0 0 0 0.494118 0 0 0 1 0"/>
<feBlend mode="normal" in2="BackgroundImageFix" result="effect1_dropShadow"/>
<feColorMatrix in="SourceAlpha" type="matrix" values="0 0 0 0 0 0 0 0 0 0 0 0 0 0 0 0 0 0 127 0"/>
<feOffset dx="29.6228" dy="29.6228"/>
<feGaussianBlur stdDeviation="14.8114"/>
<feColorMatrix type="matrix" values="0 0 0 0 0.160784 0 0 0 0 0.27451 0 0 0 0 0.32549 0 0 0 1 0"/>
<feBlend mode="normal" in2="effect1_dropShadow" result="effect2_dropShadow"/>
<feBlend mode="normal" in="SourceGraphic" in2="effect2_dropShadow" result="shape"/>
</filter>
<filter id="filter15_dd" x="3187.62" y="1596.14" width="549.613" height="525.443" filterUnits="userSpaceOnUse" color-interpolation-filters="sRGB">
<feFlood flood-opacity="0" result="BackgroundImageFix"/>
<feColorMatrix in="SourceAlpha" type="matrix" values="0 0 0 0 0 0 0 0 0 0 0 0 0 0 0 0 0 0 127 0"/>
<feOffset dy="13.3578"/>
<feGaussianBlur stdDeviation="6.67892"/>
<feColorMatrix type="matrix" values="0 0 0 0 0.243137 0 0 0 0 0.419608 0 0 0 0 0.494118 0 0 0 1 0"/>
<feBlend mode="normal" in2="BackgroundImageFix" result="effect1_dropShadow"/>
<feColorMatrix in="SourceAlpha" type="matrix" values="0 0 0 0 0 0 0 0 0 0 0 0 0 0 0 0 0 0 127 0"/>
<feOffset dx="33.3946" dy="33.3946"/>
<feGaussianBlur stdDeviation="16.6973"/>
<feColorMatrix type="matrix" values="0 0 0 0 0.160784 0 0 0 0 0.27451 0 0 0 0 0.32549 0 0 0 1 0"/>
<feBlend mode="normal" in2="effect1_dropShadow" result="effect2_dropShadow"/>
<feBlend mode="normal" in="SourceGraphic" in2="effect2_dropShadow" result="shape"/>
</filter>
<filter id="filter16_dd" x="-39.9093" y="1643.11" width="599.251" height="575.428" filterUnits="userSpaceOnUse" color-interpolation-filters="sRGB">
<feFlood flood-opacity="0" result="BackgroundImageFix"/>
<feColorMatrix in="SourceAlpha" type="matrix" values="0 0 0 0 0 0 0 0 0 0 0 0 0 0 0 0 0 0 127 0"/>
<feOffset dy="11.4644"/>
<feGaussianBlur stdDeviation="5.73221"/>
<feColorMatrix type="matrix" values="0 0 0 0 0.243137 0 0 0 0 0.419608 0 0 0 0 0.494118 0 0 0 1 0"/>
<feBlend mode="normal" in2="BackgroundImageFix" result="effect1_dropShadow"/>
<feColorMatrix in="SourceAlpha" type="matrix" values="0 0 0 0 0 0 0 0 0 0 0 0 0 0 0 0 0 0 127 0"/>
<feOffset dx="28.6611" dy="28.6611"/>
<feGaussianBlur stdDeviation="14.3305"/>
<feColorMatrix type="matrix" values="0 0 0 0 0.160784 0 0 0 0 0.27451 0 0 0 0 0.32549 0 0 0 1 0"/>
<feBlend mode="normal" in2="effect1_dropShadow" result="effect2_dropShadow"/>
<feBlend mode="normal" in="SourceGraphic" in2="effect2_dropShadow" result="shape"/>
</filter>
<filter id="filter17_dd" x="1925.37" y="1525.47" width="278.437" height="294.903" filterUnits="userSpaceOnUse" color-interpolation-filters="sRGB">
<feFlood flood-opacity="0" result="BackgroundImageFix"/>
<feColorMatrix in="SourceAlpha" type="matrix" values="0 0 0 0 0 0 0 0 0 0 0 0 0 0 0 0 0 0 127 0"/>
<feOffset dy="6.50242"/>
<feGaussianBlur stdDeviation="3.25121"/>
<feColorMatrix type="matrix" values="0 0 0 0 0.243137 0 0 0 0 0.419608 0 0 0 0 0.494118 0 0 0 1 0"/>
<feBlend mode="normal" in2="BackgroundImageFix" result="effect1_dropShadow"/>
<feColorMatrix in="SourceAlpha" type="matrix" values="0 0 0 0 0 0 0 0 0 0 0 0 0 0 0 0 0 0 127 0"/>
<feOffset dx="16.256" dy="16.256"/>
<feGaussianBlur stdDeviation="8.12802"/>
<feColorMatrix type="matrix" values="0 0 0 0 0.160784 0 0 0 0 0.27451 0 0 0 0 0.32549 0 0 0 1 0"/>
<feBlend mode="normal" in2="effect1_dropShadow" result="effect2_dropShadow"/>
<feBlend mode="normal" in="SourceGraphic" in2="effect2_dropShadow" result="shape"/>
</filter>
<filter id="filter18_dd" x="1837.16" y="468.253" width="263.021" height="245.14" filterUnits="userSpaceOnUse" color-interpolation-filters="sRGB">
<feFlood flood-opacity="0" result="BackgroundImageFix"/>
<feColorMatrix in="SourceAlpha" type="matrix" values="0 0 0 0 0 0 0 0 0 0 0 0 0 0 0 0 0 0 127 0"/>
<feOffset dy="6.50242"/>
<feGaussianBlur stdDeviation="3.25121"/>
<feColorMatrix type="matrix" values="0 0 0 0 0.243137 0 0 0 0 0.419608 0 0 0 0 0.494118 0 0 0 1 0"/>
<feBlend mode="normal" in2="BackgroundImageFix" result="effect1_dropShadow"/>
<feColorMatrix in="SourceAlpha" type="matrix" values="0 0 0 0 0 0 0 0 0 0 0 0 0 0 0 0 0 0 127 0"/>
<feOffset dx="16.256" dy="16.256"/>
<feGaussianBlur stdDeviation="8.12802"/>
<feColorMatrix type="matrix" values="0 0 0 0 0.160784 0 0 0 0 0.27451 0 0 0 0 0.32549 0 0 0 1 0"/>
<feBlend mode="normal" in2="effect1_dropShadow" result="effect2_dropShadow"/>
<feBlend mode="normal" in="SourceGraphic" in2="effect2_dropShadow" result="shape"/>
</filter>
<linearGradient id="paint0_linear" x1="81.6594" y1="140" x2="3692.62" y2="2019.07" gradientUnits="userSpaceOnUse">
<stop stop-color="#0F2027"/>
<stop offset="0.567708" stop-color="#203A43"/>
<stop offset="1" stop-color="#2C5364"/>
</linearGradient>
<radialGradient id="paint1_radial" cx="0" cy="0" r="1" gradientUnits="userSpaceOnUse" gradientTransform="translate(1867 1097) rotate(-180) scale(1478.5)">
<stop stop-opacity="0"/>
<stop offset="1" stop-opacity="0.65"/>
</radialGradient>
<clipPath id="clip0">
<rect width="3733" height="2160" fill="white"/>
</clipPath>
</defs>
</svg>
