<svg width="1579" height="857" viewBox="0 0 1579 857" fill="none" xmlns="http://www.w3.org/2000/svg">
<path d="M817.754 506.302C860.858 506.302 895.8 471.36 895.8 428.256C895.8 385.152 860.858 350.21 817.754 350.21C774.65 350.21 739.708 385.152 739.708 428.256C739.708 471.36 774.65 506.302 817.754 506.302Z" fill="white"/>
<path d="M856.809 682.55C899.913 682.55 934.855 647.608 934.855 604.504C934.855 561.401 899.913 526.458 856.809 526.458C813.706 526.458 778.763 561.401 778.763 604.504C778.763 647.608 813.706 682.55 856.809 682.55Z" fill="white"/>
<path d="M893.75 856.344C936.854 856.344 971.796 821.401 971.796 778.298C971.796 735.194 936.854 700.252 893.75 700.252C850.647 700.252 815.704 735.194 815.704 778.298C815.704 821.401 850.647 856.344 893.75 856.344Z" fill="white"/>
<path d="M1043.51 682.292C1086.61 682.292 1121.56 647.349 1121.56 604.246C1121.56 561.142 1086.61 526.2 1043.51 526.2C1000.41 526.2 965.464 561.142 965.464 604.246C965.464 647.349 1000.41 682.292 1043.51 682.292Z" fill="white"/>
<path d="M1133.47 528.551C1176.57 528.551 1211.52 493.609 1211.52 450.505C1211.52 407.402 1176.57 372.459 1133.47 372.459C1090.37 372.459 1055.42 407.402 1055.42 450.505C1055.42 493.609 1090.37 528.551 1133.47 528.551Z" fill="white"/>
<path d="M1225.46 380.625C1268.57 380.625 1303.51 345.683 1303.51 302.579C1303.51 259.476 1268.57 224.533 1225.46 224.533C1182.36 224.533 1147.42 259.476 1147.42 302.579C1147.42 345.683 1182.36 380.625 1225.46 380.625Z" fill="white"/>
<path d="M1317.99 225.537C1361.09 225.537 1396.03 190.595 1396.03 147.491C1396.03 104.387 1361.09 69.4449 1317.99 69.4449C1274.88 69.4449 1239.94 104.387 1239.94 147.491C1239.94 190.595 1274.88 225.537 1317.99 225.537Z" fill="white"/>
<path d="M1500.77 231.192C1543.87 231.192 1578.81 196.25 1578.81 153.146C1578.81 110.042 1543.87 75.1 1500.77 75.1C1457.66 75.1 1422.72 110.042 1422.72 153.146C1422.72 196.25 1457.66 231.192 1500.77 231.192Z" fill="white"/>
<path d="M78.046 856.344C121.15 856.344 156.092 821.401 156.092 778.298C156.092 735.194 121.15 700.252 78.046 700.252C34.9424 700.252 0 735.194 0 778.298C0 821.401 34.9424 856.344 78.046 856.344Z" fill="white"/>
<path d="M114.987 682.55C158.091 682.55 193.033 647.608 193.033 604.504C193.033 561.401 158.091 526.458 114.987 526.458C71.8834 526.458 36.941 561.401 36.941 604.504C36.941 647.608 71.8834 682.55 114.987 682.55Z" fill="white"/>
<path d="M154.042 506.302C197.146 506.302 232.088 471.36 232.088 428.256C232.088 385.152 197.146 350.21 154.042 350.21C110.939 350.21 75.9963 385.152 75.9963 428.256C75.9963 471.36 110.939 506.302 154.042 506.302Z" fill="white"/>
<path d="M414.538 433.48C414.538 390.377 379.596 355.434 336.492 355.434C293.388 355.434 258.446 390.377 258.446 433.48C258.446 476.584 293.388 511.526 336.492 511.526C379.596 511.526 414.538 476.584 414.538 433.48Z" fill="white"/>
<path d="M592.213 433.48C592.213 390.377 557.27 355.434 514.167 355.434C471.063 355.434 436.121 390.377 436.121 433.48C436.121 476.584 471.063 511.526 514.167 511.526C557.27 511.526 592.213 476.584 592.213 433.48Z" fill="white"/>
<path d="M188.867 335.209C231.971 335.209 266.913 300.267 266.913 257.163C266.913 214.059 231.971 179.117 188.867 179.117C145.763 179.117 110.821 214.059 110.821 257.163C110.821 300.267 145.763 335.209 188.867 335.209Z" fill="white"/>
<path d="M225.808 161.174C268.912 161.174 303.854 126.232 303.854 83.1281C303.854 40.0245 268.912 5.08215 225.808 5.08215C182.704 5.08215 147.762 40.0245 147.762 83.1281C147.762 126.232 182.704 161.174 225.808 161.174Z" fill="white"/>
<path d="M486.925 78.046C486.925 34.9424 451.982 0 408.879 0C365.775 0 330.833 34.9424 330.833 78.046C330.833 121.15 365.775 156.092 408.879 156.092C451.982 156.092 486.925 121.15 486.925 78.046Z" fill="white"/>
<path d="M664.599 78.046C664.599 34.9424 629.657 0 586.553 0C543.45 0 508.508 34.9424 508.508 78.046C508.508 121.15 543.45 156.092 586.553 156.092C629.657 156.092 664.599 121.15 664.599 78.046Z" fill="white"/>
<path d="M842.273 78.046C842.273 34.9424 807.331 0 764.227 0C721.124 0 686.181 34.9424 686.181 78.046C686.181 121.15 721.124 156.092 764.227 156.092C807.331 156.092 842.273 121.15 842.273 78.046Z" fill="white"/>
</svg>
