<svg width="175" height="48" viewBox="0 0 175 48" fill="none" xmlns="http://www.w3.org/2000/svg">
<path d="M40.0396 9.19604H10.5029V38.7327H40.0396V9.19604Z" fill="#27AE60"/>
<path d="M62.9226 38.7327C71.0592 38.7327 77.6553 32.1366 77.6553 24C77.6553 15.8634 71.0592 9.26733 62.9226 9.26733C54.786 9.26733 48.1899 15.8634 48.1899 24C48.1899 32.1366 54.786 38.7327 62.9226 38.7327Z" fill="#EC615B"/>
<path d="M85.9007 7.03357L115.271 23.9999L85.9007 40.9662L85.9007 7.03357Z" fill="#2F80ED"/>
<path d="M148.135 13.901C144.071 13.901 140.792 17.1802 140.792 21.2436C140.792 25.3069 144.071 28.5862 148.135 28.5862C152.198 28.5862 155.477 25.3069 155.477 21.2436C155.477 17.1802 152.174 13.901 148.135 13.901Z" fill="#F6C828"/>
<path d="M172.871 0H126.891H0V48H126.891H172.871H174.653V0H172.871ZM124.515 45.6238H2.13861V2.13861H124.515V45.6238ZM165.149 36.6416L163.533 38.2574C163.01 38.804 162.131 38.804 161.584 38.2574L155.834 32.5545C155.572 32.2931 155.406 31.9366 155.406 31.5802V30.6535C153.267 32.2455 150.867 33.1723 148.111 33.1723C141.529 33.1723 136.206 27.8257 136.206 21.2436C136.206 14.6614 141.552 9.31485 148.135 9.31485C154.717 9.31485 160.063 14.6139 160.063 21.196C160.063 23.9762 159.137 26.5901 157.545 28.4911H158.471C158.828 28.4911 159.184 28.6574 159.446 28.9188L165.149 34.6455C165.695 35.2158 165.695 36.1188 165.149 36.6416Z" fill="#F6C828"/>
</svg>
