<svg width="52" height="53" viewBox="0 0 52 53" fill="none" xmlns="http://www.w3.org/2000/svg">
<path fill-rule="evenodd" clip-rule="evenodd" d="M0.305664 0.525269H52V52.2196H0.305664V0.525269ZM30.8738 32.656C28.8335 34.2698 26.5439 35.2092 23.9142 35.2092C17.6347 35.2092 12.5566 29.7897 12.5566 23.1177C12.5566 16.4457 17.6573 11.0262 23.9369 11.0262C30.2164 11.0262 35.3171 16.3976 35.3171 23.0696C35.3171 25.8877 34.433 28.5372 32.9141 30.4641H33.7982C34.1383 30.4641 34.4783 30.6328 34.7277 30.8977L40.1684 36.7026C40.6898 37.2807 40.6898 38.196 40.1684 38.7259L38.6269 40.3638C38.1281 40.9177 37.2894 40.9177 36.7679 40.3638L31.2819 34.583C31.0325 34.318 30.8738 33.9567 30.8738 33.5954V32.656ZM30.9418 23.1177C30.9418 18.9989 27.7907 15.675 23.9369 15.675C20.0603 15.675 16.9319 18.9989 16.9319 23.1177C16.9319 27.2365 20.0603 30.5605 23.9369 30.5605C27.8134 30.5605 30.9418 27.2365 30.9418 23.1177Z" fill="#F6C828"/>
</svg>
